<?xml version="1.0" encoding="UTF-8" standalone="no"?>
<!DOCTYPE svg PUBLIC "-//W3C//DTD SVG 1.1//EN" "http://www.w3.org/Graphics/SVG/1.1/DTD/svg11.dtd">
<svg width="100%" height="100%" viewBox="0 0 1009 336" version="1.1" xmlns="http://www.w3.org/2000/svg" xmlns:xlink="http://www.w3.org/1999/xlink" xml:space="preserve" xmlns:serif="http://www.serif.com/" style="fill-rule:evenodd;clip-rule:evenodd;stroke-linejoin:round;stroke-miterlimit:2;">
    <g>
        <g transform="matrix(0.00999925,0,0,0.00999964,0,0)">
            <path d="M17521,7329L17592,7295L17585,7299L17653,7257L17649,7260L17713,7213L17708,7217L17768,7163L17762,7168L17870,7045L17864,7054L17951,6914L17947,6922L17982,6846L17980,6850L18009,6771L18007,6776L18030,6695L18029,6701L18045,6618L18044,6623L18053,6538L18053,6545L18054,6460L18054,6465L18048,6379L18049,6386L18034,6299L18035,6306L18011,6221L18013,6226L17981,6141L17984,6147L17942,6063L17945,6069L17894,5988L17898,5993L17837,5914L17841,5919L17769,5843L17773,5847L17691,5774L17696,5778L17602,5709L17606,5712L17501,5647L17506,5650L17390,5591L17394,5593L17265,5538L17270,5540L17128,5492L17132,5493L16978,5450L16982,5451L16814,5416L16817,5416L16636,5388L16640,5389L16445,5369L16448,5369L16252,5358L16254,5358L16072,5355L16076,5355L15906,5362L15910,5362L15753,5377L15757,5376L15612,5399L15616,5398L15483,5428L15488,5427L15367,5464L15373,5462L15264,5507L15269,5505L15171,5555L15177,5551L15091,5607L15097,5603L15022,5665L15027,5660L14962,5726L14968,5719L14915,5790L14919,5784L14875,5860L14879,5852L14846,5931L14849,5923L14827,6005L14828,5998L14814,6083L14815,6075L14812,6162L14812,6155L14818,6245L14817,6239L14832,6330L14831,6324L14855,6416L14853,6410L14886,6503L14884,6499L14925,6592L14923,6587L14973,6680L14971,6676L15029,6769L15021,6759L15151,6897L15054,6988L14919,6845L14857,6745L14805,6648L14761,6550L14727,6452L14701,6354L14685,6257L14679,6161L14682,6066L14697,5973L14721,5884L14758,5797L14806,5714L14864,5636L14934,5564L15015,5498L15107,5438L15211,5385L15325,5338L15451,5299L15589,5268L15738,5244L15899,5229L16073,5222L16258,5225L16457,5236L16655,5256L16839,5285L17011,5321L17169,5365L17315,5414L17449,5471L17569,5532L17679,5600L17777,5673L17864,5750L17940,5830L18005,5914L18060,6001L18105,6091L18139,6182L18165,6273L18181,6366L18187,6459L18186,6549L18176,6640L18159,6729L18135,6815L18104,6899L18066,6981L17974,7129L17860,7259L17795,7318L17726,7369L17652,7414L17578,7450L17521,7329ZM15280,6560L15586,7400L14730,7141L15280,6560Z" style="fill-rule:nonzero;stroke:black;stroke-width:1px;"/>
        </g>
        <g transform="matrix(0.00999925,0,0,0.00999964,0,0)">
            <rect x="16264" y="5080" width="480" height="608" style="fill:white;"/>
        </g>
        <rect x="0" y="0" width="1008.25" height="335.028" style="fill:none;"/>
        <g transform="matrix(0.159988,0,0,0.159994,255.585,93.1028)">
            <g transform="matrix(133,0,0,133,66.5,0)">
            </g>
            <text x="0px" y="0px" style="font-family:'ArialMT', 'Arial';font-size:133px;fill:rgb(0,112,192);">x</text>
        </g>
        <g transform="matrix(0.00999925,0,0,0.00999964,0,0)">
            <path d="M16364,20154L2307,20033L2308,19900L16365,20020L16364,20154ZM2437,20367L1640,19960L2444,19567L2437,20367Z" style="fill:rgb(0,176,80);fill-rule:nonzero;stroke:rgb(0,176,80);stroke-width:1px;"/>
        </g>
        <g transform="matrix(0.00999925,0,0,0.00999964,0,0)">
            <path d="M16501,20055L26639,10905L26550,10806L16412,19956L16501,20055ZM26763,11241L27089,10408L26227,10648L26763,11241Z" style="fill:rgb(0,112,192);fill-rule:nonzero;stroke:rgb(0,112,192);stroke-width:1px;"/>
        </g>
        <g transform="matrix(0.00999925,0,0,0.00999964,0,0)">
            <path d="M16507,19331L16644,4244L16510,4242L16374,19329L16507,19331ZM16976,4380L16583,3576L16176,4373L16976,4380Z" style="fill:rgb(192,0,0);fill-rule:nonzero;stroke:rgb(192,0,0);stroke-width:1px;"/>
        </g>
        <g transform="matrix(0.159988,0,0,0.159994,154.953,27.3219)">
            <g transform="matrix(133,0,0,133,66.5,0)">
            </g>
            <text x="0px" y="0px" style="font-family:'ArialMT', 'Arial';font-size:133px;fill:rgb(192,0,0);">z</text>
        </g>
        <g transform="matrix(0.159988,0,0,0.159994,171.592,27.3219)">
            <g transform="matrix(133,0,0,133,212.524,0)">
            </g>
            <text x="0px" y="0px" style="font-family:'ArialMT', 'Arial';font-size:133px;fill:rgb(192,0,0);">=<tspan x="77.998px 115.976px 182.976px " y="0px 0px 0px "> z‘</tspan></text>
        </g>
        <g transform="matrix(0.159988,0,0,0.159994,12.8238,192.144)">
            <g transform="matrix(133,0,0,133,66.5,0)">
            </g>
            <text x="0px" y="0px" style="font-family:'ArialMT', 'Arial';font-size:133px;fill:rgb(0,176,80);">y</text>
        </g>
        <g transform="matrix(0.00999925,0,0,0.00999964,0,0)">
            <path d="M16516,20116L16667,19896L16612,19858L16461,20078L16516,20116ZM16780,19731L16931,19511L16876,19474L16725,19693L16780,19731ZM17044,19346L17195,19127L17140,19089L16989,19309L17044,19346ZM17309,18962L17460,18742L17405,18704L17254,18924L17309,18962ZM17573,18577L17724,18357L17669,18320L17518,18539L17573,18577ZM17837,18193L17988,17973L17933,17935L17782,18155L17837,18193ZM18101,17808L18252,17588L18198,17550L18047,17770L18101,17808ZM18366,17423L18517,17204L18462,17166L18311,17386L18366,17423ZM18630,17039L18781,16819L18726,16781L18575,17001L18630,17039ZM18894,16654L19045,16434L18990,16396L18839,16616L18894,16654ZM19158,16269L19309,16050L19255,16012L19104,16232L19158,16269ZM19423,15885L19574,15665L19519,15627L19368,15847L19423,15885ZM19687,15500L19838,15280L19783,15243L19632,15462L19687,15500ZM19951,15115L20102,14896L20047,14858L19896,15078L19951,15115ZM20216,14731L20367,14511L20312,14473L20161,14693L20216,14731ZM20480,14346L20631,14126L20576,14089L20425,14308L20480,14346ZM20744,13962L20895,13742L20840,13704L20689,13924L20744,13962ZM21008,13577L21159,13357L21104,13319L20953,13539L21008,13577ZM21273,13192L21424,12972L21369,12935L21218,13155L21273,13192ZM21537,12808L21688,12588L21633,12550L21482,12770L21537,12808ZM21801,12423L21952,12203L21897,12165L21746,12385L21801,12423ZM22065,12038L22216,11819L22161,11781L22010,12001L22065,12038ZM22330,11654L22481,11434L22426,11396L22275,11616L22330,11654ZM22594,11269L22745,11049L22690,11012L22539,11231L22594,11269ZM22858,10884L23009,10665L22954,10627L22803,10847L22858,10884ZM23122,10500L23273,10280L23218,10242L23067,10462L23122,10500ZM23387,10115L23538,9895L23483,9858L23332,10077L23387,10115ZM23651,9731L23802,9511L23747,9473L23596,9693L23651,9731ZM24033,9822L24156,8936L23373,9369L24033,9822Z" style="fill:rgb(0,112,192);fill-rule:nonzero;stroke:rgb(0,112,192);stroke-width:1px;"/>
        </g>
        <g transform="matrix(0.00999925,0,0,0.00999964,0,0)">
            <path d="M16412,20136L16149,20180L16160,20246L16423,20201L16412,20136ZM15952,20213L15689,20258L15700,20323L15963,20279L15952,20213ZM15492,20291L15229,20335L15240,20401L15503,20357L15492,20291ZM15032,20368L14769,20413L14780,20478L15043,20434L15032,20368ZM14571,20446L14308,20490L14319,20556L14582,20512L14571,20446ZM14111,20524L13848,20568L13859,20634L14122,20589L14111,20524ZM13651,20601L13388,20646L13399,20711L13662,20667L13651,20601ZM13191,20679L12928,20723L12939,20789L13202,20744L13191,20679ZM12731,20756L12468,20801L12479,20866L12742,20822L12731,20756ZM12270,20834L12008,20878L12019,20944L12282,20900L12270,20834ZM11810,20912L11547,20956L11558,21022L11821,20977L11810,20912ZM11350,20989L11087,21033L11098,21099L11361,21055L11350,20989ZM10890,21067L10627,21111L10638,21177L10901,21132L10890,21067ZM10430,21144L10167,21189L10178,21254L10441,21210L10430,21144ZM9970,21222L9707,21266L9718,21332L9981,21288L9970,21222ZM9509,21300L9247,21344L9258,21410L9521,21365L9509,21300ZM9049,21377L8786,21421L8797,21487L9060,21443L9049,21377ZM8589,21455L8326,21499L8337,21565L8600,21520L8589,21455ZM8129,21532L7866,21577L7877,21642L8140,21598L8129,21532ZM7669,21610L7406,21654L7417,21720L7680,21676L7669,21610ZM7209,21688L6946,21732L6957,21798L7220,21753L7209,21688ZM6748,21765L6485,21809L6497,21875L6760,21831L6748,21765ZM6288,21843L6025,21887L6036,21953L6299,21908L6288,21843ZM5828,21920L5565,21965L5576,22030L5839,21986L5828,21920ZM5368,21998L5105,22042L5116,22108L5379,22064L5368,21998ZM4908,22075L4645,22120L4656,22186L4919,22141L4908,22075ZM4448,22153L4185,22197L4196,22263L4459,22219L4448,22153ZM3987,22231L3724,22275L3736,22341L3999,22296L3987,22231ZM3527,22308L3264,22353L3275,22418L3538,22374L3527,22308ZM3067,22386L2980,22401L2991,22466L3078,22452L3067,22386ZM3051,22017L2328,22544L3184,22806L3051,22017Z" style="fill:rgb(0,176,80);fill-rule:nonzero;stroke:rgb(0,176,80);stroke-width:1px;"/>
        </g>
        <g transform="matrix(0.00999925,0,0,0.00999964,0,0)">
            <path d="M15672,20120C15672,19679 16013,19320 16432,19320C16852,19320 17192,19679 17192,20120C17192,20562 16852,20920 16432,20920C16013,20920 15672,20562 15672,20120" style="fill:rgb(68,114,196);"/>
        </g>
        <g transform="matrix(0.00999925,0,0,0.00999964,0,0)">
            <path d="M15672,20120C15672,19679 16013,19320 16432,19320C16852,19320 17192,19679 17192,20120C17192,20562 16852,20920 16432,20920C16013,20920 15672,20562 15672,20120" style="fill:none;stroke:rgb(47,82,143);stroke-width:133px;stroke-linejoin:miter;stroke-miterlimit:8;"/>
        </g>
        <g transform="matrix(0.159988,0,0,0.159994,226.97,84.0653)">
            <g transform="matrix(133,0,0,133,66.5,0)">
            </g>
            <text x="0px" y="0px" style="font-family:'ArialMT', 'Arial';font-size:133px;fill:rgb(0,112,192);">x</text>
        </g>
        <g transform="matrix(0.159988,0,0,0.159994,237.529,84.0653)">
            <g transform="matrix(133,0,0,133,29.5483,0)">
            </g>
            <text x="0px" y="0px" style="font-family:'ArialMT', 'Arial';font-size:133px;fill:rgb(0,112,192);">‘</text>
        </g>
        <g transform="matrix(0.159988,0,0,0.159994,14.4404,246.056)">
            <g transform="matrix(133,0,0,133,94.5483,0)">
            </g>
            <text x="0px" y="0px" style="font-family:'ArialMT', 'Arial';font-size:133px;fill:rgb(0,176,80);">y<tspan x="65px " y="0px ">‘</tspan></text>
        </g>
        <g transform="matrix(0.159988,0,0,0.159994,67.8006,43.637)">
            <g transform="matrix(133,0,0,133,235.069,0)">
            </g>
            <text x="0px" y="0px" style="font-family:'ArialMT', 'Arial';font-size:133px;">y<tspan x="65px " y="0px ">a</tspan>w</text>
        </g>
        <g transform="matrix(0.00999925,0,0,0.00999964,0,0)">
            <path d="M21622,13938L21774,13997L21963,14092L22147,14196L22325,14308L22496,14425L22459,14480L22288,14363L22289,14364L22112,14253L22113,14253L21931,14150L21932,14151L21745,14057L21748,14059L21598,14000L21622,13938ZM21594,14390L20986,13733L21876,13642L21594,14390Z" style="fill-rule:nonzero;stroke:black;stroke-width:1px;"/>
        </g>
        <g transform="matrix(0.00999925,0,0,0.00999964,0,0)">
            <path d="M7232,21071L7236,20912L7266,20703L7305,20496L7354,20293L7414,20094L7477,20113L7418,20311L7419,20309L7370,20511L7370,20510L7331,20715L7331,20713L7302,20919L7303,20915L7298,21073L7232,21071ZM7667,20945L7254,21738L6867,20932L7667,20945Z" style="fill-rule:nonzero;stroke:black;stroke-width:1px;"/>
        </g>
        <g transform="matrix(0.0199985,0,0,0.0199993,0,0)">
            <path d="M20731,9591L20720,9504L20721,9505L20708,9427L20708,9429L20694,9361L20694,9363L20679,9304L20680,9307L20663,9257L20664,9260L20646,9219L20648,9222L20629,9189L20632,9193L20613,9168L20617,9173L20597,9156L20604,9161L20583,9151L20592,9153L20571,9150L20580,9150L20558,9153L20567,9151L20545,9160L20550,9157L20528,9171L20532,9168L20509,9189L20511,9187L20488,9212L20490,9209L20468,9239L20469,9237L20447,9271L20448,9270L20426,9308L20427,9306L20405,9348L20406,9347L20385,9392L20385,9391L20365,9438L20365,9437L20327,9540L20327,9538L20293,9648L20293,9646L20263,9761L20264,9759L20239,9875L20239,9874L20221,9989L20222,9987L20211,10104L20211,10102L20206,10225L20206,10223L20208,10348L20208,10346L20216,10467L20216,10465L20231,10579L20230,10578L20240,10631L20240,10630L20251,10680L20250,10678L20263,10724L20262,10722L20276,10764L20276,10762L20291,10800L20290,10796L20307,10828L20305,10825L20324,10851L20319,10846L20340,10866L20334,10861L20356,10874L20346,10871L20370,10876L20359,10875L20384,10873L20374,10876L20400,10865L20394,10868L20421,10849L20417,10852L20447,10823L20444,10826L20474,10787L20473,10790L20505,10741L20503,10743L20537,10682L20536,10684L20571,10612L20570,10615L20609,10516L20671,10540L20631,10640L20596,10714L20561,10776L20528,10827L20495,10869L20462,10902L20429,10925L20395,10939L20359,10942L20326,10934L20297,10917L20271,10892L20250,10862L20230,10827L20214,10787L20199,10743L20186,10695L20174,10643L20164,10588L20150,10472L20141,10349L20140,10223L20144,10099L20155,9979L20174,9862L20199,9745L20229,9629L20264,9517L20303,9413L20324,9364L20346,9318L20368,9275L20391,9236L20414,9199L20438,9168L20463,9140L20489,9117L20516,9099L20545,9088L20576,9083L20608,9088L20637,9102L20663,9125L20686,9154L20707,9190L20726,9234L20743,9287L20759,9347L20773,9416L20786,9495L20798,9582L20731,9591ZM20429,10522L20755,10215L20805,10659L20429,10522Z" style="fill-rule:nonzero;stroke:black;stroke-width:1px;"/>
        </g>
        <g transform="matrix(0.0199985,0,0,0.0199993,0,0)">
            <rect x="20076" y="9836" width="240" height="312" style="fill:white;"/>
        </g>
        <g transform="matrix(0.159988,0,0,0.159994,600.791,99.1118)">
            <g transform="matrix(133,0,0,133,66.5,0)">
            </g>
            <text x="0px" y="0px" style="font-family:'ArialMT', 'Arial';font-size:133px;fill:rgb(0,112,192);">x</text>
        </g>
        <g transform="matrix(0.159988,0,0,0.159994,611.35,99.1118)">
            <g transform="matrix(133,0,0,133,29.5483,0)">
            </g>
            <text x="0px" y="0px" style="font-family:'ArialMT', 'Arial';font-size:133px;fill:rgb(0,112,192);">‘</text>
        </g>
        <g transform="matrix(0.0199985,0,0,0.0199993,0,0)">
            <path d="M24830,10077L17801,10017L17802,9950L24831,10010L24830,10077ZM17867,10184L17468,9980L17870,9784L17867,10184Z" style="fill:rgb(0,176,80);fill-rule:nonzero;stroke:rgb(0,176,80);stroke-width:1px;"/>
        </g>
        <g transform="matrix(0.0199985,0,0,0.0199993,0,0)">
            <path d="M24899,10028L29968,5453L29923,5403L24854,9978L24899,10028ZM30030,5621L30193,5204L29762,5324L30030,5621Z" style="fill:rgb(0,112,192);fill-rule:nonzero;stroke:rgb(0,112,192);stroke-width:1px;"/>
        </g>
        <g transform="matrix(0.0199985,0,0,0.0199993,0,0)">
            <path d="M24902,9659L24941,2090L24874,2090L24835,9658L24902,9659ZM25107,2158L24910,1756L24707,2155L25107,2158Z" style="fill:rgb(192,0,0);fill-rule:nonzero;stroke:rgb(192,0,0);stroke-width:1px;"/>
        </g>
        <g transform="matrix(0.159988,0,0,0.159994,487.92,27.3219)">
            <g transform="matrix(133,0,0,133,96.5483,0)">
            </g>
            <text x="0px" y="0px" style="font-family:'ArialMT', 'Arial';font-size:133px;fill:rgb(192,0,0);">z<tspan x="67px " y="0px ">‘</tspan></text>
        </g>
        <g transform="matrix(0.159988,0,0,0.159994,316.348,188.884)">
            <g transform="matrix(133,0,0,133,369.143,0)">
            </g>
            <text x="0px" y="0px" style="font-family:'ArialMT', 'Arial';font-size:133px;fill:rgb(0,176,80);">y<tspan x="65px 95.022px 133px 210.998px 248.976px 313.976px 339.595px " y="0px 0px 0px 0px 0px 0px 0px ">‘ = y‘‘</tspan></text>
        </g>
        <g transform="matrix(0.0199985,0,0,0.0199993,0,0)">
            <path d="M24902,10062L25013,9988L24995,9961L24883,10034L24902,10062ZM25097,9934L25208,9860L25190,9832L25078,9906L25097,9934ZM25291,9805L25403,9732L25384,9704L25273,9777L25291,9805ZM25486,9677L25598,9604L25579,9576L25468,9649L25486,9677ZM25681,9549L25793,9475L25774,9447L25663,9521L25681,9549ZM25876,9420L25987,9347L25969,9319L25858,9392L25876,9420ZM26071,9292L26182,9219L26164,9191L26053,9264L26071,9292ZM26266,9164L26377,9090L26359,9063L26248,9136L26266,9164ZM26461,9035L26572,8962L26554,8934L26442,9008L26461,9035ZM26656,8907L26767,8834L26749,8806L26637,8879L26656,8907ZM26851,8779L26962,8706L26944,8678L26832,8751L26851,8779ZM27045,8651L27157,8577L27139,8549L27027,8623L27045,8651ZM27240,8522L27352,8449L27333,8421L27222,8494L27240,8522ZM27435,8394L27547,8321L27528,8293L27417,8366L27435,8394ZM27630,8266L27742,8192L27723,8165L27612,8238L27630,8266ZM27825,8137L27936,8064L27918,8036L27807,8110L27825,8137ZM28020,8009L28131,7936L28113,7908L28002,7981L28020,8009ZM28215,7881L28326,7807L28308,7780L28197,7853L28215,7881ZM28410,7753L28521,7679L28503,7651L28391,7725L28410,7753ZM28605,7624L28716,7551L28698,7523L28586,7596L28605,7624ZM28800,7496L28911,7423L28893,7395L28781,7468L28800,7496ZM28994,7368L29106,7294L29087,7266L28976,7340L28994,7368ZM29189,7239L29301,7166L29282,7138L29171,7211L29189,7239ZM29384,7111L29496,7038L29477,7010L29366,7083L29384,7111ZM29579,6983L29691,6909L29672,6882L29561,6955L29579,6983ZM29774,6854L29885,6781L29867,6753L29756,6827L29774,6854ZM29969,6726L30080,6653L30062,6625L29951,6698L29969,6726ZM30164,6598L30275,6525L30257,6497L30146,6570L30164,6598ZM30398,6663L30622,6276L30178,6329L30398,6663Z" style="fill:rgb(0,112,192);fill-rule:nonzero;stroke:rgb(0,112,192);stroke-width:1px;"/>
        </g>
        <g transform="matrix(0.0199985,0,0,0.0199993,0,0)">
            <path d="M24877,10087L24898,9955L24865,9950L24844,10081L24877,10087ZM24914,9856L24935,9724L24902,9719L24881,9851L24914,9856ZM24951,9626L24972,9494L24939,9489L24918,9620L24951,9626ZM24988,9395L25009,9264L24976,9258L24955,9390L24988,9395ZM25025,9165L25046,9033L25013,9028L24992,9160L25025,9165ZM25062,8935L25083,8803L25050,8798L25029,8929L25062,8935ZM25099,8704L25120,8573L25087,8567L25066,8699L25099,8704ZM25136,8474L25157,8342L25124,8337L25103,8469L25136,8474ZM25173,8243L25194,8112L25161,8106L25140,8238L25173,8243ZM25210,8013L25231,7881L25198,7876L25177,8008L25210,8013ZM25247,7783L25268,7651L25235,7646L25214,7777L25247,7783ZM25284,7552L25305,7421L25272,7415L25251,7547L25284,7552ZM25321,7322L25342,7190L25309,7185L25288,7317L25321,7322ZM25358,7091L25379,6960L25346,6955L25325,7086L25358,7091ZM25394,6861L25416,6729L25383,6724L25362,6856L25394,6861ZM25431,6631L25453,6499L25420,6494L25399,6625L25431,6631ZM25468,6400L25490,6269L25457,6263L25436,6395L25468,6400ZM25505,6170L25527,6038L25494,6033L25472,6165L25505,6170ZM25542,5940L25564,5808L25531,5803L25509,5934L25542,5940ZM25579,5709L25600,5578L25568,5572L25546,5704L25579,5709ZM25616,5479L25637,5347L25605,5342L25583,5474L25616,5479ZM25653,5248L25674,5117L25642,5111L25620,5243L25653,5248ZM25690,5018L25711,4886L25678,4881L25657,5013L25690,5018ZM25727,4788L25748,4656L25715,4651L25694,4782L25727,4788ZM25764,4557L25785,4426L25752,4420L25731,4552L25764,4557ZM25801,4327L25822,4195L25789,4190L25768,4322L25801,4327ZM25838,4096L25859,3965L25826,3960L25805,4091L25838,4096ZM25875,3866L25896,3734L25863,3729L25842,3861L25875,3866ZM25912,3636L25933,3504L25900,3499L25879,3630L25912,3636ZM25949,3405L25970,3274L25937,3268L25916,3400L25949,3405ZM25986,3175L26007,3043L25974,3038L25953,3170L25986,3175ZM26023,2945L26044,2813L26011,2808L25990,2939L26023,2945ZM26226,2839L26092,2412L25831,2776L26226,2839Z" style="fill:rgb(192,0,0);fill-rule:nonzero;stroke:rgb(192,0,0);stroke-width:1px;"/>
        </g>
        <g transform="matrix(0.0199985,0,0,0.0199993,0,0)">
            <path d="M24484,10060C24484,9840 24655,9660 24864,9660C25074,9660 25244,9840 25244,10060C25244,10281 25074,10460 24864,10460C24655,10460 24484,10281 24484,10060" style="fill:rgb(68,114,196);"/>
        </g>
        <g transform="matrix(0.0199985,0,0,0.0199993,0,0)">
            <path d="M24484,10060C24484,9840 24655,9660 24864,9660C25074,9660 25244,9840 25244,10060C25244,10281 25074,10460 24864,10460C24655,10460 24484,10281 24484,10060" style="fill:none;stroke:rgb(47,82,143);stroke-width:67px;stroke-linejoin:miter;stroke-miterlimit:8;"/>
        </g>
        <g transform="matrix(0.159988,0,0,0.159994,617.22,140.287)">
            <g transform="matrix(133,0,0,133,95.5483,0)">
            </g>
            <text x="0px" y="0px" style="font-family:'ArialMT', 'Arial';font-size:133px;fill:rgb(0,112,192);">x<tspan x="66px " y="0px ">‘</tspan></text>
        </g>
        <g transform="matrix(0.159988,0,0,0.159994,632.258,140.287)">
            <g transform="matrix(133,0,0,133,29.5483,0)">
            </g>
            <text x="0px" y="0px" style="font-family:'ArialMT', 'Arial';font-size:133px;fill:rgb(0,112,192);">‘</text>
        </g>
        <g transform="matrix(0.0199985,0,0,0.0199993,0,0)">
            <path d="M28755,6543L28835,6607L28913,6676L28988,6749L29061,6826L29113,6893L29086,6913L29035,6847L29036,6848L28964,6772L28964,6773L28890,6700L28890,6701L28813,6632L28813,6633L28734,6568L28755,6543ZM29219,6730L29300,7169L28900,6970L29219,6730Z" style="fill-rule:nonzero;stroke:black;stroke-width:1px;"/>
        </g>
        <g transform="matrix(0.159988,0,0,0.159994,411.533,172.282)">
            <g transform="matrix(133,0,0,133,281.989,0)">
            </g>
            <text x="0px" y="0px" style="font-family:'ArialMT', 'Arial';font-size:133px;">pi<tspan x="104.043px 141.02px 208.02px " y="0px 0px 0px ">tch</tspan></text>
        </g>
        <g transform="matrix(0.0199985,0,0,0.0199993,0,0)">
            <path d="M24971,4293L25074,4296L25178,4304L25282,4316L25387,4334L25468,4356L25459,4388L25379,4367L25380,4367L25277,4349L25277,4350L25174,4337L25175,4337L25072,4329L24970,4326L24971,4293ZM25454,4162L25784,4463L25345,4546L25454,4162Z" style="fill-rule:nonzero;stroke:black;stroke-width:1px;"/>
        </g>
        <g transform="matrix(0.159988,0,0,0.159994,527.527,50.3983)">
            <g transform="matrix(150,0,0,150,135.64,0)">
            </g>
            <text x="0px" y="0px" style="font-family:'ArialMT', 'Arial';font-size:150px;fill:rgb(192,0,0);">z‘<tspan x="102.315px " y="0px ">‘</tspan></text>
        </g>
        <g transform="matrix(0.039997,0,0,0.0399986,0,0)">
            <path d="M22142,3391L22114,3373L22119,3375L22098,3372L22101,3372L22082,3371L22085,3371L22069,3374L22072,3373L22058,3379L22061,3377L22048,3386L22051,3383L22040,3395L22042,3392L22033,3406L22034,3404L22027,3420L22027,3417L22022,3436L22022,3434L22018,3454L22018,3452L22016,3474L22016,3473L22015,3496L22015,3495L22017,3545L22017,3544L22025,3598L22025,3597L22037,3654L22037,3653L22054,3710L22054,3709L22075,3767L22074,3766L22099,3821L22098,3820L22126,3872L22125,3871L22141,3896L22140,3895L22157,3920L22157,3919L22194,3968L22193,3967L22234,4014L22234,4013L22277,4055L22299,4074L22299,4073L22321,4091L22320,4091L22343,4106L22342,4106L22364,4120L22363,4119L22385,4131L22384,4131L22406,4140L22404,4139L22425,4146L22423,4146L22442,4150L22440,4150L22459,4151L22456,4151L22473,4149L22470,4150L22486,4145L22482,4147L22496,4138L22494,4140L22506,4128L22504,4130L22515,4114L22513,4117L22522,4097L22521,4099L22527,4075L22527,4077L22531,4048L22531,4049L22532,4016L22532,4017L22530,3979L22530,3980L22526,3936L22526,3937L22518,3889L22519,3890L22508,3836L22494,3776L22494,3777L22476,3712L22508,3703L22526,3768L22540,3829L22551,3883L22559,3933L22564,3977L22565,4016L22564,4051L22560,4082L22553,4109L22543,4132L22531,4150L22516,4165L22498,4176L22478,4182L22458,4184L22437,4183L22415,4178L22393,4171L22370,4161L22347,4148L22324,4134L22301,4118L22278,4099L22254,4080L22210,4036L22168,3989L22130,3939L22112,3914L22097,3888L22068,3835L22044,3779L22022,3720L22005,3661L21992,3603L21984,3548L21982,3496L21983,3471L21985,3448L21990,3427L21996,3406L22004,3389L22015,3372L22028,3359L22044,3348L22062,3341L22082,3338L22103,3339L22128,3343L22160,3362L22142,3391ZM22175,3274L22293,3464L22070,3444L22175,3274Z" style="fill-rule:nonzero;stroke:black;stroke-width:1px;"/>
        </g>
        <g transform="matrix(0.039997,0,0,0.0399986,0,0)">
            <path d="M22032,3884L22120,3802L22225,3916L22137,3997L22032,3884Z" style="fill:white;"/>
        </g>
        <g transform="matrix(0.159988,0,0,0.159994,926.9,93.1028)">
            <g transform="matrix(133,0,0,133,121.168,0)">
            </g>
            <text x="0px" y="0px" style="font-family:'ArialMT', 'Arial';font-size:133px;fill:rgb(0,112,192);">x<tspan x="66px 91.62px " y="0px 0px ">‘‘</tspan></text>
        </g>
        <g transform="matrix(0.159988,0,0,0.159994,952.498,93.1028)">
            <g transform="matrix(133,0,0,133,115.648,0)">
            </g>
            <text x="0px" y="0px" style="font-family:'ArialMT', 'Arial';font-size:133px;fill:rgb(0,112,192);">=</text>
        </g>
        <g transform="matrix(0.159988,0,0,0.159994,971.056,93.1028)">
            <g transform="matrix(133,0,0,133,146.787,0)">
            </g>
            <text x="0px" y="0px" style="font-family:'ArialMT', 'Arial';font-size:133px;fill:rgb(0,112,192);">x<tspan x="66px 91.62px 117.239px " y="0px 0px 0px ">‘‘‘</tspan></text>
        </g>
        <g transform="matrix(0.039997,0,0,0.0399986,0,0)">
            <path d="M20875,5039L17361,5009L17361,4975L20876,5005L20875,5039ZM17394,5092L17194,4990L17395,4892L17394,5092Z" style="fill:rgb(0,176,80);fill-rule:nonzero;stroke:rgb(0,176,80);stroke-width:1px;"/>
        </g>
        <g transform="matrix(0.039997,0,0,0.0399986,0,0)">
            <path d="M20910,5014L23444,2727L23422,2702L20887,4989L20910,5014ZM23475,2811L23557,2602L23341,2662L23475,2811Z" style="fill:rgb(0,112,192);fill-rule:nonzero;stroke:rgb(0,112,192);stroke-width:1px;"/>
        </g>
        <g transform="matrix(0.039997,0,0,0.0399986,0,0)">
            <path d="M20911,4833L20945,1061L20912,1061L20878,4833L20911,4833ZM21028,1095L20930,894L20828,1094L21028,1095Z" style="fill:rgb(192,0,0);fill-rule:nonzero;stroke:rgb(192,0,0);stroke-width:1px;"/>
        </g>
        <g transform="matrix(0.159988,0,0,0.159994,826.268,27.3219)">
            <g transform="matrix(133,0,0,133,122.168,0)">
            </g>
            <text x="0px" y="0px" style="font-family:'ArialMT', 'Arial';font-size:133px;fill:rgb(192,0,0);">z<tspan x="67px 92.62px " y="0px 0px ">‘‘</tspan></text>
        </g>
        <g transform="matrix(0.159988,0,0,0.159994,684.138,192.144)">
            <g transform="matrix(133,0,0,133,120.168,0)">
            </g>
            <text x="0px" y="0px" style="font-family:'ArialMT', 'Arial';font-size:133px;fill:rgb(0,176,80);">y<tspan x="65px 90.62px " y="0px 0px ">‘‘</tspan></text>
        </g>
        <g transform="matrix(0.039997,0,0,0.0399986,0,0)">
            <path d="M20886,5050L20822,5032L20826,5016L20891,5033L20886,5050ZM20774,5019L20709,5001L20714,4985L20778,5003L20774,5019ZM20661,4988L20597,4971L20601,4955L20665,4972L20661,4988ZM20548,4958L20484,4940L20489,4924L20553,4942L20548,4958ZM20436,4927L20372,4910L20376,4893L20440,4911L20436,4927ZM20323,4896L20259,4879L20263,4863L20328,4880L20323,4896ZM20211,4866L20146,4848L20151,4832L20215,4850L20211,4866ZM20098,4835L20034,4818L20038,4802L20103,4819L20098,4835ZM19986,4805L19921,4787L19926,4771L19990,4788L19986,4805ZM19873,4774L19809,4756L19813,4740L19877,4758L19873,4774ZM19760,4743L19696,4726L19700,4710L19765,4727L19760,4743ZM19648,4713L19584,4695L19588,4679L19652,4697L19648,4713ZM19535,4682L19471,4665L19475,4649L19540,4666L19535,4682ZM19423,4651L19358,4634L19363,4618L19427,4635L19423,4651ZM19310,4621L19246,4603L19250,4587L19315,4605L19310,4621ZM19198,4590L19133,4573L19138,4557L19202,4574L19198,4590ZM19085,4560L19021,4542L19025,4526L19089,4544L19085,4560ZM18972,4529L18908,4512L18912,4495L18977,4513L18972,4529ZM18860,4498L18795,4481L18800,4465L18864,4482L18860,4498ZM18747,4468L18683,4450L18687,4434L18752,4452L18747,4468ZM18635,4437L18570,4420L18575,4404L18639,4421L18635,4437ZM18522,4407L18458,4389L18462,4373L18526,4390L18522,4407ZM18410,4376L18345,4358L18350,4342L18414,4360L18410,4376ZM18297,4345L18233,4328L18237,4312L18301,4329L18297,4345ZM18184,4315L18120,4297L18124,4281L18189,4299L18184,4315ZM18072,4284L18007,4267L18012,4250L18076,4268L18072,4284ZM17959,4253L17895,4236L17899,4220L17964,4237L17959,4253ZM17847,4223L17782,4205L17787,4189L17851,4207L17847,4223ZM17734,4192L17670,4175L17674,4159L17738,4176L17734,4192ZM17621,4162L17557,4144L17562,4128L17626,4145L17621,4162ZM17529,4231L17362,4082L17582,4038L17529,4231Z" style="fill:rgb(0,176,80);fill-rule:nonzero;stroke:rgb(0,176,80);stroke-width:1px;"/>
        </g>
        <g transform="matrix(0.039997,0,0,0.0399986,0,0)">
            <path d="M20702,5030C20702,4920 20788,4830 20892,4830C20997,4830 21082,4920 21082,5030C21082,5141 20997,5230 20892,5230C20788,5230 20702,5141 20702,5030" style="fill:rgb(68,114,196);"/>
        </g>
        <g transform="matrix(0.039997,0,0,0.0399986,0,0)">
            <path d="M20702,5030C20702,4920 20788,4830 20892,4830C20997,4830 21082,4920 21082,5030C21082,5141 20997,5230 20892,5230C20788,5230 20702,5141 20702,5030" style="fill:none;stroke:rgb(47,82,143);stroke-width:33px;stroke-linejoin:miter;stroke-miterlimit:8;"/>
        </g>
        <g transform="matrix(0.159988,0,0,0.159994,702.879,158.377)">
            <g transform="matrix(133,0,0,133,145.787,0)">
            </g>
            <text x="0px" y="0px" style="font-family:'ArialMT', 'Arial';font-size:133px;fill:rgb(0,176,80);">y<tspan x="65px 90.62px 116.239px " y="0px 0px 0px ">‘‘‘</tspan></text>
        </g>
        <g transform="matrix(0.039997,0,0,0.0399986,0,0)">
            <path d="M20903,4831L20916,4765L20899,4762L20886,4827L20903,4831ZM20925,4716L20938,4651L20922,4648L20909,4713L20925,4716ZM20948,4602L20961,4536L20945,4533L20932,4599L20948,4602ZM20971,4487L20984,4422L20968,4419L20955,4484L20971,4487ZM20994,4373L21007,4308L20990,4304L20977,4370L20994,4373ZM21016,4259L21029,4193L21013,4190L21000,4255L21016,4259ZM21039,4144L21052,4079L21036,4075L21023,4141L21039,4144ZM21062,4030L21075,3964L21059,3961L21046,4026L21062,4030ZM21085,3915L21098,3850L21081,3847L21068,3912L21085,3915ZM21107,3801L21120,3735L21104,3732L21091,3798L21107,3801ZM21130,3686L21143,3621L21127,3618L21114,3683L21130,3686ZM21153,3572L21166,3507L21150,3503L21137,3569L21153,3572ZM21176,3458L21189,3392L21172,3389L21159,3454L21176,3458ZM21198,3343L21211,3278L21195,3274L21182,3340L21198,3343ZM21221,3229L21234,3163L21218,3160L21205,3225L21221,3229ZM21244,3114L21257,3049L21241,3046L21228,3111L21244,3114ZM21267,3000L21280,2934L21263,2931L21250,2997L21267,3000ZM21289,2885L21302,2820L21286,2817L21273,2882L21289,2885ZM21312,2771L21325,2706L21309,2702L21296,2768L21312,2771ZM21335,2657L21348,2591L21332,2588L21319,2653L21335,2657ZM21358,2542L21371,2477L21354,2473L21341,2539L21358,2542ZM21380,2428L21393,2362L21377,2359L21364,2424L21380,2428ZM21403,2313L21416,2248L21400,2245L21387,2310L21403,2313ZM21426,2199L21439,2133L21423,2130L21410,2196L21426,2199ZM21449,2084L21462,2019L21445,2016L21432,2081L21449,2084ZM21472,1970L21485,1905L21468,1901L21455,1967L21472,1970ZM21494,1856L21507,1790L21491,1787L21478,1852L21494,1856ZM21517,1741L21530,1676L21514,1673L21501,1738L21517,1741ZM21540,1627L21553,1561L21536,1558L21523,1623L21540,1627ZM21563,1512L21576,1447L21559,1444L21546,1509L21563,1512ZM21585,1398L21598,1332L21582,1329L21569,1395L21585,1398ZM21608,1283L21616,1244L21600,1240L21592,1280L21608,1283ZM21699,1294L21640,1078L21503,1255L21699,1294Z" style="fill:rgb(192,0,0);fill-rule:nonzero;stroke:rgb(192,0,0);stroke-width:1px;"/>
        </g>
        <g transform="matrix(0.159988,0,0,0.159994,871.206,45.3099)">
            <g transform="matrix(150,0,0,150,162.956,0)">
            </g>
            <text x="0px" y="0px" style="font-family:'ArialMT', 'Arial';font-size:150px;fill:rgb(192,0,0);">z‘<tspan x="102.315px 129.63px " y="0px 0px ">‘‘</tspan></text>
        </g>
        <g transform="matrix(0.039997,0,0,0.0399986,0,0)">
            <path d="M18301,4983L18286,4912L18275,4837L18271,4760L18272,4681L18278,4600L18292,4525L18308,4528L18295,4603L18295,4602L18289,4682L18289,4681L18288,4760L18288,4759L18292,4836L18292,4835L18302,4909L18302,4908L18318,4979L18301,4983ZM18195,4537L18338,4364L18390,4582L18195,4537Z" style="fill-rule:nonzero;stroke:black;stroke-width:1px;"/>
        </g>
        <g transform="matrix(0.039997,0,0,0.0399986,0,0)">
            <path d="M20957,1596L21026,1589L21098,1587L21172,1590L21246,1598L21321,1612L21381,1629L21377,1645L21317,1628L21318,1628L21244,1615L21170,1607L21171,1607L21098,1604L21027,1605L20958,1612L20957,1596ZM21378,1531L21538,1687L21317,1722L21378,1531Z" style="fill-rule:nonzero;stroke:black;stroke-width:1px;"/>
        </g>
        <g transform="matrix(0.159988,0,0,0.159994,890.867,190.481)">
            <g transform="matrix(133,0,0,133,177.592,0)">
            </g>
            <text x="0px" y="0px" style="font-family:'ArialMT', 'Arial';font-size:133px;">r<tspan x="44.001px 118.021px 148.044px " y="0px 0px 0px ">oll</tspan></text>
        </g>
        <g transform="matrix(0.159988,0,0,0.159994,97.898,258.278)">
            <g transform="matrix(150,0,0,150,240.877,0)">
            </g>
            <text x="0px" y="0px" style="font-family:'Calibri';font-size:150px;">y<tspan x="63.675px 133.65px " y="0px 0px ">aw</tspan></text>
        </g>
        <g transform="matrix(0.159988,0,0,0.159994,142.375,258.278)">
            <g transform="matrix(150,0,0,150,185.044,0)">
            </g>
            <text x="0px" y="0px" style="font-family:'Calibri';font-size:150px;">&gt;<tspan x="75.007px " y="0px "> </tspan>0</text>
        </g>
        <g transform="matrix(0.159988,0,0,0.159994,424.984,262.809)">
            <g transform="matrix(150,0,0,150,240.877,0)">
            </g>
            <text x="0px" y="0px" style="font-family:'Calibri';font-size:150px;">y<tspan x="63.675px 133.65px " y="0px 0px ">aw</tspan></text>
        </g>
        <g transform="matrix(0.159988,0,0,0.159994,469.461,262.809)">
            <g transform="matrix(150,0,0,150,185.044,0)">
            </g>
            <text x="0px" y="0px" style="font-family:'Calibri';font-size:150px;">=<tspan x="75.007px " y="0px "> </tspan>0</text>
        </g>
        <g transform="matrix(0.159988,0,0,0.159994,424.984,291.608)">
            <g transform="matrix(150,0,0,150,522.237,0)">
            </g>
            <text x="0px" y="0px" style="font-family:'Calibri';font-size:150px;">p<tspan x="79.059px 112.982px 159.145px 222.123px 301.182px 337.193px 412.2px " y="0px 0px 0px 0px 0px 0px 0px ">itch &gt; </tspan>0</text>
        </g>
        <g transform="matrix(0.159988,0,0,0.159994,776.557,256.767)">
            <g transform="matrix(150,0,0,150,240.877,0)">
            </g>
            <text x="0px" y="0px" style="font-family:'Calibri';font-size:150px;">y<tspan x="63.675px 133.65px " y="0px 0px ">aw</tspan></text>
        </g>
        <g transform="matrix(0.159988,0,0,0.159994,821.034,256.767)">
            <g transform="matrix(150,0,0,150,185.044,0)">
            </g>
            <text x="0px" y="0px" style="font-family:'Calibri';font-size:150px;">=<tspan x="75.007px " y="0px "> </tspan>0</text>
        </g>
        <g transform="matrix(0.159988,0,0,0.159994,776.557,285.565)">
            <g transform="matrix(150,0,0,150,522.237,0)">
            </g>
            <text x="0px" y="0px" style="font-family:'Calibri';font-size:150px;">p<tspan x="79.059px 112.982px 159.145px 222.123px 301.182px 337.193px 412.2px " y="0px 0px 0px 0px 0px 0px 0px ">itch = </tspan>0</text>
        </g>
        <g transform="matrix(0.159988,0,0,0.159994,776.557,314.364)">
            <g transform="matrix(150,0,0,150,414.482,0)">
            </g>
            <text x="0px" y="0px" style="font-family:'Calibri';font-size:150px;">r<tspan x="47.528px 126.579px 160.503px 194.427px 229.438px 304.445px " y="0px 0px 0px 0px 0px 0px ">oll &gt; </tspan>0</text>
        </g>
    </g>
</svg>
