<?xml version="1.0" encoding="UTF-8" standalone="no"?>
<!DOCTYPE svg PUBLIC "-//W3C//DTD SVG 1.1//EN" "http://www.w3.org/Graphics/SVG/1.1/DTD/svg11.dtd">
<svg width="100%" height="100%" viewBox="0 0 990 263" version="1.1" xmlns="http://www.w3.org/2000/svg" xmlns:xlink="http://www.w3.org/1999/xlink" xml:space="preserve" xmlns:serif="http://www.serif.com/" style="fill-rule:evenodd;clip-rule:evenodd;stroke-linejoin:round;stroke-miterlimit:2;">
    <g>
        <rect x="0" y="0" width="990.326" height="263.831" style="fill:none;"/>
        <g transform="matrix(0.159988,0,0,0.159994,255.601,93.1234)">
            <g transform="matrix(133,0,0,133,66.5,0)">
            </g>
            <text x="0px" y="0px" style="font-family:'ArialMT', 'Arial';font-size:133px;fill:rgb(0,112,192);">x</text>
        </g>
        <g transform="matrix(0.00999925,0,0,0.00999964,0,0)">
            <path d="M16364,20154L2307,20033L2308,19900L16365,20020L16364,20154ZM2437,20367L1640,19960L2444,19567L2437,20367Z" style="fill:rgb(0,176,80);fill-rule:nonzero;stroke:rgb(0,176,80);stroke-width:1px;"/>
        </g>
        <g transform="matrix(0.00999925,0,0,0.00999964,0,0)">
            <path d="M16501,20055L26639,10905L26550,10806L16412,19956L16501,20055ZM26763,11241L27089,10408L26227,10648L26763,11241Z" style="fill:rgb(0,112,192);fill-rule:nonzero;stroke:rgb(0,112,192);stroke-width:1px;"/>
        </g>
        <g transform="matrix(0.00999925,0,0,0.00999964,0,0)">
            <path d="M16507,19331L16644,4244L16510,4242L16374,19329L16507,19331ZM16976,4380L16583,3576L16176,4373L16976,4380Z" style="fill:rgb(192,0,0);fill-rule:nonzero;stroke:rgb(192,0,0);stroke-width:1px;"/>
        </g>
        <g transform="matrix(0.159988,0,0,0.159994,154.969,27.3424)">
            <g transform="matrix(133,0,0,133,66.5,0)">
            </g>
            <text x="0px" y="0px" style="font-family:'ArialMT', 'Arial';font-size:133px;fill:rgb(192,0,0);">z</text>
        </g>
        <g transform="matrix(0.159988,0,0,0.159994,171.608,27.3424)">
            <g transform="matrix(133,0,0,133,212.524,0)">
            </g>
            <text x="0px" y="0px" style="font-family:'ArialMT', 'Arial';font-size:133px;fill:rgb(192,0,0);">=<tspan x="77.998px 115.976px 182.976px " y="0px 0px 0px "> z‘</tspan></text>
        </g>
        <g transform="matrix(0.159988,0,0,0.159994,12.8398,192.165)">
            <g transform="matrix(133,0,0,133,66.5,0)">
            </g>
            <text x="0px" y="0px" style="font-family:'ArialMT', 'Arial';font-size:133px;fill:rgb(0,176,80);">y</text>
        </g>
        <g transform="matrix(0.00999925,0,0,0.00999964,0,0)">
            <path d="M16516,20116L16667,19896L16612,19858L16461,20078L16516,20116ZM16780,19731L16931,19511L16876,19474L16725,19693L16780,19731ZM17044,19346L17195,19127L17140,19089L16989,19309L17044,19346ZM17309,18962L17460,18742L17405,18704L17254,18924L17309,18962ZM17573,18577L17724,18357L17669,18320L17518,18539L17573,18577ZM17837,18193L17988,17973L17933,17935L17782,18155L17837,18193ZM18101,17808L18252,17588L18198,17550L18047,17770L18101,17808ZM18366,17423L18517,17204L18462,17166L18311,17386L18366,17423ZM18630,17039L18781,16819L18726,16781L18575,17001L18630,17039ZM18894,16654L19045,16434L18990,16396L18839,16616L18894,16654ZM19158,16269L19309,16050L19255,16012L19104,16232L19158,16269ZM19423,15885L19574,15665L19519,15627L19368,15847L19423,15885ZM19687,15500L19838,15280L19783,15243L19632,15462L19687,15500ZM19951,15115L20102,14896L20047,14858L19896,15078L19951,15115ZM20216,14731L20367,14511L20312,14473L20161,14693L20216,14731ZM20480,14346L20631,14126L20576,14089L20425,14308L20480,14346ZM20744,13962L20895,13742L20840,13704L20689,13924L20744,13962ZM21008,13577L21159,13357L21104,13319L20953,13539L21008,13577ZM21273,13192L21424,12972L21369,12935L21218,13155L21273,13192ZM21537,12808L21688,12588L21633,12550L21482,12770L21537,12808ZM21801,12423L21952,12203L21897,12165L21746,12385L21801,12423ZM22065,12038L22216,11819L22161,11781L22010,12001L22065,12038ZM22330,11654L22481,11434L22426,11396L22275,11616L22330,11654ZM22594,11269L22745,11049L22690,11012L22539,11231L22594,11269ZM22858,10884L23009,10665L22954,10627L22803,10847L22858,10884ZM23122,10500L23273,10280L23218,10242L23067,10462L23122,10500ZM23387,10115L23538,9895L23483,9858L23332,10077L23387,10115ZM23651,9731L23802,9511L23747,9473L23596,9693L23651,9731ZM24033,9822L24156,8936L23373,9369L24033,9822Z" style="fill:rgb(0,112,192);fill-rule:nonzero;stroke:rgb(0,112,192);stroke-width:1px;"/>
        </g>
        <g transform="matrix(0.00999925,0,0,0.00999964,0,0)">
            <path d="M16412,20136L16149,20180L16160,20246L16423,20201L16412,20136ZM15952,20213L15689,20258L15700,20323L15963,20279L15952,20213ZM15492,20291L15229,20335L15240,20401L15503,20357L15492,20291ZM15032,20368L14769,20413L14780,20478L15043,20434L15032,20368ZM14571,20446L14308,20490L14319,20556L14582,20512L14571,20446ZM14111,20524L13848,20568L13859,20634L14122,20589L14111,20524ZM13651,20601L13388,20646L13399,20711L13662,20667L13651,20601ZM13191,20679L12928,20723L12939,20789L13202,20744L13191,20679ZM12731,20756L12468,20801L12479,20866L12742,20822L12731,20756ZM12270,20834L12008,20878L12019,20944L12282,20900L12270,20834ZM11810,20912L11547,20956L11558,21022L11821,20977L11810,20912ZM11350,20989L11087,21033L11098,21099L11361,21055L11350,20989ZM10890,21067L10627,21111L10638,21177L10901,21132L10890,21067ZM10430,21144L10167,21189L10178,21254L10441,21210L10430,21144ZM9970,21222L9707,21266L9718,21332L9981,21288L9970,21222ZM9509,21300L9247,21344L9258,21410L9521,21365L9509,21300ZM9049,21377L8786,21421L8797,21487L9060,21443L9049,21377ZM8589,21455L8326,21499L8337,21565L8600,21520L8589,21455ZM8129,21532L7866,21577L7877,21642L8140,21598L8129,21532ZM7669,21610L7406,21654L7417,21720L7680,21676L7669,21610ZM7209,21688L6946,21732L6957,21798L7220,21753L7209,21688ZM6748,21765L6485,21809L6497,21875L6760,21831L6748,21765ZM6288,21843L6025,21887L6036,21953L6299,21908L6288,21843ZM5828,21920L5565,21965L5576,22030L5839,21986L5828,21920ZM5368,21998L5105,22042L5116,22108L5379,22064L5368,21998ZM4908,22075L4645,22120L4656,22186L4919,22141L4908,22075ZM4448,22153L4185,22197L4196,22263L4459,22219L4448,22153ZM3987,22231L3724,22275L3736,22341L3999,22296L3987,22231ZM3527,22308L3264,22353L3275,22418L3538,22374L3527,22308ZM3067,22386L2980,22401L2991,22466L3078,22452L3067,22386ZM3051,22017L2328,22544L3184,22806L3051,22017Z" style="fill:rgb(0,176,80);fill-rule:nonzero;stroke:rgb(0,176,80);stroke-width:1px;"/>
        </g>
        <g transform="matrix(0.00999925,0,0,0.00999964,0,0)">
            <path d="M15672,20120C15672,19679 16013,19320 16432,19320C16852,19320 17192,19679 17192,20120C17192,20562 16852,20920 16432,20920C16013,20920 15672,20562 15672,20120" style="fill:rgb(68,114,196);"/>
        </g>
        <g transform="matrix(0.00999925,0,0,0.00999964,0,0)">
            <path d="M15672,20120C15672,19679 16013,19320 16432,19320C16852,19320 17192,19679 17192,20120C17192,20562 16852,20920 16432,20920C16013,20920 15672,20562 15672,20120" style="fill:none;stroke:rgb(47,82,143);stroke-width:133px;stroke-linejoin:miter;stroke-miterlimit:8;"/>
        </g>
        <g transform="matrix(0.159988,0,0,0.159994,226.986,84.0859)">
            <g transform="matrix(133,0,0,133,66.5,0)">
            </g>
            <text x="0px" y="0px" style="font-family:'ArialMT', 'Arial';font-size:133px;fill:rgb(0,112,192);">x</text>
        </g>
        <g transform="matrix(0.159988,0,0,0.159994,237.545,84.0859)">
            <g transform="matrix(133,0,0,133,29.5483,0)">
            </g>
            <text x="0px" y="0px" style="font-family:'ArialMT', 'Arial';font-size:133px;fill:rgb(0,112,192);">‘</text>
        </g>
        <g transform="matrix(0.159988,0,0,0.159994,14.4563,246.077)">
            <g transform="matrix(133,0,0,133,94.5483,0)">
            </g>
            <text x="0px" y="0px" style="font-family:'ArialMT', 'Arial';font-size:133px;fill:rgb(0,176,80);">y<tspan x="65px " y="0px ">‘</tspan></text>
        </g>
        <g transform="matrix(0.00999925,0,0,0.00999964,0,0)">
            <path d="M17521,7329L17592,7295L17585,7299L17653,7257L17649,7260L17713,7213L17708,7217L17768,7163L17762,7168L17870,7045L17864,7054L17951,6914L17947,6922L17982,6846L17980,6850L18009,6771L18007,6776L18030,6695L18029,6701L18045,6618L18044,6623L18053,6538L18053,6545L18054,6460L18054,6465L18048,6379L18049,6386L18034,6299L18035,6306L18011,6221L18013,6226L17981,6141L17984,6147L17942,6063L17945,6069L17894,5988L17898,5993L17837,5914L17841,5919L17769,5843L17773,5847L17691,5774L17696,5778L17602,5709L17606,5712L17501,5647L17506,5650L17390,5591L17394,5593L17265,5538L17270,5540L17128,5492L17132,5493L16978,5450L16982,5451L16814,5416L16817,5416L16636,5388L16640,5389L16445,5369L16448,5369L16252,5358L16254,5358L16072,5355L16076,5355L15906,5362L15910,5362L15753,5377L15757,5376L15612,5399L15616,5398L15483,5428L15488,5427L15367,5464L15373,5462L15264,5507L15269,5505L15171,5555L15177,5551L15091,5607L15097,5603L15022,5665L15027,5660L14962,5726L14968,5719L14915,5790L14919,5784L14875,5860L14879,5852L14846,5931L14849,5923L14827,6005L14828,5998L14814,6083L14815,6075L14812,6162L14812,6155L14818,6245L14817,6239L14832,6330L14831,6324L14855,6416L14853,6410L14886,6503L14884,6499L14925,6592L14923,6587L14973,6680L14971,6676L15029,6769L15021,6759L15151,6897L15054,6988L14919,6845L14857,6745L14805,6648L14761,6550L14727,6452L14701,6354L14685,6257L14679,6161L14682,6066L14697,5973L14721,5884L14758,5797L14806,5714L14864,5636L14934,5564L15015,5498L15107,5438L15211,5385L15325,5338L15451,5299L15589,5268L15738,5244L15899,5229L16073,5222L16258,5225L16457,5236L16655,5256L16839,5285L17011,5321L17169,5365L17315,5414L17449,5471L17569,5532L17679,5600L17777,5673L17864,5750L17940,5830L18005,5914L18060,6001L18105,6091L18139,6182L18165,6273L18181,6366L18187,6459L18186,6549L18176,6640L18159,6729L18135,6815L18104,6899L18066,6981L17974,7129L17860,7259L17795,7318L17726,7369L17652,7414L17578,7450L17521,7329ZM15280,6560L15586,7400L14730,7141L15280,6560Z" style="fill-rule:nonzero;stroke:black;stroke-width:1px;"/>
        </g>
        <g transform="matrix(0.00999925,0,0,0.00999964,0,0)">
            <rect x="16264" y="5080" width="480" height="608" style="fill:white;"/>
        </g>
        <g transform="matrix(0.159988,0,0,0.159994,67.8166,43.6575)">
            <g transform="matrix(133,0,0,133,236.621,0)">
            </g>
            <text x="0px" y="0px" style="font-family:'ArialMT', 'Arial';font-size:133px;">ya<tspan x="140.572px " y="0px ">w</tspan></text>
        </g>
        <g transform="matrix(0.00999925,0,0,0.00999964,0,0)">
            <path d="M21623,13939L21776,13999L21965,14094L22149,14198L22327,14310L22498,14427L22461,14482L22290,14365L22291,14366L22114,14255L22115,14255L21933,14152L21934,14153L21747,14059L21750,14061L21599,14002L21623,13939ZM21595,14392L20987,13735L21877,13643L21595,14392Z" style="fill-rule:nonzero;stroke:black;stroke-width:1px;"/>
        </g>
        <g transform="matrix(0.00999925,0,0,0.00999964,0,0)">
            <path d="M7233,21073L7237,20915L7267,20705L7307,20498L7355,20295L7415,20096L7478,20115L7419,20313L7420,20311L7372,20513L7372,20512L7332,20717L7332,20715L7303,20922L7304,20918L7300,21075L7233,21073ZM7668,20947L7256,21740L6868,20935L7668,20947Z" style="fill-rule:nonzero;stroke:black;stroke-width:1px;"/>
        </g>
        <g transform="matrix(0.0199985,0,0,0.0199993,0,0)">
            <path d="M20731,9591L20720,9504L20721,9505L20708,9427L20708,9429L20694,9361L20695,9363L20680,9304L20680,9307L20664,9257L20665,9259L20648,9218L20649,9222L20631,9189L20634,9193L20614,9168L20619,9173L20599,9156L20606,9160L20585,9150L20595,9153L20573,9150L20583,9150L20562,9153L20570,9151L20548,9160L20553,9157L20531,9171L20535,9168L20513,9189L20515,9186L20493,9211L20495,9209L20473,9238L20474,9236L20452,9271L20453,9270L20431,9308L20432,9306L20411,9348L20411,9347L20390,9392L20391,9390L20371,9438L20371,9437L20333,9540L20334,9538L20299,9648L20300,9646L20270,9761L20271,9759L20247,9875L20247,9873L20229,9988L20230,9987L20219,10104L20219,10102L20214,10225L20214,10223L20216,10348L20216,10346L20224,10467L20224,10465L20238,10579L20238,10578L20247,10631L20247,10630L20258,10680L20258,10678L20270,10724L20270,10722L20284,10764L20283,10762L20298,10800L20297,10797L20314,10829L20312,10825L20330,10851L20326,10847L20346,10866L20340,10861L20362,10874L20352,10871L20375,10876L20365,10875L20389,10873L20379,10876L20405,10865L20398,10868L20425,10849L20421,10852L20450,10823L20448,10827L20478,10788L20476,10790L20508,10741L20507,10743L20540,10683L20539,10684L20573,10612L20572,10615L20611,10516L20673,10540L20634,10640L20599,10714L20565,10776L20531,10827L20499,10869L20467,10901L20434,10925L20400,10939L20365,10942L20332,10934L20302,10917L20278,10892L20256,10862L20237,10827L20221,10787L20206,10743L20193,10695L20182,10643L20172,10588L20157,10472L20149,10349L20148,10223L20152,10099L20163,9979L20181,9863L20205,9745L20235,9629L20270,9517L20309,9413L20329,9364L20351,9318L20373,9275L20395,9236L20419,9200L20442,9168L20467,9140L20492,9117L20519,9099L20548,9088L20579,9083L20610,9088L20639,9102L20665,9125L20688,9154L20708,9191L20727,9235L20744,9287L20759,9347L20774,9416L20786,9495L20798,9582L20731,9591ZM20431,10523L20755,10215L20807,10659L20431,10523Z" style="fill-rule:nonzero;stroke:black;stroke-width:1px;"/>
        </g>
        <g transform="matrix(0.0199985,0,0,0.0199993,0,0)">
            <rect x="20076" y="9836" width="240" height="312" style="fill:white;"/>
        </g>
        <g transform="matrix(0.159988,0,0,0.159994,600.807,99.1324)">
            <g transform="matrix(133,0,0,133,66.5,0)">
            </g>
            <text x="0px" y="0px" style="font-family:'ArialMT', 'Arial';font-size:133px;fill:rgb(0,112,192);">x</text>
        </g>
        <g transform="matrix(0.0199985,0,0,0.0199993,0,0)">
            <path d="M24830,10077L17801,10017L17802,9950L24831,10010L24830,10077ZM17867,10184L17468,9980L17870,9784L17867,10184Z" style="fill:rgb(0,176,80);fill-rule:nonzero;stroke:rgb(0,176,80);stroke-width:1px;"/>
        </g>
        <g transform="matrix(0.0199985,0,0,0.0199993,0,0)">
            <path d="M24899,10028L29968,5453L29923,5403L24854,9978L24899,10028ZM30030,5621L30193,5204L29762,5324L30030,5621Z" style="fill:rgb(0,112,192);fill-rule:nonzero;stroke:rgb(0,112,192);stroke-width:1px;"/>
        </g>
        <g transform="matrix(0.0199985,0,0,0.0199993,0,0)">
            <path d="M24902,9659L24941,2090L24874,2090L24835,9658L24902,9659ZM25107,2158L24910,1756L24707,2155L25107,2158Z" style="fill:rgb(192,0,0);fill-rule:nonzero;stroke:rgb(192,0,0);stroke-width:1px;"/>
        </g>
        <g transform="matrix(0.159988,0,0,0.159994,487.936,27.3424)">
            <g transform="matrix(133,0,0,133,66.5,0)">
            </g>
            <text x="0px" y="0px" style="font-family:'ArialMT', 'Arial';font-size:133px;fill:rgb(192,0,0);">z</text>
        </g>
        <g transform="matrix(0.159988,0,0,0.159994,324.337,190.563)">
            <g transform="matrix(133,0,0,133,314.502,0)">
            </g>
            <text x="0px" y="0px" style="font-family:'ArialMT', 'Arial';font-size:133px;fill:rgb(0,176,80);">y<tspan x="65px 103.978px 181.976px 219.953px 284.953px " y="0px 0px 0px 0px 0px "> = y‘</tspan></text>
        </g>
        <g transform="matrix(0.0199985,0,0,0.0199993,0,0)">
            <path d="M24902,10062L25013,9988L24995,9961L24883,10034L24902,10062ZM25097,9934L25208,9860L25190,9832L25078,9906L25097,9934ZM25291,9805L25403,9732L25384,9704L25273,9777L25291,9805ZM25486,9677L25598,9604L25579,9576L25468,9649L25486,9677ZM25681,9549L25793,9475L25774,9447L25663,9521L25681,9549ZM25876,9420L25987,9347L25969,9319L25858,9392L25876,9420ZM26071,9292L26182,9219L26164,9191L26053,9264L26071,9292ZM26266,9164L26377,9090L26359,9063L26248,9136L26266,9164ZM26461,9035L26572,8962L26554,8934L26442,9008L26461,9035ZM26656,8907L26767,8834L26749,8806L26637,8879L26656,8907ZM26851,8779L26962,8706L26944,8678L26832,8751L26851,8779ZM27045,8651L27157,8577L27139,8549L27027,8623L27045,8651ZM27240,8522L27352,8449L27333,8421L27222,8494L27240,8522ZM27435,8394L27547,8321L27528,8293L27417,8366L27435,8394ZM27630,8266L27742,8192L27723,8165L27612,8238L27630,8266ZM27825,8137L27936,8064L27918,8036L27807,8110L27825,8137ZM28020,8009L28131,7936L28113,7908L28002,7981L28020,8009ZM28215,7881L28326,7807L28308,7780L28197,7853L28215,7881ZM28410,7753L28521,7679L28503,7651L28391,7725L28410,7753ZM28605,7624L28716,7551L28698,7523L28586,7596L28605,7624ZM28800,7496L28911,7423L28893,7395L28781,7468L28800,7496ZM28994,7368L29106,7294L29087,7266L28976,7340L28994,7368ZM29189,7239L29301,7166L29282,7138L29171,7211L29189,7239ZM29384,7111L29496,7038L29477,7010L29366,7083L29384,7111ZM29579,6983L29691,6909L29672,6882L29561,6955L29579,6983ZM29774,6854L29885,6781L29867,6753L29756,6827L29774,6854ZM29969,6726L30080,6653L30062,6625L29951,6698L29969,6726ZM30164,6598L30275,6525L30257,6497L30146,6570L30164,6598ZM30398,6663L30622,6276L30178,6329L30398,6663Z" style="fill:rgb(0,112,192);fill-rule:nonzero;stroke:rgb(0,112,192);stroke-width:1px;"/>
        </g>
        <g transform="matrix(0.0199985,0,0,0.0199993,0,0)">
            <path d="M24877,10087L24898,9955L24865,9950L24844,10081L24877,10087ZM24914,9856L24935,9724L24902,9719L24881,9851L24914,9856ZM24951,9626L24972,9494L24939,9489L24918,9620L24951,9626ZM24988,9395L25009,9264L24976,9258L24955,9390L24988,9395ZM25025,9165L25046,9033L25013,9028L24992,9160L25025,9165ZM25062,8935L25083,8803L25050,8798L25029,8929L25062,8935ZM25099,8704L25120,8573L25087,8567L25066,8699L25099,8704ZM25136,8474L25157,8342L25124,8337L25103,8469L25136,8474ZM25173,8243L25194,8112L25161,8106L25140,8238L25173,8243ZM25210,8013L25231,7881L25198,7876L25177,8008L25210,8013ZM25247,7783L25268,7651L25235,7646L25214,7777L25247,7783ZM25284,7552L25305,7421L25272,7415L25251,7547L25284,7552ZM25321,7322L25342,7190L25309,7185L25288,7317L25321,7322ZM25358,7091L25379,6960L25346,6955L25325,7086L25358,7091ZM25394,6861L25416,6729L25383,6724L25362,6856L25394,6861ZM25431,6631L25453,6499L25420,6494L25399,6625L25431,6631ZM25468,6400L25490,6269L25457,6263L25436,6395L25468,6400ZM25505,6170L25527,6038L25494,6033L25472,6165L25505,6170ZM25542,5940L25564,5808L25531,5803L25509,5934L25542,5940ZM25579,5709L25600,5578L25568,5572L25546,5704L25579,5709ZM25616,5479L25637,5347L25605,5342L25583,5474L25616,5479ZM25653,5248L25674,5117L25642,5111L25620,5243L25653,5248ZM25690,5018L25711,4886L25678,4881L25657,5013L25690,5018ZM25727,4788L25748,4656L25715,4651L25694,4782L25727,4788ZM25764,4557L25785,4426L25752,4420L25731,4552L25764,4557ZM25801,4327L25822,4195L25789,4190L25768,4322L25801,4327ZM25838,4096L25859,3965L25826,3960L25805,4091L25838,4096ZM25875,3866L25896,3734L25863,3729L25842,3861L25875,3866ZM25912,3636L25933,3504L25900,3499L25879,3630L25912,3636ZM25949,3405L25970,3274L25937,3268L25916,3400L25949,3405ZM25986,3175L26007,3043L25974,3038L25953,3170L25986,3175ZM26023,2945L26044,2813L26011,2808L25990,2939L26023,2945ZM26226,2839L26092,2412L25831,2776L26226,2839Z" style="fill:rgb(192,0,0);fill-rule:nonzero;stroke:rgb(192,0,0);stroke-width:1px;"/>
        </g>
        <g transform="matrix(0.0199985,0,0,0.0199993,0,0)">
            <path d="M24484,10060C24484,9840 24655,9660 24864,9660C25074,9660 25244,9840 25244,10060C25244,10281 25074,10460 24864,10460C24655,10460 24484,10281 24484,10060" style="fill:rgb(68,114,196);"/>
        </g>
        <g transform="matrix(0.0199985,0,0,0.0199993,0,0)">
            <path d="M24484,10060C24484,9840 24655,9660 24864,9660C25074,9660 25244,9840 25244,10060C25244,10281 25074,10460 24864,10460C24655,10460 24484,10281 24484,10060" style="fill:none;stroke:rgb(47,82,143);stroke-width:67px;stroke-linejoin:miter;stroke-miterlimit:8;"/>
        </g>
        <g transform="matrix(0.159988,0,0,0.159994,617.236,140.308)">
            <g transform="matrix(133,0,0,133,66.5,0)">
            </g>
            <text x="0px" y="0px" style="font-family:'ArialMT', 'Arial';font-size:133px;fill:rgb(0,112,192);">x</text>
        </g>
        <g transform="matrix(0.159988,0,0,0.159994,627.795,140.308)">
            <g transform="matrix(133,0,0,133,29.5483,0)">
            </g>
            <text x="0px" y="0px" style="font-family:'ArialMT', 'Arial';font-size:133px;fill:rgb(0,112,192);">‘</text>
        </g>
        <g transform="matrix(0.0199985,0,0,0.0199993,0,0)">
            <path d="M28756,6544L28836,6608L28914,6677L28989,6750L29062,6828L29114,6895L29087,6915L29036,6849L29037,6850L28965,6773L28965,6774L28891,6701L28891,6702L28814,6633L28814,6634L28735,6569L28756,6544ZM29220,6731L29301,7171L28901,6972L29220,6731Z" style="fill-rule:nonzero;stroke:black;stroke-width:1px;"/>
        </g>
        <g transform="matrix(0.159988,0,0,0.159994,411.549,172.303)">
            <g transform="matrix(133,0,0,133,281.989,0)">
            </g>
            <text x="0px" y="0px" style="font-family:'ArialMT', 'Arial';font-size:133px;">pi<tspan x="104.043px 141.02px 208.02px " y="0px 0px 0px ">tch</tspan></text>
        </g>
        <g transform="matrix(0.0199985,0,0,0.0199993,0,0)">
            <path d="M24972,4294L25075,4297L25179,4305L25282,4317L25387,4335L25469,4357L25460,4389L25379,4368L25381,4368L25277,4350L25278,4351L25175,4338L25176,4338L25073,4330L24971,4327L24972,4294ZM25455,4163L25785,4464L25346,4547L25455,4163Z" style="fill-rule:nonzero;stroke:black;stroke-width:1px;"/>
        </g>
        <g transform="matrix(0.159988,0,0,0.159994,527.543,50.4189)">
            <g transform="matrix(150,0,0,150,108.325,0)">
            </g>
            <text x="0px" y="0px" style="font-family:'ArialMT', 'Arial';font-size:150px;fill:rgb(192,0,0);">z‘</text>
        </g>
        <g transform="matrix(0.039997,0,0,0.0399986,0,0)">
            <path d="M22143,3391L22114,3374L22119,3376L22099,3372L22102,3372L22083,3372L22086,3372L22069,3374L22073,3374L22058,3379L22061,3378L22048,3386L22051,3384L22041,3395L22042,3393L22033,3407L22034,3404L22027,3420L22028,3418L22022,3436L22023,3434L22019,3454L22019,3453L22016,3475L22016,3474L22015,3497L22015,3495L22018,3546L22017,3544L22025,3599L22025,3597L22038,3654L22037,3653L22054,3711L22054,3710L22075,3767L22075,3766L22099,3821L22099,3820L22126,3872L22141,3897L22141,3896L22158,3921L22157,3920L22194,3969L22194,3968L22235,4014L22234,4013L22278,4056L22277,4055L22300,4074L22299,4074L22322,4092L22321,4091L22343,4107L22343,4106L22365,4120L22364,4120L22386,4132L22385,4131L22406,4141L22405,4140L22425,4147L22423,4146L22443,4150L22441,4150L22459,4151L22456,4151L22474,4150L22470,4150L22486,4145L22483,4147L22497,4138L22494,4141L22507,4128L22504,4131L22515,4115L22514,4118L22522,4098L22521,4100L22528,4075L22527,4077L22531,4048L22531,4050L22532,4016L22532,4018L22531,3979L22531,3980L22526,3937L22526,3938L22519,3889L22519,3890L22508,3836L22508,3837L22494,3777L22476,3712L22508,3703L22526,3769L22541,3829L22552,3884L22559,3933L22564,3977L22566,4017L22564,4052L22560,4083L22553,4109L22544,4132L22531,4151L22516,4166L22498,4177L22479,4183L22458,4185L22437,4183L22415,4179L22393,4171L22371,4161L22348,4149L22324,4134L22301,4118L22278,4100L22255,4080L22210,4037L22168,3990L22130,3940L22113,3914L22097,3888L22069,3836L22044,3779L22023,3721L22005,3662L21992,3604L21984,3548L21982,3496L21983,3472L21986,3449L21990,3427L21996,3407L22005,3389L22015,3373L22028,3359L22044,3349L22062,3342L22082,3339L22104,3339L22128,3344L22160,3363L22143,3391ZM22175,3274L22293,3464L22071,3445L22175,3274Z" style="fill-rule:nonzero;stroke:black;stroke-width:1px;"/>
        </g>
        <g transform="matrix(0.039997,0,0,0.0399986,0,0)">
            <path d="M22032,3884L22120,3803L22225,3916L22137,3998L22032,3884Z" style="fill:white;"/>
        </g>
        <g transform="matrix(0.159988,0,0,0.159994,926.916,93.1234)">
            <g transform="matrix(133,0,0,133,66.5,0)">
            </g>
            <text x="0px" y="0px" style="font-family:'ArialMT', 'Arial';font-size:133px;fill:rgb(0,112,192);">x</text>
        </g>
        <g transform="matrix(0.159988,0,0,0.159994,943.554,93.1234)">
            <g transform="matrix(133,0,0,133,115.648,0)">
            </g>
            <text x="0px" y="0px" style="font-family:'ArialMT', 'Arial';font-size:133px;fill:rgb(0,112,192);">=</text>
        </g>
        <g transform="matrix(0.159988,0,0,0.159994,962.113,93.1234)">
            <g transform="matrix(133,0,0,133,95.5483,0)">
            </g>
            <text x="0px" y="0px" style="font-family:'ArialMT', 'Arial';font-size:133px;fill:rgb(0,112,192);">x<tspan x="66px " y="0px ">‘</tspan></text>
        </g>
        <g transform="matrix(0.039997,0,0,0.0399986,0,0)">
            <path d="M20875,5039L17361,5009L17361,4975L20876,5005L20875,5039ZM17394,5092L17194,4990L17395,4892L17394,5092Z" style="fill:rgb(0,176,80);fill-rule:nonzero;stroke:rgb(0,176,80);stroke-width:1px;"/>
        </g>
        <g transform="matrix(0.039997,0,0,0.0399986,0,0)">
            <path d="M20910,5014L23444,2727L23422,2702L20887,4989L20910,5014ZM23475,2811L23557,2602L23341,2662L23475,2811Z" style="fill:rgb(0,112,192);fill-rule:nonzero;stroke:rgb(0,112,192);stroke-width:1px;"/>
        </g>
        <g transform="matrix(0.039997,0,0,0.0399986,0,0)">
            <path d="M20911,4833L20945,1061L20912,1061L20878,4833L20911,4833ZM21028,1095L20930,894L20828,1094L21028,1095Z" style="fill:rgb(192,0,0);fill-rule:nonzero;stroke:rgb(192,0,0);stroke-width:1px;"/>
        </g>
        <g transform="matrix(0.159988,0,0,0.159994,826.284,27.3424)">
            <g transform="matrix(133,0,0,133,66.5,0)">
            </g>
            <text x="0px" y="0px" style="font-family:'ArialMT', 'Arial';font-size:133px;fill:rgb(192,0,0);">z</text>
        </g>
        <g transform="matrix(0.159988,0,0,0.159994,684.154,192.165)">
            <g transform="matrix(133,0,0,133,66.5,0)">
            </g>
            <text x="0px" y="0px" style="font-family:'ArialMT', 'Arial';font-size:133px;fill:rgb(0,176,80);">y</text>
        </g>
        <g transform="matrix(0.039997,0,0,0.0399986,0,0)">
            <path d="M20886,5054L20822,5036L20826,5020L20891,5037L20886,5054ZM20774,5023L20709,5005L20714,4989L20778,5007L20774,5023ZM20661,4992L20597,4975L20601,4959L20665,4976L20661,4992ZM20548,4962L20484,4944L20489,4928L20553,4946L20548,4962ZM20436,4931L20372,4914L20376,4897L20440,4915L20436,4931ZM20323,4900L20259,4883L20263,4867L20328,4884L20323,4900ZM20211,4870L20146,4852L20151,4836L20215,4854L20211,4870ZM20098,4839L20034,4822L20038,4806L20103,4823L20098,4839ZM19986,4809L19921,4791L19926,4775L19990,4792L19986,4809ZM19873,4778L19809,4760L19813,4744L19877,4762L19873,4778ZM19760,4747L19696,4730L19700,4714L19765,4731L19760,4747ZM19648,4717L19584,4699L19588,4683L19652,4701L19648,4717ZM19535,4686L19471,4669L19475,4653L19540,4670L19535,4686ZM19423,4655L19358,4638L19363,4622L19427,4639L19423,4655ZM19310,4625L19246,4607L19250,4591L19315,4609L19310,4625ZM19198,4594L19133,4577L19138,4561L19202,4578L19198,4594ZM19085,4564L19021,4546L19025,4530L19089,4548L19085,4564ZM18972,4533L18908,4516L18912,4499L18977,4517L18972,4533ZM18860,4502L18795,4485L18800,4469L18864,4486L18860,4502ZM18747,4472L18683,4454L18687,4438L18752,4456L18747,4472ZM18635,4441L18570,4424L18575,4408L18639,4425L18635,4441ZM18522,4411L18458,4393L18462,4377L18526,4394L18522,4411ZM18410,4380L18345,4362L18350,4346L18414,4364L18410,4380ZM18297,4349L18233,4332L18237,4316L18301,4333L18297,4349ZM18184,4319L18120,4301L18124,4285L18189,4303L18184,4319ZM18072,4288L18007,4271L18012,4254L18076,4272L18072,4288ZM17959,4257L17895,4240L17899,4224L17964,4241L17959,4257ZM17847,4227L17782,4209L17787,4193L17851,4211L17847,4227ZM17734,4196L17670,4179L17674,4163L17738,4180L17734,4196ZM17621,4166L17557,4148L17562,4132L17626,4149L17621,4166ZM17529,4235L17362,4086L17582,4042L17529,4235Z" style="fill:rgb(0,176,80);fill-rule:nonzero;stroke:rgb(0,176,80);stroke-width:1px;"/>
        </g>
        <g transform="matrix(0.039997,0,0,0.0399986,0,0)">
            <path d="M20702,5030C20702,4920 20788,4830 20892,4830C20997,4830 21082,4920 21082,5030C21082,5141 20997,5230 20892,5230C20788,5230 20702,5141 20702,5030" style="fill:rgb(68,114,196);"/>
        </g>
        <g transform="matrix(0.039997,0,0,0.0399986,0,0)">
            <path d="M20702,5030C20702,4920 20788,4830 20892,4830C20997,4830 21082,4920 21082,5030C21082,5141 20997,5230 20892,5230C20788,5230 20702,5141 20702,5030" style="fill:none;stroke:rgb(47,82,143);stroke-width:33px;stroke-linejoin:miter;stroke-miterlimit:8;"/>
        </g>
        <g transform="matrix(0.159988,0,0,0.159994,711.854,158.397)">
            <g transform="matrix(133,0,0,133,94.5483,0)">
            </g>
            <text x="0px" y="0px" style="font-family:'ArialMT', 'Arial';font-size:133px;fill:rgb(0,176,80);">y<tspan x="65px " y="0px ">‘</tspan></text>
        </g>
        <g transform="matrix(0.039997,0,0,0.0399986,0,0)">
            <path d="M20903,4835L20916,4769L20899,4766L20886,4831L20903,4835ZM20925,4720L20938,4655L20922,4652L20909,4717L20925,4720ZM20948,4606L20961,4540L20945,4537L20932,4603L20948,4606ZM20971,4491L20984,4426L20968,4423L20955,4488L20971,4491ZM20994,4377L21007,4312L20990,4308L20977,4374L20994,4377ZM21016,4263L21029,4197L21013,4194L21000,4259L21016,4263ZM21039,4148L21052,4083L21036,4079L21023,4145L21039,4148ZM21062,4034L21075,3968L21059,3965L21046,4030L21062,4034ZM21085,3919L21098,3854L21081,3851L21068,3916L21085,3919ZM21107,3805L21120,3739L21104,3736L21091,3802L21107,3805ZM21130,3690L21143,3625L21127,3622L21114,3687L21130,3690ZM21153,3576L21166,3511L21150,3507L21137,3573L21153,3576ZM21176,3462L21189,3396L21172,3393L21159,3458L21176,3462ZM21198,3347L21211,3282L21195,3278L21182,3344L21198,3347ZM21221,3233L21234,3167L21218,3164L21205,3229L21221,3233ZM21244,3118L21257,3053L21241,3050L21228,3115L21244,3118ZM21267,3004L21280,2938L21263,2935L21250,3001L21267,3004ZM21289,2889L21302,2824L21286,2821L21273,2886L21289,2889ZM21312,2775L21325,2710L21309,2706L21296,2772L21312,2775ZM21335,2661L21348,2595L21332,2592L21319,2657L21335,2661ZM21358,2546L21371,2481L21354,2477L21341,2543L21358,2546ZM21380,2432L21393,2366L21377,2363L21364,2428L21380,2432ZM21403,2317L21416,2252L21400,2249L21387,2314L21403,2317ZM21426,2203L21439,2137L21423,2134L21410,2200L21426,2203ZM21449,2088L21462,2023L21445,2020L21432,2085L21449,2088ZM21472,1974L21485,1909L21468,1905L21455,1971L21472,1974ZM21494,1860L21507,1794L21491,1791L21478,1856L21494,1860ZM21517,1745L21530,1680L21514,1677L21501,1742L21517,1745ZM21540,1631L21553,1565L21536,1562L21523,1627L21540,1631ZM21563,1516L21576,1451L21559,1448L21546,1513L21563,1516ZM21585,1402L21598,1336L21582,1333L21569,1399L21585,1402ZM21608,1287L21616,1248L21600,1244L21592,1284L21608,1287ZM21699,1298L21640,1082L21503,1259L21699,1298Z" style="fill:rgb(192,0,0);fill-rule:nonzero;stroke:rgb(192,0,0);stroke-width:1px;"/>
        </g>
        <g transform="matrix(0.159988,0,0,0.159994,871.221,45.3304)">
            <g transform="matrix(150,0,0,150,108.325,0)">
            </g>
            <text x="0px" y="0px" style="font-family:'ArialMT', 'Arial';font-size:150px;fill:rgb(192,0,0);">z‘</text>
        </g>
        <g transform="matrix(0.039997,0,0,0.0399986,0,0)">
            <path d="M18302,4983L18286,4912L18276,4838L18271,4760L18272,4681L18279,4601L18292,4526L18309,4529L18295,4603L18295,4602L18289,4682L18288,4760L18288,4759L18293,4836L18292,4836L18302,4910L18302,4909L18318,4979L18302,4983ZM18196,4537L18338,4365L18391,4582L18196,4537Z" style="fill-rule:nonzero;stroke:black;stroke-width:1px;"/>
        </g>
        <g transform="matrix(0.039997,0,0,0.0399986,0,0)">
            <path d="M20957,1596L21026,1589L21099,1587L21172,1591L21247,1599L21322,1612L21382,1629L21377,1645L21318,1628L21319,1629L21244,1616L21245,1616L21171,1607L21098,1604L21099,1604L21027,1606L21028,1606L20959,1613L20957,1596ZM21378,1532L21538,1688L21317,1722L21378,1532Z" style="fill-rule:nonzero;stroke:black;stroke-width:1px;"/>
        </g>
        <g transform="matrix(0.159988,0,0,0.159994,890.883,190.502)">
            <g transform="matrix(133,0,0,133,177.592,0)">
            </g>
            <text x="0px" y="0px" style="font-family:'ArialMT', 'Arial';font-size:133px;">r<tspan x="44.001px 118.021px 148.044px " y="0px 0px 0px ">oll</tspan></text>
        </g>
    </g>
</svg>
