<?xml version="1.0" encoding="UTF-8" standalone="no"?><!DOCTYPE svg PUBLIC "-//W3C//DTD SVG 1.1//EN" "http://www.w3.org/Graphics/SVG/1.1/DTD/svg11.dtd"><svg width="100%" height="100%" viewBox="0 0 1955 834" version="1.1" xmlns="http://www.w3.org/2000/svg" xmlns:xlink="http://www.w3.org/1999/xlink" xml:space="preserve" xmlns:serif="http://www.serif.com/" style="fill-rule:evenodd;clip-rule:evenodd;stroke-linejoin:round;stroke-miterlimit:10;"><g><g id="Road"><g id="Street"><path d="M970.228,487.512l266.551,-1.469l696.331,347.363l-1904.22,-0l941.337,-345.894Z" style="fill:#c8c8c8;"/><path d="M966.759,487.104l11.467,-0.408l-935.256,346.669l-43.133,0.367l966.922,-346.628Z" style="fill:#fff;"/><path d="M1238.74,487.104l-8.488,-0.408l671.194,346.71l52.559,0.326l-715.265,-346.628Z" style="fill:#fff;"/><path d="M943.254,724.12l24.199,-0.408l-67.862,109.285l-31.381,0.735l75.044,-109.612Z" style="fill:#fff;"/><path d="M1070.42,541.372l11.711,-0.204l-32.809,52.562l-15.18,0.326l36.278,-52.684Z" style="fill:#fff;"/><path d="M1012.85,622.249l17.129,-0.266l-43.819,68.375l-22.202,0.425l48.892,-68.534Z" style="fill:#fff;"/><path d="M1103.5,491.715l6.611,-0.122l-18.526,29.831l-8.57,0.204l20.485,-29.913Z" style="fill:#fff;"/><path d="M1280.52,512.389l25.284,9.239l-215.759,-0l6.517,-9.239l183.958,0Z" style="fill:#fff;"/></g><g id="Vegetation"><g><path d="M537.325,197.574l-193.617,-1.72l-0,427.142l193.659,1.498l-0.042,-426.92Z" style="fill:none;stroke:#7f7f7f;stroke-width:2.08px;stroke-dasharray:4.17,4.17,0,0,0,0;"/><path d="M349.379,643.733c32.658,-20.656 14.804,-193.787 14.804,-193.787l39.194,-0.57c0,-0 -3.689,190.752 14.537,193.777c4.224,0.701 -69.063,0.914 -68.535,0.58Z" style="fill:#b3784e;"/><ellipse cx="383.733" cy="339.129" rx="96.83" ry="120.401" style="fill:#86b6ac;"/><path d="M537.367,624.494l-91.161,39.202" style="fill:none;stroke:#7f7f7f;stroke-width:2.08px;stroke-dasharray:4.17,4.17,0,0,0,0;"/><path d="M537.367,195.854l-91.161,39.202" style="fill:none;stroke:#7f7f7f;stroke-width:2.08px;stroke-dasharray:4.17,4.17,0,0,0,0;"/><path d="M343.708,624.494l-91.161,39.202" style="fill:none;stroke:#7f7f7f;stroke-width:2.08px;stroke-dasharray:4.17,4.17,0,0,0,0;"/><path d="M343.708,195.854l-91.161,39.202" style="fill:none;stroke:#7f7f7f;stroke-width:2.08px;stroke-dasharray:4.17,4.17,0,0,0,0;"/><path d="M446.164,236.775l-193.617,-1.719l-0,427.142l193.659,1.498l-0.042,-426.921Z" style="fill:none;stroke:#7f7f7f;stroke-width:2.08px;stroke-dasharray:4.17,4.17,0,0,0,0;"/></g></g><g id="Buildings"><g><path d="M1297.92,415.226l238.75,-21.034l0.12,213.898l-238.887,-104.282l0.017,-88.582Z" style="fill:#edd5bf;"/><rect x="1536.79" y="394.192" width="16.977" height="213.898" style="fill:#f6cd90;fill-opacity:0.5;"/><path d="M1297.9,416.667l14.58,-27.544l241.284,-52.947l-16.977,58.016l-238.887,22.475Z" style="fill:#d47f89;"/><path d="M1536.79,394.192l16.977,-58.016l-0,58.016l-16.977,-0Z" style="fill:#aa0013;fill-opacity:0.5;"/><path d="M1311.44,431.652l27.403,-0.08l0.455,62.93l-28.049,-9.624l0.191,-53.226Z" style="fill:#eaeaea;"/><path d="M1438.18,472.557l43.394,-0l-0.02,111.788l-43.19,-19.597l-0.184,-92.191Z" style="fill:#eaeaea;"/><path d="M1366.55,431.652l36.407,-0l0.509,81.81l-36.916,-11.01l-0,-70.8Z" style="fill:#eaeaea;"/></g><g><path d="M1553.96,321.74l400.205,-101.366l-0,566.867l-400.403,-175.306l0.198,-290.195Z" style="fill:#edd5bf;stroke:#7f7f7f;stroke-width:2.08px;stroke-dasharray:4.17,4.17,0,0,0,0;"/><path d="M1553.96,321.74l224.811,-0.073l3.16,290.416l-228.169,-0.148l0.198,-290.195Z" style="fill:none;stroke:#7f7f7f;stroke-width:2.08px;stroke-dasharray:4.17,4.17,0,0,0,0;"/><path d="M1954.17,293.277l-175.394,28.39l3.16,290.416l172.234,48.836l-0,-367.642Z" style="fill:none;stroke:#7f7f7f;stroke-width:2.08px;stroke-dasharray:4.17,4.17,0,0,0,0;"/><path d="M1681.25,501.141l72.715,8.407l0,189.077l-72.715,-31.926l0,-165.558Z" style="fill:#eaeaea;fill-opacity:0.5;"/><path d="M1584.58,365.026l73.334,-8.841l0.055,97.211l-73.465,-3.074l0.076,-85.296Z" style="fill:#eaeaea;fill-opacity:0.5;"/><path d="M1810.32,333.406l105.101,-14.841l0.161,148.207l-105.713,-4.574l0.451,-128.792Z" style="fill:#eaeaea;fill-opacity:0.5;"/><path d="M1553.76,321.679l67.355,-96.164l333.048,-137.524l-0,132.383l-400.403,101.305Z" style="fill:#d47f89;"/></g></g><rect x="734.173" y="391.897" width="242.91" height="1.029" style="fill:#c8c8c8;"/></g><g id="Coordinate-system" serif:id="Coordinate system"><g><g id="arrow-blue" serif:id="arrow blue"><g><path d="M369.173,538.452l12.5,-25l12.5,25l-25,0Z" style="fill:#0071b4;"/><path d="M381.673,641.073l-0,-107.621" style="fill:none;stroke:#0071b4;stroke-width:8.33px;stroke-miterlimit:1.5;"/></g></g></g><g><g id="arrow-blue1" serif:id="arrow blue"><g><path d="M480.238,628.573l24.967,12.565l-25.032,12.435l0.065,-25Z" style="fill:#0071b4;"/><path d="M377.585,640.807l107.621,0.279" style="fill:none;stroke:#0071b4;stroke-width:8.33px;stroke-miterlimit:1.5;"/></g></g></g><g><g id="arrow-blue2" serif:id="arrow blue"><g><path d="M446.86,596.978l27.887,1.889l-18.244,21.176l-9.643,-23.065Z" style="fill:#0071b4;"/><path d="M383.049,637.205l73.245,-30.623" style="fill:none;stroke:#0071b4;stroke-width:7.32px;stroke-miterlimit:1.5;"/></g></g></g><g><g transform="matrix(66.6667,0,0,66.6667,491.185,585.55)"></g><text x="457.852px" y="585.55px" style="font-family:'TimesNewRomanPS-BoldMT', 'Times New Roman';font-weight:700;font-size:66.667px;fill:#0071b4;">x</text></g><g><text x="393.489px" y="528.67px" style="font-family:'TimesNewRomanPS-BoldMT', 'Times New Roman';font-weight:700;font-size:66.667px;fill:#0071b4;">z</text></g><g><g transform="matrix(66.6667,0,0,66.6667,537.985,649.097)"></g><text x="504.652px" y="649.097px" style="font-family:'TimesNewRomanPS-BoldMT', 'Times New Roman';font-weight:700;font-size:66.667px;fill:#0071b4;">y</text></g><g><text x="355.631px" y="699.421px" style="font-family:'TimesNewRomanPS-BoldMT', 'Times New Roman';font-weight:700;font-size:66.666px;fill:#0071b4;">O</text></g></g><g id="Coordinate-system1" serif:id="Coordinate system"><g><g id="arrow-blue3" serif:id="arrow blue"><g><path d="M1802.31,567.961l12.5,-25l12.5,25l-25,0Z" style="fill:#0071b4;"/><path d="M1814.81,670.582l0,-107.621" style="fill:none;stroke:#0071b4;stroke-width:8.33px;stroke-miterlimit:1.5;"/></g></g></g><g><g id="arrow-blue4" serif:id="arrow blue"><g><path d="M1876.04,658.675l24.968,12.565l-25.033,12.435l0.065,-25Z" style="fill:#0071b4;"/><path d="M1810.67,671.006l70.337,0.182" style="fill:none;stroke:#0071b4;stroke-width:8.33px;stroke-miterlimit:1.5;"/></g></g></g><g><g id="arrow-blue5" serif:id="arrow blue"><g><path d="M1738.78,654.516l-18.388,-21.051l27.873,-2.08l-9.485,23.131Z" style="fill:#0071b4;"/><path d="M1812.35,671.175l-73.453,-30.122" style="fill:none;stroke:#0071b4;stroke-width:7.32px;stroke-miterlimit:1.5;"/></g></g></g><g><g transform="matrix(66.6667,0,0,66.6667,1740.13,621.555)"></g><text x="1706.8px" y="621.555px" style="font-family:'TimesNewRomanPS-BoldMT', 'Times New Roman';font-weight:700;font-size:66.667px;fill:#0071b4;">x</text></g><g><text x="1826.63px" y="558.18px" style="font-family:'TimesNewRomanPS-BoldMT', 'Times New Roman';font-weight:700;font-size:66.667px;fill:#0071b4;">z</text></g><g><g transform="matrix(66.6667,0,0,66.6667,1940.47,679.212)"></g><text x="1907.14px" y="679.212px" style="font-family:'TimesNewRomanPS-BoldMT', 'Times New Roman';font-weight:700;font-size:66.667px;fill:#0071b4;">y</text></g><g><text x="1784.63px" y="724.211px" style="font-family:'TimesNewRomanPS-BoldMT', 'Times New Roman';font-weight:700;font-size:66.666px;fill:#0071b4;">O</text></g></g><g id="cardinal-direction" serif:id="cardinal direction"><g><g><path d="M70.47,169.361l30.046,-60.663l25.318,21.707l-55.364,38.956Z" style="fill:#eaeaea;"/><path d="M70.47,169.361l30.046,-60.663l25.318,21.707l-55.364,38.956Zm11.01,-12.842l37.574,-26.439l-17.183,-14.732l-20.391,41.171Z" style="fill:#7f7f7f;"/><path d="M155.88,69.741l-30.046,60.664l-25.318,-21.707l55.364,-38.957Z" style="fill:#7f7f7f;"/><path d="M155.88,69.741l-30.046,60.664l-25.318,-21.707l55.364,-38.957Zm-11.01,12.842l-37.574,26.439l17.182,14.732l20.392,-41.171Z" style="fill:#7f7f7f;"/></g><path d="M157.536,47.967c39.446,24.544 51.544,76.496 27,115.941c-24.544,39.446 -76.496,51.544 -115.941,26.999c-39.446,-24.544 -51.544,-76.495 -27,-115.941c24.544,-39.445 76.496,-51.543 115.941,-26.999Zm-9.905,15.92c-30.66,-19.077 -71.039,-9.674 -90.116,20.985c-19.077,30.659 -9.674,71.039 20.985,90.116c30.66,19.077 71.039,9.673 90.116,-20.986c19.077,-30.659 9.674,-71.038 -20.985,-90.115Z" style="fill:#7f7f7f;"/></g><g transform="matrix(-1,-8.13284e-17,1.62657e-16,-0.999996,509.304,44.04)"><g transform="matrix(66.6669,0,0,66.6669,317.533,22.02)"></g><text x="269.389px" y="22.02px" style="font-family:'ArialMT', 'Arial';font-size:66.667px;fill:#7f7f7f;">N</text></g></g></g></svg>