<?xml version="1.0" encoding="UTF-8" standalone="no"?>
<!DOCTYPE svg PUBLIC "-//W3C//DTD SVG 1.1//EN" "http://www.w3.org/Graphics/SVG/1.1/DTD/svg11.dtd">
<svg width="100%" height="100%" viewBox="0 0 469 245" version="1.1" xmlns="http://www.w3.org/2000/svg" xmlns:xlink="http://www.w3.org/1999/xlink" xml:space="preserve" xmlns:serif="http://www.serif.com/" style="fill-rule:evenodd;clip-rule:evenodd;stroke-linejoin:round;stroke-miterlimit:1.5;">
    <g transform="matrix(1,0,0,1,-540,-350)">
        <g transform="matrix(1,0,0,1,-1.13687e-13,35.6323)">
            <g id="arrow-black" serif:id="arrow black" transform="matrix(-0.843561,0,0,1,1167,-13.5646)">
                <path d="M187.297,443.167C187.297,443.167 297.567,426.626 339.844,422.053C373.417,418.422 420.224,415.914 440.954,415.734" style="fill:none;stroke:rgb(129,123,123);stroke-width:1.08px;"/>
            </g>
            <g id="arrow-black1" serif:id="arrow black" transform="matrix(-0.843561,0,0,1,1167,-13.5646)">
                <path d="M490.869,415.437C496.028,415.427 506.345,415.409 523.102,415.739" style="fill:none;stroke:rgb(129,123,123);stroke-width:1.08px;"/>
            </g>
            <g id="arrow-black2" serif:id="arrow black" transform="matrix(-0.843561,0,0,1,1167,-13.5646)">
                <path d="M578.792,418.452C580.122,418.457 582.781,418.467 597.388,420.662C629.333,425.463 742.465,443.167 742.465,443.167" style="fill:none;stroke:rgb(129,123,123);stroke-width:1.08px;"/>
            </g>
            <g id="arrow-black3" serif:id="arrow black" transform="matrix(-0.843561,0,0,1,1167,-13.5646)">
                <path d="M569.99,412.799C569.99,412.799 583.659,417.087 585.569,414.561C599.539,396.094 616.629,362.004 615.256,361.993C586.428,361.777 316.624,358.307 316.872,360.461C318.516,374.734 337.847,414.815 343.421,414.561C366.139,413.525 529.716,411.799 530.122,411.798" style="fill:none;stroke:rgb(129,123,123);stroke-width:1.08px;"/>
            </g>
            <g id="arrow-black4" serif:id="arrow black" transform="matrix(-0.843561,0,0,1,1167,-13.5646)">
                <path d="M497.736,365.351C477.22,365.302 466.736,364.277 437.346,365.702C434.937,365.818 429.219,378.274 432.328,379.311C443.174,382.926 489.97,381.98 500.871,379.654C505.645,378.635 497.736,365.351 497.736,365.351ZM437.527,366.695C437.427,366.772 437.021,367.096 436.759,367.407C435.473,368.926 434.009,371.808 433.203,374.364C432.832,375.537 432.598,376.639 432.61,377.497C432.614,377.769 432.641,378.01 432.709,378.21C432.73,378.273 432.783,378.362 432.802,378.393C435.998,379.447 442.331,380.08 449.919,380.42C467.958,381.23 493.003,380.302 500.581,378.684C500.87,378.623 501.008,378.422 501.095,378.172C501.272,377.664 501.246,376.999 501.125,376.25C500.575,372.851 497.92,367.973 496.995,366.349L496.995,366.348C477.011,366.277 466.443,365.296 437.527,366.695Z" style="fill:rgb(129,123,123);"/>
            </g>
            <g id="arrow-black5" serif:id="arrow black">
            </g>
            <g transform="matrix(1.03846,0,0,1.15033,524.664,266.134)">
                <ellipse cx="172.484" cy="142.106" rx="33.807" ry="30.607" style="fill:none;stroke:rgb(129,123,123);stroke-width:0.91px;stroke-linecap:round;"/>
            </g>
            <g id="arrow-black6" serif:id="arrow black" transform="matrix(-0.843561,0,0,1,1167,-13.5646)">
                <path d="M604.253,522.944C604.253,522.944 583.765,497.738 585.689,477.334C586.73,466.287 601.695,412.857 608.523,400.589C612.764,392.97 621.896,382.99 628.701,376.232C634.909,370.068 641.575,363.876 649.356,360.042C678.662,345.602 743.273,327.932 743.273,327.932" style="fill:none;stroke:rgb(129,123,123);stroke-width:1.08px;"/>
            </g>
            <g id="arrow-black7" serif:id="arrow black" transform="matrix(-0.843561,0,0,1,1167,-13.5646)">
                <path d="M549.118,415.357C549.118,415.357 568.293,413.009 581.71,436.863C583.197,439.507 560.076,432.565 549.118,432.564C538.091,432.563 514.399,439.558 515.546,436.858C525.285,413.945 549.118,415.357 549.118,415.357" style="fill:none;stroke:rgb(129,123,123);stroke-width:1.08px;"/>
            </g>
            <g id="arrow-black8" serif:id="arrow black" transform="matrix(-0.843561,0,0,1,1167,-13.5646)">
                <path d="M717.752,526.67C719.238,529.313 658.565,513.033 621.209,489.821C610.665,483.269 605.183,463.971 605.183,463.971C605.799,457.542 613.634,457.255 614.407,458.374C616.397,461.252 717.752,526.67 717.752,526.67" style="fill:none;stroke:rgb(129,123,123);stroke-width:1.08px;"/>
            </g>
            <g id="arrow-black9" serif:id="arrow black" transform="matrix(-0.843561,0,0,1,1167,-13.5646)">
                <path d="M212.906,532.108C214.393,534.751 277.55,489.621 314.125,460.536C316.146,458.929 323.962,457.723 324.831,463.793C326.333,474.3 307.606,491.682 306.336,492.41C254.889,521.882 212.906,532.108 212.906,532.108" style="fill:none;stroke:rgb(129,123,123);stroke-width:1.08px;"/>
            </g>
            <g id="arrow-black10" serif:id="arrow black" transform="matrix(-0.843561,0,0,1,1169.22,-14.9824)">
                <path d="M558.961,473.391C558.961,473.391 583.126,468.486 583.413,448.733C583.45,446.165 567.332,449.667 561.922,458.184C559.031,462.736 558.961,473.391 558.961,473.391" style="fill:none;stroke:rgb(129,123,123);stroke-width:1.08px;"/>
            </g>
            <g id="arrow-black11" serif:id="arrow black" transform="matrix(0.843561,0,0,1,237.726,-14.9824)">
                <path d="M558.961,473.391C558.961,473.391 583.126,468.486 583.413,448.733C583.45,446.165 567.332,449.667 561.922,458.184C559.031,462.736 558.961,473.391 558.961,473.391" style="fill:none;stroke:rgb(129,123,123);stroke-width:1.08px;"/>
            </g>
            <g id="arrow-black12" serif:id="arrow black" transform="matrix(-0.843561,0,0,1,1167,-13.5646)">
                <path d="M652.047,590.561C652.047,590.561 655.47,543.381 597.578,520.002C594.832,518.893 509.154,513.253 503.744,521.771C500.853,526.323 499.012,530.576 499.012,530.576" style="fill:none;stroke:rgb(129,123,123);stroke-width:1.08px;"/>
            </g>
            <g id="arrow-black13" serif:id="arrow black" transform="matrix(-0.843561,0,0,1,1167,-13.5646)">
                <path d="M280.463,590.561C280.463,590.561 282.294,544.007 328.186,521.922C348.611,512.093 429.901,514.391 431.906,523.905C433.315,530.59 432.233,532.924 432.233,532.924" style="fill:none;stroke:rgb(129,123,123);stroke-width:1.08px;"/>
            </g>
            <g id="arrow-black14" serif:id="arrow black" transform="matrix(-0.843561,0,0,1,1167,-13.5646)">
                <path d="M422.368,590.561C422.368,590.561 427.904,533.008 439.737,515.572C442.327,511.756 491.431,511.391 494.385,515.572C499.566,522.906 510.648,590.561 510.648,590.561" style="fill:none;stroke:rgb(129,123,123);stroke-width:1.08px;"/>
            </g>
            <g id="arrow-black15" serif:id="arrow black" transform="matrix(-0.843561,0,0,1,1167,-13.5646)">
                <path d="M422.368,590.561C422.368,590.561 427.904,533.008 439.737,515.572C440.896,513.864 430.585,457.723 432.63,443.755C433.943,434.782 495.619,435.962 499.275,442.397C503.649,450.096 491.976,514.302 491.976,514.302" style="fill:none;stroke:rgb(129,123,123);stroke-width:1.08px;"/>
            </g>
            <g transform="matrix(1,0,0,1,540,331.996)">
                <path d="M255.025,71.018C255.025,69.543 253.828,68.346 252.354,68.346L215.59,68.346C214.115,68.346 212.919,69.543 212.919,71.018L212.919,89.066C212.919,90.54 214.115,91.737 215.59,91.737L252.354,91.737C253.828,91.737 255.025,90.54 255.025,89.066L255.025,71.018Z" style="fill:none;stroke:rgb(129,123,123);stroke-width:1px;stroke-linecap:round;stroke-linejoin:miter;"/>
                <path d="M236.873,14.811C235.43,14.91 232.745,14.899 231.498,14.909C231.498,14.909 230.978,19.814 232.453,19.814L235.662,19.815C237.158,20.078 236.873,14.811 236.873,14.811Z" style="fill:none;stroke:rgb(129,123,123);stroke-width:1px;stroke-linecap:round;stroke-linejoin:miter;"/>
            </g>
            <g id="arrow-black16" serif:id="arrow black" transform="matrix(-0.843561,0,0,1,1167,-13.5646)">
                <path d="M327.721,522.186C327.721,522.186 348.608,497.066 344.54,474.673C340.334,451.517 340.114,446.92 327.452,409.667C323.438,397.857 312.878,388.63 304.784,380.434C297.127,372.682 288.148,366.065 278.884,360.492C261.034,349.755 187.297,330.932 187.297,330.932" style="fill:none;stroke:rgb(129,123,123);stroke-width:1.08px;"/>
            </g>
        </g>
        <g id="Coordinate-system" serif:id="Coordinate system" transform="matrix(1,0,0,1,5.23877,-9.74864)">
            <g transform="matrix(1,7.6206e-10,5.6868e-10,0.999998,534.442,354.655)">
                <g id="arrow-blue" serif:id="arrow blue">
                    <g>
                        <path d="M205.872,40.425L199.897,37.375L205.922,34.425L205.872,40.425Z" style="fill:rgb(0,113,180);"/>
                        <path d="M235.59,37.672C235.59,37.672 214.433,37.496 204.697,37.415" style="fill:none;stroke:rgb(0,113,180);stroke-width:2px;"/>
                    </g>
                </g>
            </g>
            <g transform="matrix(0.999999,-6.57e-28,-9.7202e-28,1,534.441,354.656)">
                <g id="arrow-blue1" serif:id="arrow blue">
                    <g>
                        <path d="M231.587,14.004L234.587,8.004L237.587,14.004L231.587,14.004Z" style="fill:rgb(0,113,180);"/>
                        <path d="M234.587,38.509L234.587,12.804" style="fill:none;stroke:rgb(0,113,180);stroke-width:2px;"/>
                    </g>
                </g>
            </g>
            <g transform="matrix(0.999999,-6.57e-28,-9.7202e-28,1,534.441,354.656)">
                <g id="arrow-blue2" serif:id="arrow blue">
                    <g>
                        <path d="M242.11,26.082L248.43,23.834L246.436,30.239L242.11,26.082Z" style="fill:rgb(0,113,180);"/>
                        <path d="M234.842,37.973C234.842,37.973 241.082,31.481 245.104,27.295" style="fill:none;stroke:rgb(0,113,180);stroke-width:2px;"/>
                    </g>
                </g>
            </g>
            <g transform="matrix(1,0,0,1,730.519,386.813)">
                <text x="0px" y="0px" style="font-family:'TimesNewRomanPS-BoldMT', 'Times New Roman';font-weight:700;font-size:16px;fill:rgb(0,113,180);">y</text>
            </g>
            <g transform="matrix(1.11514,0,0,1.11514,772.946,367.053)">
                <text x="0px" y="0px" style="font-family:'TimesNewRomanPS-BoldMT', 'Times New Roman';font-weight:700;font-size:14.348px;fill:rgb(0,113,180);">z</text>
            </g>
            <g transform="matrix(1,0,0,1,784.103,382.143)">
                <text x="0px" y="0px" style="font-family:'TimesNewRomanPS-BoldMT', 'Times New Roman';font-weight:700;font-size:16px;fill:rgb(0,113,180);">x</text>
            </g>
            <g transform="matrix(1.12889,0,0,1.12889,761.744,410.375)">
                <text x="0px" y="0px" style="font-family:'TimesNewRomanPS-BoldMT', 'Times New Roman';font-weight:700;font-size:16px;fill:rgb(0,113,180);">O</text>
            </g>
        </g>
    </g>
</svg>
