<?xml version="1.0" encoding="UTF-8" standalone="no"?>
<!DOCTYPE svg PUBLIC "-//W3C//DTD SVG 1.1//EN" "http://www.w3.org/Graphics/SVG/1.1/DTD/svg11.dtd">
<svg width="100%" height="100%" viewBox="0 0 469 180" version="1.1" xmlns="http://www.w3.org/2000/svg" xmlns:xlink="http://www.w3.org/1999/xlink" xml:space="preserve" xmlns:serif="http://www.serif.com/" style="fill-rule:evenodd;clip-rule:evenodd;stroke-linecap:round;stroke-miterlimit:1;">
    <g transform="matrix(1,0,0,0.734694,-540,-257.143)">
        <g id="Road" transform="matrix(0.652961,0,0,0.888753,540.039,336.116)">
            <g>
                <g transform="matrix(0.0299978,0,0,0.0299989,0,2.00018e-12)">
                    <path d="M11888,5468L15154,5450L23686,9706L354,9706L11888,5468Z" style="fill:rgb(200,200,200);"/>
                </g>
                <g transform="matrix(0.0299978,0,0,0.0299989,0,2.00018e-12)">
                    <path d="M9696.43,5458L11736.2,5458L-2,9705.12L0,7115.25L9696.43,5458Z" style="fill:rgb(151,175,170);"/>
                </g>
                <g transform="matrix(0.0299978,0,0,0.0299989,0,2.00018e-12)">
                    <path d="M3840.41,6473C5459.42,6249.93 6190.2,7032.27 8291.2,6702.48C8292.43,6702.29 -2,9705.12 -2,9705.12L0,7115.25C0,7115.25 2826.34,6612.73 3840.41,6473Z" style="fill:rgb(200,200,200);"/>
                </g>
                <g transform="matrix(0.0149989,0,0,0.0149995,0,0)">
                    <path d="M15698.2,13715.4L16376,13678.5L1053,19411L-4,19420L15698.2,13715.4Z" style="fill:rgb(127,127,127);"/>
                </g>
                <g transform="matrix(0.0149989,0,0,0.0149995,0,0)">
                    <path d="M23503.4,10916L23829.1,10916C23829.1,10916 16605.4,13614.9 16582.4,13621.7C14495.1,14238.8 9883.77,12755.1 8495.51,12864.6C8431.41,12869.7 -0,14255.1 -0,14255.1L0,13832.5C0,13832.5 8474.41,12594.5 8511.1,12594C10651.4,12563.1 13914.5,13881.8 16285.1,13439.7C17008.9,13304.7 23503.4,10916 23503.4,10916Z" style="fill:white;"/>
                </g>
                <g transform="matrix(0.0299978,0,0,0.0299989,0,0)">
                    <path d="M13504.5,5458L13534.4,5458L12482.5,9705.12L12127.3,9705.12L13504.5,5458Z" style="fill:white;"/>
                </g>
                <g transform="matrix(0.0299978,0,0,0.0299989,0,0)">
                    <path d="M16168.9,8060.96L16389.5,8060.96L17690.1,9710L17330.6,9710L16168.9,8060.96Z" style="fill:white;"/>
                </g>
                <g transform="matrix(0.0299978,0,0,0.0299989,-52.5342,-66.6388)">
                    <path d="M16980.1,8970.22L17104.8,8970.22L17690.1,9710L17512.9,9711.79L16980.1,8970.22Z" style="fill:white;"/>
                </g>
                <g transform="matrix(0.0299978,0,0,0.0299989,-79.7212,-100.844)">
                    <path d="M17298,9285.79L17363.1,9286.45L17701.1,9710L17599.3,9709.8L17298,9285.79Z" style="fill:white;"/>
                </g>
                <g transform="matrix(0.0299978,0,0,0.0299989,-95.6977,-120.823)">
                    <path d="M17496.5,9483.16L17519.7,9480.51L17701.1,9710L17656.6,9712.01L17496.5,9483.16Z" style="fill:white;"/>
                </g>
                <g transform="matrix(-0.0299978,0,0,0.0299989,716.882,4.44089e-14)">
                    <path d="M14944.7,8060.96L15156.6,8060.96L17690.1,9710L17330.6,9710L14944.7,8060.96Z" style="fill:white;"/>
                </g>
                <g transform="matrix(-0.0299978,0,0,0.0299989,819.114,-66.6388)">
                    <path d="M16460.4,8970.22L16584.5,8970.22L17709.4,9711.79L17528,9711.79L16460.4,8970.22Z" style="fill:white;"/>
                </g>
                <g transform="matrix(-0.0299978,0,0,0.0299989,871.153,-100.844)">
                    <path d="M17006.9,9285.79L17058.7,9285.79L17706.1,9710L17611,9710L17006.9,9285.79Z" style="fill:white;"/>
                </g>
                <g transform="matrix(-0.0299978,0,0,0.0299989,905.9,-120.59)">
                    <path d="M17493.8,9483.83L17521,9485.2L17854.3,9704.25L17811.2,9704.25L17493.8,9483.83Z" style="fill:white;"/>
                </g>
                <g transform="matrix(0.0299978,0,0,0.0299989,0,0)">
                    <path d="M13377.6,5458L13504,5458L12127.3,9706L11216,9706L13377.6,5458Z" style="fill:rgb(151,175,170);"/>
                </g>
                <g transform="matrix(0.0299978,0,0,0.0299989,0,0)">
                    <path d="M13346.6,5458L13377.6,5458L11216.4,9705.12L10857.4,9705.12L13346.6,5458Z" style="fill:white;"/>
                </g>
                <g transform="matrix(0.0299978,0,0,0.0299989,0,0)">
                    <path d="M15801.9,5458L15168.9,5458L23944,9705.12L23944,8162.87L15801.9,5458Z" style="fill:rgb(212,127,137);"/>
                </g>
                <g transform="matrix(0.0299978,0,0,0.0299989,0,0)">
                    <path d="M15801.9,5458L16870.7,5518L23944,7014.64L23944,8162.87L15801.9,5458Z" style="fill:rgb(200,200,200);"/>
                </g>
                <g transform="matrix(0.0299978,0,0,0.0299989,0,0)">
                    <path d="M15139.7,5450L15173.7,5458L23944,9705.12L23401.6,9710L15139.7,5450Z" style="fill:white;"/>
                </g>
            </g>
            <g transform="matrix(2.01665,0,0,1.64625,-1309.06,-680.788)">
                <g transform="matrix(0.204949,0,0,0.327466,858.226,480.117)">
                    <path d="M530.238,233.354C540.647,233.354 549.098,239.62 549.098,247.337C549.098,255.054 540.647,261.319 530.238,261.319C519.829,261.319 511.378,255.054 511.378,247.337C511.378,239.62 519.829,233.354 530.238,233.354ZM530.238,236.195C521.907,236.195 515.083,241.161 515.083,247.337C515.083,253.513 521.907,258.479 530.238,258.479C538.568,258.479 545.393,253.513 545.393,247.337C545.393,241.161 538.568,236.195 530.238,236.195Z" style="fill:white;"/>
                </g>
                <g transform="matrix(-0.0622347,0,0,1.225,983.642,-48.2764)">
                    <path d="M196.138,489.719C213.18,489.742 223.496,489.547 232.672,490.963C238.161,491.81 269.055,497.459 269.055,497.459" style="fill:none;stroke:white;stroke-width:0.8px;"/>
                </g>
                <g transform="matrix(-0.0622347,0,0,1.225,983.642,-48.2764)">
                    <path d="M233.496,491.903C213.357,491.926 133.702,491.859 133.702,491.859L68.352,497.459L163.363,498.047L242.668,492.714" style="fill:none;stroke:white;stroke-width:0.8px;stroke-linejoin:round;"/>
                </g>
                <g transform="matrix(-0.0622347,0,0,1.225,983.642,-48.2764)">
                    <path d="M129.584,490.527C129.584,490.527 156.879,497.338 161.077,498.047" style="fill:none;stroke:white;stroke-width:0.8px;"/>
                </g>
                <g transform="matrix(-0.0622347,0,0,1.225,982.242,-48.2764)">
                    <path d="M129.584,490.527L94.641,490.527" style="fill:none;stroke:white;stroke-width:0.8px;"/>
                </g>
                <g transform="matrix(0.204949,0,0,0.327466,870.29,480.117)">
                    <path d="M530.238,233.354C540.647,233.354 549.098,239.62 549.098,247.337C549.098,255.054 540.647,261.319 530.238,261.319C519.829,261.319 511.378,255.054 511.378,247.337C511.378,239.62 519.829,233.354 530.238,233.354ZM530.238,236.195C521.907,236.195 515.083,241.161 515.083,247.337C515.083,253.513 521.907,258.479 530.238,258.479C538.568,258.479 545.393,253.513 545.393,247.337C545.393,241.161 538.568,236.195 530.238,236.195Z" style="fill:white;"/>
                </g>
            </g>
            <g transform="matrix(1.19765,2.16874e-16,2.39103e-16,1.19764,69.0351,239.493)">
                <path d="M7.219,0L7.219,-20.043L13.713,-20.043C16.174,-20.043 17.778,-19.943 18.525,-19.742C19.674,-19.441 20.635,-18.787 21.41,-17.78C22.185,-16.773 22.572,-15.472 22.572,-13.877C22.572,-12.647 22.349,-11.612 21.902,-10.773C21.456,-9.935 20.888,-9.276 20.2,-8.798C19.512,-8.319 18.813,-8.003 18.102,-7.848C17.135,-7.656 15.736,-7.561 13.904,-7.561L11.266,-7.561L11.266,0L7.219,0ZM11.266,-16.652L11.266,-10.965L13.48,-10.965C15.076,-10.965 16.142,-11.07 16.68,-11.279C17.217,-11.489 17.639,-11.817 17.944,-12.264C18.25,-12.71 18.402,-13.23 18.402,-13.822C18.402,-14.551 18.188,-15.153 17.76,-15.627C17.331,-16.101 16.789,-16.397 16.133,-16.516C15.65,-16.607 14.679,-16.652 13.221,-16.652L11.266,-16.652Z" style="fill:white;fill-rule:nonzero;"/>
            </g>
            <g transform="matrix(2.43144,0,0,1.98485,-1719.37,-851.211)">
                <g transform="matrix(0.0436461,0,0,0.0726517,969.476,516.934)">
                    <ellipse cx="530.238" cy="247.337" rx="18.86" ry="13.983" style="fill:white;"/>
                </g>
                <g transform="matrix(0.0195874,0,0,0.0239955,540,362.121)">
                    <path d="M23065.6,7337.87C23065.6,7337.87 23037.5,7369.53 23019.2,7388.23C23014.9,7392.66 23002.8,7397.78 22996.1,7392.6C22990.4,7388.13 22989.9,7380.57 22994.9,7372.21C22998,7366.94 23098,7252.07 23098,7252.07L23121.9,7249.93C23121.9,7249.93 23206.7,7304.34 23211.7,7313.49C23213.6,7317.16 23209.3,7393.84 23208.4,7397.36C23207.1,7402.12 23197.7,7406.87 23193,7406.92C23188.2,7406.97 23180.1,7404.56 23179.8,7397.66C23179.6,7392.83 23180.9,7329.11 23180.9,7329.11L23146.7,7309.68L23141.2,7434.51C23141.2,7434.51 23183.6,7612.31 23190.2,7650.97C23191.4,7658.02 23186.8,7669.56 23177.6,7669.43C23169,7669.3 23164.3,7660.88 23162.1,7653.91C23150.6,7617.22 23106,7455.15 23106,7455.15C23106,7455.15 23027,7611.89 23009.2,7647.25C23004.7,7656.3 22992.2,7656.47 22987.6,7653.91C22983.1,7651.34 22977.6,7641.51 22981.9,7631.88C22997.5,7596.57 23072.4,7438.42 23072.4,7438.42L23065.6,7337.87Z" style="fill:white;"/>
                </g>
            </g>
        </g>
        <g id="Sidewalk" transform="matrix(1,0,0,1,32.2226,1.13687e-13)">
            <g id="Overlays">
                <g id="Sidewalk1" serif:id="Sidewalk">
                    <g id="label" transform="matrix(0.782017,1.92747e-16,1.56125e-16,1.06441,787.458,461.484)">
                        <g transform="matrix(19.1812,0,0,19.1812,78.741,0)">
                        </g>
                        <text x="5.182px" y="0px" style="font-family:'ArialMT', 'Arial';font-size:19.181px;fill:rgb(127,127,127);">sidewalk</text>
                    </g>
                    <g id="arrow" transform="matrix(0.527975,0,0,1.01455,718.046,382.769)">
                        <path d="M168.745,89.399L168.745,93.382L163.486,88.495L168.745,83.608L168.745,87.591L217.616,87.591L217.616,83.608L224.516,88.495L217.616,93.382L217.616,89.399L168.745,89.399Z" style="fill:rgb(127,127,127);"/>
                    </g>
                    <g transform="matrix(1.96053,0,0,1.89425,332.712,295.076)">
                        <path d="M240.573,98.374L328.515,158.334L89.295,158.334L89.295,119.154L185.537,98.347L240.573,98.374Z" style="fill:rgb(234,234,234);fill-opacity:0.9;"/>
                    </g>
                </g>
            </g>
        </g>
        <g id="cardinal-direction" serif:id="cardinal direction" transform="matrix(0.168986,0.153081,-0.119697,0.244794,-6887.63,12524.5)">
            <g transform="matrix(0.999531,-0.0287655,0.0325823,0.999531,1745.17,154.476)">
                <g transform="matrix(-0.151565,0.928749,-1.05198,-0.151565,-49064.2,-67373.5)">
                    <g transform="matrix(3.60822e-16,3.04013,-4.0676,7.77156e-16,6450.07,-53820.8)">
                        <path d="M114.666,32.2L120.759,51.271L108.572,51.271L114.666,32.2Z" style="fill:rgb(234,234,234);"/>
                        <path d="M114.666,32.2L120.759,51.271L108.572,51.271L114.666,32.2ZM114.666,37.117L110.53,50.06L118.801,50.06L114.666,37.117Z" style="fill:rgb(127,127,127);"/>
                    </g>
                    <g transform="matrix(2.77556e-17,-3.04013,4.0676,-2.91434e-16,6032.97,-53123.6)">
                        <path d="M114.666,32.2L120.759,51.271L108.572,51.271L114.666,32.2Z" style="fill:rgb(127,127,127);"/>
                        <path d="M114.666,32.2L120.759,51.271L108.572,51.271L114.666,32.2ZM114.666,37.117L110.53,50.06L118.801,50.06L114.666,37.117Z" style="fill:rgb(127,127,127);"/>
                    </g>
                </g>
                <g transform="matrix(5.2769,0,0,6.6878,3443.51,-55126.3)">
                    <path d="M530.238,233.354C540.647,233.354 549.098,239.62 549.098,247.337C549.098,255.054 540.647,261.319 530.238,261.319C519.829,261.319 511.378,255.054 511.378,247.337C511.378,239.62 519.829,233.354 530.238,233.354ZM530.238,236.469C522.147,236.469 515.579,241.339 515.579,247.337C515.579,253.335 522.147,258.205 530.238,258.205C538.329,258.205 544.897,253.335 544.897,247.337C544.897,241.339 538.329,236.469 530.238,236.469Z" style="fill:rgb(127,127,127);"/>
                </g>
            </g>
            <g transform="matrix(-2.79922,1.75048,-1.86299,-2.63015,6317.06,-53649.4)">
                <g transform="matrix(23.4414,0,0,23.4414,22.1103,0)">
                </g>
                <text x="5.182px" y="0px" style="font-family:'ArialMT', 'Arial';font-size:23.441px;fill:rgb(127,127,127);">N</text>
            </g>
        </g>
    </g>
</svg>
