<?xml version="1.0" encoding="UTF-8" standalone="no"?>
<!DOCTYPE svg PUBLIC "-//W3C//DTD SVG 1.1//EN" "http://www.w3.org/Graphics/SVG/1.1/DTD/svg11.dtd">
<svg width="100%" height="100%" viewBox="0 0 469 245" version="1.1" xmlns="http://www.w3.org/2000/svg" xmlns:xlink="http://www.w3.org/1999/xlink" xml:space="preserve" xmlns:serif="http://www.serif.com/" style="fill-rule:evenodd;clip-rule:evenodd;stroke-linecap:round;stroke-linejoin:round;stroke-miterlimit:1.5;">
    <g transform="matrix(1,0,0,1,-540,-350)">
        <g transform="matrix(1,0,0,1,540,350)">
            <path d="M50.066,33.143C100.111,33.143 150.254,34.14 200.284,33.227C205.511,33.131 210.614,31.837 215.849,31.651C242.237,30.713 268.826,31.688 295.23,31.688C298.698,31.688 301.928,30.554 305.372,30.325C310.369,29.992 315.477,30.612 320.458,30.159C322.252,29.996 323.793,29.328 325.598,29.164C335.465,28.267 345.991,28.813 355.936,28.998C362.295,29.117 369.13,30.631 375.333,31.817C379.549,32.623 383.986,32.005 388.264,32.48C391.733,32.865 395.417,33.475 398.874,33.475" style="fill:none;stroke:rgb(129,123,123);stroke-width:1px;"/>
        </g>
        <g transform="matrix(1,0,0,1,540,350)">
            <path d="M398.874,33.475C399.252,36.499 397.692,38.824 397.121,41.681C395.291,50.83 390.546,60.392 385.498,68.158C378.688,78.634 373.363,89.217 364.888,98.461C361.576,102.075 357.665,105.187 354.278,108.574C352.931,109.922 350.01,111.143 349.139,112.885C347.339,116.485 345.045,120.576 343.171,124.324C342.568,125.529 340.928,126.069 340.021,126.976" style="fill:none;stroke:rgb(129,123,123);stroke-width:1px;"/>
        </g>
        <g transform="matrix(1,0,0,1,540,350)">
            <path d="M50.232,33.475C51.141,38.929 57.249,43.139 61.008,46.737C69.409,54.778 78.942,60.855 88.119,67.993C98.307,75.917 103.648,87.693 110.08,98.627C111.672,101.334 114.152,103.613 115.717,106.253C116.972,108.372 118.111,110.752 119.53,112.885C123.486,118.833 129.798,123.982 134.616,128.8" style="fill:none;stroke:rgb(129,123,123);stroke-width:1px;"/>
        </g>
        <g transform="matrix(1,0,0,1,540,350)">
            <path d="M135.942,129.297C138.541,129.297 140.956,128.443 143.599,128.443C187.648,128.443 231.755,128.113 275.778,128.113C290.672,128.113 305.565,128.137 320.458,128.137L333.224,128.137C334.689,128.137 337.114,128.608 338.529,128.137C339.695,127.748 341.069,126.976 342.342,126.976" style="fill:none;stroke:rgb(129,123,123);stroke-width:1px;"/>
        </g>
        <g transform="matrix(1,0,0,1,546.631,350)">
            <path d="M220.823,31.983C220.823,35.294 220.491,38.313 220.491,41.598" style="fill:none;stroke:rgb(129,123,123);stroke-width:1px;"/>
        </g>
        <g transform="matrix(1,0,0,1,540,350)">
            <path d="M220.326,41.764C218.416,41.764 216.19,41.471 214.357,41.929C212.171,42.476 209.165,43.446 206.98,43.446C205.131,43.446 203.277,43.422 201.426,43.422C201.071,43.422 200.1,43.271 200.1,43.422" style="fill:none;stroke:rgb(129,123,123);stroke-width:1px;"/>
        </g>
        <g transform="matrix(1,0,0,1,540,350)">
            <path d="M200.1,43.587C200.1,46.712 201.095,49.689 201.095,52.871" style="fill:none;stroke:rgb(129,123,123);stroke-width:1px;"/>
        </g>
        <g transform="matrix(1,0,0,1,540,350)">
            <path d="M202.255,53.037C205.831,53.037 209.101,53.993 212.7,54.197C225.422,54.919 238.408,53.7 250.995,53.7" style="fill:none;stroke:rgb(129,123,123);stroke-width:1px;"/>
        </g>
        <g transform="matrix(1,0,0,1,540.166,349.834)">
            <path d="M252.653,42.924C250.24,45.941 249.835,49.911 249.835,53.7" style="fill:none;stroke:rgb(129,123,123);stroke-width:1px;"/>
        </g>
        <g transform="matrix(1,0,0,1,539.503,350.166)">
            <path d="M220.823,41.598L236.241,41.598C239.012,41.598 242.248,41.276 244.861,41.929C247.031,42.472 249.998,41.263 251.659,42.924" style="fill:none;stroke:rgb(129,123,123);stroke-width:1px;"/>
        </g>
        <g transform="matrix(1,0,0,1,540,350)">
            <path d="M47.745,34.138C46.66,34.789 44.466,35.593 43.767,36.293" style="fill:none;stroke:rgb(129,123,123);stroke-width:1px;"/>
        </g>
        <g transform="matrix(1,0,0,1,540,350)">
            <path d="M50.232,34.138C50.362,33.537 51.227,33.386 51.227,32.811" style="fill:none;stroke:rgb(129,123,123);stroke-width:1px;"/>
        </g>
        <g transform="matrix(1,0,0,1,540,350)">
            <path d="M43.932,37.122C43.094,40.477 46.326,43.633 48.077,46.406C49.516,48.684 50.446,51.215 51.85,53.496C54.436,57.698 58.16,61.402 61.008,65.471C63.855,69.537 66.695,73.41 69.297,77.573C71.293,80.765 72.763,84.315 74.934,87.354C76.795,89.96 80.03,92.241 81.399,94.98C84.294,100.77 87.15,107.247 91.844,111.89C96.028,116.029 101.817,117.986 106.598,121.174C108.1,122.175 110.292,122.41 111.738,123.495C114.619,125.655 118.751,127.913 121.85,129.463C122.473,129.774 123.36,129.508 124.006,129.794C125.543,130.476 127.904,131.95 129.642,131.95" style="fill:none;stroke:rgb(129,123,123);stroke-width:1px;"/>
        </g>
        <g transform="matrix(1,0,0,1,540,350)">
            <path d="M129.808,131.95C132.708,131.95 134.082,129.895 136.274,128.8" style="fill:none;stroke:rgb(129,123,123);stroke-width:1px;"/>
        </g>
        <g transform="matrix(0.959298,-0.282395,0.282395,0.959298,507.883,390.98)">
            <path d="M129.145,132.944C130.003,134.847 124.142,135.932 123.083,136.501C120.573,137.853 116.341,137.823 113.561,138.084C108.665,138.543 103.444,139.471 98.633,140.502C96.554,140.947 94.485,140.708 92.403,141.006C90.929,141.216 89.672,142.043 88.204,142.19C80.978,142.913 73.409,143.857 66.313,145.378C62.468,146.202 58.663,148.129 54.874,149.357C51.819,150.347 48.507,150.898 45.425,151.844C43.9,152.311 41.984,151.716 40.451,152.175C37.027,153.202 33.416,154.5 29.841,155.325C27.759,155.805 25.493,155.553 23.375,155.988C19.652,156.753 16.152,158.01 12.434,158.475C9.201,158.879 5.035,158.222 2.487,160.133C2.171,160.369 1.67,159.955 1.326,160.299" style="fill:none;stroke:rgb(129,123,123);stroke-width:1px;"/>
        </g>
        <g transform="matrix(1.40914,-0.680145,1.12802,2.33707,480.804,330.049)">
            <path d="M43.269,36.79C40.819,36.44 39.161,37.675 36.97,38.614C34.776,39.554 32.536,40.305 30.338,41.266C26.545,42.926 22.538,44.272 18.899,46.074C14.384,48.31 10.314,51.61 5.802,53.866C2.352,55.591 -2.361,56.724 -5.139,59.502" style="fill:none;stroke:rgb(129,123,123);stroke-width:0.47px;"/>
        </g>
        <g transform="matrix(1.58993,0.945589,-1.18603,1.99422,347.648,-64.2065)">
            <path d="M399.205,34.801C399.458,35.56 402.916,36.759 403.682,37.122C407.607,38.981 411.34,41.113 415.121,43.256C426.493,49.7 437.976,55.362 449.935,60.497C453.339,61.959 457.106,62.839 460.379,64.476C461.785,65.179 462.838,66.948 464.192,67.626C465.042,68.051 466.242,68.349 466.845,68.952" style="fill:none;stroke:rgb(129,123,123);stroke-width:0.48px;"/>
        </g>
        <g transform="matrix(1,0,0,1,540,350)">
            <path d="M342.176,127.805C344.45,127.805 346.289,128.203 348.476,128.8C349.898,129.188 351.585,130.458 352.952,130.458" style="fill:none;stroke:rgb(129,123,123);stroke-width:1px;"/>
        </g>
        <g transform="matrix(1,0,0,1,540,350)">
            <path d="M353.118,130.458C355.291,129.758 356.392,126.808 357.76,125.153C362.069,119.939 366.028,114.912 369.53,109.072C371.576,105.66 374.685,103.011 376.99,99.788C379.374,96.456 379.967,91.684 381.632,88.017C384.057,82.677 387.943,77.823 390.253,72.434C390.643,71.523 391.492,71.154 392.077,70.444C394.2,67.868 396.003,64.804 397.879,61.989C399.499,59.559 402.018,57.748 403.184,55.026C405.339,49.998 405.008,45.114 405.008,39.609" style="fill:none;stroke:rgb(129,123,123);stroke-width:1px;"/>
        </g>
        <g transform="matrix(0.91764,0.397412,-0.397412,0.91764,622.101,219.946)">
            <path d="M353.393,131.566C361.241,135.49 369.603,138.661 377.804,141.863C388.063,145.868 398.087,150.655 408.145,155.126C413.249,157.394 418.949,158.931 423.837,161.565C429.321,164.52 434.309,168.667 440.132,171.038C443.398,172.367 447.796,173.325 450.631,175.451C453.013,177.237 455.053,178.666 457.67,179.974C459.412,180.845 462.016,180.875 463.869,181.493L464.184,180.55C462.371,179.945 459.818,179.936 458.115,179.084C455.553,177.804 453.559,176.403 451.228,174.655C448.33,172.482 443.846,171.475 440.507,170.116C434.717,167.76 429.762,163.628 424.309,160.69C419.399,158.044 413.676,156.495 408.549,154.217C398.477,149.74 388.438,144.947 378.166,140.936C369.993,137.745 361.659,134.587 353.837,130.676L353.393,131.566Z" style="fill:none;stroke:rgb(129,123,123);stroke-width:1px;"/>
        </g>
        <g transform="matrix(1.33333,0,0,1.2459,516.072,292.795)">
            <ellipse cx="139.423" cy="148.362" rx="21.386" ry="20.226" style="fill:none;stroke:rgb(129,123,123);stroke-width:1.06px;"/>
        </g>
        <g transform="matrix(1,0,0,1,558.899,350.497)">
            <path d="M108.422,168.422C107.556,171.888 105.817,175.759 104.443,179.364C102.911,183.386 102.22,187.703 100.796,191.797C99.888,194.408 98.569,196.674 97.646,199.258C96.995,201.079 96.997,203.236 96.32,205.06C94.703,209.418 93.185,213.866 91.346,218.157C90.95,219.082 91.184,220.206 90.849,221.141C89.029,226.225 88.017,232.128 86.041,237.056C85.033,239.571 83.886,242.968 83.886,245.677" style="fill:none;stroke:rgb(129,123,123);stroke-width:1.37px;"/>
        </g>
        <g transform="matrix(1,0,0,1,557.241,350.497)">
            <path d="M110.743,168.422C132.983,168.422 155.026,167.593 177.222,167.593" style="fill:none;stroke:rgb(129,123,123);stroke-width:1.37px;"/>
        </g>
        <g transform="matrix(1,0,0,1,553.926,351.658)">
            <path d="M179.709,168.256C178.084,173.942 180.289,181.02 181.864,186.492C182.195,187.643 182.988,188.604 183.19,189.808C184.224,195.95 184.91,202.072 186.34,208.044C186.622,209.219 186.519,210.53 187.003,211.691C188.556,215.418 191.698,218.958 192.474,222.964C193.022,225.794 194.347,229.048 195.79,231.419C198.168,235.33 197.628,241.712 201.095,245.179" style="fill:none;stroke:rgb(129,123,123);stroke-width:1.37px;"/>
        </g>
        <g transform="matrix(1,0,0,1,540,350)">
            <path d="M254.643,244.185C259.72,239.107 261.515,230.335 264.092,223.793C265.659,219.817 267.605,215.952 269.563,212.189C271.301,208.849 271.64,204.805 273.376,201.413C275.159,197.929 277.515,194.3 278.847,190.637C279.625,188.497 279.972,186.332 280.836,184.171C282.558,179.867 282.901,174.936 283.655,170.411C283.896,168.965 283.403,165.689 284.484,164.609" style="fill:none;stroke:rgb(129,123,123);stroke-width:1.37px;"/>
        </g>
        <g transform="matrix(1,0,0,1,540,350)">
            <path d="M284.484,164.609C294.275,164.609 303.762,162.624 313.33,161.667C320.481,160.952 328.589,161.293 335.71,161.293" style="fill:none;stroke:rgb(129,123,123);stroke-width:1.37px;"/>
        </g>
        <g transform="matrix(1,0,0,1,540,350)">
            <path d="M337.368,162.619C338.925,165.041 340.883,167.163 342.176,169.748C345.196,175.788 347.037,182.52 349.968,188.647C351.473,191.796 353.935,194.368 355.77,197.268C357.859,200.568 358.432,204.715 360.412,208.044C363.626,213.447 367.912,218.567 370.691,224.125C372.555,227.853 374.704,232.614 377.654,235.564C379.255,237.166 379.858,240.421 381.301,241.864" style="fill:none;stroke:rgb(129,123,123);stroke-width:1.37px;"/>
        </g>
        <g transform="matrix(1,0,0,1,540,350)">
            <path d="M146.344,122.003C144.297,119.956 150.262,116.245 151.483,115.703C156.272,113.575 161.549,113.713 166.901,113.713C169.05,113.713 171.743,113.515 173.532,114.708C175.761,116.194 178.672,117.608 178.672,120.511" style="fill:none;stroke:rgb(129,123,123);stroke-width:1.37px;"/>
        </g>
        <g transform="matrix(1,0,0,1,540,350)">
            <path d="M148.167,122.334L163.585,122.334C165.648,122.334 169.073,122.992 171.046,122.334C173.372,121.559 176.576,119.184 179.003,119.184" style="fill:none;stroke:rgb(129,123,123);stroke-width:1.37px;"/>
        </g>
        <g transform="matrix(1,0,0,1,540,350)">
            <path d="M144.354,139.078C143.759,139.674 144.889,141.086 145.515,141.399C146.096,141.69 148.861,141.927 149.328,142.394C150.269,143.335 153.645,144.383 154.965,144.383" style="fill:none;stroke:rgb(129,123,123);stroke-width:1.37px;"/>
        </g>
        <g transform="matrix(1,0,0,1,540,350)">
            <path d="M145.515,138.249C144.91,137.011 150.07,137.42 150.986,137.42C152.971,137.42 156.827,137.829 157.783,139.741C158.158,140.491 157.783,142.35 157.783,143.223" style="fill:none;stroke:rgb(129,123,123);stroke-width:1.37px;"/>
        </g>
        <g transform="matrix(1,0,0,1,540,350)">
            <path d="M166.735,143.72C167.204,140.909 169.562,138.328 172.04,137.089C172.884,136.667 174.862,137.089 175.853,137.089C176.846,137.089 178.954,136.708 179.666,137.42" style="fill:none;stroke:rgb(129,123,123);stroke-width:1.37px;"/>
        </g>
        <g transform="matrix(1,0,0,1,540,350)">
            <path d="M167.564,145.378C169.175,145.378 172.969,146.323 174.527,145.544C177.516,144.049 177.182,140.734 179.169,138.747" style="fill:none;stroke:rgb(129,123,123);stroke-width:1.37px;"/>
        </g>
        <g transform="matrix(1,3.36745e-17,-3.36745e-17,-0.725027,694.356,546.332)">
            <path d="M0.667,-0.012L1.345,37.322L0.012,37.347L-0.667,0.012L0.667,-0.012ZM4.654,35.929L0.8,44L-3.345,36.074L4.654,35.929Z" style="fill:rgb(141,134,134);fill-rule:nonzero;stroke:rgb(131,128,128);stroke-width:1.14px;stroke-linecap:butt;stroke-miterlimit:2;"/>
        </g>
        <g transform="matrix(0.745681,-0.0779933,0.107964,1.03222,228.981,241.784)">
            <path d="M574.5,336.833L613.7,336.833L613.7,338.167L574.5,338.167L574.5,336.833ZM612.367,333.5L620.367,337.5L612.367,341.5L612.367,333.5Z" style="fill:rgb(134,131,131);fill-rule:nonzero;stroke:rgb(136,126,126);stroke-width:1.1px;stroke-linecap:butt;stroke-miterlimit:2;"/>
        </g>
        <g transform="matrix(1,0,0,1,120.856,207.618)">
            <path d="M574.167,337.5L574.167,346.567L572.833,346.567L572.833,337.5L574.167,337.5ZM577.5,345.233L573.5,353.233L569.5,345.233L577.5,345.233Z" style="fill:rgb(129,126,126);fill-rule:nonzero;stroke:rgb(135,127,127);stroke-width:1px;stroke-linecap:butt;stroke-miterlimit:2;"/>
        </g>
        <g transform="matrix(1,0,0,1,691.254,571.251)">
            <text x="0px" y="0px" style="font-family:'TimesNewRomanPS-BoldMT', 'Times New Roman', serif;font-weight:700;font-size:16px;fill:rgb(134,131,131);">y</text>
        </g>
        <g transform="matrix(1.11514,0,0,1.11514,700.719,517.323)">
            <text x="0px" y="0px" style="font-family:'TimesNewRomanPS-BoldMT', 'Times New Roman', serif;font-weight:700;font-size:16px;fill:rgb(138,137,137);">z</text>
        </g>
        <g transform="matrix(1,0,0,1,727.074,556.111)">
            <text x="0px" y="0px" style="font-family:'TimesNewRomanPS-BoldMT', 'Times New Roman', serif;font-weight:700;font-size:16px;fill:rgb(132,129,129);">x</text>
        </g>
        <g transform="matrix(0.883543,0,0,0.883543,681.124,550.827)">
            <text x="0px" y="0px" style="font-family:'TimesNewRomanPS-BoldMT', 'Times New Roman', serif;font-weight:700;font-size:16px;fill:rgb(135,133,133);">O</text>
        </g>
        <g transform="matrix(1,0,0,1,540,350)">
            <path d="M160.601,128.468C164.781,129.304 168.743,130.959 172.869,131.784C174.685,132.147 176.915,132.232 178.671,133.11C180.276,133.912 182.378,134.632 183.977,135.431C185.253,136.069 186.143,137.42 187.79,137.42" style="fill:none;stroke:rgb(129,123,123);stroke-width:1.37px;"/>
        </g>
    </g>
</svg>
