<?xml version="1.0" encoding="UTF-8" standalone="no"?>
<!DOCTYPE svg PUBLIC "-//W3C//DTD SVG 1.1//EN" "http://www.w3.org/Graphics/SVG/1.1/DTD/svg11.dtd">
<svg width="100%" height="100%" viewBox="0 0 307 200" version="1.1" xmlns="http://www.w3.org/2000/svg" xmlns:xlink="http://www.w3.org/1999/xlink" xml:space="preserve" xmlns:serif="http://www.serif.com/" style="fill-rule:evenodd;clip-rule:evenodd;stroke-miterlimit:8;">
    <g transform="matrix(1,0,0,0.775194,-420,-191.473)">
        <g transform="matrix(-0.0254211,0,0,0.997976,432.215,48.4778)">
            <path d="M-11596.1,290.961C-11280,291.901 -9898.3,292.908 -9844.99,290.593C-9693.68,284.021 -9719.31,280.971 -9630.95,268.951C-9567.51,260.32 -9905.12,245.457 -9874.6,245.409C-9509.89,244.833 -9112.15,244.824 -8694.66,245.253C-8650.33,245.298 -8727.45,225.755 -8597.5,225.81C-6910.24,226.527 -3871.13,225.247 -2781.45,226.625C-2528.99,226.944 -2716.64,242.138 -2663.44,243.842C-2582.22,246.444 -1337.04,240.584 -1420.6,248.621C-1508.32,257.057 -1663.98,265.459 -1573.9,273.981C-1512.41,279.797 -1483.85,292.545 -1262.03,292.111C-1004.74,291.608 3.229,293.903 480.5,292.5" style="fill:none;stroke:rgb(127,127,127);stroke-width:2.38px;"/>
        </g>
        <g transform="matrix(-0.0254211,0,0,0.997976,432.215,48.4778)">
            <path d="M-9703.9,347.851C-9564.92,348.429 -9392.01,348.984 -9198.93,349.51" style="fill:none;stroke:rgb(127,127,127);stroke-width:2.38px;"/>
        </g>
        <g transform="matrix(-0.0254211,0,0,0.997976,432.215,48.4778)">
            <path d="M-9198.93,349.51C-9103.32,349.77 -9002.77,350.024 -8898.94,350.271" style="fill:none;stroke:rgb(127,127,127);stroke-width:2.38px;"/>
        </g>
        <g transform="matrix(-0.0254211,0,0,0.997976,432.215,48.4778)">
            <path d="M-8898.94,350.271C-7963.77,352.49 -6762.45,354.114 -6513.16,354.776C-6275.84,355.406 -6196.88,370.968 -5648.75,370.843C-4958.92,370.686 -4937.7,356.407 -4703.38,354.073C-4587.07,352.914 -3266.71,352.224 -2222.89,351.5" style="fill:none;stroke:rgb(127,127,127);stroke-width:2.38px;"/>
        </g>
        <g transform="matrix(-0.0254211,0,0,0.997976,432.215,48.4778)">
            <path d="M-2222.89,351.5C-2108.4,351.42 -1997.24,351.34 -1891.35,351.259" style="fill:none;stroke:rgb(127,127,127);stroke-width:2.38px;"/>
        </g>
        <g transform="matrix(-0.0254211,0,0,0.997976,432.215,48.4778)">
            <path d="M-1891.35,351.259C-1674.93,351.094 -1480.58,350.924 -1324.96,350.744" style="fill:none;stroke:rgb(127,127,127);stroke-width:2.38px;"/>
        </g>
        <g transform="matrix(-0.0254211,0,0,0.997976,432.215,48.4778)">
            <path d="M-1324.96,350.744C-1180.63,350.577 -1069.62,350.401 -1005.25,350.211C-1012.71,340.627 -1010.84,333.145 -1005.25,330.256C-1003.36,329.273 -1125.38,329.243 -1324.55,329.825" style="fill:none;stroke:rgb(127,127,127);stroke-width:2.38px;"/>
        </g>
        <g transform="matrix(-0.0254211,0,0,0.997976,432.215,48.4778)">
            <path d="M-1324.55,329.825C-1478.96,330.276 -1679.75,331.096 -1905.1,332.124" style="fill:none;stroke:rgb(127,127,127);stroke-width:2.38px;"/>
        </g>
        <g transform="matrix(-0.0254211,0,0,0.997976,432.215,48.4778)">
            <path d="M-1905.1,332.124C-2006.5,332.587 -2112.86,333.093 -2222.21,333.626" style="fill:none;stroke:rgb(127,127,127);stroke-width:2.38px;"/>
        </g>
        <g transform="matrix(-0.0254211,0,0,0.997976,432.215,48.4778)">
            <path d="M-2222.21,333.626C-3112.23,337.965 -4200.09,344.155 -4414.93,344.405C-4496.23,344.499 -5168.18,344.603 -6789.36,344.405C-7013.93,344.377 -8057.86,336.293 -8905.59,330.548" style="fill:none;stroke:rgb(127,127,127);stroke-width:2.38px;"/>
        </g>
        <g transform="matrix(-0.0254211,0,0,0.997976,432.215,48.4778)">
            <path d="M-8905.59,330.548C-9001.92,329.895 -9095.71,329.273 -9185.48,328.695" style="fill:none;stroke:rgb(127,127,127);stroke-width:2.38px;"/>
        </g>
        <g transform="matrix(-0.0254211,0,0,0.997976,432.215,48.4778)">
            <path d="M-9185.48,328.695C-9383.78,327.42 -9562.45,326.367 -9705.43,325.7" style="fill:none;stroke:rgb(127,127,127);stroke-width:2.38px;"/>
        </g>
        <g transform="matrix(-0.0254211,0,0,0.997976,432.215,48.4778)">
            <path d="M-9705.43,325.7C-9924.02,324.68 -10059.2,324.562 -10053.6,325.934C-10034.1,330.688 -10072.8,343.638 -10053.6,345.137C-10041.4,346.085 -9909.95,346.994 -9703.9,347.851" style="fill:none;stroke:rgb(127,127,127);stroke-width:2.38px;"/>
        </g>
        <g transform="matrix(1,0,0,1.29,0,-66.47)">
            <path d="M420,284.186C440.158,261.093 504.576,258.665 569.974,258.943C638.306,259.234 711.334,259.183 727,281.124" style="fill:none;stroke:rgb(127,127,127);stroke-width:1.33px;"/>
        </g>
        <g transform="matrix(1,0,0,1.29,0,-66.47)">
            <path d="M445.568,315.749C436.111,350.936 442.985,397.885 461.118,401.112C478.243,404.16 487.222,383.41 488.723,361.036" style="fill:none;stroke:rgb(127,127,127);stroke-width:1.33px;"/>
        </g>
        <g transform="matrix(1,0,0,1.29,0,-66.47)">
            <path d="M488.706,347.208C487.38,328.269 480.665,311.489 468.982,310.817" style="fill:none;stroke:rgb(127,127,127);stroke-width:1.33px;"/>
        </g>
        <g transform="matrix(1,0,0,1.29,0,-66.47)">
            <path d="M480.645,346.047C479.804,330.436 474.969,316.703 465.139,316.424C441.182,319.515 446.724,391.34 465.139,391.058C473.309,390.933 478.712,376.79 480.295,360.85" style="fill:none;stroke:rgb(127,127,127);stroke-width:1.33px;"/>
        </g>
        <g transform="matrix(-1,0,0,1.29,1146.31,-68.7671)">
            <path d="M480.593,345.174C479.622,329.928 474.785,316.698 465.139,316.424C441.182,319.515 446.724,391.34 465.139,391.058C473.236,390.934 478.615,377.042 480.252,361.277" style="fill:none;stroke:rgb(127,127,127);stroke-width:1.33px;"/>
        </g>
        <g transform="matrix(1,0,0,1.29,0,-66.47)">
            <path d="M465.886,344.268C464.745,336.4 461.777,330.104 456.588,329.863C447.317,329.431 445.493,376.822 457.831,376C461.932,375.727 464.772,368.831 465.897,360.451" style="fill:none;stroke:rgb(127,127,127);stroke-width:1.33px;"/>
        </g>
        <g transform="matrix(1,0,0,1.29,229.307,-71.1166)">
            <path d="M449.591,361.815C450.604,369.924 453.235,376.306 457.831,376C468.412,375.295 470.598,330.515 456.588,329.863C453.085,329.7 450.645,336.366 449.63,344.678" style="fill:none;stroke:rgb(127,127,127);stroke-width:1.33px;"/>
        </g>
        <g transform="matrix(1,0,0,1.29,0,-66.47)">
            <path d="M424.377,315.749C418.832,336.383 416.982,385.695 434.328,399.099C438.213,402.101 457.037,401.065 458.852,400.548" style="fill:none;stroke:rgb(127,127,127);stroke-width:1.33px;"/>
        </g>
        <g transform="matrix(0.332553,0,0,0.439387,382.864,314.668)">
            <path d="M438.662,322.259C434.92,356.051 433.318,399.148 451.592,401.494C460.719,402.666 464.481,352.426 460.647,322.907" style="fill:none;stroke:rgb(127,127,127);stroke-width:3.86px;"/>
        </g>
        <g transform="matrix(0.332553,0,0,0.439387,378.745,314.668)">
            <path d="M422.71,326.677C417.165,347.311 416.982,385.695 434.328,399.099C438.213,402.101 457.6,401.629 459.416,401.112" style="fill:none;stroke:rgb(127,127,127);stroke-width:3.86px;"/>
        </g>
        <g transform="matrix(-0.332553,0,0,0.439387,758.374,314.659)">
            <path d="M438.662,322.259C434.92,356.051 433.318,399.148 451.592,401.494C460.719,402.666 464.481,352.426 460.647,322.907" style="fill:none;stroke:rgb(127,127,127);stroke-width:3.86px;"/>
        </g>
        <g transform="matrix(-0.332553,0,0,0.439387,762.492,314.659)">
            <path d="M422.71,326.677C417.165,347.311 416.982,385.695 434.328,399.099C438.213,402.101 457.6,401.629 459.416,401.112" style="fill:none;stroke:rgb(127,127,127);stroke-width:3.86px;"/>
        </g>
        <g transform="matrix(-1,0,0,1.29,1147.49,-66.5772)">
            <path d="M445.821,314.818C436.365,350.005 442.985,397.885 461.118,401.112C478.294,404.169 487.563,382.924 489.052,360.168" style="fill:none;stroke:rgb(127,127,127);stroke-width:1.33px;"/>
        </g>
        <g transform="matrix(-1,0,0,1.29,1147.49,-66.5772)">
            <path d="M488.883,344.91C487.226,326.352 480.196,310.283 467.867,309.854" style="fill:none;stroke:rgb(127,127,127);stroke-width:1.33px;"/>
        </g>
        <g transform="matrix(-1,0,0,1.29,1147.49,-66.5772)">
            <path d="M424.942,314.818C419.397,335.452 416.982,385.695 434.328,399.099C438.213,402.101 458.37,401.362 460.186,400.845" style="fill:none;stroke:rgb(127,127,127);stroke-width:1.33px;"/>
        </g>
        <g transform="matrix(-1,-1.12775e-07,-8.74228e-08,1.29,524.367,456.609)">
            <path d="M5.24,1.238C1.212,1.82 0.707,-2 -4.547,-0.267C-8.156,0.924 -11.794,-2.344 -11.794,0.539" style="fill:none;stroke:rgb(127,127,127);stroke-width:1.33px;"/>
        </g>
        <g transform="matrix(1,-1.12775e-07,8.74228e-08,1.29,617.54,457.196)">
            <path d="M5.24,1.238C1.212,1.82 0.707,-2 -4.547,-0.267C-8.156,0.924 -12.41,-3.049 -12.41,-0.166" style="fill:none;stroke:rgb(127,127,127);stroke-width:1.33px;"/>
        </g>
        <g transform="matrix(1,-1.12775e-07,8.74228e-08,1.29,485.5,511.385)">
            <path d="M32.867,-35.004L-3.324,-58.672" style="fill:none;stroke:rgb(127,127,127);stroke-width:1.33px;"/>
        </g>
        <g transform="matrix(1,-1.12775e-07,8.74228e-08,1.29,485.5,511.385)">
            <path d="M51.048,-33.975L73.866,-33.868C73.866,-33.868 81.708,-29.013 84.469,-29.232C87.398,-29.464 94.142,-33.365 94.142,-33.365L119.189,-33.239" style="fill:none;stroke:rgb(127,127,127);stroke-width:1.33px;"/>
        </g>
        <g transform="matrix(1,-1.12775e-07,8.74228e-08,1.29,485.5,511.385)">
            <path d="M18.876,-150.291L58.742,-102.888C58.742,-102.888 116.428,-102.549 119.189,-102.768C122.119,-103 161.788,-150.231 161.788,-150.231L18.876,-150.291Z" style="fill:none;stroke:rgb(127,127,127);stroke-width:1.33px;"/>
        </g>
        <g transform="matrix(-1,-1.12775e-07,-8.74228e-08,1.29,657.182,505.268)">
            <path d="M35.062,-35.516L-6.096,-60.058" style="fill:none;stroke:rgb(127,127,127);stroke-width:1.33px;"/>
        </g>
        <g transform="matrix(0.782212,-0.803686,-0.623012,-1.00905,373.076,704.758)">
            <path d="M344.78,90.331L347.78,84.331L350.78,90.331L344.78,90.331Z" style="fill:rgb(0,113,180);"/>
        </g>
        <g transform="matrix(0.782212,-0.803686,-0.444842,-0.720482,357.196,679.037)">
            <path d="M347.78,114.559L347.78,89.131" style="fill:none;stroke:rgb(0,113,180);stroke-width:2px;stroke-linejoin:round;stroke-miterlimit:1.5;"/>
        </g>
        <g transform="matrix(0.940336,-0.438917,-0.340245,-1.21303,289.9,608.457)">
            <path d="M326.808,124.791L320.144,124.024L324.756,119.153L326.808,124.791Z" style="fill:rgb(0,113,180);"/>
        </g>
        <g transform="matrix(0.940336,-0.438917,-0.340245,-1.21303,289.9,608.457)">
            <path d="M348.55,113.685C348.55,113.685 332.667,119.466 324.654,122.383" style="fill:none;stroke:rgb(0,113,180);stroke-width:2px;stroke-linejoin:round;stroke-miterlimit:1.5;"/>
        </g>
        <g transform="matrix(-0.140749,1.27716,0.990046,0.181566,513.879,-153.884)">
            <path d="M371.697,114.592L377.178,118.459L370.796,120.524L371.697,114.592Z" style="fill:rgb(0,113,180);"/>
        </g>
        <g transform="matrix(-0.140749,1.27716,0.990046,0.181566,514.001,-164.029)">
            <path d="M359.848,115.843L379.091,118.534" style="fill:none;stroke:rgb(0,113,180);stroke-width:2px;stroke-linejoin:round;stroke-miterlimit:1.5;"/>
        </g>
        <g transform="matrix(1,0,0,1.29,565.758,354.052)">
            <text x="0px" y="0px" style="font-family:'TimesNewRomanPS-BoldMT', 'Times New Roman';font-weight:700;font-size:16px;fill:rgb(0,113,180);">x</text>
        </g>
        <g transform="matrix(1.11514,0,0,1.43853,545.241,311.919)">
            <text x="0px" y="0px" style="font-family:'TimesNewRomanPS-BoldMT', 'Times New Roman';font-weight:700;font-size:14.348px;fill:rgb(0,113,180);">z</text>
        </g>
        <g transform="matrix(1,0,0,1.29,593.918,342.641)">
            <text x="0px" y="0px" style="font-family:'TimesNewRomanPS-BoldMT', 'Times New Roman';font-weight:700;font-size:16px;fill:rgb(0,113,180);">y</text>
        </g>
        <g transform="matrix(1.12889,0,0,1.45627,577.389,313.983)">
            <text x="0px" y="0px" style="font-family:'TimesNewRomanPS-BoldMT', 'Times New Roman';font-weight:700;font-size:14.173px;fill:rgb(0,113,180);">O</text>
        </g>
    </g>
</svg>
