<?xml version="1.0" encoding="UTF-8" standalone="no"?>
<!DOCTYPE svg PUBLIC "-//W3C//DTD SVG 1.1//EN" "http://www.w3.org/Graphics/SVG/1.1/DTD/svg11.dtd">
<svg width="100%" height="100%" viewBox="0 0 468 245" version="1.1" xmlns="http://www.w3.org/2000/svg" xmlns:xlink="http://www.w3.org/1999/xlink" xml:space="preserve" xmlns:serif="http://www.serif.com/" style="fill-rule:evenodd;clip-rule:evenodd;stroke-miterlimit:8;">
    <g transform="matrix(1,0,0,1,-82,-116)">
        <g transform="matrix(-1,0,0,1,633,0)">
            <path d="M192.597,349.061C189.651,349.877 186.704,350.693 182.41,350.46C178.115,350.227 176.018,350.093 166.829,347.662C157.64,345.23 137.399,339.334 127.278,335.87C117.157,332.405 111.064,329.474 106.104,326.876C101.143,324.277 99.412,321.879 97.514,320.28C95.617,318.681 95.783,317.749 94.718,317.282C93.653,316.816 92.321,317.649 91.122,317.482C89.924,317.316 88.026,317.049 87.527,316.283C87.027,315.517 87.726,314.318 88.126,312.885C88.525,311.453 90.024,310.054 89.924,307.689C89.824,305.324 88.559,302.992 87.527,298.695C86.495,294.398 84.264,285.637 83.731,281.906C83.199,278.175 83.665,278.708 84.331,276.31C84.997,273.912 87.061,269.248 87.726,267.516C88.392,265.784 88.359,267.549 88.326,265.917C88.293,264.285 87.493,259.921 87.527,257.723C87.56,255.524 86.994,255.424 88.525,252.726C90.057,250.028 94.085,245.331 96.715,241.534C99.345,237.736 100.444,234.405 104.306,229.942C108.168,225.478 114.727,218.716 119.887,214.752C125.047,210.788 128.443,209.256 135.268,206.158C142.093,203.06 150.483,199.695 160.836,196.165C171.19,192.634 185.173,188.37 197.391,184.972C209.61,181.574 224.059,178.177 234.146,175.778C244.234,173.38 252.157,171.748 257.917,170.582C263.676,169.416 266.44,169.116 268.703,168.783C270.967,168.45 271.067,168.45 271.5,168.583" style="fill:none;stroke:rgb(127,127,127);stroke-width:1.33px;"/>
            <path d="M317.5,341.5C313.164,343.116 307.504,345.378 304.79,346.736C302.076,348.093 302.44,348.901 301.215,349.645C299.991,350.388 301.414,350.259 297.442,351.196C293.47,352.133 284.765,354.008 277.384,355.268C270.003,356.529 260.305,358.08 253.156,358.759C246.006,359.438 242.597,359.696 234.488,359.341C226.379,358.985 211.021,357.919 204.5,356.626" style="fill:none;stroke:rgb(127,127,127);stroke-width:1.33px;"/>
            <path d="M203.5,357.5C197.401,353.448 191.303,349.397 192.703,349.502" style="fill:none;stroke:rgb(127,127,127);stroke-width:1.33px;"/>
            <path d="M390.5,302.5C389.817,305.864 389.133,309.228 387.9,312.641C386.667,316.055 385,319.667 383.1,322.981C381.2,326.295 379.233,329.311 376.5,332.526C373.767,335.74 370.167,339.751 366.7,342.269C363.233,344.788 359.2,346.611 355.7,347.638C352.2,348.665 349.467,348.533 345.7,348.434C341.933,348.334 337.167,348.036 333.1,347.042C329.033,346.047 323.9,343.495 321.3,342.468C318.7,341.441 318.1,341.159 317.5,340.877" style="fill:none;stroke:rgb(127,127,127);stroke-width:1.33px;"/>
            <path d="M394.5,304.5L511.5,243.5" style="fill:none;stroke:rgb(127,127,127);stroke-width:1.33px;"/>
            <g transform="matrix(1,0,0,-1,390.5,302.64)">
                <path d="M0,0L2.26,1.14" style="fill:none;stroke:rgb(127,127,127);stroke-width:1.33px;"/>
            </g>
            <g transform="matrix(-1,-8.74228e-08,-8.74228e-08,1,395.03,304.5)">
                <path d="M0,0L3.53,0" style="fill:none;stroke:rgb(127,127,127);stroke-width:1.33px;"/>
            </g>
            <g transform="matrix(1,0,0,-1,391.5,304.64)">
                <path d="M0,0L1.13,3.14" style="fill:none;stroke:rgb(127,127,127);stroke-width:1.33px;"/>
            </g>
            <path d="M540.5,223.5C539.556,227.241 538.781,230.625 537.466,234.187C536.152,237.75 534.23,242.252 532.612,244.875C530.994,247.498 529.478,248.826 527.758,249.927C526.039,251.028 524.826,251.352 522.298,251.482C519.77,251.611 515.219,251.028 512.59,250.704C509.961,250.38 507.871,249.959 506.523,249.538C505.174,249.117 504.837,248.648 504.5,248.178" style="fill:none;stroke:rgb(127,127,127);stroke-width:1.33px;"/>
            <path d="M540.006,223.5C541.752,221.553 543.498,219.605 544.995,216.31C546.491,213.015 548.254,208.388 548.986,203.728C549.717,199.067 549.484,192.61 549.385,188.349C549.285,184.088 549.218,182.257 548.387,178.163C547.555,174.069 546.125,167.378 544.396,163.783C542.667,160.188 540.638,158.624 538.01,156.593C535.383,154.563 532.323,153.498 528.632,151.6C524.94,149.703 520.384,146.707 515.861,145.209C511.338,143.711 504.387,142.946 501.493,142.613C498.6,142.28 498.55,142.746 498.5,143.212" style="fill:none;stroke:rgb(127,127,127);stroke-width:1.33px;"/>
            <path d="M278.067,163.5C276.202,161.157 274.337,158.814 274.511,156.618C274.686,154.423 277.544,151.769 279.113,150.327C280.682,148.885 282.181,148.426 283.924,147.967C285.667,147.509 288.142,147.41 289.572,147.574C291.001,147.738 292.082,148.688 292.5,148.95" style="fill:none;stroke:rgb(127,127,127);stroke-width:1.33px;"/>
            <path d="M358.61,346.5C354.948,346.35 351.286,346.2 347.775,345.1C344.263,344.001 340.518,342.601 337.541,339.902C334.565,337.202 331.756,333.903 329.917,328.904C328.077,323.905 326.606,316.84 326.506,309.909C326.405,302.977 327.676,294.279 329.315,287.314C330.953,280.349 333.495,273.517 336.337,268.118C339.18,262.72 343.16,258.354 346.37,254.922C349.58,251.489 352.088,249.256 355.6,247.523C359.111,245.79 363.626,244.291 367.438,244.524C371.251,244.757 375.297,246.457 378.474,248.923C381.651,251.389 386.316,258.437 386.5,259.32" style="fill:none;stroke:rgb(127,127,127);stroke-width:1.33px;"/>
            <path d="M389.38,305.5C390.324,298.304 391.396,290.974 391.492,284.921C391.588,278.868 390.788,273.421 389.956,269.184C389.124,264.947 387.716,262.409 386.5,259.5" style="fill:none;stroke:rgb(127,127,127);stroke-width:1.33px;"/>
            <path d="M316.746,341.5C316.019,336.335 315.291,331.169 315.556,324.249C315.82,317.328 316.151,309.004 318.333,299.977C320.516,290.95 324.385,278.647 328.65,270.088C332.916,261.53 338.835,254.074 343.927,248.625C349.02,243.175 354.542,239.732 359.204,237.392C363.867,235.051 367.735,234.216 371.902,234.583C376.068,234.951 380.566,236.556 384.203,239.598C387.84,242.64 391.511,247.288 393.726,252.837C395.942,258.387 397.595,265.007 397.496,272.897C397.397,280.787 393.958,295.23 393.131,300.178C392.304,305.126 392.536,302.585 392.536,302.585" style="fill:none;stroke:rgb(127,127,127);stroke-width:1.33px;"/>
            <path d="M525.5,250.5C523.684,250.483 521.294,250.668 519.382,248.683C517.471,246.697 515.177,241.784 514.029,238.587C512.882,235.39 512.882,231.856 512.5,229.5" style="fill:none;stroke:rgb(127,127,127);stroke-width:1.33px;"/>
            <path d="M510.5,243.5C511.511,234.742 512.521,225.984 513.532,219.17C514.542,212.356 514.846,207.802 516.563,202.617C518.281,197.432 521.717,191.416 523.839,188.059C525.962,184.702 527.579,183.539 529.296,182.475C531.014,181.411 532.598,181.345 534.147,181.677C535.697,182.01 537.314,182.708 538.594,184.469C539.874,186.231 541.187,189.355 541.827,192.247C542.467,195.139 542.602,198.463 542.434,201.82C542.265,205.177 541.305,210.179 540.817,212.389" style="fill:none;stroke:rgb(127,127,127);stroke-width:1.33px;"/>
            <path d="M540.221,222.5C541.058,216.152 541.728,209.574 541.427,204.74C541.125,199.905 539.685,195.991 538.412,193.491C537.139,190.992 535.464,190.268 533.789,189.742C532.115,189.215 530.071,189.61 528.363,190.334C526.655,191.057 524.879,192.603 523.539,194.083C522.199,195.563 521.664,196.813 520.324,199.214C518.984,201.615 516.639,206.335 515.5,208.489" style="fill:none;stroke:rgb(127,127,127);stroke-width:1.33px;"/>
            <path d="M428.5,272.5L476.5,248.5" style="fill:none;stroke:rgb(127,127,127);stroke-width:1.33px;"/>
            <path d="M476.5,248.5L503.5,223.5" style="fill:none;stroke:rgb(127,127,127);stroke-width:1.33px;"/>
            <path d="M504.197,223.5C505.807,214.654 507.418,205.807 508.022,199.14C508.626,192.472 508.76,188.379 507.82,183.494C506.881,178.608 505.438,173.327 502.385,169.828C499.331,166.329 493.577,164.497 489.5,162.5" style="fill:none;stroke:rgb(127,127,127);stroke-width:1.33px;"/>
            <path d="M489.5,162.5C487.698,156.901 485.896,151.302 483.209,146.656C480.523,142.01 477.378,137.129 473.38,134.622C469.383,132.115 464.207,131.146 459.227,131.614C454.246,132.082 448.873,134.756 443.5,137.43" style="fill:none;stroke:rgb(127,127,127);stroke-width:1.33px;"/>
            <path d="M424.5,182.5L443.5,137.5" style="fill:none;stroke:rgb(127,127,127);stroke-width:1.33px;"/>
            <path d="M425.5,181.5L451.5,179.208C458.767,178.479 465.433,178.41 469.1,177.125C472.767,175.84 473.133,173.67 473.5,171.5" style="fill:none;stroke:rgb(127,127,127);stroke-width:1.33px;"/>
            <path d="M438.5,173.5C439.975,169.336 441.449,165.171 442.826,162.679C444.202,160.187 443.088,158.875 446.758,158.547C450.429,158.22 460.785,159.662 464.848,160.712C468.912,161.761 469.699,163.007 471.141,164.843C472.582,166.68 473.041,169.204 473.5,171.729" style="fill:none;stroke:rgb(127,127,127);stroke-width:1.33px;"/>
            <path d="M473.5,168.5L489.5,162.5" style="fill:none;stroke:rgb(127,127,127);stroke-width:1.33px;"/>
            <path d="M277.5,168.5C296.7,151.717 315.9,134.933 327.5,127.5" style="fill:none;stroke:rgb(127,127,127);stroke-width:1.33px;"/>
            <path d="M327.5,127.291C335.517,126.021 342.533,124.911 351.7,124.59C360.867,124.268 373.4,124.879 382.5,125.361C391.6,125.844 397.967,126.294 406.3,127.484C414.633,128.673 423.567,130.587 432.5,132.5" style="fill:none;stroke:rgb(127,127,127);stroke-width:1.33px;"/>
            <path d="M408.5,182.5L433.5,132.5" style="fill:none;stroke:rgb(127,127,127);stroke-width:1.33px;"/>
            <path d="M271.5,169.5L327.5,126.5" style="fill:none;stroke:rgb(127,127,127);stroke-width:1.33px;"/>
            <path d="M498.5,142.5C493.605,138.223 489.713,133.589 483.465,130.207C477.217,126.825 472.072,124.288 461.013,122.207C449.954,120.125 433.048,118.239 417.111,117.719C401.174,117.198 380.492,117.589 365.391,119.085C350.289,120.581 338.394,123.638 326.5,126.695" style="fill:none;stroke:rgb(127,127,127);stroke-width:1.33px;"/>
            <g transform="matrix(-1,-8.74228e-08,-8.74228e-08,1,291.7,148.5)">
                <path d="M0,0L0.2,4.6" style="fill:none;stroke:rgb(127,127,127);stroke-width:1.33px;"/>
            </g>
            <path d="M451.5,173.5C454.95,173.288 458.4,173.077 461.9,172.577C465.4,172.077 468.95,171.289 472.5,170.5" style="fill:none;stroke:rgb(127,127,127);stroke-width:1.33px;"/>
            <path d="M452.5,175.5C455.95,175.288 459.4,175.077 462.9,174.577C466.4,174.077 469.95,173.289 473.5,172.5" style="fill:none;stroke:rgb(127,127,127);stroke-width:1.33px;"/>
            <path d="M278.122,159.318L275.249,156.198" style="fill:none;stroke:rgb(127,127,127);stroke-width:1.33px;"/>
            <path d="M274.5,156.5L277.5,159.554" style="fill:none;stroke:rgb(127,127,127);stroke-width:1.33px;"/>
            <path d="M212.5,269.5C218.955,265.642 225.411,261.784 233.064,258.079C240.718,254.374 249.303,250.669 258.42,247.27C267.538,243.871 280.016,239.894 287.769,237.685C295.522,235.475 300.38,234.659 304.939,234.014C309.498,233.368 311.362,233.368 315.122,233.81C318.882,234.251 323.108,235.169 327.5,236.665" style="fill:none;stroke:rgb(127,127,127);stroke-width:1.33px;"/>
            <path d="M327.5,236.5C321.867,242.124 316.234,247.748 310.95,252.568C305.666,257.389 301.678,261.406 295.796,265.423C289.913,269.44 283.001,273.926 275.656,276.671C268.312,279.416 259.04,280.755 251.728,281.893C244.417,283.031 236.375,283.5 231.788,283.5C227.202,283.5 226.77,282.998 224.211,281.893C221.652,280.789 218.362,278.546 216.435,276.872C214.507,275.198 213.111,273.19 212.646,271.85C212.181,270.511 212.912,269.674 213.643,268.838" style="fill:none;stroke:rgb(127,127,127);stroke-width:1.33px;"/>
            <path d="M428.826,272.5C429.471,249.571 430.117,226.642 428.396,211.975C426.675,197.308 422.587,190.904 418.5,184.5" style="fill:none;stroke:rgb(127,127,127);stroke-width:1.33px;"/>
            <path d="M418.5,184.5C420.761,183.893 423.023,183.286 424.009,182.786C424.995,182.286 424.145,181.786 424.417,181.5" style="fill:none;stroke:rgb(127,127,127);stroke-width:1.33px;"/>
            <path d="M427.5,174.5L438.5,173.5" style="fill:none;stroke:rgb(127,127,127);stroke-width:1.33px;"/>
            <path d="M277.5,169.5L339.909,174.938L384.174,178.875C395.606,179.969 402.053,180.734 408.5,181.5" style="fill:none;stroke:rgb(127,127,127);stroke-width:1.33px;"/>
            <path d="M451.5,173.5L451.9,175.755" style="fill:none;stroke:rgb(127,127,127);stroke-width:1.33px;"/>
            <path d="M276.76,159.853L275.037,157.981" style="fill:none;stroke:rgb(127,127,127);stroke-width:1.33px;"/>
            <path d="M218.5,271.5C226.403,267.643 234.305,263.785 244.071,259.827C253.836,255.869 266.352,251.139 277.091,247.752C287.829,244.364 298.164,241.932 308.5,239.5" style="fill:none;stroke:rgb(127,127,127);stroke-width:1.33px;"/>
            <path d="M217.5,269.5C225.315,265.643 233.13,261.785 242.786,257.827C252.443,253.869 264.821,249.139 275.44,245.752C286.059,242.364 296.279,239.932 306.5,237.5" style="fill:none;stroke:rgb(127,127,127);stroke-width:1.33px;"/>
            <path d="M307.688,239.491L306.5,237.5" style="fill:none;stroke:rgb(127,127,127);stroke-width:1.33px;"/>
            <path d="M218.688,271.491L217.5,269.5" style="fill:none;stroke:rgb(127,127,127);stroke-width:1.33px;"/>
            <path d="M255.5,274.5C254.728,268.922 253.956,263.343 255.025,261.5" style="fill:none;stroke:rgb(127,127,127);stroke-width:1.33px;"/>
            <path d="M254.5,275.5L261.5,274.5" style="fill:none;stroke:rgb(127,127,127);stroke-width:1.33px;"/>
            <path d="M261.5,273.5L265.5,267.5" style="fill:none;stroke:rgb(127,127,127);stroke-width:1.33px;"/>
            <path d="M265.5,268.5C264.583,265.984 263.667,263.467 261.833,262.337C260,261.207 257.25,261.464 254.5,261.721" style="fill:none;stroke:rgb(127,127,127);stroke-width:1.33px;"/>
            <path d="M162.5,326.5L156.5,308.5" style="fill:none;stroke:rgb(127,127,127);stroke-width:1.33px;"/>
            <path d="M106.5,308.5L100.5,292.5" style="fill:none;stroke:rgb(127,127,127);stroke-width:1.33px;"/>
            <path d="M101.5,292.5C111.217,295.667 120.933,298.833 130.1,301.5C139.267,304.167 147.883,306.333 156.5,308.5" style="fill:none;stroke:rgb(127,127,127);stroke-width:1.33px;"/>
            <path d="M105.5,308.5C115.1,311.883 124.701,315.267 134.201,318.1C143.701,320.933 153.1,323.217 162.5,325.5" style="fill:none;stroke:rgb(127,127,127);stroke-width:1.33px;"/>
        </g>
        <g id="Coordinate-system" serif:id="Coordinate system" transform="matrix(1,0,0,1,-457.443,-80.8173)">
            <g id="arrow-blue" serif:id="arrow blue" transform="matrix(-0.843561,2.22346e-21,-2.24993e-21,1,1642.51,-184.64)">
                <g transform="matrix(-1.18545,2.6358e-21,-2.66718e-21,1,1307.63,381.458)">
                    <path d="M320.163,136.913L326.858,137.33L322.507,142.436L320.163,136.913Z" style="fill:rgb(0,113,180);"/>
                    <path d="M291.925,152.159C291.925,152.159 313.043,143.194 322.44,139.205" style="fill:none;stroke:rgb(0,113,180);stroke-width:2px;stroke-linejoin:round;stroke-miterlimit:1.5;"/>
                </g>
            </g>
            <g id="arrow-blue1" serif:id="arrow blue" transform="matrix(-0.843561,2.22346e-21,-2.24993e-21,1,1642.51,-184.64)">
                <g transform="matrix(-1.18545,2.6358e-21,-2.66718e-21,1,1307.63,381.458)">
                    <path d="M288.925,128.5L291.925,122.5L294.925,128.5L288.925,128.5Z" style="fill:rgb(0,113,180);"/>
                    <path d="M291.925,153.129L291.925,127.3" style="fill:none;stroke:rgb(0,113,180);stroke-width:2px;stroke-linejoin:round;stroke-miterlimit:1.5;"/>
                </g>
            </g>
            <g id="arrow-blue2" serif:id="arrow blue" transform="matrix(-0.843561,2.22346e-21,-2.24993e-21,1,1642.51,-184.64)">
                <g transform="matrix(-1.18545,2.6358e-21,-2.66718e-21,1,1307.63,381.458)">
                    <path d="M315.98,153.545L321.354,157.56L314.917,159.45L315.98,153.545Z" style="fill:rgb(0,113,180);"/>
                    <path d="M291.339,152.159C291.339,152.159 308.177,155.189 316.63,156.71" style="fill:none;stroke:rgb(0,113,180);stroke-width:2px;stroke-linejoin:round;stroke-miterlimit:1.5;"/>
                </g>
            </g>
            <g transform="matrix(1,0,0,1,867.951,336.243)">
                <text x="0px" y="0px" style="font-family:'TimesNewRomanPS-BoldMT', 'Times New Roman';font-weight:700;font-size:16px;fill:rgb(0,113,180);">y</text>
            </g>
            <g transform="matrix(1.11514,0,0,1.11514,835.116,322.97)">
                <text x="0px" y="0px" style="font-family:'TimesNewRomanPS-BoldMT', 'Times New Roman';font-weight:700;font-size:14.348px;fill:rgb(0,113,180);">z</text>
            </g>
            <g transform="matrix(1,0,0,1,860.341,363.117)">
                <text x="0px" y="0px" style="font-family:'TimesNewRomanPS-BoldMT', 'Times New Roman';font-weight:700;font-size:16px;fill:rgb(0,113,180);">x</text>
            </g>
            <g transform="matrix(1.12889,0,0,1.12889,815.068,355.57)">
                <text x="0px" y="0px" style="font-family:'TimesNewRomanPS-BoldMT', 'Times New Roman';font-weight:700;font-size:14.173px;fill:rgb(0,113,180);">O</text>
            </g>
        </g>
    </g>
</svg>
