<?xml version="1.0" encoding="UTF-8" standalone="no"?>
<!DOCTYPE svg PUBLIC "-//W3C//DTD SVG 1.1//EN" "http://www.w3.org/Graphics/SVG/1.1/DTD/svg11.dtd">
<svg width="100%" height="100%" viewBox="0 0 469 165" version="1.1" xmlns="http://www.w3.org/2000/svg" xmlns:xlink="http://www.w3.org/1999/xlink" xml:space="preserve" xmlns:serif="http://www.serif.com/" style="fill-rule:evenodd;clip-rule:evenodd;stroke-linejoin:round;stroke-miterlimit:2;">
    <g transform="matrix(1,0,0,0.673469,-540,-235.714)">
        <g id="Road" transform="matrix(0.652961,0,0,0.969548,540,311.68)">
            <rect x="0" y="0" width="718.266" height="302.989" style="fill:none;"/>
            <clipPath id="_clip1">
                <rect x="0" y="0" width="718.266" height="302.989"/>
            </clipPath>
            <g clip-path="url(#_clip1)">
                <g transform="matrix(0.0299978,0,0,0.0299989,0,2.00018e-12)">
                    <path d="M11888,5468L15154,5450L23686,9706L354,9706L11888,5468Z" style="fill:rgb(200,200,200);"/>
                </g>
                <g transform="matrix(0.0149989,0,0,0.0149995,0,0)">
                    <path d="M23691,10926L23972,10916L1053,19411L-4,19420L23691,10926Z" style="fill:white;"/>
                </g>
                <g transform="matrix(0.0299978,0,0,0.0299989,0,0)">
                    <path d="M15178,5463L15074,5458L23298,9706L23942,9710L15178,5463Z" style="fill:white;"/>
                </g>
                <g transform="matrix(0.0149989,0,0,0.0149995,0,0)">
                    <path d="M23115,16734L23708,16724L22045,19402L21276,19420L23115,16734Z" style="fill:white;"/>
                </g>
                <g transform="matrix(0.0149989,0,0,0.0149995,2.55516,-2.65737)">
                    <path d="M26061,12433L26348,12428L25544,13716L25172,13724L26061,12433Z" style="fill:white;"/>
                </g>
                <g transform="matrix(0.0219371,0,0,0.019512,-197.893,-29.0358)">
                    <path d="M25991.2,12433L26278.2,12428L25544,13716L25172,13724L25991.2,12433Z" style="fill:white;"/>
                </g>
                <g transform="matrix(0.0149989,0,0,0.0149995,0,0)">
                    <path d="M27042,11039L27204,11036L26750,11767L26540,11772L27042,11039Z" style="fill:white;"/>
                </g>
            </g>
        </g>
        <g transform="matrix(0.760885,0,0,1.1298,784.783,526.152)">
            <g id="Signal">
                <g>
                    <g transform="matrix(1.43992,0,0,1.38298,-249.372,-161.613)">
                        <path d="M232.442,115.762C264.026,115.762 289.669,123.388 289.669,132.78C289.669,142.173 264.026,149.798 232.442,149.798C200.857,149.798 175.215,142.173 175.215,132.78C175.215,123.388 200.857,115.762 232.442,115.762ZM180.795,132.78C180.987,133.04 181.367,133.532 181.699,133.828C183.218,135.184 185.465,136.385 188.25,137.515C198.216,141.557 214.312,144.096 232.442,144.096C250.572,144.096 266.667,141.557 276.633,137.515C279.419,136.385 281.666,135.184 283.185,133.828C283.516,133.532 283.896,133.04 284.088,132.78C283.896,132.52 283.516,132.028 283.185,131.733C281.666,130.377 279.419,129.175 276.633,128.045C266.667,124.004 250.572,121.464 232.442,121.464C214.312,121.464 198.216,124.004 188.25,128.045C185.465,129.175 183.218,130.377 181.699,131.733C181.367,132.028 180.987,132.52 180.795,132.78Z" style="fill:rgb(234,234,234);"/>
                    </g>
                    <g transform="matrix(3.34373,0,0,1.27345,13.8382,34.6157)">
                        <g transform="matrix(28.0001,0,0,28.0001,36.3262,0)">
                        </g>
                        <text x="5.182px" y="0px" style="font-family:'Arial-BoldMT', 'Arial';font-weight:700;font-size:28px;fill:rgb(234,234,234);">60</text>
                    </g>
                </g>
            </g>
        </g>
        <g transform="matrix(0.00979369,0,0,0.0145427,533.113,329.755)">
            <g id="Traffic-light" serif:id="Traffic light">
                <path d="M34483.2,11534.7L35102.9,11761.1L26712.3,11772L26872,11545.6L34483.2,11534.7Z" style="fill:white;"/>
            </g>
        </g>
        <g id="Road-marks" serif:id="Road marks" transform="matrix(0.635285,0,0,0.770042,532.994,337.965)">
            <g transform="matrix(0.0154162,0,0,0.0188856,11.0282,-34.1354)">
                <path d="M23691,10926L23972,10916L1053,19411L-4,19420L23691,10926Z" style="fill:rgb(0,113,180);"/>
            </g>
            <g transform="matrix(0.0308324,0,0,0.0377712,11.0282,-34.1354)">
                <path d="M15178,5463L15074,5458L23298,9706L23942,9710L15178,5463Z" style="fill:rgb(0,113,180);"/>
            </g>
            <g transform="matrix(0.0154162,0,0,0.0188856,11.0282,-34.1354)">
                <path d="M23115,16734L23708,16724L22045,19402L21276,19420L23115,16734Z" style="fill:rgb(0,113,180);"/>
            </g>
            <g transform="matrix(0.0154162,0,0,0.0188856,13.6545,-37.4812)">
                <path d="M26061,12433L26348,12428L25544,13716L25172,13724L26061,12433Z" style="fill:rgb(0,113,180);"/>
            </g>
            <g transform="matrix(0.0225475,0,0,0.0245673,-192.371,-70.6939)">
                <path d="M25991.2,12433L26278.2,12428L25544,13716L25172,13724L25991.2,12433Z" style="fill:rgb(0,113,180);"/>
            </g>
            <g transform="matrix(0.0154162,0,0,0.0188856,11.0282,-34.1354)">
                <path d="M27042,11039L27204,11036L26750,11767L26540,11772L27042,11039Z" style="fill:rgb(0,113,180);"/>
            </g>
            <g transform="matrix(1.19771,0,0,1.46719,396.341,244.385)">
                <g transform="matrix(1.43992,0,0,1.38298,-249.372,-161.613)">
                    <path d="M232.442,115.762C264.026,115.762 289.669,123.388 289.669,132.78C289.669,142.173 264.026,149.798 232.442,149.798C200.857,149.798 175.215,142.173 175.215,132.78C175.215,123.388 200.857,115.762 232.442,115.762ZM180.795,132.78C180.987,133.04 181.367,133.532 181.699,133.828C183.218,135.184 185.465,136.385 188.25,137.515C198.216,141.557 214.312,144.096 232.442,144.096C250.572,144.096 266.667,141.557 276.633,137.515C279.419,136.385 281.666,135.184 283.185,133.828C283.516,133.532 283.896,133.04 284.088,132.78C283.896,132.52 283.516,132.028 283.185,131.733C281.666,130.377 279.419,129.175 276.633,128.045C266.667,124.004 250.572,121.464 232.442,121.464C214.312,121.464 198.216,124.004 188.25,128.045C185.465,129.175 183.218,130.377 181.699,131.733C181.367,132.028 180.987,132.52 180.795,132.78Z" style="fill:rgb(0,113,180);"/>
                </g>
                <g transform="matrix(3.34373,0,0,1.27345,13.8382,34.6157)">
                    <g transform="matrix(28.0001,0,0,28.0001,36.3262,0)">
                    </g>
                    <text x="5.182px" y="0px" style="font-family:'Arial-BoldMT', 'Arial';font-weight:700;font-size:28px;fill:rgb(0,113,180);">60</text>
                </g>
            </g>
            <g transform="matrix(0.0154162,0,0,0.0188856,0.187023,-10.6629)">
                <path d="M34483.2,11534.7L35102.9,11761.1L26712.3,11772L26872,11545.6L34483.2,11534.7Z" style="fill:rgb(0,113,180);"/>
            </g>
        </g>
        <g id="cardinal-direction" serif:id="cardinal direction" transform="matrix(0.168986,0.166997,-0.119697,0.267047,-6888.03,13632.3)">
            <g transform="matrix(0.999531,-0.0287655,0.0325823,0.999531,1745.17,154.476)">
                <g transform="matrix(-0.151565,0.928749,-1.05198,-0.151565,-49064.2,-67373.5)">
                    <g transform="matrix(3.60822e-16,3.04013,-4.0676,7.77156e-16,6450.07,-53820.8)">
                        <path d="M114.666,32.2L120.759,51.271L108.572,51.271L114.666,32.2Z" style="fill:rgb(234,234,234);"/>
                        <path d="M114.666,32.2L120.759,51.271L108.572,51.271L114.666,32.2ZM114.666,37.117L110.53,50.06L118.801,50.06L114.666,37.117Z" style="fill:rgb(127,127,127);"/>
                    </g>
                    <g transform="matrix(2.77556e-17,-3.04013,4.0676,-2.91434e-16,6032.97,-53123.6)">
                        <path d="M114.666,32.2L120.759,51.271L108.572,51.271L114.666,32.2Z" style="fill:rgb(127,127,127);"/>
                        <path d="M114.666,32.2L120.759,51.271L108.572,51.271L114.666,32.2ZM114.666,37.117L110.53,50.06L118.801,50.06L114.666,37.117Z" style="fill:rgb(127,127,127);"/>
                    </g>
                </g>
                <g transform="matrix(5.2769,0,0,6.6878,3443.51,-55126.3)">
                    <path d="M530.238,233.354C540.647,233.354 549.098,239.62 549.098,247.337C549.098,255.054 540.647,261.319 530.238,261.319C519.829,261.319 511.378,255.054 511.378,247.337C511.378,239.62 519.829,233.354 530.238,233.354ZM530.238,236.469C522.147,236.469 515.579,241.339 515.579,247.337C515.579,253.335 522.147,258.205 530.238,258.205C538.329,258.205 544.897,253.335 544.897,247.337C544.897,241.339 538.329,236.469 530.238,236.469Z" style="fill:rgb(127,127,127);"/>
                </g>
            </g>
            <g transform="matrix(-2.79922,1.75048,-1.86299,-2.63015,6317.06,-53649.4)">
                <g transform="matrix(23.4414,0,0,23.4414,22.1103,0)">
                </g>
                <text x="5.182px" y="0px" style="font-family:'ArialMT', 'Arial';font-size:23.441px;fill:rgb(127,127,127);">N</text>
            </g>
        </g>
    </g>
</svg>
