<?xml version="1.0" encoding="UTF-8" standalone="no"?><!DOCTYPE svg PUBLIC "-//W3C//DTD SVG 1.1//EN" "http://www.w3.org/Graphics/SVG/1.1/DTD/svg11.dtd"><svg width="100%" height="100%" viewBox="0 0 1955 834" version="1.1" xmlns="http://www.w3.org/2000/svg" xmlns:xlink="http://www.w3.org/1999/xlink" xml:space="preserve" xmlns:serif="http://www.serif.com/" style="fill-rule:evenodd;clip-rule:evenodd;stroke-linejoin:round;stroke-miterlimit:10;"><g><g id="Road"><g id="Street"><path d="M970.228,487.512l266.551,-1.469l696.331,347.363l-1904.22,-0l941.337,-345.894Z" style="fill:#c8c8c8;"/><path d="M966.759,487.104l11.467,-0.408l-935.256,346.669l-43.133,0.367l966.922,-346.628Z" style="fill:#fff;"/><path d="M1238.74,487.104l-8.488,-0.408l671.194,346.71l52.559,0.326l-715.265,-346.628Z" style="fill:#fff;"/><path d="M943.254,724.12l24.199,-0.408l-67.862,109.285l-31.381,0.735l75.044,-109.612Z" style="fill:#fff;"/><path d="M1070.42,541.372l11.711,-0.204l-32.809,52.562l-15.18,0.326l36.278,-52.684Z" style="fill:#fff;"/><path d="M1012.85,622.249l17.129,-0.266l-43.819,68.375l-22.202,0.425l48.892,-68.534Z" style="fill:#fff;"/><path d="M1103.5,491.715l6.611,-0.122l-18.526,29.831l-8.57,0.204l20.485,-29.913Z" style="fill:#fff;"/><path d="M1280.52,512.389l25.284,9.239l-215.759,-0l6.517,-9.239l183.958,0Z" style="fill:#fff;"/></g><g id="Vegetation"><g><path d="M537.325,197.574l-193.617,-1.72l-0,427.142l193.659,1.498l-0.042,-426.92Z" style="fill:none;stroke:#7f7f7f;stroke-width:2.08px;stroke-dasharray:4.17,4.17,0,0,0,0;"/><path d="M349.379,643.733c32.658,-20.656 14.804,-193.787 14.804,-193.787l39.194,-0.57c0,-0 -3.689,190.752 14.537,193.777c4.224,0.701 -69.063,0.914 -68.535,0.58Z" style="fill:#d8a37d;"/><ellipse cx="383.733" cy="339.129" rx="96.83" ry="120.401" style="fill:#86b6ac;"/><path d="M537.367,624.494l-91.161,39.202" style="fill:none;stroke:#7f7f7f;stroke-width:2.08px;stroke-dasharray:4.17,4.17,0,0,0,0;"/><path d="M537.367,195.854l-91.161,39.202" style="fill:none;stroke:#7f7f7f;stroke-width:2.08px;stroke-dasharray:4.17,4.17,0,0,0,0;"/><path d="M343.708,624.494l-91.161,39.202" style="fill:none;stroke:#7f7f7f;stroke-width:2.08px;stroke-dasharray:4.17,4.17,0,0,0,0;"/><path d="M343.708,195.854l-91.161,39.202" style="fill:none;stroke:#7f7f7f;stroke-width:2.08px;stroke-dasharray:4.17,4.17,0,0,0,0;"/><path d="M446.164,236.775l-193.617,-1.719l-0,427.142l193.659,1.498l-0.042,-426.921Z" style="fill:none;stroke:#7f7f7f;stroke-width:2.08px;stroke-dasharray:4.17,4.17,0,0,0,0;"/></g></g><g id="Buildings"><g><path d="M1403.31,319.915l400.249,-155.902l0,555.744l-400.403,-175.306l0.154,-224.536Z" style="fill:#edd5bf;stroke:#7f7f7f;stroke-width:2.08px;stroke-dasharray:4.17,4.17,0,0,0,0;"/><path d="M1403.36,319.989l224.811,-0.074l3.16,224.684l-228.17,-0.148l0.199,-224.462Z" style="fill:none;stroke:#7f7f7f;stroke-width:2.08px;stroke-dasharray:4.17,4.17,0,0,0,0;"/><path d="M1803.56,164.013l150.606,3.904l-0,551.84l-150.606,0l0,-555.744Z" style="fill:#edd5bf;stroke:#7f7f7f;stroke-width:2.08px;stroke-dasharray:4.17,4.17,0,0,0,0;"/><path d="M1530.64,433.657l72.715,8.407l-0,189.077l-72.715,-31.926l-0,-165.558Z" style="fill:#eaeaea;fill-opacity:0.5;"/><path d="M1428.58,361.252l73.334,-8.841l0.056,97.211l-73.465,-3.074l0.075,-85.296Z" style="fill:#eaeaea;fill-opacity:0.5;"/><path d="M1654.32,329.632l105.101,-14.841l0.161,148.207l-105.713,-4.574l0.451,-128.792Z" style="fill:#eaeaea;fill-opacity:0.5;"/><path d="M1403.16,319.915l40.389,-69.117l457.726,-250.798l-97.712,164.013l-400.403,155.902Z" style="fill:#d47f89;stroke:#7f7f7f;stroke-width:2.08px;"/><path d="M1954.17,167.855l-0,-167.855l-52.894,0l-97.712,164.013l150.606,3.842Z" style="fill:#d47f89;stroke:#7f7f7f;stroke-width:2.08px;"/></g><path d="M1631.33,544.599l322.839,74.67" style="fill:none;stroke:#7f7f7f;stroke-width:2.08px;stroke-dasharray:4.17,4.17,0,0,0,0;"/><path d="M1631.33,319.915l322.839,-67.587" style="fill:none;stroke:#7f7f7f;stroke-width:2.08px;stroke-dasharray:4.17,4.17,0,0,0,0;"/></g></g><g id="Coordinate-system" serif:id="Coordinate system"><g><g id="arrow-blue" serif:id="arrow blue"><g><path d="M374.35,537.158l12.5,-25l12.5,25l-25,-0Z" style="fill:#0071b4;"/><path d="M386.85,639.779l0,-107.621" style="fill:none;stroke:#0071b4;stroke-width:8.33px;stroke-miterlimit:1.5;"/></g></g></g><g><g id="arrow-blue1" serif:id="arrow blue"><g><path d="M485.416,627.279l24.967,12.564l-25.032,12.436l0.065,-25Z" style="fill:#0071b4;"/><path d="M382.763,639.513l107.62,0.279" style="fill:none;stroke:#0071b4;stroke-width:8.33px;stroke-miterlimit:1.5;"/></g></g></g><g><g id="arrow-blue2" serif:id="arrow blue"><g><path d="M452.037,595.683l27.887,1.889l-18.243,21.176l-9.644,-23.065Z" style="fill:#0071b4;"/><path d="M388.226,635.91l73.246,-30.623" style="fill:none;stroke:#0071b4;stroke-width:7.32px;stroke-miterlimit:1.5;"/></g></g></g><g><g transform="matrix(66.6667,0,0,66.6667,496.363,584.255)"></g><text x="463.03px" y="584.255px" style="font-family:'TimesNewRomanPS-BoldMT', 'Times New Roman';font-weight:700;font-size:66.667px;fill:#0071b4;">x</text></g><g><text x="407.728px" y="527.376px" style="font-family:'TimesNewRomanPS-BoldMT', 'Times New Roman';font-weight:700;font-size:66.667px;fill:#0071b4;">z</text></g><g><g transform="matrix(66.6667,0,0,66.6667,543.163,647.803)"></g><text x="509.83px" y="647.803px" style="font-family:'TimesNewRomanPS-BoldMT', 'Times New Roman';font-weight:700;font-size:66.667px;fill:#0071b4;">y</text></g><g><text x="360.809px" y="698.126px" style="font-family:'TimesNewRomanPS-BoldMT', 'Times New Roman';font-weight:700;font-size:66.666px;fill:#0071b4;">O</text></g></g><g id="Coordinate-system1" serif:id="Coordinate system"><g><g id="arrow-blue3" serif:id="arrow blue"><g><path d="M1688.67,505.945l12.5,-25l12.5,25l-25,-0Z" style="fill:#0071b4;"/><path d="M1701.17,608.566l-0,-107.621" style="fill:none;stroke:#0071b4;stroke-width:8.33px;stroke-miterlimit:1.5;"/></g></g></g><g><g id="arrow-blue4" serif:id="arrow blue"><g><path d="M1762.4,596.659l24.967,12.565l-25.032,12.435l0.065,-25Z" style="fill:#0071b4;"/><path d="M1697.03,608.99l70.336,0.182" style="fill:none;stroke:#0071b4;stroke-width:8.33px;stroke-miterlimit:1.5;"/></g></g></g><g><g id="arrow-blue5" serif:id="arrow blue"><g><path d="M1625.14,592.499l-18.388,-21.051l27.874,-2.079l-9.486,23.13Z" style="fill:#0071b4;"/><path d="M1698.71,609.159l-73.453,-30.122" style="fill:none;stroke:#0071b4;stroke-width:7.32px;stroke-miterlimit:1.5;"/></g></g></g><g><g transform="matrix(66.6667,0,0,66.6667,1626.49,559.538)"></g><text x="1593.16px" y="559.538px" style="font-family:'TimesNewRomanPS-BoldMT', 'Times New Roman';font-weight:700;font-size:66.667px;fill:#0071b4;">x</text></g><g><text x="1712.99px" y="496.163px" style="font-family:'TimesNewRomanPS-BoldMT', 'Times New Roman';font-weight:700;font-size:66.667px;fill:#0071b4;">z</text></g><g><g transform="matrix(66.6667,0,0,66.6667,1826.83,617.196)"></g><text x="1793.5px" y="617.196px" style="font-family:'TimesNewRomanPS-BoldMT', 'Times New Roman';font-weight:700;font-size:66.667px;fill:#0071b4;">y</text></g><g><text x="1670.99px" y="662.194px" style="font-family:'TimesNewRomanPS-BoldMT', 'Times New Roman';font-weight:700;font-size:66.666px;fill:#0071b4;">O</text></g></g><g id="cardinal-direction" serif:id="cardinal direction"><g><g><path d="M70.47,169.361l30.046,-60.663l25.318,21.707l-55.364,38.956Z" style="fill:#eaeaea;"/><path d="M70.47,169.361l30.046,-60.663l25.318,21.707l-55.364,38.956Zm11.01,-12.842l37.574,-26.439l-17.183,-14.732l-20.391,41.171Z" style="fill:#7f7f7f;"/><path d="M155.88,69.741l-30.046,60.664l-25.318,-21.707l55.364,-38.957Z" style="fill:#7f7f7f;"/><path d="M155.88,69.741l-30.046,60.664l-25.318,-21.707l55.364,-38.957Zm-11.01,12.842l-37.574,26.439l17.182,14.732l20.392,-41.171Z" style="fill:#7f7f7f;"/></g><path d="M157.536,47.967c39.446,24.544 51.544,76.496 27,115.941c-24.544,39.446 -76.496,51.544 -115.941,26.999c-39.446,-24.544 -51.544,-76.495 -27,-115.941c24.544,-39.445 76.496,-51.543 115.941,-26.999Zm-9.905,15.92c-30.66,-19.077 -71.039,-9.674 -90.116,20.985c-19.077,30.659 -9.674,71.039 20.985,90.116c30.66,19.077 71.039,9.673 90.116,-20.986c19.077,-30.659 9.674,-71.038 -20.985,-90.115Z" style="fill:#7f7f7f;"/></g><g transform="matrix(-1,-8.13284e-17,1.62657e-16,-0.999996,509.304,44.04)"><g transform="matrix(66.6669,0,0,66.6669,317.533,22.02)"></g><text x="269.389px" y="22.02px" style="font-family:'ArialMT', 'Arial';font-size:66.667px;fill:#7f7f7f;">N</text></g></g></g></svg>