<?xml version="1.0" encoding="UTF-8" standalone="no"?>
<!DOCTYPE svg PUBLIC "-//W3C//DTD SVG 1.1//EN" "http://www.w3.org/Graphics/SVG/1.1/DTD/svg11.dtd">
<svg width="100%" height="100%" viewBox="0 0 500 300" version="1.1" xmlns="http://www.w3.org/2000/svg" xmlns:xlink="http://www.w3.org/1999/xlink" xml:space="preserve" xmlns:serif="http://www.serif.com/" style="fill-rule:evenodd;clip-rule:evenodd;">
    <path d="M450,140C450,128.962 441.038,120 430,120L70,120C58.962,120 50,128.962 50,140L50,180C50,191.038 58.962,200 70,200L430,200C441.038,200 450,191.038 450,180L450,140Z" style="fill:none;stroke:black;stroke-opacity:0.5;stroke-width:3px;"/>
    <g transform="matrix(1,0,0,1,-0.883699,-21.5624)">
        <path d="M350,95C350,86.721 343.279,80 335,80L165,80C156.721,80 150,86.721 150,95L150,125C150,133.279 156.721,140 165,140L335,140C343.279,140 350,133.279 350,125L350,95Z" style="fill:none;stroke:black;stroke-opacity:0.5;stroke-width:3px;"/>
    </g>
    <g transform="matrix(1,0,0,1,-1.06045,-23.86)">
        <path d="M150,80L350,80L340,50L160,50L150,80Z" style="fill:none;fill-rule:nonzero;stroke:black;stroke-opacity:0.48;stroke-width:2.52px;"/>
    </g>
    <circle cx="120" cy="220" r="35" style="fill:none;stroke:black;stroke-opacity:0.5;stroke-width:5px;"/>
    <circle cx="380" cy="220" r="35" style="fill:none;stroke:black;stroke-opacity:0.5;stroke-width:5px;"/>
    <circle cx="120" cy="220" r="15" style="fill:none;stroke:black;stroke-opacity:0.5;stroke-width:1px;"/>
    <circle cx="380" cy="220" r="15" style="fill:none;stroke:black;stroke-opacity:0.5;stroke-width:1px;"/>
    <g transform="matrix(3.50972,0,0,1,-1329.98,-148.993)">
        <rect x="440" y="180" width="20" height="20" style="fill:none;stroke:black;stroke-opacity:0.5;stroke-width:0.89px;"/>
    </g>
    <g transform="matrix(3.50972,0,0,3.6246,-1326.62,-533.227)">
        <rect x="440" y="180" width="20" height="20" style="fill:none;stroke:black;stroke-opacity:0.5;stroke-width:0.89px;"/>
    </g>
    <g transform="matrix(1,0,0,-1,297.365,53.5541)">
        <path d="M0,0L2.26,1.14" style="fill:none;stroke:rgb(127,127,127);stroke-width:1.33px;stroke-miterlimit:8;"/>
    </g>
    <g transform="matrix(-1,-8.74228e-08,-8.74228e-08,1,301.895,55.4141)">
        <path d="M0,0L3.53,0" style="fill:none;stroke:rgb(127,127,127);stroke-width:1.33px;stroke-miterlimit:8;"/>
    </g>
    <g transform="matrix(1,0,0,-1,298.365,55.5541)">
        <path d="M0,0L1.13,3.14" style="fill:none;stroke:rgb(127,127,127);stroke-width:1.33px;stroke-miterlimit:8;"/>
    </g>
    <g transform="matrix(1,0,0,1,-551.135,-483.086)">
        <path d="M805.644,525.849L836.534,532.663L836.246,533.965L805.356,527.151L805.644,525.849ZM835.95,529.121L842.9,534.75L834.226,536.933L835.95,529.121Z" style="fill-rule:nonzero;"/>
    </g>
    <g transform="matrix(1,0,0,1,-551.135,-483.086)">
        <path d="M804.534,526.859L803.089,489.187L804.422,489.136L805.866,526.808L804.534,526.859ZM799.81,490.647L803.5,482.5L807.804,490.341L799.81,490.647Z" style="fill-rule:nonzero;"/>
    </g>
    <g transform="matrix(-1,-8.74228e-08,-8.74228e-08,1,253.965,43.4141)">
        <path d="M0.27,-0.609L28.776,12.037L28.236,13.256L-0.27,0.609L0.27,-0.609ZM28.909,8.449L34.6,15.35L25.665,15.762L28.909,8.449Z" style="fill-rule:nonzero;"/>
    </g>
    <g transform="matrix(1,0,0,1,178.115,66.0746)">
        <g transform="matrix(1,0,0,1,26.9397,-1.03616)">
            <text x="0px" y="0px" style="font-family:'TimesNewRomanPS-BoldMT', 'Times New Roman', serif;font-weight:700;font-size:16px;">x</text>
        </g>
        <g transform="matrix(1,0,0,1,75.0382,-50)">
            <text x="0px" y="0px" style="font-family:'TimesNewRomanPS-BoldMT', 'Times New Roman', serif;font-weight:700;font-size:16px;">z</text>
        </g>
        <g transform="matrix(1,0,0,1,65.2252,-6.97349)">
            <text x="0px" y="0px" style="font-family:'TimesNewRomanPS-BoldMT', 'Times New Roman', serif;font-weight:700;font-size:16px;">O</text>
        </g>
    </g>
    <g transform="matrix(1,0,0,1,292.005,54.1141)">
        <text x="0px" y="0px" style="font-family:'TimesNewRomanPS-BoldMT', 'Times New Roman', serif;font-weight:700;font-size:16px;">y</text>
    </g>
</svg>
