<?xml version="1.0" encoding="UTF-8" standalone="no"?>
<!DOCTYPE svg PUBLIC "-//W3C//DTD SVG 1.1//EN" "http://www.w3.org/Graphics/SVG/1.1/DTD/svg11.dtd">
<svg width="100%" height="100%" viewBox="0 0 469 200" version="1.1" xmlns="http://www.w3.org/2000/svg" xmlns:xlink="http://www.w3.org/1999/xlink" xml:space="preserve" xmlns:serif="http://www.serif.com/" style="fill-rule:evenodd;clip-rule:evenodd;stroke-linejoin:round;stroke-miterlimit:10;">
    <g transform="matrix(1,0,0,0.816327,-540,-285.714)">
        <g id="Street" transform="matrix(0.652961,0,0,0.799877,540,362.121)">
            <g transform="matrix(0.0299978,0,0,0.0299989,0,2.00018e-12)">
                <path d="M11888,5468L15154,5450L23686,9706L354,9706L11888,5468Z" style="fill:rgb(200,200,200);"/>
            </g>
            <g transform="matrix(0.0149989,0,0,0.0149995,0,0)">
                <path d="M23691,10926L23972,10916L1053,19411L-4,19420L23691,10926Z" style="fill:white;"/>
            </g>
            <g transform="matrix(0.0299978,0,0,0.0299989,0,0)">
                <path d="M15178,5463L15074,5458L23298,9706L23942,9710L15178,5463Z" style="fill:white;"/>
            </g>
            <g transform="matrix(0.0149989,0,0,0.0149995,0,0)">
                <path d="M23115,16734L23708,16724L22045,19402L21276,19420L23115,16734Z" style="fill:white;"/>
            </g>
            <g transform="matrix(0.0149989,0,0,0.0149995,2.55516,-2.65737)">
                <path d="M26061,12433L26348,12428L25544,13716L25172,13724L26061,12433Z" style="fill:white;"/>
            </g>
            <g transform="matrix(0.0219371,0,0,0.019512,-197.893,-29.0358)">
                <path d="M25991.2,12433L26278.2,12428L25544,13716L25172,13724L25991.2,12433Z" style="fill:white;"/>
            </g>
            <g transform="matrix(0.0149989,0,0,0.0149995,0,0)">
                <path d="M27042,11039L27204,11036L26750,11767L26540,11772L27042,11039Z" style="fill:white;"/>
            </g>
        </g>
        <g id="Vegetation" transform="matrix(0.652961,0,0,0.799877,540.978,353.753)">
            <g transform="matrix(-0.0299978,0,0,0.0299989,785.887,-13.231)">
                <path d="M19461.3,2356.63L21833.7,2335.57L21833.7,7569.05L19460.8,7587.4L19461.3,2356.63Z" style="fill:none;stroke:rgb(127,127,127);stroke-width:25.53px;stroke-dasharray:51.05,51.05,0,0,0,0;"/>
            </g>
            <g transform="matrix(-0.0299978,0,0,0.0299989,781.293,-13.231)">
                <path d="M19307.6,7587.4L20679.9,8067.71" style="fill:none;stroke:rgb(127,127,127);stroke-width:25.53px;stroke-dasharray:51.05,51.05,0,0,0,0;"/>
            </g>
            <g transform="matrix(-0.0299978,0,0,0.0299989,781.293,-13.231)">
                <path d="M21680.5,7587.4L23052.7,8067.71" style="fill:none;stroke:rgb(127,127,127);stroke-width:25.53px;stroke-dasharray:51.05,51.05,0,0,0,0;"/>
            </g>
            <g transform="matrix(-0.0299978,0,0,0.0299989,781.293,-13.231)">
                <path d="M21680.5,2335.57L23052.7,2815.88" style="fill:none;stroke:rgb(127,127,127);stroke-width:25.53px;stroke-dasharray:51.05,51.05,0,0,0,0;"/>
            </g>
            <g transform="matrix(1,0,0,1,14.8221,-0.604974)">
                <g transform="matrix(0.0299978,0,0,0.0299989,3.06297,2.00018e-12)">
                    <path d="M3786.76,7402.24C4186.91,7149.15 3968.15,5027.9 3968.15,5027.9L4448.39,5020.91C4448.39,5020.91 4403.19,7358.06 4626.51,7395.13C4678.27,7403.72 3780.29,7406.33 3786.76,7402.24Z" style="fill:rgb(216,163,125);"/>
                </g>
                <g transform="matrix(1.88706,0,0,3.16495,-871.307,-672.71)">
                    <ellipse cx="530.238" cy="247.337" rx="18.86" ry="13.983" style="fill:rgb(134,182,172);"/>
                </g>
            </g>
            <g transform="matrix(-0.0299978,0,0,0.0299989,744.723,1.17781)">
                <path d="M19461.3,2356.63L21833.7,2335.57L21833.7,7569.05L19460.8,7587.4L19461.3,2356.63Z" style="fill:none;stroke:rgb(127,127,127);stroke-width:25.53px;stroke-dasharray:51.05,51.05,0,0,0,0;"/>
            </g>
            <g transform="matrix(-0.0299978,0,0,0.0299989,781.293,-13.231)">
                <path d="M19300.8,2335.57L20679.9,2815.88" style="fill:none;stroke:rgb(127,127,127);stroke-width:25.53px;stroke-dasharray:51.05,51.05,0,0,0,0;"/>
            </g>
        </g>
        <g id="Buildings" transform="matrix(0.652961,0,0,0.799877,540,362.121)">
            <g id="Bounding-box" serif:id="Bounding box">
                <g transform="matrix(0.0299978,0,0,0.0299989,-67.6208,-23.169)">
                    <path d="M19461.6,6952.59L19435.5,6952.57L19435.6,6926.71L19461.1,6926.8L19461.1,6927.07L19461.6,6927.07L19461.6,6952.59ZM19436,6823.26L19461.5,6823.36L19461.3,6875.08L19435.8,6874.99L19436,6823.26ZM19436.4,6719.82L19461.9,6719.92L19461.7,6771.64L19436.2,6771.54L19436.4,6719.82ZM19436.8,6616.38L19462.3,6616.48L19462.1,6668.19L19436.6,6668.1L19436.8,6616.38ZM19437.1,6512.94L19462.7,6513.03L19462.5,6564.75L19436.9,6564.66L19437.1,6512.94ZM19437.5,6409.49L19463,6409.59L19462.9,6461.31L19437.3,6461.21L19437.5,6409.49ZM19437.9,6306.05L19463.4,6306.15L19463.2,6357.87L19437.7,6357.77L19437.9,6306.05ZM19438.3,6202.61L19463.8,6202.7L19463.6,6254.42L19438.1,6254.33L19438.3,6202.61ZM19438.7,6099.17L19464.2,6099.26L19464,6150.98L19438.5,6150.89L19438.7,6099.17ZM19439.1,5995.72L19464.6,5995.82L19464.4,6047.54L19438.9,6047.44L19439.1,5995.72ZM19439.4,5892.28L19465,5892.37L19464.8,5944.09L19439.2,5944L19439.4,5892.28ZM19439.8,5788.85L19465.3,5788.94L19465.2,5840.66L19439.6,5840.57L19439.8,5788.85ZM19440.2,5685.4L19465.7,5685.49L19465.5,5737.21L19440,5737.12L19440.2,5685.4ZM19440.6,5581.96L19466.1,5582.06L19465.9,5633.78L19440.4,5633.68L19440.6,5581.96ZM19441,5478.52L19466.5,5478.61L19466.3,5530.33L19440.8,5530.24L19441,5478.52ZM19441.4,5375.07L19466.9,5375.17L19466.7,5426.89L19441.2,5426.79L19441.4,5375.07ZM19441.7,5271.63L19467.3,5271.73L19467.1,5323.45L19441.5,5323.35L19441.7,5271.63ZM19442.1,5168.18L19467.6,5168.28L19467.5,5220L19441.9,5219.9L19442.1,5168.18ZM19442.5,5064.75L19468,5064.84L19467.8,5116.56L19442.3,5116.47L19442.5,5064.75ZM19442.9,4961.3L19468.4,4961.4L19468.2,5013.12L19442.7,5013.02L19442.9,4961.3ZM19443.3,4857.86L19468.8,4857.96L19468.6,4909.68L19443.1,4909.59L19443.3,4857.86ZM19443.6,4754.41L19469.2,4754.51L19469,4806.23L19443.5,4806.14L19443.6,4754.41ZM19444,4650.97L19469.6,4651.07L19469.4,4702.79L19443.8,4702.69L19444,4650.97ZM19444.4,4547.53L19469.9,4547.63L19469.7,4599.35L19444.2,4599.25L19444.4,4547.53ZM19444.8,4444.09L19470.3,4444.18L19470.1,4495.9L19444.6,4495.81L19444.8,4444.09ZM19445.2,4340.64L19470.7,4340.74L19470.5,4392.46L19445,4392.37L19445.2,4340.64ZM19445.6,4237.2L19471.1,4237.3L19470.9,4289.02L19445.4,4288.93L19445.6,4237.2ZM19445.9,4133.76L19471.5,4133.85L19471.3,4185.58L19445.8,4185.48L19445.9,4133.76ZM19446.3,4030.32L19471.9,4030.41L19471.7,4082.14L19446.1,4082.04L19446.3,4030.32ZM19446.7,3926.88L19472.2,3926.97L19472,3978.69L19446.5,3978.6L19446.7,3926.88ZM19447.1,3823.44L19472.6,3823.53L19472.4,3875.25L19446.9,3875.16L19447.1,3823.44ZM19447.5,3719.99L19473,3720.09L19472.8,3771.81L19447.3,3771.71L19447.5,3719.99ZM19447.9,3616.55L19473.4,3616.64L19473.2,3668.37L19447.7,3668.27L19447.9,3616.55ZM19448.2,3513.11L19473.8,3513.2L19473.6,3564.92L19448.1,3564.83L19448.2,3513.11ZM19448.6,3409.67L19474.2,3409.76L19474,3461.48L19448.4,3461.39L19448.6,3409.67ZM19475.6,3332.06L19475.6,3357.59L19474.3,3357.59L19474.3,3358.04L19448.8,3357.95L19448.8,3357.52L19448.9,3357.61L19449,3332.09L19475.6,3332.06ZM19582.3,3331.98L19582.3,3357.51L19529,3357.55L19528.9,3332.02L19582.3,3331.98ZM19689,3331.9L19689,3357.42L19635.6,3357.47L19635.6,3331.94L19689,3331.9ZM19795.7,3331.82L19795.7,3357.34L19742.3,3357.38L19742.3,3331.86L19795.7,3331.82ZM19902.3,3331.73L19902.4,3357.26L19849,3357.3L19849,3331.77L19902.3,3331.73ZM20009,3331.65L20009.1,3357.17L19955.7,3357.22L19955.7,3331.69L20009,3331.65ZM20115.7,3331.57L20115.7,3357.09L20062.4,3357.13L20062.4,3331.61L20115.7,3331.57ZM20222.4,3331.48L20222.4,3357.01L20169.1,3357.05L20169.1,3331.52L20222.4,3331.48ZM20329.1,3331.4L20329.1,3356.93L20275.8,3356.97L20275.8,3331.44L20329.1,3331.4ZM20435.8,3331.32L20435.8,3356.84L20382.5,3356.88L20382.5,3331.36L20435.8,3331.32ZM20542.5,3331.23L20542.5,3356.76L20489.2,3356.8L20489.1,3331.28L20542.5,3331.23ZM20649.2,3331.15L20649.2,3356.68L20595.9,3356.72L20595.8,3331.19L20649.2,3331.15ZM20755.9,3331.07L20755.9,3356.59L20702.5,3356.63L20702.5,3331.11L20755.9,3331.07ZM20862.6,3330.98L20862.6,3356.51L20809.2,3356.55L20809.2,3331.03L20862.6,3330.98ZM20969.2,3330.9L20969.3,3356.43L20915.9,3356.47L20915.9,3330.94L20969.2,3330.9ZM21075.9,3330.82L21076,3356.34L21022.6,3356.39L21022.6,3330.86L21075.9,3330.82ZM21182.6,3330.74L21182.7,3356.26L21129.3,3356.3L21129.3,3330.78L21182.6,3330.74ZM21289.3,3330.65L21289.3,3356.18L21236,3356.22L21236,3330.69L21289.3,3330.65ZM21396,3330.57L21396,3356.09L21342.7,3356.14L21342.7,3330.61L21396,3330.57ZM21502.7,3330.49L21502.7,3356.01L21449.4,3356.05L21449.4,3330.53L21502.7,3330.49ZM21609.4,3330.4L21609.4,3355.93L21556.1,3355.97L21556,3330.44L21609.4,3330.4ZM21716.1,3330.32L21716.1,3355.85L21662.8,3355.89L21662.7,3330.36L21716.1,3330.32ZM21796.4,3356.15L21770.8,3356.41L21770.8,3355.8L21769.5,3355.8L21769.4,3330.28L21796,3330.26L21796.1,3355.78L21796.4,3355.52L21796.4,3356.15ZM21797.4,3459.71L21771.9,3459.97L21771.4,3408.19L21796.9,3407.93L21797.4,3459.71ZM21798.5,3563.27L21773,3563.53L21772.5,3511.75L21798,3511.49L21798.5,3563.27ZM21799.6,3666.83L21774.1,3667.1L21773.5,3615.32L21799.1,3615.05L21799.6,3666.83ZM21800.7,3770.39L21775.1,3770.66L21774.6,3718.88L21800.1,3718.61L21800.7,3770.39ZM21801.7,3873.95L21776.2,3874.22L21775.7,3822.44L21801.2,3822.18L21801.7,3873.95ZM21802.8,3977.52L21777.3,3977.78L21776.8,3926L21802.3,3925.74L21802.8,3977.52ZM21803.9,4081.08L21778.4,4081.34L21777.8,4029.56L21803.3,4029.3L21803.9,4081.08ZM21805,4184.64L21779.4,4184.9L21778.9,4133.12L21804.4,4132.86L21805,4184.64ZM21806,4288.2L21780.5,4288.47L21780,4236.68L21805.5,4236.42L21806,4288.2ZM21807.1,4391.77L21781.6,4392.03L21781,4340.25L21806.6,4339.98L21807.1,4391.77ZM21808.2,4495.32L21782.7,4495.58L21782.1,4443.8L21807.6,4443.54L21808.2,4495.32ZM21809.2,4598.88L21783.7,4599.15L21783.2,4547.37L21808.7,4547.1L21809.2,4598.88ZM21810.3,4702.44L21784.8,4702.7L21784.3,4650.92L21809.8,4650.66L21810.3,4702.44ZM21811.4,4806L21785.9,4806.27L21785.3,4754.49L21810.9,4754.22L21811.4,4806ZM21812.5,4909.56L21786.9,4909.83L21786.4,4858.05L21811.9,4857.78L21812.5,4909.56ZM21813.5,5013.13L21788,5013.39L21787.5,4961.61L21813,4961.35L21813.5,5013.13ZM21814.6,5116.69L21789.1,5116.96L21788.6,5065.18L21814.1,5064.91L21814.6,5116.69ZM21815.7,5220.25L21790.2,5220.51L21789.6,5168.73L21815.2,5168.47L21815.7,5220.25ZM21816.8,5323.81L21791.2,5324.07L21790.7,5272.3L21816.2,5272.03L21816.8,5323.81ZM21817.8,5427.37L21792.3,5427.63L21791.8,5375.85L21817.3,5375.59L21817.8,5427.37ZM21818.9,5530.94L21793.4,5531.2L21792.8,5479.42L21818.4,5479.15L21818.9,5530.94ZM21820,5634.5L21794.5,5634.76L21793.9,5582.98L21819.4,5582.72L21820,5634.5ZM21821.1,5738.06L21795.5,5738.32L21795,5686.54L21820.5,5686.28L21821.1,5738.06ZM21822.1,5841.62L21796.6,5841.89L21796.1,5790.11L21821.6,5789.84L21822.1,5841.62ZM21823.2,5945.18L21797.7,5945.45L21797.1,5893.66L21822.7,5893.4L21823.2,5945.18ZM21824.3,6048.74L21798.7,6049.01L21798.2,5997.23L21823.7,5996.96L21824.3,6048.74ZM21825.3,6152.31L21799.8,6152.57L21799.3,6100.79L21824.8,6100.52L21825.3,6152.31ZM21826.4,6255.86L21800.9,6256.13L21800.4,6204.35L21825.9,6204.08L21826.4,6255.86ZM21827.5,6359.42L21802,6359.69L21801.4,6307.91L21827,6307.64L21827.5,6359.42ZM21828.6,6462.98L21803,6463.25L21802.5,6411.47L21828,6411.2L21828.6,6462.98ZM21829.6,6566.55L21804.1,6566.81L21803.6,6515.03L21829.1,6514.77L21829.6,6566.55ZM21830.7,6670.11L21805.2,6670.37L21804.6,6618.59L21830.2,6618.33L21830.7,6670.11ZM21831.8,6773.67L21806.3,6773.93L21805.7,6722.15L21831.2,6721.89L21831.8,6773.67ZM21832.9,6877.23L21807.3,6877.49L21806.8,6825.72L21832.3,6825.45L21832.9,6877.23ZM21807.6,6954.88L21807.6,6929.35L21807.9,6929.31L21833.4,6929.03L21833.7,6954.9L21807.6,6954.88ZM21703.3,6954.78L21703.4,6929.25L21755.5,6929.3L21755.5,6954.82L21703.3,6954.78ZM21599.1,6954.67L21599.1,6929.15L21651.2,6929.2L21651.2,6954.72L21599.1,6954.67ZM21494.8,6954.57L21494.8,6929.05L21547,6929.1L21546.9,6954.62L21494.8,6954.57ZM21390.5,6954.47L21390.5,6928.94L21442.7,6928.99L21442.7,6954.52L21390.5,6954.47ZM21286.3,6954.37L21286.3,6928.84L21338.4,6928.89L21338.4,6954.42L21286.3,6954.37ZM21182,6954.27L21182,6928.74L21234.1,6928.79L21234.1,6954.32L21182,6954.27ZM21077.7,6954.17L21077.7,6928.64L21129.9,6928.69L21129.9,6954.22L21077.7,6954.17ZM20973.5,6954.06L20973.5,6928.54L21025.6,6928.59L21025.6,6954.11L20973.5,6954.06ZM20869.2,6953.96L20869.2,6928.44L20921.3,6928.49L20921.3,6954.01L20869.2,6953.96ZM20764.9,6953.86L20764.9,6928.34L20817.1,6928.39L20817.1,6953.91L20764.9,6953.86ZM20660.7,6953.76L20660.7,6928.23L20712.8,6928.28L20712.8,6953.81L20660.7,6953.76ZM20556.4,6953.66L20556.4,6928.13L20608.5,6928.18L20608.5,6953.71L20556.4,6953.66ZM20452.1,6953.56L20452.1,6928.03L20504.3,6928.08L20504.2,6953.61L20452.1,6953.56ZM20347.9,6953.45L20347.9,6927.93L20400,6927.98L20400,6953.51L20347.9,6953.45ZM20243.6,6953.35L20243.6,6927.83L20295.7,6927.88L20295.7,6953.4L20243.6,6953.35ZM20139.3,6953.25L20139.3,6927.73L20191.5,6927.78L20191.4,6953.3L20139.3,6953.25ZM20035,6953.15L20035.1,6927.62L20087.2,6927.68L20087.2,6953.2L20035,6953.15ZM19930.8,6953.05L19930.8,6927.52L19982.9,6927.57L19982.9,6953.1L19930.8,6953.05ZM19826.5,6952.95L19826.5,6927.42L19878.7,6927.47L19878.6,6953L19826.5,6952.95ZM19722.2,6952.85L19722.3,6927.32L19774.4,6927.37L19774.4,6952.9L19722.2,6952.85ZM19618,6952.74L19618,6927.22L19670.1,6927.27L19670.1,6952.8L19618,6952.74ZM19513.7,6952.64L19513.7,6927.12L19565.9,6927.17L19565.8,6952.69L19513.7,6952.64Z" style="fill:rgb(127,127,127);"/>
                </g>
                <g transform="matrix(-0.0299978,0,0,0.0299989,781.293,-13.231)">
                    <path d="M6056.71,6608.5L2101.04,7523.38" style="fill:none;stroke:rgb(127,127,127);stroke-width:25.53px;stroke-dasharray:51.05,51.05,0,0,0,0;"/>
                </g>
                <g transform="matrix(-0.0299978,0,0,0.0299989,781.293,-13.231)">
                    <path d="M6106.62,3027.51L2101.04,1657.7" style="fill:none;stroke:rgb(127,127,127);stroke-width:25.53px;stroke-dasharray:51.05,51.05,0,0,0,0;"/>
                </g>
                <g transform="matrix(1,0,0,1,-55.356,-24.8043)">
                    <g transform="matrix(0.0299978,0,0,0.0299989,0,2.00018e-12)">
                        <path d="M19056.2,4241.4L23944,2331.23L23944,9140.38L19052.5,6994.29L19056.2,4241.4Z" style="fill:rgb(237,213,191);"/>
                    </g>
                    <g transform="matrix(0.0299978,0,0,0.0299989,0,2.00018e-12)">
                        <path d="M23944,2331.23L25789.3,2379.06L25789.3,9140.38L23944,9140.38L23944,2331.23Z" style="fill:rgb(237,213,191);"/>
                    </g>
                    <g transform="matrix(0.0299978,0,0,0.0299989,0,2.00018e-12)">
                        <path d="M20600,5634.99L21491,5738L21491,8054.63L20600,7663.46L20600,5634.99Z" style="fill:rgb(234,234,234);fill-opacity:0.5;"/>
                    </g>
                    <g transform="matrix(0.0299978,0,0,0.0299989,-37.6786,-27.1639)">
                        <path d="M20605.5,5653.37L21504.1,5545.04L21504.8,6736.1L20604.6,6698.43L20605.5,5653.37Z" style="fill:rgb(234,234,234);fill-opacity:0.5;"/>
                    </g>
                    <g transform="matrix(0.0299978,0,0,0.0299989,45.1531,-22.7987)">
                        <path d="M20610.1,5120.43L21897.9,4938.6L21899.9,6754.47L20604.6,6698.43L20610.1,5120.43Z" style="fill:rgb(234,234,234);fill-opacity:0.5;"/>
                    </g>
                    <g transform="matrix(0.0299978,0,0,0.0299989,0,2.00018e-12)">
                        <path d="M19037.9,4241.4L19532.8,3394.55L25141.2,321.689L23944,2331.23L19037.9,4241.4Z" style="fill:rgb(212,127,137);stroke:rgb(127,127,127);stroke-width:25.53px;"/>
                    </g>
                    <g transform="matrix(0.0299978,0,0,0.0299989,0,2.00018e-12)">
                        <path d="M25789.3,2378.31L25789.3,1061.98L25141.2,321.689L23944,2331.23L25789.3,2378.31Z" style="fill:rgb(212,127,137);stroke:rgb(127,127,127);stroke-width:25.53px;"/>
                    </g>
                </g>
                <g transform="matrix(-0.0299978,0,0,0.0299989,781.293,-13.231)">
                    <path d="M8843.24,3024.3L8849.78,3000.57L8828.12,2987.03L8814.59,3008.68L8836.26,3022.22L8843.24,3024.3ZM8770.8,2981.31L8784.33,2959.66L8740.55,2932.3L8727.02,2953.94L8770.8,2981.31ZM8683.23,2926.57L8696.76,2904.93L8652.98,2877.56L8639.44,2899.21L8683.23,2926.57ZM8595.66,2871.84L8609.19,2850.19L8565.4,2822.82L8551.87,2844.47L8595.66,2871.84ZM8508.09,2817.11L8521.62,2795.46L8477.84,2768.09L8464.31,2789.74L8508.09,2817.11ZM8420.51,2762.37L8434.04,2740.72L8390.26,2713.35L8376.73,2735L8420.51,2762.37ZM8332.94,2707.63L8346.47,2685.99L8302.69,2658.62L8289.16,2680.27L8332.94,2707.63ZM8245.38,2652.9L8258.91,2631.26L8215.12,2603.89L8201.59,2625.53L8245.38,2652.9ZM8157.81,2598.17L8171.34,2576.52L8127.55,2549.16L8114.02,2570.8L8157.81,2598.17ZM8070.23,2543.43L8083.76,2521.79L8039.97,2494.42L8026.44,2516.06L8070.23,2543.43ZM7982.66,2488.7L7996.19,2467.05L7952.4,2439.68L7938.87,2461.33L7982.66,2488.7ZM7895.09,2433.96L7908.61,2412.31L7864.83,2384.95L7851.3,2406.59L7895.09,2433.96ZM7807.52,2379.23L7821.05,2357.58L7777.26,2330.21L7763.73,2351.86L7807.52,2379.23ZM7719.95,2324.49L7733.48,2302.85L7689.69,2275.48L7676.16,2297.12L7719.95,2324.49ZM7632.37,2269.76L7645.9,2248.11L7602.12,2220.74L7588.59,2242.39L7632.37,2269.76ZM7544.8,2215.02L7558.33,2193.38L7514.55,2166.01L7501.02,2187.66L7544.8,2215.02ZM7457.24,2160.29L7470.77,2138.64L7426.98,2111.28L7413.45,2132.92L7457.24,2160.29ZM7369.66,2105.55L7383.19,2083.91L7339.4,2056.54L7325.87,2078.18L7369.66,2105.55ZM7282.09,2050.82L7295.61,2029.17L7251.83,2001.8L7238.3,2023.45L7282.09,2050.82ZM7194.52,1996.09L7208.05,1974.44L7164.26,1947.07L7150.73,1968.72L7194.52,1996.09ZM7106.95,1941.35L7120.48,1919.7L7076.69,1892.34L7063.16,1913.98L7106.95,1941.35ZM7019.38,1886.62L7032.91,1864.97L6989.12,1837.6L6975.59,1859.25L7019.38,1886.62ZM6931.81,1831.88L6945.34,1810.24L6901.56,1782.87L6888.03,1804.52L6931.81,1831.88ZM6844.24,1777.15L6857.77,1755.5L6813.98,1728.13L6800.45,1749.78L6844.24,1777.15ZM6756.66,1722.41L6770.19,1700.76L6726.4,1673.39L6712.87,1695.04L6756.66,1722.41ZM6669.09,1667.68L6682.62,1646.03L6638.83,1618.66L6625.3,1640.31L6669.09,1667.68ZM6581.52,1612.94L6595.05,1591.29L6551.26,1563.93L6537.73,1585.57L6581.52,1612.94ZM6493.96,1558.21L6507.49,1536.57L6463.7,1509.2L6450.17,1530.84L6493.96,1558.21ZM6406.38,1503.48L6419.91,1481.83L6376.13,1454.46L6362.6,1476.11L6406.38,1503.48ZM6318.81,1448.74L6332.34,1427.1L6288.56,1399.73L6275.03,1421.37L6318.81,1448.74ZM6231.24,1394L6244.77,1372.36L6200.99,1344.99L6187.46,1366.64L6231.24,1394ZM6143.67,1339.27L6157.2,1317.63L6113.42,1290.26L6099.89,1311.91L6143.67,1339.27ZM6056.1,1284.54L6069.62,1262.89L6025.84,1235.52L6012.31,1257.17L6056.1,1284.54ZM5968.52,1229.8L5982.05,1208.15L5938.27,1180.79L5924.74,1202.43L5968.52,1229.8ZM5880.95,1175.06L5894.48,1153.42L5850.7,1126.05L5837.17,1147.7L5880.95,1175.06ZM5793.39,1120.33L5806.91,1098.69L5763.13,1071.32L5749.6,1092.97L5793.39,1120.33ZM5705.81,1065.6L5719.34,1043.95L5675.56,1016.59L5662.03,1038.23L5705.81,1065.6ZM5618.24,1010.87L5631.78,989.22L5587.99,961.853L5574.46,983.498L5618.24,1010.87ZM5530.67,956.128L5544.2,934.483L5500.41,907.114L5486.88,928.76L5530.67,956.128ZM5443.1,901.396L5456.63,879.751L5412.85,852.383L5399.32,874.028L5443.1,901.396ZM5355.53,846.66L5369.06,825.015L5325.27,797.646L5311.74,819.292L5355.53,846.66ZM5267.96,791.924L5281.49,770.279L5237.7,742.912L5224.17,764.557L5267.96,791.924ZM5180.39,737.193L5193.92,715.547L5150.13,688.179L5136.6,709.824L5180.39,737.193ZM5092.81,682.452L5106.34,660.806L5062.56,633.44L5049.03,655.085L5092.81,682.452ZM5005.24,627.721L5018.77,606.076L4974.99,578.708L4961.46,600.354L5005.24,627.721ZM4917.67,572.987L4931.2,551.342L4887.42,523.975L4873.89,545.62L4917.67,572.987ZM4830.1,518.248L4843.62,496.603L4799.84,469.234L4786.31,490.88L4830.1,518.248ZM4742.53,463.517L4756.06,441.872L4712.28,414.505L4698.74,436.15L4742.53,463.517ZM4654.96,408.782L4668.49,387.136L4624.7,359.769L4611.17,381.414L4654.96,408.782ZM4567.39,354.048L4580.92,332.403L4537.13,305.035L4523.6,326.68L4567.39,354.048ZM4479.81,299.311L4493.34,277.666L4449.56,250.299L4436.03,271.944L4479.81,299.311ZM4392.24,244.578L4405.78,222.933L4361.99,195.565L4348.46,217.21L4392.24,244.578ZM4304.67,189.842L4318.2,168.197L4274.42,140.83L4260.89,162.475L4304.67,189.842ZM4217.1,135.109L4230.63,113.464L4186.85,86.096L4173.32,107.742L4217.1,135.109ZM4129.53,80.375L4143.06,58.73L4099.28,31.362L4085.75,53.008L4129.53,80.375ZM4041.96,25.639L4055.49,3.994L4011.7,-23.373L3998.17,-1.728L4041.96,25.639ZM3954.39,-29.095L3967.92,-50.741L3946.25,-64.284L3939.26,-40.839L3932.72,-42.639L3954.39,-29.095Z" style="fill:rgb(127,127,127);"/>
                </g>
                <g transform="matrix(-0.0299978,0,0,0.0299989,781.293,-13.231)">
                    <path d="M8855.44,6611.88L3946.37,8754.59" style="fill:none;stroke:rgb(127,127,127);stroke-width:25.53px;stroke-dasharray:51.05,51.05,0,0,0,0;"/>
                </g>
                <g transform="matrix(0.0299978,0,0,0.0299989,-55.356,-24.8043)">
                    <path d="M23944,347.326L23944,347.215L23944.1,321.689L23969.6,321.689L23969.6,347.215L23969.5,347.215L23969.5,347.326L23944,347.326ZM24072.1,321.689L24072.1,347.215L24020.9,347.215L24020.9,321.689L24072.1,321.689ZM24174.7,321.689L24174.7,347.215L24123.4,347.215L24123.4,321.689L24174.7,321.689ZM24277.2,321.689L24277.2,347.215L24225.9,347.215L24225.9,321.689L24277.2,321.689ZM24379.7,321.689L24379.7,347.215L24328.4,347.215L24328.4,321.689L24379.7,321.689ZM24482.2,321.689L24482.2,347.215L24431,347.215L24431,321.689L24482.2,321.689ZM24584.7,321.689L24584.7,347.215L24533.5,347.215L24533.5,321.689L24584.7,321.689ZM24687.3,321.689L24687.3,347.215L24636,347.215L24636,321.689L24687.3,321.689ZM24789.8,321.689L24789.8,347.215L24738.5,347.215L24738.5,321.689L24789.8,321.689ZM24892.3,321.689L24892.3,347.215L24841,347.215L24841,321.689L24892.3,321.689ZM24994.8,321.689L24994.8,347.215L24943.6,347.215L24943.6,321.689L24994.8,321.689ZM25097.3,321.689L25097.3,347.215L25046.1,347.215L25046.1,321.689L25097.3,321.689ZM25199.9,321.689L25199.9,347.215L25148.6,347.215L25148.6,321.689L25199.9,321.689ZM25302.4,321.689L25302.4,347.215L25251.1,347.215L25251.1,321.689L25302.4,321.689ZM25404.9,321.689L25404.9,347.215L25353.6,347.215L25353.6,321.689L25404.9,321.689ZM25507.4,321.689L25507.4,347.215L25456.2,347.215L25456.2,321.689L25507.4,321.689ZM25609.9,321.689L25609.9,347.215L25558.7,347.215L25558.7,321.689L25609.9,321.689ZM25712.4,321.689L25712.4,347.215L25661.2,347.215L25661.2,321.689L25712.4,321.689ZM25789.3,347.326L25763.8,347.326L25763.8,347.215L25763.7,347.215L25763.7,321.689L25789.2,321.689L25789.3,347.215L25789.3,347.326ZM25789.3,449.863L25763.8,449.863L25763.8,398.594L25789.3,398.594L25789.3,449.863ZM25789.3,552.41L25763.8,552.41L25763.8,501.141L25789.3,501.141L25789.3,552.41ZM25789.3,654.956L25763.8,654.956L25763.8,603.68L25789.3,603.68L25789.3,654.956ZM25789.3,757.5L25763.8,757.5L25763.8,706.227L25789.3,706.227L25789.3,757.5ZM25789.3,860.039L25763.8,860.039L25763.8,808.771L25789.3,808.771L25789.3,860.039ZM25789.3,962.576L25763.8,962.576L25763.8,911.31L25789.3,911.31L25789.3,962.576ZM25789.3,1065.13L25763.8,1065.13L25763.8,1013.86L25789.3,1013.86L25789.3,1065.13ZM25789.3,1167.67L25763.8,1167.67L25763.8,1116.39L25789.3,1116.39L25789.3,1167.67ZM25789.3,1270.22L25763.8,1270.22L25763.8,1218.95L25789.3,1218.95L25789.3,1270.22ZM25789.3,1372.76L25763.8,1372.76L25763.8,1321.48L25789.3,1321.48L25789.3,1372.76ZM25789.3,1475.29L25763.8,1475.29L25763.8,1424.03L25789.3,1424.03L25789.3,1475.29ZM25789.3,1577.84L25763.8,1577.84L25763.8,1526.57L25789.3,1526.57L25789.3,1577.84ZM25789.3,1680.38L25763.8,1680.38L25763.8,1629.12L25789.3,1629.12L25789.3,1680.38ZM25789.3,1782.92L25763.8,1782.92L25763.8,1731.66L25789.3,1731.66L25789.3,1782.92ZM25789.3,1885.47L25763.8,1885.47L25763.8,1834.2L25789.3,1834.2L25789.3,1885.47ZM25789.3,1988.02L25763.8,1988.02L25763.8,1936.74L25789.3,1936.74L25789.3,1988.02ZM25789.3,2090.55L25763.8,2090.55L25763.8,2039.28L25789.3,2039.28L25789.3,2090.55ZM25789.3,2193.11L25763.8,2193.11L25763.8,2141.84L25789.3,2141.84L25789.3,2193.11ZM25789.3,2295.64L25763.8,2295.64L25763.8,2244.37L25789.3,2244.37L25789.3,2295.64ZM25789.3,2398.18L25763.8,2398.18L25763.8,2346.92L25789.3,2346.92L25789.3,2398.18ZM25789.3,2500.73L25763.8,2500.73L25763.8,2449.45L25789.3,2449.45L25789.3,2500.73ZM25789.3,2603.27L25763.8,2603.27L25763.8,2551.99L25789.3,2551.99L25789.3,2603.27ZM25789.3,2705.82L25763.8,2705.82L25763.8,2654.55L25789.3,2654.55L25789.3,2705.82ZM25789.3,2808.34L25763.8,2808.34L25763.8,2757.08L25789.3,2757.08L25789.3,2808.34ZM25789.3,2910.91L25763.8,2910.91L25763.8,2859.63L25789.3,2859.63L25789.3,2910.91ZM25789.3,3013.43L25763.8,3013.43L25763.8,2962.16L25789.3,2962.16L25789.3,3013.43ZM25789.3,3115.98L25763.8,3115.98L25763.8,3064.71L25789.3,3064.71L25789.3,3115.98ZM25789.3,3218.53L25763.8,3218.53L25763.8,3167.26L25789.3,3167.26L25789.3,3218.53ZM25789.3,3321.06L25763.8,3321.06L25763.8,3269.79L25789.3,3269.79L25789.3,3321.06ZM25789.3,3423.61L25763.8,3423.61L25763.8,3372.35L25789.3,3372.35L25789.3,3423.61ZM25789.3,3526.16L25763.8,3526.16L25763.8,3474.88L25789.3,3474.88L25789.3,3526.16ZM25789.3,3628.68L25763.8,3628.68L25763.8,3577.42L25789.3,3577.42L25789.3,3628.68ZM25789.3,3731.24L25763.8,3731.24L25763.8,3679.97L25789.3,3679.97L25789.3,3731.24ZM25789.3,3833.78L25763.8,3833.78L25763.8,3782.51L25789.3,3782.51L25789.3,3833.78ZM25789.3,3936.33L25763.8,3936.33L25763.8,3885.07L25789.3,3885.07L25789.3,3936.33ZM25789.3,4038.87L25763.8,4038.87L25763.8,3987.6L25789.3,3987.6L25789.3,4038.87ZM25789.3,4141.42L25763.8,4141.42L25763.8,4090.15L25789.3,4090.15L25789.3,4141.42ZM25789.3,4243.96L25763.8,4243.96L25763.8,4192.69L25789.3,4192.69L25789.3,4243.96ZM25789.3,4346.49L25763.8,4346.49L25763.8,4295.22L25789.3,4295.22L25789.3,4346.49ZM25789.3,4449.03L25763.8,4449.03L25763.8,4397.76L25789.3,4397.76L25789.3,4449.03ZM25789.3,4551.57L25763.8,4551.57L25763.8,4500.31L25789.3,4500.31L25789.3,4551.57ZM25789.3,4654.13L25763.8,4654.13L25763.8,4602.87L25789.3,4602.87L25789.3,4654.13ZM25789.3,4756.66L25763.8,4756.66L25763.8,4705.39L25789.3,4705.39L25789.3,4756.66ZM25789.3,4859.23L25763.8,4859.23L25763.8,4807.95L25789.3,4807.95L25789.3,4859.23ZM25789.3,4961.76L25763.8,4961.76L25763.8,4910.49L25789.3,4910.49L25789.3,4961.76ZM25789.3,5064.3L25763.8,5064.3L25763.8,5013.03L25789.3,5013.03L25789.3,5064.3ZM25789.3,5166.86L25763.8,5166.86L25763.8,5115.58L25789.3,5115.58L25789.3,5166.86ZM25789.3,5269.39L25763.8,5269.39L25763.8,5218.12L25789.3,5218.12L25789.3,5269.39ZM25789.3,5371.92L25763.8,5371.92L25763.8,5320.65L25789.3,5320.65L25789.3,5371.92ZM25789.3,5474.46L25763.8,5474.46L25763.8,5423.19L25789.3,5423.19L25789.3,5474.46ZM25789.3,5577.01L25763.8,5577.01L25763.8,5525.74L25789.3,5525.74L25789.3,5577.01ZM25789.3,5679.56L25763.8,5679.56L25763.8,5628.29L25789.3,5628.29L25789.3,5679.56ZM25789.3,5782.1L25763.8,5782.1L25763.8,5730.83L25789.3,5730.83L25789.3,5782.1ZM25789.3,5884.63L25763.8,5884.63L25763.8,5833.36L25789.3,5833.36L25789.3,5884.63ZM25789.3,5987.19L25763.8,5987.19L25763.8,5935.91L25789.3,5935.91L25789.3,5987.19ZM25789.3,6089.72L25763.8,6089.72L25763.8,6038.45L25789.3,6038.45L25789.3,6089.72ZM25789.3,6192.27L25763.8,6192.27L25763.8,6140.99L25789.3,6140.99L25789.3,6192.27ZM25789.3,6294.82L25763.8,6294.82L25763.8,6243.55L25789.3,6243.55L25789.3,6294.82ZM25789.3,6397.36L25763.8,6397.36L25763.8,6346.08L25789.3,6346.08L25789.3,6397.36ZM25789.3,6499.91L25763.8,6499.91L25763.8,6448.64L25789.3,6448.64L25789.3,6499.91ZM25789.3,6602.45L25763.8,6602.45L25763.8,6551.18L25789.3,6551.18L25789.3,6602.45ZM25789.3,6705L25763.8,6705L25763.8,6653.73L25789.3,6653.73L25789.3,6705ZM25789.3,6807.54L25763.8,6807.54L25763.8,6756.27L25789.3,6756.27L25789.3,6807.54ZM25789.3,6910.08L25763.8,6910.08L25763.8,6858.81L25789.3,6858.81L25789.3,6910.08ZM25789.3,7012.63L25763.8,7012.63L25763.8,6961.35L25789.3,6961.35L25789.3,7012.63ZM25789.3,7115.17L25763.8,7115.17L25763.8,7063.9L25789.3,7063.9L25789.3,7115.17ZM25789.3,7217.7L25763.8,7217.7L25763.8,7166.43L25789.3,7166.43L25789.3,7217.7ZM25789.3,7320.24L25763.8,7320.24L25763.8,7268.98L25789.3,7268.98L25789.3,7320.24ZM25789.3,7422.79L25763.8,7422.79L25763.8,7371.52L25789.3,7371.52L25789.3,7422.79ZM25789.3,7525.32L25763.8,7525.32L25763.8,7474.05L25789.3,7474.05L25789.3,7525.32ZM25789.3,7627.88L25763.8,7627.88L25763.8,7576.61L25789.3,7576.61L25789.3,7627.88ZM25789.3,7730.41L25763.8,7730.41L25763.8,7679.14L25789.3,7679.14L25789.3,7730.41ZM25789.3,7832.96L25763.8,7832.96L25763.8,7781.69L25789.3,7781.69L25789.3,7832.96ZM25789.3,7935.5L25763.8,7935.5L25763.8,7884.23L25789.3,7884.23L25789.3,7935.5ZM25789.3,8038.05L25763.8,8038.05L25763.8,7986.78L25789.3,7986.78L25789.3,8038.05ZM25789.3,8140.59L25763.8,8140.59L25763.8,8089.32L25789.3,8089.32L25789.3,8140.59ZM25789.3,8243.13L25763.8,8243.13L25763.8,8191.86L25789.3,8191.86L25789.3,8243.13ZM25789.3,8345.68L25763.8,8345.68L25763.8,8294.41L25789.3,8294.41L25789.3,8345.68ZM25789.3,8448.22L25763.8,8448.22L25763.8,8396.94L25789.3,8396.94L25789.3,8448.22ZM25789.3,8550.76L25763.8,8550.76L25763.8,8499.49L25789.3,8499.49L25789.3,8550.76ZM25789.3,8653.3L25763.8,8653.3L25763.8,8602.03L25789.3,8602.03L25789.3,8653.3ZM25789.3,8755.84L25763.8,8755.84L25763.8,8704.57L25789.3,8704.57L25789.3,8755.84ZM25789.3,8858.39L25763.8,8858.39L25763.8,8807.12L25789.3,8807.12L25789.3,8858.39ZM25789.3,8960.93L25763.8,8960.93L25763.8,8909.66L25789.3,8909.66L25789.3,8960.93ZM25789.3,9063.47L25763.8,9063.47L25763.8,9012.2L25789.3,9012.2L25789.3,9063.47ZM25763.7,9140.38L25763.7,9114.86L25763.8,9114.86L25763.8,9114.75L25789.3,9114.75L25789.3,9140.38L25763.7,9140.38ZM25661.2,9140.38L25661.2,9114.86L25712.4,9114.86L25712.4,9140.38L25661.2,9140.38ZM25558.7,9140.38L25558.7,9114.86L25609.9,9114.86L25609.9,9140.38L25558.7,9140.38ZM25456.1,9140.38L25456.1,9114.86L25507.4,9114.86L25507.4,9140.38L25456.1,9140.38ZM25353.6,9140.38L25353.6,9114.86L25404.9,9114.86L25404.9,9140.38L25353.6,9140.38ZM25251.1,9140.38L25251.1,9114.86L25302.4,9114.86L25302.4,9140.38L25251.1,9140.38ZM25148.6,9140.38L25148.6,9114.86L25199.9,9114.86L25199.9,9140.38L25148.6,9140.38ZM25046.1,9140.38L25046.1,9114.86L25097.3,9114.86L25097.3,9140.38L25046.1,9140.38ZM24943.6,9140.38L24943.6,9114.86L24994.8,9114.86L24994.8,9140.38L24943.6,9140.38ZM24841,9140.38L24841,9114.86L24892.3,9114.86L24892.3,9140.38L24841,9140.38ZM24738.5,9140.38L24738.5,9114.86L24789.8,9114.86L24789.8,9140.38L24738.5,9140.38ZM24636,9140.38L24636,9114.86L24687.3,9114.86L24687.3,9140.38L24636,9140.38ZM24533.5,9140.38L24533.5,9114.86L24584.7,9114.86L24584.7,9140.38L24533.5,9140.38ZM24431,9140.38L24431,9114.86L24482.2,9114.86L24482.2,9140.38L24431,9140.38ZM24328.4,9140.38L24328.4,9114.86L24379.7,9114.86L24379.7,9140.38L24328.4,9140.38ZM24225.9,9140.38L24225.9,9114.86L24277.2,9114.86L24277.2,9140.38L24225.9,9140.38ZM24123.4,9140.38L24123.4,9114.86L24174.7,9114.86L24174.7,9140.38L24123.4,9140.38ZM24020.9,9140.38L24020.9,9114.86L24072.1,9114.86L24072.1,9140.38L24020.9,9140.38ZM23944,9114.75L23969.5,9114.75L23969.5,9114.86L23969.6,9114.86L23969.6,9140.38L23944,9140.38L23944,9114.75ZM23944,9012.21L23969.5,9012.21L23969.5,9063.48L23944,9063.48L23944,9012.21ZM23944,8909.66L23969.5,8909.66L23969.5,8960.93L23944,8960.93L23944,8909.66ZM23944,8807.12L23969.5,8807.12L23969.5,8858.39L23944,8858.39L23944,8807.12ZM23944,8704.57L23969.5,8704.57L23969.5,8755.84L23944,8755.84L23944,8704.57ZM23944,8602.03L23969.5,8602.03L23969.5,8653.3L23944,8653.3L23944,8602.03ZM23944,8499.5L23969.5,8499.5L23969.5,8550.76L23944,8550.76L23944,8499.5ZM23944,8396.94L23969.5,8396.94L23969.5,8448.22L23944,8448.22L23944,8396.94ZM23944,8294.41L23969.5,8294.41L23969.5,8345.68L23944,8345.68L23944,8294.41ZM23944,8191.86L23969.5,8191.86L23969.5,8243.13L23944,8243.13L23944,8191.86ZM23944,8089.31L23969.5,8089.31L23969.5,8140.59L23944,8140.59L23944,8089.31ZM23944,7986.78L23969.5,7986.78L23969.5,8038.05L23944,8038.05L23944,7986.78ZM23944,7884.23L23969.5,7884.23L23969.5,7935.51L23944,7935.51L23944,7884.23ZM23944,7781.69L23969.5,7781.69L23969.5,7832.95L23944,7832.95L23944,7781.69ZM23944,7679.15L23969.5,7679.15L23969.5,7730.41L23944,7730.41L23944,7679.15ZM23944,7576.61L23969.5,7576.61L23969.5,7627.87L23944,7627.87L23944,7576.61ZM23944,7474.06L23969.5,7474.06L23969.5,7525.33L23944,7525.33L23944,7474.06ZM23944,7371.52L23969.5,7371.52L23969.5,7422.79L23944,7422.79L23944,7371.52ZM23944,7268.96L23969.5,7268.96L23969.5,7320.24L23944,7320.24L23944,7268.96ZM23944,7166.43L23969.5,7166.43L23969.5,7217.7L23944,7217.7L23944,7166.43ZM23944,7063.89L23969.5,7063.89L23969.5,7115.15L23944,7115.15L23944,7063.89ZM23944,6961.34L23969.5,6961.34L23969.5,7012.62L23944,7012.62L23944,6961.34ZM23944,6858.8L23969.5,6858.8L23969.5,6910.08L23944,6910.08L23944,6858.8ZM23944,6756.26L23969.5,6756.26L23969.5,6807.52L23944,6807.52L23944,6756.26ZM23944,6653.73L23969.5,6653.73L23969.5,6705L23944,6705L23944,6653.73ZM23944,6551.16L23969.5,6551.16L23969.5,6602.44L23944,6602.44L23944,6551.16ZM23944,6448.64L23969.5,6448.64L23969.5,6499.91L23944,6499.91L23944,6448.64ZM23944,6346.09L23969.5,6346.09L23969.5,6397.36L23944,6397.36L23944,6346.09ZM23944,6243.55L23969.5,6243.55L23969.5,6294.82L23944,6294.82L23944,6243.55ZM23944,6141.01L23969.5,6141.01L23969.5,6192.28L23944,6192.28L23944,6141.01ZM23944,6038.46L23969.5,6038.46L23969.5,6089.73L23944,6089.73L23944,6038.46ZM23944,5935.91L23969.5,5935.91L23969.5,5987.19L23944,5987.19L23944,5935.91ZM23944,5833.39L23969.5,5833.39L23969.5,5884.65L23944,5884.65L23944,5833.39ZM23944,5730.83L23969.5,5730.83L23969.5,5782.1L23944,5782.1L23944,5730.83ZM23944,5628.29L23969.5,5628.29L23969.5,5679.56L23944,5679.56L23944,5628.29ZM23944,5525.74L23969.5,5525.74L23969.5,5577L23944,5577L23944,5525.74ZM23944,5423.21L23969.5,5423.21L23969.5,5474.47L23944,5474.47L23944,5423.21ZM23944,5320.65L23969.5,5320.65L23969.5,5371.92L23944,5371.92L23944,5320.65ZM23944,5218.11L23969.5,5218.11L23969.5,5269.38L23944,5269.38L23944,5218.11ZM23944,5115.58L23969.5,5115.58L23969.5,5166.85L23944,5166.85L23944,5115.58ZM23944,5013.04L23969.5,5013.04L23969.5,5064.31L23944,5064.31L23944,5013.04ZM23944,4910.5L23969.5,4910.5L23969.5,4961.76L23944,4961.76L23944,4910.5ZM23944,4807.94L23969.5,4807.94L23969.5,4859.2L23944,4859.2L23944,4807.94ZM23944,4705.41L23969.5,4705.41L23969.5,4756.68L23944,4756.68L23944,4705.41ZM23944,4602.85L23969.5,4602.85L23969.5,4654.12L23944,4654.12L23944,4602.85ZM23944,4500.31L23969.5,4500.31L23969.5,4551.58L23944,4551.58L23944,4500.31ZM23944,4397.77L23969.5,4397.77L23969.5,4449.04L23944,4449.04L23944,4397.77ZM23944,4295.22L23969.5,4295.22L23969.5,4346.49L23944,4346.49L23944,4295.22ZM23944,4192.68L23969.5,4192.68L23969.5,4243.95L23944,4243.95L23944,4192.68ZM23944,4090.15L23969.5,4090.15L23969.5,4141.42L23944,4141.42L23944,4090.15ZM23944,3987.61L23969.5,3987.61L23969.5,4038.88L23944,4038.88L23944,3987.61ZM23944,3885.06L23969.5,3885.06L23969.5,3936.33L23944,3936.33L23944,3885.06ZM23944,3782.51L23969.5,3782.51L23969.5,3833.78L23944,3833.78L23944,3782.51ZM23944,3679.97L23969.5,3679.97L23969.5,3731.24L23944,3731.24L23944,3679.97ZM23944,3577.44L23969.5,3577.44L23969.5,3628.71L23944,3628.71L23944,3577.44ZM23944,3474.89L23969.5,3474.89L23969.5,3526.16L23944,3526.16L23944,3474.89ZM23944,3372.35L23969.5,3372.35L23969.5,3423.62L23944,3423.62L23944,3372.35ZM23944,3269.81L23969.5,3269.81L23969.5,3321.08L23944,3321.08L23944,3269.81ZM23944,3167.26L23969.5,3167.26L23969.5,3218.53L23944,3218.53L23944,3167.26ZM23944,3064.72L23969.5,3064.72L23969.5,3115.99L23944,3115.99L23944,3064.72ZM23944,2962.16L23969.5,2962.16L23969.5,3013.43L23944,3013.43L23944,2962.16ZM23944,2859.62L23969.5,2859.62L23969.5,2910.89L23944,2910.89L23944,2859.62ZM23944,2757.07L23969.5,2757.07L23969.5,2808.35L23944,2808.35L23944,2757.07ZM23944,2654.54L23969.5,2654.54L23969.5,2705.8L23944,2705.8L23944,2654.54ZM23944,2551.99L23969.5,2551.99L23969.5,2603.26L23944,2603.26L23944,2551.99ZM23944,2449.45L23969.5,2449.45L23969.5,2500.72L23944,2500.72L23944,2449.45ZM23944,2346.9L23969.5,2346.9L23969.5,2398.18L23944,2398.18L23944,2346.9ZM23944,2244.37L23969.5,2244.37L23969.5,2295.64L23944,2295.64L23944,2244.37ZM23944,2141.83L23969.5,2141.83L23969.5,2193.1L23944,2193.1L23944,2141.83ZM23944,2039.29L23969.5,2039.29L23969.5,2090.55L23944,2090.55L23944,2039.29ZM23944,1936.75L23969.5,1936.75L23969.5,1988.02L23944,1988.02L23944,1936.75ZM23944,1834.2L23969.5,1834.2L23969.5,1885.47L23944,1885.47L23944,1834.2ZM23944,1731.66L23969.5,1731.66L23969.5,1782.93L23944,1782.93L23944,1731.66ZM23944,1629.12L23969.5,1629.12L23969.5,1680.39L23944,1680.39L23944,1629.12ZM23944,1526.58L23969.5,1526.58L23969.5,1577.85L23944,1577.85L23944,1526.58ZM23944,1424.03L23969.5,1424.03L23969.5,1475.3L23944,1475.3L23944,1424.03ZM23944,1321.48L23969.5,1321.48L23969.5,1372.75L23944,1372.75L23944,1321.48ZM23944,1218.94L23969.5,1218.94L23969.5,1270.21L23944,1270.21L23944,1218.94ZM23944,1116.39L23969.5,1116.39L23969.5,1167.66L23944,1167.66L23944,1116.39ZM23944,1013.86L23969.5,1013.86L23969.5,1065.13L23944,1065.13L23944,1013.86ZM23944,911.316L23969.5,911.316L23969.5,962.588L23944,962.588L23944,911.316ZM23944,808.772L23969.5,808.772L23969.5,860.044L23944,860.044L23944,808.772ZM23944,706.227L23969.5,706.227L23969.5,757.499L23944,757.499L23944,706.227ZM23944,603.679L23969.5,603.679L23969.5,654.95L23944,654.95L23944,603.679ZM23944,501.143L23969.5,501.143L23969.5,552.414L23944,552.414L23944,501.143ZM23944,398.598L23969.5,398.598L23969.5,449.87L23944,449.87L23944,398.598Z" style="fill:rgb(127,127,127);"/>
                </g>
            </g>
        </g>
        <g id="cardinal-direction" serif:id="cardinal direction" transform="matrix(0.168986,0.137772,-0.119697,0.220314,-6888.03,11305.9)">
            <g transform="matrix(0.999531,-0.0287655,0.0325823,0.999531,1745.17,154.476)">
                <g transform="matrix(-0.151565,0.928749,-1.05198,-0.151565,-49064.2,-67373.5)">
                    <g transform="matrix(3.60822e-16,3.04013,-4.0676,7.77156e-16,6450.07,-53820.8)">
                        <path d="M114.666,32.2L120.759,51.271L108.572,51.271L114.666,32.2Z" style="fill:rgb(234,234,234);"/>
                        <path d="M114.666,32.2L120.759,51.271L108.572,51.271L114.666,32.2ZM114.666,37.117L110.53,50.06L118.801,50.06L114.666,37.117Z" style="fill:rgb(127,127,127);"/>
                    </g>
                    <g transform="matrix(2.77556e-17,-3.04013,4.0676,-2.91434e-16,6032.97,-53123.6)">
                        <path d="M114.666,32.2L120.759,51.271L108.572,51.271L114.666,32.2Z" style="fill:rgb(127,127,127);"/>
                        <path d="M114.666,32.2L120.759,51.271L108.572,51.271L114.666,32.2ZM114.666,37.117L110.53,50.06L118.801,50.06L114.666,37.117Z" style="fill:rgb(127,127,127);"/>
                    </g>
                </g>
                <g transform="matrix(5.2769,0,0,6.6878,3443.51,-55126.3)">
                    <path d="M530.238,233.354C540.647,233.354 549.098,239.62 549.098,247.337C549.098,255.054 540.647,261.319 530.238,261.319C519.829,261.319 511.378,255.054 511.378,247.337C511.378,239.62 519.829,233.354 530.238,233.354ZM530.238,236.469C522.147,236.469 515.579,241.339 515.579,247.337C515.579,253.335 522.147,258.205 530.238,258.205C538.329,258.205 544.897,253.335 544.897,247.337C544.897,241.339 538.329,236.469 530.238,236.469Z" style="fill:rgb(127,127,127);"/>
                </g>
            </g>
            <g transform="matrix(-2.79922,1.75048,-1.86299,-2.63015,6317.06,-53649.4)">
                <g transform="matrix(23.4414,0,0,23.4414,22.1103,0)">
                </g>
                <text x="5.182px" y="0px" style="font-family:'ArialMT', 'Arial';font-size:23.441px;fill:rgb(127,127,127);">N</text>
            </g>
        </g>
    </g>
</svg>
