<?xml version="1.0" encoding="UTF-8" standalone="no"?>
<!DOCTYPE svg PUBLIC "-//W3C//DTD SVG 1.1//EN" "http://www.w3.org/Graphics/SVG/1.1/DTD/svg11.dtd">
<svg width="100%" height="100%" viewBox="0 0 307 200" version="1.1" xmlns="http://www.w3.org/2000/svg" xmlns:xlink="http://www.w3.org/1999/xlink" xml:space="preserve" xmlns:serif="http://www.serif.com/" style="fill-rule:evenodd;clip-rule:evenodd;stroke-miterlimit:8;">
    <g transform="matrix(1,0,0,0.775194,-420,-191.473)">
        <g transform="matrix(1,0,0,1.29,0,-66.47)">
            <path d="M420.614,315.838C420.313,310.347 420.903,283.076 421.624,282.217C441.297,258.752 505.625,258.669 569.974,258.943C636.677,259.227 707.856,259.185 725.783,279.592C726.221,280.091 726.365,312.022 726.302,314.204" style="fill:none;stroke:rgb(127,127,127);stroke-width:1.3px;"/>
        </g>
        <g transform="matrix(1,0,0,1.29,0,-66.47)">
            <path d="M445.568,315.749C436.111,350.936 442.985,397.885 461.118,401.112C478.243,404.16 487.222,383.41 488.723,361.036" style="fill:none;stroke:rgb(127,127,127);stroke-width:1.3px;"/>
        </g>
        <g transform="matrix(1,0,0,1.29,0,-66.47)">
            <path d="M420,315.749C424.572,316.164 446.702,315.013 466.034,314.643C467.951,314.607 474.025,305.407 472.874,295.848C472.031,288.844 465.986,281.686 468.462,280.072C474.429,276.184 497.827,280.479 500.105,278.192C501.696,276.593 499.046,263.796 501.428,263.799C544.852,263.849 613.352,263.368 652.17,263.799C653.362,263.812 652.259,278.615 653.429,278.753C663.03,279.88 679.891,278.067 683.31,278.997C684.596,279.346 677.216,290.912 676.675,296.968C675.755,307.259 680.624,312.054 682.422,312.605C687.989,314.311 721.127,314.236 727,314.19" style="fill:none;stroke:rgb(127,127,127);stroke-width:1.3px;"/>
        </g>
        <g transform="matrix(1,0,0,1.29,0,-66.47)">
            <path d="M488.706,347.208C487.38,328.269 480.665,311.489 468.982,310.817" style="fill:none;stroke:rgb(127,127,127);stroke-width:1.3px;"/>
        </g>
        <g transform="matrix(1,0,0,1.29,0,-66.47)">
            <path d="M480.645,346.047C479.804,330.436 474.969,316.703 465.139,316.424C441.182,319.515 446.724,391.34 465.139,391.058C473.309,390.933 478.712,376.79 480.295,360.85" style="fill:none;stroke:rgb(127,127,127);stroke-width:1.3px;"/>
        </g>
        <g transform="matrix(-1,0,0,1.29,1146.31,-68.7671)">
            <path d="M480.593,345.174C479.622,329.928 474.785,316.698 465.139,316.424C441.182,319.515 446.724,391.34 465.139,391.058C473.236,390.934 478.615,377.042 480.252,361.277" style="fill:none;stroke:rgb(127,127,127);stroke-width:1.3px;"/>
        </g>
        <g transform="matrix(1,0,0,1.29,0,-66.47)">
            <path d="M465.886,344.268C464.745,336.4 461.777,330.104 456.588,329.863C447.317,329.431 445.493,376.822 457.831,376C461.932,375.727 464.772,368.831 465.897,360.451" style="fill:none;stroke:rgb(127,127,127);stroke-width:1.3px;"/>
            <path d="M678.938,341.076C665.674,343.875 613.884,353.906 605.26,354.696C589.395,356.15 560.415,357.017 544.044,354.696C506.351,349.353 466.064,344.819 465.897,344.827C462.147,345.01 455.864,347.92 455.796,350.668C455.706,354.29 459.042,360.168 465.897,360.451" style="fill:none;stroke:rgb(127,127,127);stroke-width:1.3px;"/>
            <path d="M678.938,358.199C665.674,360.998 598.753,360.201 596.226,363.479C585.322,377.629 573.667,375.747 573.5,375.745C563.46,375.636 559.467,370.803 552.571,363.372C550.107,360.716 474.06,360.441 465.853,360.451" style="fill:none;stroke:rgb(127,127,127);stroke-width:1.3px;"/>
            <g transform="matrix(-1,0,0,1,1144.83,-3.13634)">
                <path d="M465.937,344.213C462.204,343.643 455.87,347.648 455.796,350.668C455.706,354.29 459.669,361.124 466.523,361.407" style="fill:none;stroke:rgb(127,127,127);stroke-width:1.3px;"/>
            </g>
        </g>
        <g transform="matrix(1,0,0,1.29,229.307,-71.1166)">
            <path d="M449.591,361.815C450.604,369.924 453.235,376.306 457.831,376C468.412,375.295 470.598,330.515 456.588,329.863C453.085,329.7 450.645,336.366 449.63,344.678" style="fill:none;stroke:rgb(127,127,127);stroke-width:1.3px;"/>
        </g>
        <g transform="matrix(1,0,0,1.29,0,-66.47)">
            <path d="M424.377,315.749C418.832,336.383 416.982,385.695 434.328,399.099C438.213,402.101 457.037,401.065 458.852,400.548" style="fill:none;stroke:rgb(127,127,127);stroke-width:1.3px;"/>
        </g>
        <g transform="matrix(0.332553,0,0,0.439387,382.864,314.668)">
            <path d="M438.662,322.259C434.92,356.051 433.318,399.148 451.592,401.494C460.719,402.666 464.481,352.426 460.647,322.907" style="fill:none;stroke:rgb(127,127,127);stroke-width:3.86px;"/>
        </g>
        <g transform="matrix(0.332553,0,0,0.439387,378.745,314.668)">
            <path d="M422.71,326.677C417.165,347.311 416.982,385.695 434.328,399.099C438.213,402.101 459.778,402.031 461.594,401.514" style="fill:none;stroke:rgb(127,127,127);stroke-width:3.86px;"/>
        </g>
        <g transform="matrix(-0.332553,0,0,0.439387,758.374,314.659)">
            <path d="M438.662,322.259C434.92,356.051 433.318,399.148 451.592,401.494C460.719,402.666 464.481,352.426 460.647,322.907" style="fill:none;stroke:rgb(127,127,127);stroke-width:3.86px;"/>
        </g>
        <g transform="matrix(-0.332553,0,0,0.439387,762.492,314.659)">
            <path d="M422.71,326.677C417.165,347.311 416.982,385.695 434.328,399.099C438.213,402.101 459.775,402.031 461.591,401.514" style="fill:none;stroke:rgb(127,127,127);stroke-width:3.86px;"/>
        </g>
        <g transform="matrix(-1,0,0,1.29,1147.49,-66.5772)">
            <path d="M446.012,313.941C436.556,349.128 442.985,397.885 461.118,401.112C478.294,404.169 487.563,382.924 489.052,360.168" style="fill:none;stroke:rgb(127,127,127);stroke-width:1.3px;"/>
        </g>
        <g transform="matrix(-1,0,0,1.29,1147.49,-66.5772)">
            <path d="M488.883,344.91C487.226,326.352 480.196,310.283 467.867,309.854" style="fill:none;stroke:rgb(127,127,127);stroke-width:1.3px;"/>
        </g>
        <g transform="matrix(-1,0,0,1.29,1147.49,-66.5772)">
            <path d="M424.942,314.818C419.397,335.452 416.982,385.695 434.328,399.099C438.213,402.101 458.37,401.362 460.186,400.845" style="fill:none;stroke:rgb(127,127,127);stroke-width:1.3px;"/>
        </g>
        <g transform="matrix(-1,-1.12775e-07,-8.74228e-08,1.29,524.367,456.609)">
            <path d="M5.669,1.238C5.106,1.319 4.182,1.315 3.734,1.251C0.978,0.86 -0.028,-1.758 -4.547,-0.267C-8.156,0.924 -11.794,-2.344 -11.794,0.539" style="fill:none;stroke:rgb(127,127,127);stroke-width:1.3px;"/>
        </g>
        <g transform="matrix(1,-1.12775e-07,8.74228e-08,1.29,617.54,457.196)">
            <path d="M5.24,1.238C1.212,1.82 0.707,-2 -4.547,-0.267C-8.156,0.924 -12.41,-3.049 -12.41,-0.166" style="fill:none;stroke:rgb(127,127,127);stroke-width:1.3px;"/>
        </g>
        <g transform="matrix(1,-1.12775e-07,8.74228e-08,1.29,485.5,511.385)">
            <path d="M32.867,-35.004L-3.324,-58.672" style="fill:none;stroke:rgb(127,127,127);stroke-width:1.3px;"/>
        </g>
        <g transform="matrix(1,-1.12775e-07,8.74228e-08,1.29,485.5,511.385)">
            <path d="M51.048,-33.975L73.866,-33.868C73.866,-33.868 81.708,-29.013 84.469,-29.232C87.398,-29.464 94.142,-33.365 94.142,-33.365L119.189,-33.239" style="fill:none;stroke:rgb(127,127,127);stroke-width:1.3px;"/>
        </g>
        <g transform="matrix(1,-1.12775e-07,8.74228e-08,1.29,485.5,511.385)">
            <path d="M18.876,-150.291L58.742,-102.888C58.742,-102.888 116.428,-102.549 119.189,-102.768C122.119,-103 161.788,-150.231 161.788,-150.231L18.876,-150.291Z" style="fill:none;stroke:rgb(127,127,127);stroke-width:1.3px;"/>
        </g>
        <g transform="matrix(-1,-1.12775e-07,-8.74228e-08,1.29,657.182,505.268)">
            <path d="M35.062,-35.516L-6.096,-60.058" style="fill:none;stroke:rgb(127,127,127);stroke-width:1.3px;"/>
        </g>
        <g id="Coordinate-system" serif:id="Coordinate system">
            <g transform="matrix(0.782212,-0.803686,-0.623012,-1.00905,373.076,704.758)">
                <path d="M344.78,90.331L347.78,84.331L350.78,90.331L344.78,90.331Z" style="fill:rgb(0,113,180);"/>
            </g>
            <g transform="matrix(0.782212,-0.803686,-0.444842,-0.720482,357.196,679.037)">
                <path d="M347.78,114.559L347.78,89.131" style="fill:none;stroke:rgb(0,113,180);stroke-width:2px;stroke-linejoin:round;stroke-miterlimit:1.5;"/>
            </g>
            <g transform="matrix(0.940336,-0.438917,-0.340245,-1.21303,289.9,608.457)">
                <path d="M326.808,124.791L320.144,124.024L324.756,119.153L326.808,124.791Z" style="fill:rgb(0,113,180);"/>
            </g>
            <g transform="matrix(0.940336,-0.438917,-0.340245,-1.21303,289.9,608.457)">
                <path d="M348.55,113.685C348.55,113.685 332.667,119.466 324.654,122.383" style="fill:none;stroke:rgb(0,113,180);stroke-width:2px;stroke-linejoin:round;stroke-miterlimit:1.5;"/>
            </g>
            <g transform="matrix(-0.140749,1.27716,0.990046,0.181566,513.879,-153.884)">
                <path d="M371.697,114.592L377.178,118.459L370.796,120.524L371.697,114.592Z" style="fill:rgb(0,113,180);"/>
            </g>
            <g transform="matrix(-0.140749,1.27716,0.990046,0.181566,514.001,-164.029)">
                <path d="M359.848,115.843L379.091,118.534" style="fill:none;stroke:rgb(0,113,180);stroke-width:2px;stroke-linejoin:round;stroke-miterlimit:1.5;"/>
            </g>
            <g transform="matrix(1,0,0,1.29,565.758,354.052)">
                <text x="0px" y="0px" style="font-family:'TimesNewRomanPS-BoldMT', 'Times New Roman';font-weight:700;font-size:16px;fill:rgb(0,113,180);">x</text>
            </g>
            <g transform="matrix(1.11514,0,0,1.43853,545.241,311.919)">
                <text x="0px" y="0px" style="font-family:'TimesNewRomanPS-BoldMT', 'Times New Roman';font-weight:700;font-size:14.348px;fill:rgb(0,113,180);">z</text>
            </g>
            <g transform="matrix(1,0,0,1.29,593.918,342.641)">
                <text x="0px" y="0px" style="font-family:'TimesNewRomanPS-BoldMT', 'Times New Roman';font-weight:700;font-size:16px;fill:rgb(0,113,180);">y</text>
            </g>
            <g transform="matrix(1.12889,0,0,1.45627,577.389,313.983)">
                <text x="0px" y="0px" style="font-family:'TimesNewRomanPS-BoldMT', 'Times New Roman';font-weight:700;font-size:14.173px;fill:rgb(0,113,180);">O</text>
            </g>
        </g>
    </g>
</svg>
