<?xml version="1.0" encoding="UTF-8" standalone="no"?>
<!DOCTYPE svg PUBLIC "-//W3C//DTD SVG 1.1//EN" "http://www.w3.org/Graphics/SVG/1.1/DTD/svg11.dtd">
<svg width="100%" height="100%" viewBox="0 0 469 245" version="1.1" xmlns="http://www.w3.org/2000/svg" xmlns:xlink="http://www.w3.org/1999/xlink" xml:space="preserve" xmlns:serif="http://www.serif.com/" style="fill-rule:evenodd;clip-rule:evenodd;stroke-miterlimit:8;">
    <g transform="matrix(1,0,0,1,-540,-350)">
        <g transform="matrix(1,0,0,1,-1.13687e-13,35.6323)">
            <g id="arrow-black" serif:id="arrow black">
            </g>
            <g transform="matrix(1,0,0,1,120,67.3677)">
                <path d="M523.881,307.549C531.829,306.563 534.301,300.155 552.584,290.264" style="fill:none;stroke:rgb(127,127,127);stroke-width:1.33px;"/>
            </g>
            <g transform="matrix(1,0,0,1,120,67.3677)">
                <path d="M523.881,307.549C531.829,306.563 535.237,299.583 553.52,289.692" style="fill:none;stroke:rgb(127,127,127);stroke-width:1.33px;"/>
            </g>
            <g transform="matrix(1,0,0,1,120,67.3677)">
                <path d="M665.002,346.132C661.697,330.923 661.331,323.868 658.028,307.549" style="fill:none;stroke:rgb(127,127,127);stroke-width:1.33px;"/>
            </g>
            <g transform="matrix(1,0,0,1,231.46,197.642)">
                <path d="M586.524,335.658C600.358,335.875 731.416,302.361 733.768,300.531C739.058,296.415 741.388,292.25 740.059,288.664" style="fill:none;stroke:rgb(127,127,127);stroke-width:1.33px;"/>
            </g>
            <g transform="matrix(1,0,0,1,231.46,197.642)">
                <path d="M446.716,293.754C452.584,286.544 449.688,214.196 462.929,200.13C463.474,199.55 480.833,166.74 481.439,166.362" style="fill:none;stroke:rgb(127,127,127);stroke-width:1.33px;"/>
            </g>
            <g transform="matrix(1,0,0,1,231.46,197.642)">
                <path d="M718.405,220.842C714.656,224.163 721.384,249.969 719.089,252.684C718.091,253.865 622.027,275.406 619.317,275.724C610.235,276.789 592.829,251.356 581.54,246.679C546.476,232.15 502.789,226.402 514.011,213.418" style="fill:none;stroke:rgb(127,127,127);stroke-width:1.33px;"/>
            </g>
            <g transform="matrix(1,0,0,1,231.46,197.642)">
                <path d="M583.506,247.666C600.464,253.616 704.289,230.464 719.579,220.91" style="fill:none;stroke:rgb(127,127,127);stroke-width:1.33px;"/>
            </g>
            <g transform="matrix(1,0,0,1,231.46,197.642)">
                <path d="M652.883,304.953C652.231,301.341 652.242,291.75 652.307,289.749C652.34,288.721 703.106,276.55 705.987,275.757C707.104,275.449 707.469,290.265 707.397,290.469C707.183,291.077 662.076,302.671 652.883,304.953Z" style="fill:none;stroke:rgb(127,127,127);stroke-width:1.33px;"/>
            </g>
            <g transform="matrix(1,0,0,1,231.46,197.642)">
                <path d="M730.547,237.283C725.042,242.155 725.089,243.997 719.579,245.985" style="fill:none;stroke:rgb(127,127,127);stroke-width:1.33px;"/>
            </g>
            <g transform="matrix(1,0,0,1,231.46,197.642)">
                <path d="M588.387,251.594C592.862,252.505 558.279,251.309 545.35,252.994C534.808,254.368 551.294,264.525 554.937,268.177C558.657,271.906 599.189,273.087 610.827,272.039" style="fill:none;stroke:rgb(127,127,127);stroke-width:1.33px;"/>
            </g>
            <g transform="matrix(1,0,0,1,231.46,197.642)">
                <path d="M508.036,346.23C512.173,346.291 523.338,345.723 533.639,344.723C535.179,344.574 539.431,337.623 538.718,333.412" style="fill:none;stroke:rgb(127,127,127);stroke-width:1.33px;"/>
            </g>
            <g transform="matrix(1,0,0,1,86.0608,122.336)">
                <path d="M508.036,346.23C512.173,346.291 515.562,346.841 525.864,345.841C527.404,345.692 528.925,343.5 529.045,339.393" style="fill:none;stroke:rgb(127,127,127);stroke-width:1.33px;"/>
            </g>
            <g transform="matrix(1,0,0,1,57.8686,156.654)">
                <path d="M530.724,256.918C519.645,259.96 527.201,312.928 536.63,311.764C554.017,309.618 538.935,258.276 530.724,256.918Z" style="fill:none;stroke:rgb(127,127,127);stroke-width:1.33px;"/>
            </g>
            <g transform="matrix(1,0,0,1,57.8686,156.654)">
                <path d="M530.724,256.918C519.645,259.96 527.201,312.928 536.63,311.764C554.017,309.618 538.935,258.276 530.724,256.918Z" style="fill:none;stroke:rgb(127,127,127);stroke-width:1.33px;"/>
            </g>
            <g transform="matrix(1,0,0,1,205.707,211.519)">
                <path d="M521.817,256.918C501.614,259.96 511.434,330.284 530.33,332.185C557.285,334.895 537.631,258.711 521.817,256.918Z" style="fill:none;stroke:rgb(127,127,127);stroke-width:1.33px;"/>
            </g>
            <g transform="matrix(1,0,0,1,120,67.3677)">
                <path d="M776.23,324.581C782.093,324.463 760.778,304.232 755.078,288.084" style="fill:none;stroke:rgb(127,127,127);stroke-width:1.33px;"/>
            </g>
            <g id="arrow-black1" serif:id="arrow black" transform="matrix(-0.843561,0,0,1,1167,-13.5646)">
                <path d="M413.544,546.823C420.064,548.363 467.496,546.518 471.788,543.741C483.272,536.311 492.313,480.525 523.25,476.016C550.773,472.004 539.572,521.174 540.721,520.71C564.677,511.042 658.285,475.695 659.406,472.382C664.123,458.444 675.007,419.61 686.329,421.569C700.56,424.03 693.126,457.498 693.43,456.97C698.015,449.004 705.299,427.892 693.842,414.477C688.273,407.956 656.243,390.423 620.656,388.314C613.842,387.911 642.638,403.092 627.048,405.638C588.607,411.915 520.545,425.509 458.567,427.13C442.802,427.542 322.575,404.576 319.596,405.638C297.703,413.443 268.397,423.739 262.717,427.518C248.758,436.806 239.735,451.464 234.414,464.78C226.526,484.521 228.508,503.154 233.381,498.69C233.546,498.539 385.653,531.563 386.615,532.224C400.031,541.428 406.424,545.141 413.544,546.823Z" style="fill:none;stroke:rgb(129,123,123);stroke-width:1.41px;stroke-linejoin:round;stroke-miterlimit:1.5;"/>
            </g>
            <g id="arrow-black2" serif:id="arrow black" transform="matrix(-0.843561,0,0,1,1167,-13.5646)">
                <path d="M458.697,388.307C476.445,389.184 557.138,374.384 586.101,370.879C586.808,370.793 516.986,355.154 464.537,356.526C448.771,356.938 349.776,367.685 346.894,368.924C335.303,373.905 448.153,387.786 458.697,388.307Z" style="fill:none;stroke:rgb(129,123,123);stroke-width:1.41px;stroke-linejoin:round;stroke-miterlimit:1.5;"/>
                <path d="M461.172,383.912C478.92,384.789 508.073,378.182 537.035,374.677C537.742,374.592 435.539,361.656 433.341,361.92C420.133,363.508 363.276,368.829 360.307,369.913C354.186,372.147 450.628,383.391 461.172,383.912Z" style="fill:none;stroke:rgb(129,123,123);stroke-width:1.41px;stroke-linejoin:round;stroke-miterlimit:1.5;"/>
            </g>
        </g>
        <g id="Coordinate-system" serif:id="Coordinate system" transform="matrix(1,0,0,1,-9.23026,50.9579)">
            <g id="arrow-blue" serif:id="arrow blue" transform="matrix(0.796678,-0.277306,-0.328733,-0.944423,241.577,1119.46)">
                <g transform="matrix(-0.646174,0.838379,0.993857,0.545088,1009.88,199.177)">
                    <path d="M320.163,136.913L326.858,137.33L322.507,142.436L320.163,136.913Z" style="fill:rgb(0,113,180);"/>
                    <path d="M303.601,147.202C303.601,147.202 313.043,143.194 322.44,139.205" style="fill:none;stroke:rgb(0,113,180);stroke-width:2px;stroke-linejoin:round;stroke-miterlimit:1.5;"/>
                </g>
                <g transform="matrix(1.00444,-0.531098,-0.629591,-0.84731,745.65,820.072)">
                    <path d="M320.163,136.913L326.858,137.33L322.507,142.436L320.163,136.913Z" style="fill:rgb(0,113,180);"/>
                    <path d="M306.354,146.09C306.354,146.09 313.043,143.194 322.44,139.205" style="fill:none;stroke:rgb(0,113,180);stroke-width:2px;stroke-linejoin:round;stroke-miterlimit:1.5;"/>
                </g>
            </g>
            <g transform="matrix(0.999999,-6.57e-28,-9.7202e-28,1,539.444,196.818)">
                <g id="arrow-blue1" serif:id="arrow blue">
                    <g>
                        <path d="M288.925,128.5L291.925,122.5L294.925,128.5L288.925,128.5Z" style="fill:rgb(0,113,180);"/>
                        <path d="M291.925,153.129L291.925,127.3" style="fill:none;stroke:rgb(0,113,180);stroke-width:2px;stroke-linejoin:round;stroke-miterlimit:1.5;"/>
                    </g>
                </g>
            </g>
            <g transform="matrix(1,0,0,1,835.838,321.244)">
                <text x="0px" y="0px" style="font-family:'TimesNewRomanPS-BoldMT', 'Times New Roman';font-weight:700;font-size:16px;fill:rgb(0,113,180);">y</text>
            </g>
            <g transform="matrix(1.11514,0,0,1.11514,850.525,358.679)">
                <text x="0px" y="0px" style="font-family:'TimesNewRomanPS-BoldMT', 'Times New Roman';font-weight:700;font-size:14.348px;fill:rgb(0,113,180);">z</text>
            </g>
            <g transform="matrix(1,0,0,1,798.692,351.374)">
                <text x="0px" y="0px" style="font-family:'TimesNewRomanPS-BoldMT', 'Times New Roman';font-weight:700;font-size:16px;fill:rgb(0,113,180);">x</text>
            </g>
            <g transform="matrix(1.12889,0,0,1.12889,824.614,362.936)">
                <text x="0px" y="0px" style="font-family:'TimesNewRomanPS-BoldMT', 'Times New Roman';font-weight:700;font-size:14.173px;fill:rgb(0,113,180);">O</text>
            </g>
        </g>
    </g>
</svg>
