<?xml version="1.0" encoding="UTF-8" standalone="no"?>
<!DOCTYPE svg PUBLIC "-//W3C//DTD SVG 1.1//EN" "http://www.w3.org/Graphics/SVG/1.1/DTD/svg11.dtd">
<svg width="100%" height="100%" viewBox="0 0 469 245" version="1.1" xmlns="http://www.w3.org/2000/svg" xmlns:xlink="http://www.w3.org/1999/xlink" xml:space="preserve" xmlns:serif="http://www.serif.com/" style="fill-rule:evenodd;clip-rule:evenodd;stroke-miterlimit:8;">
    <g transform="matrix(1,0,0,1,-540,-350)">
        <g transform="matrix(-1,0,0,1,1549,0)">
            <path d="M651.178,583.061C648.216,583.877 645.253,584.693 640.936,584.46C636.618,584.227 634.51,584.093 625.272,581.662C616.035,579.23 595.685,573.334 585.511,569.87C575.336,566.405 569.211,563.474 564.224,560.876C559.237,558.277 557.497,555.879 555.589,554.28C553.681,552.681 553.849,551.749 552.778,551.282C551.706,550.816 550.368,551.649 549.163,551.482C547.958,551.316 546.05,551.049 545.548,550.283C545.046,549.517 545.749,548.318 546.151,546.885C546.552,545.453 548.058,544.054 547.958,541.689C547.858,539.324 546.586,536.992 545.548,532.695C544.511,528.398 542.268,519.637 541.733,515.906C541.197,512.175 541.666,512.708 542.335,510.31C543.004,507.912 545.08,503.248 545.749,501.516C546.418,499.784 546.385,501.549 546.351,499.917C546.318,498.285 545.515,493.921 545.548,491.723C545.582,489.524 545.013,489.424 546.552,486.726C548.092,484.028 552.142,479.331 554.786,475.534C557.43,471.736 558.534,468.405 562.417,463.942C566.299,459.478 572.893,452.716 578.08,448.752C583.268,444.788 586.682,443.256 593.543,440.158C600.404,437.06 608.839,433.695 619.248,430.165C629.657,426.634 643.714,422.37 655.997,418.972C668.28,415.574 682.806,412.177 692.947,409.778C703.089,407.38 711.054,405.748 716.845,404.582C722.635,403.416 725.413,403.116 727.689,402.783C729.965,402.45 730.065,402.45 730.5,402.583" style="fill:none;stroke:rgb(127,127,127);stroke-width:1.33px;"/>
        </g>
        <g transform="matrix(-1,0,0,1,1549,0)">
            <path d="M776.5,575.5C772.126,577.206 766.416,579.594 763.678,581.027C760.939,582.46 761.307,583.313 760.071,584.097C758.836,584.882 760.272,584.745 756.265,585.735C752.258,586.724 743.476,588.703 736.029,590.033C728.583,591.364 718.799,593.001 711.586,593.718C704.374,594.434 700.934,594.707 692.753,594.332C684.572,593.957 669.078,592.831 662.5,591.466" style="fill:none;stroke:rgb(127,127,127);stroke-width:1.33px;"/>
        </g>
        <g transform="matrix(-1,0,0,1,1549,0)">
            <path d="M662.5,591.5C656.401,587.448 650.303,583.397 651.703,583.502" style="fill:none;stroke:rgb(127,127,127);stroke-width:1.33px;"/>
        </g>
        <g transform="matrix(-1,0,0,1,1549,0)">
            <path d="M848.5,536.5C847.817,539.864 847.133,543.228 845.9,546.641C844.667,550.055 843,553.667 841.1,556.981C839.2,560.295 837.233,563.311 834.5,566.526C831.767,569.74 828.167,573.751 824.7,576.269C821.233,578.788 817.2,580.611 813.7,581.638C810.2,582.666 807.467,582.533 803.7,582.434C799.933,582.334 795.167,582.036 791.1,581.042C787.033,580.047 781.9,577.495 779.3,576.468C776.7,575.441 776.1,575.159 775.5,574.877" style="fill:none;stroke:rgb(127,127,127);stroke-width:1.33px;"/>
        </g>
        <g transform="matrix(-1,0,0,1,1549,0)">
            <path d="M853.5,538.5L970.5,478.5" style="fill:none;stroke:rgb(127,127,127);stroke-width:1.33px;"/>
        </g>
        <g transform="matrix(-1,0,0,-1,700.499,536.64)">
            <path d="M0,0L2.26,1.14" style="fill:none;stroke:rgb(127,127,127);stroke-width:1.33px;"/>
        </g>
        <g transform="matrix(1,-8.74228e-08,8.74228e-08,1,695.969,538.5)">
            <path d="M0,0L3.53,0" style="fill:none;stroke:rgb(127,127,127);stroke-width:1.33px;"/>
        </g>
        <g transform="matrix(-1,0,0,-1,699.499,538.64)">
            <path d="M0,0L1.13,3.14" style="fill:none;stroke:rgb(127,127,127);stroke-width:1.33px;"/>
        </g>
        <g transform="matrix(-1,0,0,1,1549,0)">
            <path d="M998.5,457.5C997.556,461.374 996.781,464.879 995.466,468.569C994.152,472.259 992.23,476.921 990.612,479.638C988.994,482.355 987.478,483.73 985.758,484.871C984.039,486.011 982.826,486.347 980.298,486.481C977.77,486.615 973.219,486.011 970.59,485.676C967.961,485.34 965.871,484.904 964.523,484.468C963.174,484.032 962.837,483.546 962.5,483.06" style="fill:none;stroke:rgb(127,127,127);stroke-width:1.33px;"/>
        </g>
        <g transform="matrix(-1,0,0,1,1549,0)">
            <path d="M998.006,458.5C999.752,456.529 1001.5,454.557 1002.99,451.221C1004.49,447.885 1006.25,443.201 1006.99,438.483C1007.72,433.766 1007.48,427.228 1007.38,422.915C1007.28,418.602 1007.22,416.748 1006.39,412.603C1005.56,408.459 1004.13,401.685 1002.4,398.046C1000.67,394.407 998.638,392.823 996.01,390.767C993.383,388.712 990.323,387.633 986.632,385.712C982.94,383.792 978.384,380.759 973.861,379.242C969.338,377.726 962.387,376.951 959.493,376.614C956.6,376.277 956.55,376.749 956.5,377.221" style="fill:none;stroke:rgb(127,127,127);stroke-width:1.33px;"/>
        </g>
        <g transform="matrix(-1,0,0,1,1549,0)">
            <path d="M736.869,397.5C735.108,395.157 733.346,392.814 733.511,390.618C733.675,388.423 736.375,385.769 737.857,384.327C739.338,382.885 740.754,382.426 742.401,381.967C744.047,381.509 746.384,381.41 747.734,381.574C749.084,381.738 750.105,382.688 750.5,382.95" style="fill:none;stroke:rgb(127,127,127);stroke-width:1.33px;"/>
        </g>
        <g transform="matrix(-1,0,0,1,1549,0)">
            <path d="M816.61,580.5C812.948,580.35 809.286,580.2 805.774,579.1C802.263,578.001 798.518,576.601 795.541,573.902C792.565,571.202 789.756,567.903 787.917,562.904C786.077,557.905 784.606,550.84 784.506,543.909C784.405,536.977 785.676,528.279 787.315,521.314C788.953,514.349 791.495,507.517 794.337,502.118C797.18,496.72 801.16,492.354 804.37,488.922C807.58,485.489 810.088,483.256 813.6,481.523C817.111,479.79 821.626,478.291 825.438,478.524C829.251,478.757 833.297,480.457 836.474,482.923C839.651,485.389 844.316,492.437 844.5,493.321" style="fill:none;stroke:rgb(127,127,127);stroke-width:1.33px;"/>
        </g>
        <g transform="matrix(-1,0,0,1,1549,0)">
            <path d="M848.38,539.5C849.324,532.304 850.396,524.974 850.492,518.921C850.588,512.868 849.788,507.421 848.956,503.184C848.124,498.947 846.716,496.409 845.5,493.5" style="fill:none;stroke:rgb(127,127,127);stroke-width:1.33px;"/>
        </g>
        <g transform="matrix(-1,0,0,1,1549,0)">
            <path d="M774.761,575.5C774.025,570.383 773.289,565.266 773.556,558.41C773.824,551.554 774.159,543.307 776.368,534.365C778.577,525.423 782.493,513.235 786.811,504.756C791.128,496.277 797.119,488.891 802.274,483.493C807.428,478.094 813.018,474.683 817.737,472.365C822.456,470.046 826.372,469.218 830.59,469.582C834.807,469.947 839.359,471.537 843.041,474.55C846.722,477.564 850.438,482.168 852.68,487.666C854.923,493.164 856.596,499.722 856.496,507.538C856.396,515.354 852.915,529.662 852.078,534.564C851.241,539.466 851.475,536.948 851.475,536.948" style="fill:none;stroke:rgb(127,127,127);stroke-width:1.33px;"/>
        </g>
        <g transform="matrix(-1,0,0,1,1549,0)">
            <path d="M984.5,484.5C982.544,484.484 979.971,484.66 977.912,482.769C975.853,480.878 973.382,476.199 972.147,473.154C970.912,470.109 970.912,466.744 970.5,464.5" style="fill:none;stroke:rgb(127,127,127);stroke-width:1.33px;"/>
        </g>
        <g transform="matrix(-1,0,0,1,1549,0)">
            <path d="M969.5,477.5C970.479,468.742 971.458,459.984 972.437,453.17C973.416,446.356 973.71,441.802 975.374,436.617C977.038,431.432 980.367,425.416 982.423,422.059C984.479,418.702 986.045,417.539 987.709,416.475C989.373,415.411 990.907,415.345 992.408,415.677C993.909,416.01 995.476,416.708 996.716,418.469C997.956,420.231 999.228,423.355 999.848,426.247C1000.47,429.139 1000.6,432.463 1000.44,435.82C1000.27,439.177 999.343,444.179 998.869,446.389" style="fill:none;stroke:rgb(127,127,127);stroke-width:1.33px;"/>
        </g>
        <g transform="matrix(-1,0,0,1,1549,0)">
            <path d="M998.221,457.5C999.058,450.96 999.728,444.183 999.427,439.201C999.125,434.22 997.685,430.188 996.412,427.612C995.139,425.037 993.464,424.291 991.789,423.749C990.115,423.207 988.071,423.614 986.363,424.359C984.655,425.105 982.879,426.697 981.539,428.222C980.199,429.747 979.664,431.035 978.324,433.508C976.984,435.982 974.639,440.845 973.5,443.064" style="fill:none;stroke:rgb(127,127,127);stroke-width:1.33px;"/>
        </g>
        <g transform="matrix(-1,0,0,1,1549,0)">
            <path d="M886.5,507.5L935.5,482.5" style="fill:none;stroke:rgb(127,127,127);stroke-width:1.33px;"/>
        </g>
        <g transform="matrix(-1,0,0,1,1549,0)">
            <path d="M934.5,483.5L962.5,457.5" style="fill:none;stroke:rgb(127,127,127);stroke-width:1.33px;"/>
        </g>
        <g transform="matrix(-1,0,0,1,1549,0)">
            <path d="M962.423,457.5C963.949,448.654 965.475,439.807 966.047,433.14C966.619,426.472 966.746,422.379 965.856,417.494C964.966,412.608 963.599,407.327 960.707,403.828C957.814,400.329 952.362,398.497 948.5,396.5" style="fill:none;stroke:rgb(127,127,127);stroke-width:1.33px;"/>
        </g>
        <g transform="matrix(-1,0,0,1,1549,0)">
            <path d="M948.5,396.5C946.659,390.901 944.818,385.302 942.073,380.656C939.328,376.01 936.114,371.129 932.03,368.622C927.946,366.115 922.657,365.146 917.568,365.614C912.48,366.082 906.99,368.756 901.5,371.43" style="fill:none;stroke:rgb(127,127,127);stroke-width:1.33px;"/>
        </g>
        <g transform="matrix(-1,0,0,1,1549,0)">
            <path d="M882.5,417.5L901.5,371.5" style="fill:none;stroke:rgb(127,127,127);stroke-width:1.33px;"/>
        </g>
        <g transform="matrix(-1,0,0,1,1549,0)">
            <path d="M883.5,415.5L909.5,413.208C916.767,412.479 923.433,412.41 927.1,411.125C930.767,409.84 931.133,407.67 931.5,405.5" style="fill:none;stroke:rgb(127,127,127);stroke-width:1.33px;"/>
        </g>
        <g transform="matrix(-1,0,0,1,1549,0)">
            <path d="M896.5,408.5C898.017,404.058 899.534,399.616 900.95,396.958C902.365,394.299 901.219,392.9 904.994,392.551C908.77,392.201 919.421,393.74 923.601,394.859C927.781,395.978 928.59,397.307 930.073,399.266C931.556,401.225 932.028,403.918 932.5,406.611" style="fill:none;stroke:rgb(127,127,127);stroke-width:1.33px;"/>
        </g>
        <g transform="matrix(-1,0,0,1,1549,0)">
            <path d="M931.5,402.5L948.5,397.5" style="fill:none;stroke:rgb(127,127,127);stroke-width:1.33px;"/>
        </g>
        <g transform="matrix(-1,0,0,1,1549,0)">
            <path d="M735.5,403.5C754.7,386.717 773.9,369.933 785.5,362.5" style="fill:none;stroke:rgb(127,127,127);stroke-width:1.33px;"/>
        </g>
        <g transform="matrix(-1,0,0,1,1549,0)">
            <path d="M785.5,361.291C793.517,360.021 800.533,358.911 809.7,358.59C818.867,358.268 831.4,358.879 840.5,359.361C849.6,359.844 855.967,360.294 864.3,361.484C872.633,362.673 881.567,364.587 890.5,366.5" style="fill:none;stroke:rgb(127,127,127);stroke-width:1.33px;"/>
        </g>
        <g transform="matrix(-1,0,0,1,1549,0)">
            <path d="M866.5,416.5L891.5,367.5" style="fill:none;stroke:rgb(127,127,127);stroke-width:1.33px;"/>
        </g>
        <g transform="matrix(-1,0,0,1,1549,0)">
            <path d="M729.5,403.5L785.5,361.5" style="fill:none;stroke:rgb(127,127,127);stroke-width:1.33px;"/>
        </g>
        <g transform="matrix(-1,0,0,1,1549,0)">
            <path d="M956.5,377.5C951.634,373.052 947.764,368.233 941.552,364.715C935.341,361.198 930.226,358.56 919.231,356.395C908.236,354.23 891.428,352.269 875.584,351.727C859.74,351.186 839.178,351.592 824.164,353.148C809.15,354.704 797.325,357.883 785.5,361.062" style="fill:none;stroke:rgb(127,127,127);stroke-width:1.33px;"/>
        </g>
        <g transform="matrix(1,-8.74228e-08,8.74228e-08,1,798.299,382.5)">
            <path d="M0,0L0.2,4.6" style="fill:none;stroke:rgb(127,127,127);stroke-width:1.33px;"/>
        </g>
        <g transform="matrix(-1,0,0,1,1549,0)">
            <path d="M910.5,407.5C913.95,407.288 917.4,407.077 920.9,406.577C924.4,406.077 927.95,405.289 931.5,404.5" style="fill:none;stroke:rgb(127,127,127);stroke-width:1.33px;"/>
        </g>
        <g transform="matrix(-1,0,0,1,1549,0)">
            <path d="M910.5,409.5C913.95,409.288 917.4,409.077 920.9,408.577C924.4,408.077 927.95,407.289 931.5,406.5" style="fill:none;stroke:rgb(127,127,127);stroke-width:1.33px;"/>
        </g>
        <g transform="matrix(-1,0,0,1,1549,0)">
            <path d="M736.436,393.455L733.563,390.335" style="fill:none;stroke:rgb(127,127,127);stroke-width:1.33px;"/>
        </g>
        <g transform="matrix(-1,0,0,1,1549,0)">
            <path d="M733.5,390.5L736.5,393.554" style="fill:none;stroke:rgb(127,127,127);stroke-width:1.33px;"/>
        </g>
        <g transform="matrix(-1,0,0,1,1549,0)">
            <path d="M671.5,503.5C677.956,499.642 684.411,495.784 692.064,492.079C699.718,488.374 708.303,484.669 717.42,481.27C726.538,477.871 739.016,473.894 746.769,471.685C754.522,469.475 759.38,468.659 763.939,468.014C768.498,467.368 770.362,467.368 774.122,467.81C777.882,468.251 782.108,469.169 786.5,470.665" style="fill:none;stroke:rgb(127,127,127);stroke-width:1.33px;"/>
        </g>
        <g transform="matrix(-1,0,0,1,1549,0)">
            <path d="M785.5,470.5C779.867,476.124 774.234,481.748 768.95,486.568C763.666,491.389 759.678,495.406 753.796,499.423C747.913,503.44 741.001,507.926 733.656,510.671C726.312,513.416 717.04,514.755 709.728,515.893C702.417,517.031 694.375,517.5 689.788,517.5C685.202,517.5 684.77,516.998 682.211,515.893C679.652,514.789 676.362,512.546 674.435,510.872C672.507,509.198 671.111,507.19 670.646,505.85C670.181,504.511 670.912,503.674 671.643,502.838" style="fill:none;stroke:rgb(127,127,127);stroke-width:1.33px;"/>
        </g>
        <g transform="matrix(-1,0,0,1,1549,0)">
            <path d="M886.887,507.5C887.474,484.31 888.061,461.121 886.496,446.287C884.932,431.454 881.216,424.977 877.5,418.5" style="fill:none;stroke:rgb(127,127,127);stroke-width:1.33px;"/>
        </g>
        <g transform="matrix(-1,0,0,1,1549,0)">
            <path d="M877.5,418.5C879.761,418.095 882.023,417.691 883.009,417.357C883.995,417.024 883.145,416.691 883.417,416.5" style="fill:none;stroke:rgb(127,127,127);stroke-width:1.33px;"/>
        </g>
        <g transform="matrix(-1,0,0,1,1549,0)">
            <path d="M885.5,409.5L896.5,407.5" style="fill:none;stroke:rgb(127,127,127);stroke-width:1.33px;"/>
        </g>
        <g transform="matrix(-1,0,0,1,1549,0)">
            <path d="M735.5,403.5L798.386,409.391L842.989,413.656C854.508,414.841 861.004,415.671 867.5,416.5" style="fill:none;stroke:rgb(127,127,127);stroke-width:1.33px;"/>
        </g>
        <g transform="matrix(-1,0,0,1,1549,0)">
            <path d="M910.5,407.5L910.9,409.755" style="fill:none;stroke:rgb(127,127,127);stroke-width:1.33px;"/>
        </g>
        <g transform="matrix(-1,0,0,1,1549,0)">
            <path d="M735.074,393.99L733.351,392.118" style="fill:none;stroke:rgb(127,127,127);stroke-width:1.33px;"/>
        </g>
        <g transform="matrix(-1,0,0,1,1549,0)">
            <path d="M677.5,505.5C685.315,501.643 693.13,497.785 702.786,493.827C712.443,489.869 724.821,485.139 735.44,481.752C746.059,478.364 756.279,475.932 766.5,473.5" style="fill:none;stroke:rgb(127,127,127);stroke-width:1.33px;"/>
        </g>
        <g transform="matrix(-1,0,0,1,1549,0)">
            <path d="M675.5,503.5C683.403,499.643 691.305,495.785 701.071,491.827C710.836,487.869 723.352,483.139 734.091,479.752C744.829,476.364 755.164,473.932 765.5,471.5" style="fill:none;stroke:rgb(127,127,127);stroke-width:1.33px;"/>
        </g>
        <g transform="matrix(-1,0,0,1,1549,0)">
            <path d="M766.688,473.491L765.5,471.5" style="fill:none;stroke:rgb(127,127,127);stroke-width:1.33px;"/>
        </g>
        <g transform="matrix(-1,0,0,1,1549,0)">
            <path d="M676.688,505.491L675.5,503.5" style="fill:none;stroke:rgb(127,127,127);stroke-width:1.33px;"/>
        </g>
        <g transform="matrix(-1,0,0,1,1549,0)">
            <path d="M713.5,508.5C712.728,502.922 711.956,497.343 713.025,495.5" style="fill:none;stroke:rgb(127,127,127);stroke-width:1.33px;"/>
        </g>
        <g transform="matrix(-1,0,0,1,1549,0)">
            <path d="M713.5,509.5L720.5,508.5" style="fill:none;stroke:rgb(127,127,127);stroke-width:1.33px;"/>
        </g>
        <g transform="matrix(-1,0,0,1,1549,0)">
            <path d="M720.5,508.5L724.5,501.5" style="fill:none;stroke:rgb(127,127,127);stroke-width:1.33px;"/>
        </g>
        <g transform="matrix(-1,0,0,1,1549,0)">
            <path d="M724.5,502.5C723.5,499.984 722.5,497.467 720.5,496.337C718.5,495.207 715.5,495.464 712.5,495.721" style="fill:none;stroke:rgb(127,127,127);stroke-width:1.33px;"/>
        </g>
        <g transform="matrix(-1,0,0,1,1549,0)">
            <path d="M620.5,560.5L614.5,542.5" style="fill:none;stroke:rgb(127,127,127);stroke-width:1.33px;"/>
        </g>
        <g transform="matrix(-1,0,0,1,1549,0)">
            <path d="M564.5,542.5L558.5,526.5" style="fill:none;stroke:rgb(127,127,127);stroke-width:1.33px;"/>
        </g>
        <g transform="matrix(-1,0,0,1,1549,0)">
            <path d="M559.5,526.5C569.217,529.667 578.933,532.833 588.1,535.5C597.267,538.167 605.883,540.333 614.5,542.5" style="fill:none;stroke:rgb(127,127,127);stroke-width:1.33px;"/>
        </g>
        <g transform="matrix(-1,0,0,1,1549,0)">
            <path d="M563.5,542.5C573.1,545.883 582.701,549.267 592.201,552.1C601.701,554.933 611.1,557.217 620.5,559.5" style="fill:none;stroke:rgb(127,127,127);stroke-width:1.33px;"/>
        </g>
        <g id="Coordinate-system" serif:id="Coordinate system" transform="matrix(1,0,0,1,-199.97,52.636)">
            <g transform="matrix(1,0,0,1,802.239,367.744)">
                <g transform="matrix(16,0,0,16,8,0)">
                </g>
                <text x="0px" y="0px" style="font-family:'TimesNewRomanPS-BoldMT', 'Times New Roman';font-weight:700;font-size:16px;fill:rgb(0,113,180);">y</text>
            </g>
            <g transform="matrix(1.11514,0,0,1.11514,805.213,337.131)">
                <g transform="matrix(14.348,0,0,14.348,7.174,0)">
                </g>
                <text x="0px" y="0px" style="font-family:'TimesNewRomanPS-BoldMT', 'Times New Roman';font-weight:700;font-size:14.348px;fill:rgb(0,113,180);">x</text>
            </g>
            <g transform="matrix(1,0,0,1,825.033,323)">
                <g transform="matrix(16,0,0,16,7.10156,0)">
                </g>
                <text x="0px" y="0px" style="font-family:'TimesNewRomanPS-BoldMT', 'Times New Roman';font-weight:700;font-size:16px;fill:rgb(0,113,180);">z</text>
            </g>
            <g transform="matrix(1.12889,0,0,1.12889,837.444,355.749)">
                <text x="0px" y="0px" style="font-family:'TimesNewRomanPS-BoldMT', 'Times New Roman';font-weight:700;font-size:14.173px;fill:rgb(0,113,180);">O</text>
            </g>
            <g id="arrow-blue" serif:id="arrow blue" transform="matrix(-0.843561,0,0,1,1351.77,-157.396)">
                <g transform="matrix(-1.18545,0,0,1,725.257,454.76)">
                    <path d="M92.149,27.99L95.136,21.983L98.149,27.977L92.149,27.99Z" style="fill:rgb(0,113,180);"/>
                    <path d="M95.201,53.015C95.201,53.015 95.164,35.494 95.146,26.783" style="fill:none;stroke:rgb(0,113,180);stroke-width:2px;stroke-linejoin:round;stroke-miterlimit:1.5;"/>
                </g>
            </g>
            <g id="arrow-blue1" serif:id="arrow blue" transform="matrix(0.218429,0.814791,0.965894,-0.258937,211.965,-17.9336)">
                <g transform="matrix(0.306957,0.965894,1.14502,-0.258937,523.097,428.355)">
                    <path d="M72.846,61.578L66.261,60.297L71.237,55.798L72.846,61.578Z" style="fill:rgb(0,113,180);"/>
                    <path d="M95.926,52.041C95.926,52.041 79.225,56.689 70.886,59.01" style="fill:none;stroke:rgb(0,113,180);stroke-width:2px;stroke-linejoin:round;stroke-miterlimit:1.5;"/>
                </g>
            </g>
            <g id="arrow-blue2" serif:id="arrow blue" transform="matrix(0.830926,0.145457,0.172432,-0.985021,237.273,759.403)">
                <g transform="matrix(1.16769,0.172432,0.20441,-0.985021,492.551,541.8)">
                    <path d="M70.567,47.984L65.61,43.464L72.2,42.211L70.567,47.984Z" style="fill:rgb(0,113,180);"/>
                    <path d="M95.926,52.041C95.926,52.041 78.715,47.172 70.229,44.771" style="fill:none;stroke:rgb(0,113,180);stroke-width:2px;stroke-linejoin:round;stroke-miterlimit:1.5;"/>
                </g>
            </g>
        </g>
    </g>
</svg>
