<?xml version="1.0" encoding="UTF-8" standalone="no"?>
<!DOCTYPE svg PUBLIC "-//W3C//DTD SVG 1.1//EN" "http://www.w3.org/Graphics/SVG/1.1/DTD/svg11.dtd">
<svg width="100%" height="100%" viewBox="0 0 469 245" version="1.1" xmlns="http://www.w3.org/2000/svg" xmlns:xlink="http://www.w3.org/1999/xlink" xml:space="preserve" xmlns:serif="http://www.serif.com/" style="fill-rule:evenodd;clip-rule:evenodd;stroke-miterlimit:8;">
    <g transform="matrix(1,0,0,1,-540,-350)">
        <g transform="matrix(1,0,0,1,-1.13687e-13,35.6323)">
            <g id="arrow-black" serif:id="arrow black">
            </g>
            <g transform="matrix(1,0,0,1,120,67.3677)">
                <path d="M523.881,307.549C531.829,306.563 534.301,300.155 552.584,290.264" style="fill:none;stroke:rgb(127,127,127);stroke-width:1.33px;"/>
            </g>
            <g transform="matrix(1,0,0,1,120,67.3677)">
                <path d="M523.881,307.549C531.829,306.563 535.237,299.583 553.52,289.692" style="fill:none;stroke:rgb(127,127,127);stroke-width:1.33px;"/>
            </g>
            <g transform="matrix(1,0,0,1,120,67.3677)">
                <path d="M665.002,346.132C661.697,330.923 661.331,323.868 658.028,307.549" style="fill:none;stroke:rgb(127,127,127);stroke-width:1.33px;"/>
            </g>
            <g transform="matrix(1,0,0,1,231.46,197.642)">
                <path d="M586.524,335.658C600.358,335.875 731.416,302.361 733.768,300.531C739.058,296.415 741.388,292.25 740.059,288.664" style="fill:none;stroke:rgb(127,127,127);stroke-width:1.33px;"/>
            </g>
            <g transform="matrix(1,0,0,1,231.46,197.642)">
                <path d="M446.716,293.754C452.584,286.544 449.688,214.196 462.929,200.13C463.474,199.55 480.833,166.74 481.439,166.362" style="fill:none;stroke:rgb(127,127,127);stroke-width:1.33px;"/>
            </g>
            <g transform="matrix(1,0,0,1,231.46,197.642)">
                <path d="M718.405,220.842C714.656,224.163 721.384,249.969 719.089,252.684C718.091,253.865 622.027,275.406 619.317,275.724C610.235,276.789 592.829,251.356 581.54,246.679C546.476,232.15 502.789,226.402 514.011,213.418" style="fill:none;stroke:rgb(127,127,127);stroke-width:1.33px;"/>
            </g>
            <g transform="matrix(1,0,0,1,231.46,197.642)">
                <path d="M583.506,247.666C600.464,253.616 704.289,230.464 719.579,220.91" style="fill:none;stroke:rgb(127,127,127);stroke-width:1.33px;"/>
            </g>
            <g transform="matrix(1,0,0,1,231.46,197.642)">
                <path d="M652.883,304.953C652.231,301.341 652.242,291.75 652.307,289.749C652.34,288.721 703.106,276.55 705.987,275.757C707.104,275.449 707.469,290.265 707.397,290.469C707.183,291.077 662.076,302.671 652.883,304.953Z" style="fill:none;stroke:rgb(127,127,127);stroke-width:1.33px;"/>
            </g>
            <g transform="matrix(1,0,0,1,231.46,197.642)">
                <path d="M730.547,237.283C725.042,242.155 725.089,243.997 719.579,245.985" style="fill:none;stroke:rgb(127,127,127);stroke-width:1.33px;"/>
            </g>
            <g transform="matrix(1,0,0,1,231.46,197.642)">
                <path d="M588.387,251.594C592.862,252.505 558.279,251.309 545.35,252.994C534.808,254.368 551.294,264.525 554.937,268.177C558.657,271.906 599.189,273.087 610.827,272.039" style="fill:none;stroke:rgb(127,127,127);stroke-width:1.33px;"/>
            </g>
            <g transform="matrix(1,0,0,1,231.46,197.642)">
                <path d="M508.036,346.23C512.173,346.291 523.338,345.723 533.639,344.723C535.179,344.574 539.431,337.623 538.718,333.412" style="fill:none;stroke:rgb(127,127,127);stroke-width:1.33px;"/>
            </g>
            <g transform="matrix(1,0,0,1,86.0608,122.336)">
                <path d="M508.036,346.23C512.173,346.291 515.562,346.841 525.864,345.841C527.404,345.692 528.925,343.5 529.045,339.393" style="fill:none;stroke:rgb(127,127,127);stroke-width:1.33px;"/>
            </g>
            <g transform="matrix(1,0,0,1,57.8686,156.654)">
                <path d="M530.724,256.918C519.645,259.96 527.201,312.928 536.63,311.764C554.017,309.618 538.935,258.276 530.724,256.918Z" style="fill:none;stroke:rgb(127,127,127);stroke-width:1.33px;"/>
            </g>
            <g transform="matrix(1,0,0,1,57.8686,156.654)">
                <path d="M530.724,256.918C519.645,259.96 527.201,312.928 536.63,311.764C554.017,309.618 538.935,258.276 530.724,256.918Z" style="fill:none;stroke:rgb(127,127,127);stroke-width:1.33px;"/>
            </g>
            <g transform="matrix(1,0,0,1,205.707,211.519)">
                <path d="M521.817,256.918C501.614,259.96 511.434,330.284 530.33,332.185C557.285,334.895 537.631,258.711 521.817,256.918Z" style="fill:none;stroke:rgb(127,127,127);stroke-width:1.33px;"/>
            </g>
            <g transform="matrix(1,0,0,1,120,67.3677)">
                <path d="M776.23,324.581C782.093,324.463 760.778,304.232 755.078,288.084" style="fill:none;stroke:rgb(127,127,127);stroke-width:1.33px;"/>
            </g>
            <g id="arrow-black1" serif:id="arrow black" transform="matrix(-0.843561,0,0,1,1167,-13.5646)">
                <path d="M413.544,546.823C420.064,548.363 467.496,546.518 471.788,543.741C483.272,536.311 492.313,480.525 523.25,476.016C550.773,472.004 539.572,521.174 540.721,520.71C564.677,511.042 658.285,475.695 659.406,472.382C664.123,458.444 675.007,419.61 686.329,421.569C700.56,424.03 693.126,457.498 693.43,456.97C698.015,449.004 705.299,427.892 693.842,414.477C688.273,407.956 656.243,390.423 620.656,388.314C613.842,387.911 642.638,403.092 627.048,405.638C588.607,411.915 520.545,425.509 458.567,427.13C442.802,427.542 322.575,404.576 319.596,405.638C297.703,413.443 268.397,423.739 262.717,427.518C248.758,436.806 239.735,451.464 234.414,464.78C226.526,484.521 228.508,503.154 233.381,498.69C233.546,498.539 385.653,531.563 386.615,532.224C400.031,541.428 406.424,545.141 413.544,546.823Z" style="fill:none;stroke:rgb(129,123,123);stroke-width:1.41px;stroke-linejoin:round;stroke-miterlimit:1.5;"/>
            </g>
            <g id="arrow-black2" serif:id="arrow black" transform="matrix(-0.843561,0,0,1,1167,-13.5646)">
                <path d="M458.021,356.746C431.695,358.62 349.527,367.792 346.894,368.924C335.303,373.905 448.153,387.786 458.697,388.307C476.445,389.184 557.138,374.384 586.101,370.879C586.721,370.804 533.904,358.599 485.276,356.587" style="fill:none;stroke:rgb(129,123,123);stroke-width:1.41px;stroke-linejoin:round;stroke-miterlimit:1.5;"/>
                <g transform="matrix(1,0,0,1.33977,-4.14329,-132.856)">
                    <path d="M462.839,363.276C460.813,365.764 460.114,371.115 459.971,374.507C459.801,378.531 492.017,379.259 491.782,373.871C491.661,371.086 490.744,366.009 488.474,363.18" style="fill:none;stroke:rgb(129,123,123);stroke-width:1.16px;stroke-linejoin:round;stroke-miterlimit:1.5;"/>
                </g>
                <g transform="matrix(1,0,0,1.33977,-4.14329,-132.856)">
                    <path d="M488.474,363.18C486.313,360.486 482.588,358.491 476.178,358.564C469.127,358.644 465.107,360.491 462.839,363.276" style="fill:none;stroke:rgb(129,123,123);stroke-width:1.16px;stroke-linejoin:round;stroke-miterlimit:1.5;"/>
                </g>
            </g>
        </g>
        <g id="Coordinate-system" serif:id="Coordinate system" transform="matrix(1,0,0,1,-61.6749,33.5863)">
            <g transform="matrix(0.999999,-6.57e-28,-9.7202e-28,1,678.331,269.644)">
                <g id="arrow-blue" serif:id="arrow blue">
                    <g>
                        <path d="M149.857,58.896L152.857,52.896L155.857,58.896L149.857,58.896Z" style="fill:rgb(0,113,180);"/>
                        <path d="M152.494,80.659L152.857,57.696" style="fill:none;stroke:rgb(0,113,180);stroke-width:2px;stroke-linejoin:round;stroke-miterlimit:1.5;"/>
                    </g>
                </g>
            </g>
            <g transform="matrix(-0.971549,0.236838,-0.236838,-0.971549,999.298,393.463)">
                <g id="arrow-blue1" serif:id="arrow blue">
                    <g>
                        <path d="M176.75,79.555L182.75,82.555L176.75,85.555L176.75,79.555Z" style="fill:rgb(0,113,180);"/>
                        <g transform="matrix(1.01334,8.76139e-30,-1.29623e-29,1,-2.37304,0)">
                            <path d="M152.857,82.555L177.95,82.555" style="fill:none;stroke:rgb(0,113,180);stroke-width:2px;stroke-linejoin:round;stroke-miterlimit:1.5;"/>
                        </g>
                    </g>
                </g>
            </g>
            <g transform="matrix(-0.989988,-0.141144,0.141144,-0.989989,970.268,452.728)">
                <g id="arrow-blue2" serif:id="arrow blue">
                    <g>
                        <path d="M176.75,79.555L182.75,82.555L176.75,85.555L176.75,79.555Z" style="fill:rgb(0,113,180);"/>
                        <g transform="matrix(1.01334,8.76139e-30,-1.29623e-29,1,-2.37304,0)">
                            <path d="M152.857,82.555L177.95,82.555" style="fill:none;stroke:rgb(0,113,180);stroke-width:2px;stroke-linejoin:round;stroke-miterlimit:1.5;"/>
                        </g>
                    </g>
                </g>
            </g>
            <g transform="matrix(1,0,0,1,796.945,341.205)">
                <text x="0px" y="0px" style="font-family:'TimesNewRomanPS-BoldMT', 'Times New Roman';font-weight:700;font-size:16px;fill:rgb(0,113,180);">x</text>
            </g>
            <g transform="matrix(1.11514,0,0,1.11514,821.344,326.193)">
                <text x="0px" y="0px" style="font-family:'TimesNewRomanPS-BoldMT', 'Times New Roman';font-weight:700;font-size:14.348px;fill:rgb(0,113,180);">z</text>
            </g>
            <g transform="matrix(1,0,0,1,798.203,367.182)">
                <text x="0px" y="0px" style="font-family:'TimesNewRomanPS-BoldMT', 'Times New Roman';font-weight:700;font-size:16px;fill:rgb(0,113,180);">y</text>
            </g>
            <g transform="matrix(1.12889,0,0,1.12889,830.938,359.635)">
                <text x="0px" y="0px" style="font-family:'TimesNewRomanPS-BoldMT', 'Times New Roman';font-weight:700;font-size:14.173px;fill:rgb(0,113,180);">O</text>
            </g>
        </g>
    </g>
</svg>
