<?xml version="1.0" encoding="UTF-8" standalone="no"?>
<!DOCTYPE svg PUBLIC "-//W3C//DTD SVG 1.1//EN" "http://www.w3.org/Graphics/SVG/1.1/DTD/svg11.dtd">
<svg width="100%" height="100%" viewBox="0 0 469 245" version="1.1" xmlns="http://www.w3.org/2000/svg" xmlns:xlink="http://www.w3.org/1999/xlink" xml:space="preserve" xmlns:serif="http://www.serif.com/" style="fill-rule:evenodd;clip-rule:evenodd;stroke-linejoin:round;stroke-miterlimit:1.5;">
    <g transform="matrix(1,0,0,1,-540,-350)">
        <g transform="matrix(1,0,0,1,-1.13687e-13,35.6323)">
            <g id="arrow-black" serif:id="arrow black" transform="matrix(-0.843561,0,0,1,1167,-13.5646)">
                <path d="M308.766,539.41C301.703,538.584 269.557,537.753 265.49,536.263C262.069,535.009 268.179,517.33 259.645,516.019C251.397,514.752 252.121,536.072 250.914,535.671C249.688,535.264 247.604,536.21 246.671,535.453C245.256,534.307 248.76,517.814 240.672,517.134C231.874,516.393 236.169,535.486 233.227,536.206C231.161,536.713 206.995,536.554 207.128,535.231C208.126,525.337 210.405,493.264 212.906,479.843C213.231,478.101 288.785,464.407 314.348,460.426C316.212,460.136 307.285,539.679 308.766,539.41" style="fill:none;stroke:rgb(129,123,123);stroke-width:1.08px;"/>
            </g>
            <g id="arrow-black1" serif:id="arrow black" transform="matrix(-0.843561,0,0,1,1167,-13.5646)">
                <path d="M323.787,537.769C325.522,528.579 332.276,457.155 331.236,456.284C329.51,454.836 314.521,459.781 314.605,460.425C314.85,462.301 306.531,539.474 308.756,539.879C312.069,540.482 318.397,538.914 324.684,539.41C325.198,539.451 322.966,538.677 323.5,538.739C323.568,538.757 323.665,538.418 323.787,537.769L323.762,537.764L323.746,537.761C323.719,537.756 323.691,537.752 323.662,537.749C323.626,537.744 323.59,537.741 323.556,537.739C323.62,537.742 323.683,537.749 323.746,537.761L323.787,537.769ZM315.773,460.89C315.465,466.706 310.654,512.615 309.718,531.682C309.566,534.79 309.516,537.172 309.611,538.53C309.622,538.685 309.642,538.847 309.662,538.986C310.808,539.084 312.242,538.978 313.862,538.837C316.389,538.617 319.326,538.293 322.343,538.314C322.385,538.241 322.438,538.172 322.503,538.106C322.572,537.788 322.708,537.131 322.821,536.392C324.426,525.953 328.731,481.454 329.877,463.642C330.072,460.617 330.111,458.026 330.118,457.026C330.046,457.022 329.973,457.019 329.906,457.02C329.32,457.031 328.577,457.127 327.742,457.277C323.689,458.005 317.586,459.998 315.773,460.89Z" style="fill:rgb(129,123,123);"/>
            </g>
            <g id="arrow-black2" serif:id="arrow black" transform="matrix(-0.843561,0,0,1,1167,-13.5646)">
                <path d="M319.56,538.229L319.523,538.222L319.508,538.22L319.56,538.23C319.462,538.805 319.379,539.137 319.314,539.194C319.503,539.195 320.149,539.22 320.933,539.253C322.134,539.263 323.399,539.309 324.684,539.41C325.003,539.436 322.642,539.325 320.933,539.253C316.262,539.211 312.588,539.7 312.656,539.505C313.711,536.449 318.416,458.928 319.101,458.617C320.081,458.172 324.018,457.043 325.33,456.92C326.787,456.785 321.148,528.963 319.56,538.229ZM319.314,539.194C319.306,539.202 319.298,539.205 319.29,539.203C319.239,539.197 319.251,539.194 319.314,539.194ZM324.325,458.116C323.004,458.409 321.16,458.944 320.163,459.301C320.111,459.675 320.03,460.293 319.964,460.958C318.774,472.948 315.259,528.829 314.022,538.46C315.008,538.391 316.555,538.302 318.36,538.264C318.746,536.215 319.406,529.811 320.162,521.445C321.909,502.094 324.109,472.334 324.36,461.256C324.388,460.011 324.356,458.851 324.325,458.116Z" style="fill:rgb(129,123,123);"/>
            </g>
            <g id="arrow-black3" serif:id="arrow black" transform="matrix(-0.843561,0,0,1,1167,-13.5646)">
                <path d="M310.203,464.638C308.373,478.243 308.561,506.354 305.563,506.416C286.305,506.817 212.479,511.135 212.572,510.029C213.838,494.887 215.31,481.791 216.574,481.547C251.042,474.889 303.936,466.975 310.203,464.638ZM217.274,482.438C217.187,482.65 217.045,483.018 216.95,483.37C215.919,487.21 214.819,497.512 213.832,509.185C214.08,509.196 214.363,509.205 214.645,509.207C226.621,509.31 287.35,505.826 305.165,505.425C305.206,505.354 305.254,505.266 305.289,505.186C305.5,504.708 305.682,504.029 305.852,503.186C307.324,495.887 307.545,477.232 308.83,466.092C297.487,468.934 249.526,476.226 217.274,482.438Z" style="fill:rgb(129,123,123);"/>
            </g>
            <g id="arrow-black4" serif:id="arrow black" transform="matrix(-0.843561,0,0,1,1167,-13.5646)">
                <path d="M660.125,398.019C658.89,400.66 682.118,493.493 669.638,492.41C648.023,490.534 510.758,487.462 506.31,481.426C499.104,471.647 492.79,372.397 499.012,373.332C530.957,378.133 660.125,398.019 660.125,398.019" style="fill:none;stroke:rgb(129,123,123);stroke-width:1.08px;"/>
            </g>
            <g id="arrow-black5" serif:id="arrow black" transform="matrix(-0.843561,0,0,1,1167,-13.5646)">
                <path d="M661.481,392.656C661.481,392.656 659.525,368.224 656.01,367.793C652.688,367.386 518.308,338.971 502.403,342.545C498.84,343.345 495.346,368.208 499.007,368.078C510.749,367.659 661.075,392.657 661.481,392.656" style="fill:none;stroke:rgb(129,123,123);stroke-width:1.08px;"/>
            </g>
            <g id="arrow-black6" serif:id="arrow black" transform="matrix(-0.843561,0,0,1,1149.88,125.354)">
                <path d="M661.481,392.656C661.481,392.656 662.135,385.339 662.309,379.796C662.398,376.965 652.95,380.091 638.1,380.997C634.422,381.222 621.031,393.769 624.691,393.639C636.433,393.22 661.075,392.657 661.481,392.656" style="fill:none;stroke:rgb(129,123,123);stroke-width:1.08px;"/>
            </g>
            <g id="arrow-black7" serif:id="arrow black" transform="matrix(0.843561,0,0,1,194.027,117.852)">
                <path d="M661.481,392.656C661.481,392.656 662.374,381.05 662.309,379.796C662.237,378.406 652.95,380.091 638.1,380.997C634.422,381.222 621.031,393.769 624.691,393.639C636.433,393.22 661.075,392.657 661.481,392.656" style="fill:none;stroke:rgb(129,123,123);stroke-width:1.08px;"/>
            </g>
            <g id="arrow-black8" serif:id="arrow black" transform="matrix(0.843561,0,0,1,169.081,158.004)">
                <path d="M623.974,377.891C624.173,377.867 623.75,393.15 635.839,394.458C643.398,395.276 647.658,376.976 646.586,376.99C642.228,377.044 635.201,377.507 623.974,377.891ZM645.52,378.01C645.502,378.234 645.474,378.491 645.432,378.739C644.977,381.443 643.428,386.566 640.991,390.093C640.234,391.189 639.398,392.127 638.466,392.754C637.703,393.267 636.884,393.563 635.99,393.466C632.07,393.042 629.631,390.964 628.081,388.508C625.873,385.011 625.407,380.749 625.256,378.846C634.89,378.504 641.293,378.113 645.52,378.01Z" style="fill:rgb(129,123,123);"/>
            </g>
            <g id="arrow-black9" serif:id="arrow black" transform="matrix(0.843561,0,0,1.01435,297.271,141.115)">
                <path d="M631.249,342.1C626.267,342.569 623.136,357.165 622.667,371.638C622.199,386.11 624.392,400.458 630.059,400.432C646.732,400.356 641.21,341.163 631.249,342.1ZM631.383,343.08C631.849,343.036 632.262,343.28 632.69,343.651C633.345,344.219 633.952,345.084 634.532,346.178C636.438,349.772 637.915,355.691 638.756,362.31C640.025,372.298 639.834,383.877 637.33,391.552C636.532,393.998 635.508,396.035 634.193,397.456C633.049,398.693 631.696,399.439 630.052,399.447C629.464,399.449 628.957,399.175 628.481,398.738C627.83,398.139 627.269,397.257 626.767,396.158C625.107,392.527 624.193,386.675 623.897,380.155C623.374,368.644 624.805,355.055 627.75,347.748C628.345,346.272 628.994,345.064 629.714,344.209C630.247,343.577 630.764,343.138 631.382,343.08L631.383,343.08Z" style="fill:rgb(129,123,123);"/>
            </g>
            <g id="arrow-black10" serif:id="arrow black" transform="matrix(0.40118,0,0,0.570495,634.321,305.597)">
                <path d="M631.249,342.1C626.312,342.765 624.003,358.28 624.33,373.487C624.657,388.695 627.621,403.597 633.231,403.035C646.626,401.695 638.214,341.163 631.249,342.1ZM631.187,344.44C631.289,344.581 631.388,344.728 631.469,344.869C632.679,346.963 633.824,350.526 634.819,354.874C637.592,366.99 639.087,385.086 636.546,395.171C636.045,397.158 635.401,398.812 634.538,399.995C634.067,400.642 633.663,401.166 632.998,401.283C632.907,401.228 632.704,401.101 632.584,400.995C632.335,400.772 632.1,400.498 631.87,400.181C630.393,398.143 629.288,394.649 628.459,390.382C626.101,378.261 626.234,360.107 628.871,349.99C629.403,347.95 630.027,346.254 630.774,345.039C630.909,344.82 631.045,344.62 631.187,344.44Z" style="fill:rgb(129,123,123);"/>
            </g>
            <g id="arrow-black11" serif:id="arrow black" transform="matrix(0.467904,0,0,0.468008,653.494,345.036)">
                <path d="M631.249,342.1C626.267,342.569 623.274,354.899 622.895,367.417C622.516,379.935 624.751,392.641 630.224,393.861C647.384,397.687 641.499,341.135 631.249,342.1ZM631.449,344.228C631.891,344.186 632.253,344.512 632.649,344.915C633.424,345.704 634.121,346.893 634.775,348.353C637.018,353.362 638.529,361.321 638.88,369.149C639.225,376.824 638.499,384.391 636.037,388.815C634.811,391.018 633.111,392.315 630.689,391.776C629.863,391.591 629.222,390.907 628.625,389.992C627.781,388.698 627.115,386.953 626.579,384.914C624.83,378.247 624.578,368.625 625.554,360.27C626.19,354.831 627.33,349.932 628.985,346.814C629.438,345.96 629.919,345.257 630.457,344.764C630.771,344.476 631.088,344.262 631.449,344.228Z" style="fill:rgb(129,123,123);"/>
            </g>
            <g id="arrow-black12" serif:id="arrow black" transform="matrix(0.467904,0,0,0.45186,668.597,350.56)">
                <path d="M631.249,342.1C626.267,342.569 623.274,354.899 622.895,367.417C622.516,379.935 624.751,392.641 630.224,393.861C647.384,397.687 641.499,341.135 631.249,342.1ZM631.443,344.304C631.893,344.262 632.272,344.585 632.676,344.996C633.445,345.779 634.138,346.961 634.787,348.411C637.024,353.408 638.53,361.347 638.88,369.156C639.223,376.802 638.506,384.342 636.053,388.749C634.823,390.958 633.103,392.239 630.674,391.698C630.023,391.552 629.482,391.084 628.982,390.447C628.272,389.544 627.685,388.321 627.181,386.878C625.464,381.963 624.813,374.69 625.031,367.487C625.249,360.277 626.34,353.128 628.235,348.468C628.785,347.116 629.39,345.993 630.086,345.199C630.51,344.715 630.935,344.352 631.443,344.304Z" style="fill:rgb(129,123,123);"/>
            </g>
            <g id="arrow-black13" serif:id="arrow black" transform="matrix(0.843561,0,0,1,194.027,117.852)">
                <path d="M661.481,392.656C661.481,392.656 662.282,385.341 662.309,379.796C662.311,379.296 675.93,379.151 677.232,379.267C686.701,380.106 676.712,391.754 673.073,392.11C663.736,393.025 661.075,392.657 661.481,392.656" style="fill:none;stroke:rgb(129,123,123);stroke-width:1.08px;"/>
            </g>
            <g id="arrow-black14" serif:id="arrow black" transform="matrix(0.843561,0,0,1,194.027,117.852)">
                <path d="M729.048,256.307C729.041,261.42 728.987,341.201 728.982,342.321" style="fill:none;stroke:rgb(129,123,123);stroke-width:1.08px;"/>
            </g>
            <g id="arrow-black15" serif:id="arrow black" transform="matrix(3.2623,0,0,0.807161,-1536.45,196.15)">
                <path d="M729.048,256.307C729.041,261.42 728.987,341.201 728.982,342.321" style="fill:none;stroke:rgb(129,123,123);stroke-width:0.42px;"/>
            </g>
            <g id="arrow-black16" serif:id="arrow black" transform="matrix(-4.61123,0,0,0.647284,4227.16,259.528)">
                <path d="M729.048,256.307C729.041,261.42 728.987,341.201 728.982,342.321" style="fill:none;stroke:rgb(129,123,123);stroke-width:0.3px;"/>
            </g>
            <g id="arrow-black17" serif:id="arrow black" transform="matrix(105.617,0,0,0.567802,-76055.3,300.102)">
                <path d="M728.97,279.105C728.97,280.93 728.981,339.333 728.979,340.901" style="fill:none;stroke:rgb(129,123,123);stroke-width:0.01px;"/>
            </g>
            <g id="arrow-black18" serif:id="arrow black" transform="matrix(105.617,0,0,0.553625,-76027.8,309.15)">
                <path d="M728.97,279.105C728.97,280.93 728.984,334.402 728.982,335.969" style="fill:none;stroke:rgb(129,123,123);stroke-width:0.01px;"/>
            </g>
            <g id="arrow-black19" serif:id="arrow black" transform="matrix(-0.843561,0,0,1,1167,-13.5646)">
                <path d="M482.19,352.904C461.674,352.855 336.082,454.049 335.891,457.091C335.616,461.483 331.867,484.62 331.49,499.918C331.33,506.435 438.273,467.125 444.533,470.214C450.185,473.002 448.898,488.882 453.094,488.472C453.382,488.444 474.762,485.545 481.11,481.453C486.46,478.003 482.19,364.462 482.19,352.904ZM481.013,354.004C479.541,354.238 477.677,354.868 475.466,355.809C470.905,357.75 464.999,361.024 458.199,365.227C431.534,381.71 391.281,412.432 364.517,433.959C351.432,444.484 341.576,452.805 338.128,456.179C337.641,456.656 337.205,457.16 337.062,457.327C336.704,462.107 333.101,484.519 332.685,499.602C332.874,499.625 333.146,499.651 333.379,499.647C335.196,499.618 338.269,499.035 342.258,498.073C364.253,492.772 413.093,475.927 434.313,470.667C438.143,469.717 441.104,469.144 442.888,469.054C443.95,469.001 444.701,469.138 445.132,469.351C446.69,470.119 447.858,471.715 448.695,473.749C449.805,476.448 450.403,479.941 451.06,482.837C451.4,484.339 451.751,485.67 452.225,486.605C452.372,486.896 452.526,487.142 452.707,487.324C452.787,487.404 452.848,487.489 452.957,487.479C453.157,487.459 463.573,486.047 471.957,483.815C475.405,482.897 478.507,481.854 480.338,480.691C480.379,480.608 480.67,480.012 480.815,479.469C481.401,477.277 481.809,473.204 482.092,467.824C483.685,437.645 481.177,366.929 481.013,354.004Z" style="fill:rgb(129,123,123);"/>
            </g>
            <g id="arrow-black20" serif:id="arrow black" transform="matrix(-0.843561,0,0,1,1167,-13.5646)">
                <path d="M659.698,364.948C661.539,361.641 697.88,545.911 675.138,549.353C656.997,552.099 506.781,551.423 494.486,543.976C488.856,540.566 487.342,339.502 496.227,338.234C531.709,333.17 659.698,364.948 659.698,364.948" style="fill:none;stroke:rgb(129,123,123);stroke-width:1.08px;"/>
            </g>
            <g id="arrow-black21" serif:id="arrow black" transform="matrix(-0.843561,0,0,1,1167,-13.5646)">
                <path d="M666.22,389.511C666.836,383.081 709.07,375.387 712.689,378.605C719.992,385.099 722.849,402.461 723.812,412.587C724.222,416.892 718.958,418.334 716.043,414.743C711.393,409.013 709.273,389.215 705.342,388.592C689.48,386.077 678.29,389.712 668.216,400.199" style="fill:none;stroke:rgb(129,123,123);stroke-width:1.08px;"/>
            </g>
            <g id="arrow-black22" serif:id="arrow black" transform="matrix(-0.843561,0,0,1,1167,-13.5646)">
                <path d="M447.876,382.066C448.492,375.636 481.175,373.523 481.992,377.904C482.253,379.307 482.59,405.871 482.798,416.687C482.881,421.004 449.847,418.638 448.582,414.419C446.425,407.232 446.438,396.343 447.876,382.066" style="fill:none;stroke:rgb(129,123,123);stroke-width:1.08px;"/>
            </g>
            <g id="arrow-black23" serif:id="arrow black" transform="matrix(-0.843561,0,0,1,1167,-13.5646)">
                <path d="M497.453,337.687C497.453,337.687 487.001,336.31 477.984,342.234C444.583,364.178 331.152,450.024 330.927,456.211C329.968,482.589 321.758,539.108 323.517,538.663C323.75,538.604 325.48,539.192 325.569,539.033C325.713,538.774 325.8,513.715 331.166,513.035C338.281,512.134 334.922,540.29 335.768,540.362C354.189,541.939 386.885,543.481 386.873,542.434C386.639,522.962 389.277,494.749 402.666,496.55C412.08,497.816 410.525,543.261 410.525,543.261L493.742,543.913" style="fill:none;stroke:rgb(129,123,123);stroke-width:1.08px;"/>
            </g>
        </g>
        <g id="Coordinate-system" serif:id="Coordinate system" transform="matrix(1,0,0,1,-268.898,73.3496)">
            <g id="arrow-blue" serif:id="arrow blue" transform="matrix(-0.832619,-0.135432,-0.160548,0.987028,1717.26,-46.9051)">
                <g transform="matrix(1.18125,-0.0840878,-0.099682,-0.996458,610.403,703.256)">
                    <path d="M320.163,136.913L326.858,137.33L322.507,142.436L320.163,136.913Z" style="fill:rgb(0,113,180);"/>
                    <path d="M309.203,144.824C309.203,144.824 313.043,143.194 322.44,139.205" style="fill:none;stroke:rgb(0,113,180);stroke-width:2px;"/>
                </g>
                <g transform="matrix(-1.03671,0.484966,0.574904,0.874532,1192.45,256.751)">
                    <path d="M320.163,136.913L326.858,137.33L322.507,142.436L320.163,136.913Z" style="fill:rgb(0,113,180);"/>
                    <path d="M303.601,147.202C303.601,147.202 313.043,143.194 322.44,139.205" style="fill:none;stroke:rgb(0,113,180);stroke-width:2px;"/>
                </g>
            </g>
            <g transform="matrix(0.999999,-6.57e-28,-9.7202e-28,1,539.444,196.818)">
                <g id="arrow-blue1" serif:id="arrow blue">
                    <g>
                        <path d="M288.925,128.5L291.925,122.5L294.925,128.5L288.925,128.5Z" style="fill:rgb(0,113,180);"/>
                        <path d="M291.925,153.129L291.925,127.3" style="fill:none;stroke:rgb(0,113,180);stroke-width:2px;"/>
                    </g>
                </g>
            </g>
            <g transform="matrix(1,0,0,1,808.765,346.612)">
                <text x="0px" y="0px" style="font-family:'TimesNewRomanPS-BoldMT', 'Times New Roman';font-weight:700;font-size:16px;fill:rgb(0,113,180);">y</text>
            </g>
            <g transform="matrix(1.11514,0,0,1.11514,819.852,322.97)">
                <text x="0px" y="0px" style="font-family:'TimesNewRomanPS-BoldMT', 'Times New Roman';font-weight:700;font-size:14.348px;fill:rgb(0,113,180);">z</text>
            </g>
            <g transform="matrix(1,0,0,1,850.8,350.065)">
                <text x="0px" y="0px" style="font-family:'TimesNewRomanPS-BoldMT', 'Times New Roman';font-weight:700;font-size:16px;fill:rgb(0,113,180);">x</text>
            </g>
            <g transform="matrix(1.12889,0,0,1.12889,823.641,362.937)">
                <text x="0px" y="0px" style="font-family:'TimesNewRomanPS-BoldMT', 'Times New Roman';font-weight:700;font-size:14.173px;fill:rgb(0,113,180);">O</text>
            </g>
        </g>
    </g>
</svg>
