<?xml version="1.0" encoding="UTF-8" standalone="no"?>
<!DOCTYPE svg PUBLIC "-//W3C//DTD SVG 1.1//EN" "http://www.w3.org/Graphics/SVG/1.1/DTD/svg11.dtd">
<svg width="100%" height="100%" viewBox="0 0 469 200" version="1.1" xmlns="http://www.w3.org/2000/svg" xmlns:xlink="http://www.w3.org/1999/xlink" xml:space="preserve" xmlns:serif="http://www.serif.com/" style="fill-rule:evenodd;clip-rule:evenodd;stroke-linejoin:round;stroke-miterlimit:10;">
    <g transform="matrix(1,0,0,0.816327,-540,-285.714)">
        <g id="Street" transform="matrix(0.652961,0,0,0.799877,540,362.121)">
            <g transform="matrix(0.0299978,0,0,0.0299989,0,2.00018e-12)">
                <path d="M11888,5468L15154,5450L23686,9706L354,9706L11888,5468Z" style="fill:rgb(200,200,200);"/>
            </g>
            <g transform="matrix(0.0149989,0,0,0.0149995,0,0)">
                <path d="M23691,10926L23972,10916L1053,19411L-4,19420L23691,10926Z" style="fill:white;"/>
            </g>
            <g transform="matrix(0.0299978,0,0,0.0299989,0,0)">
                <path d="M15178,5463L15074,5458L23298,9706L23942,9710L15178,5463Z" style="fill:white;"/>
            </g>
            <g transform="matrix(0.0149989,0,0,0.0149995,0,0)">
                <path d="M23115,16734L23708,16724L22045,19402L21276,19420L23115,16734Z" style="fill:white;"/>
            </g>
            <g transform="matrix(0.0149989,0,0,0.0149995,2.55516,-2.65737)">
                <path d="M26061,12433L26348,12428L25544,13716L25172,13724L26061,12433Z" style="fill:white;"/>
            </g>
            <g transform="matrix(0.0219371,0,0,0.019512,-197.893,-29.0358)">
                <path d="M25991.2,12433L26278.2,12428L25544,13716L25172,13724L25991.2,12433Z" style="fill:white;"/>
            </g>
            <g transform="matrix(0.0149989,0,0,0.0149995,0,0)">
                <path d="M27042,11039L27204,11036L26750,11767L26540,11772L27042,11039Z" style="fill:white;"/>
            </g>
        </g>
        <g id="Buildings" transform="matrix(0.652961,0,0,0.799877,540,362.121)">
            <g transform="matrix(0.0299978,0,0,0.0299989,-67.6208,-23.169)">
                <path d="M19464.4,6971.56L19409.9,6971.42L19410.1,6917.9L19461.2,6918.09L19461.2,6920.5L19464.5,6920.51L19464.4,6971.56ZM19410.9,6703.83L19462,6704.01L19461.6,6811.05L19410.5,6810.86L19410.9,6703.83ZM19411.7,6489.74L19462.7,6489.93L19462.3,6596.97L19411.3,6596.78L19411.7,6489.74ZM19412.5,6275.67L19463.5,6275.86L19463.1,6382.9L19412.1,6382.71L19412.5,6275.67ZM19413.3,6061.59L19464.3,6061.78L19463.9,6168.82L19412.9,6168.63L19413.3,6061.59ZM19414.1,5847.52L19465.1,5847.71L19464.7,5954.75L19413.7,5954.56L19414.1,5847.52ZM19414.8,5633.44L19465.9,5633.63L19465.5,5740.67L19414.4,5740.48L19414.8,5633.44ZM19415.6,5419.36L19466.7,5419.55L19466.3,5526.59L19415.2,5526.4L19415.6,5419.36ZM19416.4,5205.29L19467.5,5205.48L19467.1,5312.52L19416,5312.33L19416.4,5205.29ZM19417.2,4991.22L19468.3,4991.4L19467.9,5098.44L19416.8,5098.25L19417.2,4991.22ZM19418,4777.14L19469,4777.32L19468.7,4884.36L19417.6,4884.17L19418,4777.14ZM19418.8,4563.06L19469.8,4563.25L19469.4,4670.29L19418.4,4670.1L19418.8,4563.06ZM19419.6,4348.98L19470.6,4349.17L19470.2,4456.21L19419.2,4456.02L19419.6,4348.98ZM19420.4,4134.91L19471.4,4135.1L19471,4242.13L19420,4241.95L19420.4,4134.91ZM19421.1,3920.83L19472.2,3921.01L19471.8,4028.05L19420.8,4027.87L19421.1,3920.83ZM19421.9,3706.76L19473,3706.95L19472.6,3813.98L19421.5,3813.8L19421.9,3706.76ZM19422.7,3492.68L19473.8,3492.87L19473.4,3599.91L19422.3,3599.72L19422.7,3492.68ZM19476.9,3332L19477,3383.05L19474.2,3383.06L19474.2,3385.83L19423.1,3385.64L19423.1,3382.99L19423.3,3383.17L19423.6,3332.12L19476.9,3332ZM19691.3,3331.54L19691.4,3382.59L19584.2,3382.82L19584.1,3331.77L19691.3,3331.54ZM19905.7,3331.07L19905.8,3382.12L19798.6,3382.36L19798.5,3331.31L19905.7,3331.07ZM20120.1,3330.61L20120.2,3381.66L20013,3381.89L20012.9,3330.84L20120.1,3330.61ZM20280.9,3383.84L20229.9,3383.84L20229.9,3381.42L20227.4,3381.43L20227.3,3330.37L20280.6,3330.26L20280.9,3381.31L20280.9,3383.84ZM20280.9,3598.16L20229.9,3598.16L20229.9,3491L20280.9,3491L20280.9,3598.16ZM20280.9,3812.48L20229.9,3812.48L20229.9,3705.32L20280.9,3705.32L20280.9,3812.48ZM20280.9,4026.8L20229.9,4026.8L20229.9,3919.64L20280.9,3919.64L20280.9,4026.8ZM20280.9,4241.13L20229.9,4241.13L20229.9,4133.97L20280.9,4133.97L20280.9,4241.13ZM20280.9,4455.44L20229.9,4455.44L20229.9,4348.28L20280.9,4348.28L20280.9,4455.44ZM20280.9,4669.76L20229.9,4669.76L20229.9,4562.6L20280.9,4562.6L20280.9,4669.76ZM20280.9,4884.09L20229.9,4884.09L20229.9,4776.93L20280.9,4776.93L20280.9,4884.09ZM20280.9,5098.4L20229.9,5098.4L20229.9,4991.24L20280.9,4991.24L20280.9,5098.4ZM20280.9,5312.73L20229.9,5312.73L20229.9,5205.57L20280.9,5205.57L20280.9,5312.73ZM20280.9,5527.05L20229.9,5527.05L20229.9,5419.89L20280.9,5419.89L20280.9,5527.05ZM20280.9,5741.37L20229.9,5741.37L20229.9,5634.21L20280.9,5634.21L20280.9,5741.37ZM20280.9,5955.7L20229.9,5955.7L20229.9,5848.53L20280.9,5848.53L20280.9,5955.7ZM20280.9,6170.01L20229.9,6170.01L20229.9,6062.85L20280.9,6062.85L20280.9,6170.01ZM20280.9,6384.34L20229.9,6384.34L20229.9,6277.18L20280.9,6277.18L20280.9,6384.34ZM20280.9,6598.65L20229.9,6598.65L20229.9,6491.49L20280.9,6491.49L20280.9,6598.65ZM20280.9,6812.98L20229.9,6812.98L20229.9,6705.82L20280.9,6705.82L20280.9,6812.98ZM20226.5,6973.58L20226.6,6922.53L20229.9,6922.53L20229.9,6920.14L20280.9,6920.14L20280.9,6973.72L20226.5,6973.58ZM20008.7,6973L20008.9,6921.95L20117.7,6922.24L20117.6,6973.29L20008.7,6973ZM19791,6972.43L19791.1,6921.38L19900,6921.66L19899.9,6972.71L19791,6972.43ZM19573.2,6971.85L19573.4,6920.8L19682.2,6921.09L19682.1,6972.14L19573.2,6971.85Z" style="fill:rgb(127,127,127);"/>
            </g>
            <g transform="matrix(-0.0299978,0,0,0.0299989,781.293,-13.231)">
                <path d="M8018.31,6642.44L2101.04,8806.66" style="fill:none;stroke:rgb(127,127,127);stroke-width:51.05px;stroke-dasharray:102.1,102.1,0,0,0,0;"/>
            </g>
            <g transform="matrix(-0.0299978,0,0,0.0299989,781.293,-13.231)">
                <path d="M8018.31,2998.98L2101.04,26.752" style="fill:none;stroke:rgb(127,127,127);stroke-width:51.05px;stroke-dasharray:102.1,102.1,0,0,0,0;"/>
            </g>
            <g transform="matrix(1,0,0,1,-55.356,-24.8043)">
                <g transform="matrix(0.0299978,0,0,0.0299989,0,2.00018e-12)">
                    <path d="M19056.2,4241.4L23944,2331.23L23944,9140.38L19052.5,6994.29L19056.2,4241.4Z" style="fill:rgb(237,213,191);"/>
                </g>
                <g transform="matrix(0.0299978,0,0,0.0299989,0,2.00018e-12)">
                    <path d="M23944,2331.23L25789.3,2333.11L25789.3,9140.38L23944,9140.38L23944,2331.23Z" style="fill:rgb(237,213,191);"/>
                </g>
                <g transform="matrix(0.0299978,0,0,0.0299989,-7.00116,-3.16501)">
                    <path d="M20600,5634.99L21491,5738L21491,8054.63L20600,7663.46L20600,5634.99Z" style="fill:rgb(234,234,234);fill-opacity:0.5;"/>
                </g>
                <g transform="matrix(0.0299978,0,0,0.0299989,-37.6786,-27.1639)">
                    <path d="M20605.5,5802.42L21367.8,5691.54L21378.7,6736.1L20604.6,6698.43L20605.5,5802.42Z" style="fill:rgb(234,234,234);fill-opacity:0.5;"/>
                </g>
                <g transform="matrix(0.0299978,0,0,0.0299989,26.8068,-18.2921)">
                    <path d="M20610.1,5120.43L21884.3,4914.75L21899.9,6610.02L20604.6,6537.62L20610.1,5120.43Z" style="fill:rgb(234,234,234);fill-opacity:0.5;"/>
                </g>
                <g transform="matrix(0.0299978,0,0,0.0299989,0,2.00018e-12)">
                    <path d="M19037.9,4241.4L19532.8,3394.55L24866.7,412.543L23957.7,2331.23L19037.9,4241.4Z" style="fill:rgb(212,127,137);stroke:rgb(127,127,127);stroke-width:25.53px;"/>
                </g>
                <g transform="matrix(0.0299978,0,0,0.0299989,-12.9755,2.01261e-12)">
                    <path d="M26221.9,2331.23L25299.2,412.543L24390.3,2333.11L26221.9,2331.23Z" style="fill:rgb(212,127,137);stroke:rgb(127,127,127);stroke-width:25.53px;"/>
                </g>
            </g>
            <g transform="matrix(-0.0299978,0,0,0.0299989,781.293,-13.231)">
                <path d="M8862.06,3047.96L8874.89,3000.36L8831.45,2973.89L8804.88,3017.49L8848.32,3043.96L8862.06,3047.96ZM8717.1,2963.99L8743.67,2920.4L8655.89,2866.9L8629.32,2910.5L8717.1,2963.99ZM8541.54,2857L8568.11,2813.41L8480.33,2759.91L8453.76,2803.51L8541.54,2857ZM8365.98,2750.01L8392.55,2706.42L8304.76,2652.92L8278.19,2696.51L8365.98,2750.01ZM8190.42,2643.02L8216.99,2599.43L8129.21,2545.94L8102.64,2589.53L8190.42,2643.02ZM8014.87,2536.04L8041.44,2492.45L7953.65,2438.95L7927.08,2482.54L8014.87,2536.04ZM7839.3,2429.05L7865.87,2385.45L7778.09,2331.96L7751.52,2375.55L7839.3,2429.05ZM7663.74,2322.06L7690.31,2278.46L7602.53,2224.97L7575.96,2268.56L7663.74,2322.06ZM7488.18,2215.07L7514.75,2171.48L7426.97,2117.98L7400.4,2161.57L7488.18,2215.07ZM7312.62,2108.08L7339.19,2064.49L7251.41,2010.99L7224.84,2054.59L7312.62,2108.08ZM7137.06,2001.09L7163.63,1957.5L7075.85,1904.01L7049.28,1947.6L7137.06,2001.09ZM6961.5,1894.1L6988.07,1850.51L6900.28,1797.01L6873.71,1840.6L6961.5,1894.1ZM6785.94,1787.11L6812.51,1743.52L6724.73,1690.03L6698.16,1733.62L6785.94,1787.11ZM6610.38,1680.13L6636.95,1636.53L6549.17,1583.04L6522.6,1626.63L6610.38,1680.13ZM6434.82,1573.13L6461.38,1529.54L6373.61,1476.05L6347.04,1519.64L6434.82,1573.13ZM6259.26,1466.15L6285.83,1422.55L6198.05,1369.06L6171.48,1412.65L6259.26,1466.15ZM6083.7,1359.16L6110.27,1315.56L6022.49,1262.07L5995.92,1305.66L6083.7,1359.16ZM5908.14,1252.17L5934.7,1208.57L5846.92,1155.08L5820.35,1198.67L5908.14,1252.17ZM5732.58,1145.18L5759.15,1101.59L5671.37,1048.1L5644.8,1091.69L5732.58,1145.18ZM5557.02,1038.19L5583.59,994.598L5495.8,941.103L5469.24,984.697L5557.02,1038.19ZM5381.47,931.209L5408.03,887.615L5320.26,834.121L5293.69,877.715L5381.47,931.209ZM5205.9,824.216L5232.47,780.622L5144.69,727.127L5118.12,770.721L5205.9,824.216ZM5030.34,717.23L5056.91,673.636L4969.13,620.141L4942.56,663.735L5030.34,717.23ZM4854.78,610.238L4881.35,566.645L4793.57,513.15L4767,556.743L4854.78,610.238ZM4679.22,503.252L4705.79,459.658L4618.01,406.164L4591.44,449.757L4679.22,503.252ZM4503.66,396.261L4530.23,352.667L4442.45,299.173L4415.88,342.767L4503.66,396.261ZM4328.1,289.272L4354.67,245.678L4266.89,192.184L4240.32,235.777L4328.1,289.272ZM4152.54,182.284L4179.11,138.691L4091.33,85.196L4064.76,128.79L4152.54,182.284ZM3976.98,75.296L4003.55,31.702L3960.11,5.232L3946.37,52.277L3933.54,48.825L3976.98,75.296Z" style="fill:rgb(127,127,127);"/>
            </g>
            <g transform="matrix(-0.0299978,0,0,0.0299989,781.293,-13.231)">
                <path d="M8878.74,6617.56L3939.26,8783.37" style="fill:none;stroke:rgb(127,127,127);stroke-width:51.05px;stroke-dasharray:102.1,102.1,0,0,0,0;"/>
            </g>
            <g transform="matrix(0.0299978,0,0,0.0299989,-55.356,-24.8043)">
                <path d="M23944,464.803L23944,463.594L23944.3,412.543L23995.3,412.543L23995.3,463.594L23995.1,463.594L23995.1,464.803L23944,464.803ZM24200.3,412.543L24200.3,463.594L24097.8,463.594L24097.8,412.543L24200.3,412.543ZM24405.3,412.543L24405.3,463.594L24302.8,463.594L24302.8,412.543L24405.3,412.543ZM24610.4,412.543L24610.4,463.594L24507.9,463.594L24507.9,412.543L24610.4,412.543ZM24815.4,412.543L24815.4,463.594L24712.9,463.594L24712.9,412.543L24815.4,412.543ZM25020.4,412.543L25020.4,463.594L24917.9,463.594L24917.9,412.543L25020.4,412.543ZM25225.5,412.543L25225.5,463.594L25123,463.594L25123,412.543L25225.5,412.543ZM25430.5,412.543L25430.5,463.594L25328,463.594L25328,412.543L25430.5,412.543ZM25635.6,412.543L25635.6,463.594L25533,463.594L25533,412.543L25635.6,412.543ZM25789.3,464.803L25738.3,464.803L25738.3,463.594L25738.1,463.594L25738.1,412.543L25789.1,412.543L25789.3,463.594L25789.3,464.803ZM25789.3,673.848L25738.3,673.848L25738.3,569.324L25789.3,569.324L25789.3,673.848ZM25789.3,882.899L25738.3,882.899L25738.3,778.372L25789.3,778.372L25789.3,882.899ZM25789.3,1091.95L25738.3,1091.95L25738.3,987.419L25789.3,987.419L25789.3,1091.95ZM25789.3,1300.98L25738.3,1300.98L25738.3,1196.46L25789.3,1196.46L25789.3,1300.98ZM25789.3,1510.03L25738.3,1510.03L25738.3,1405.51L25789.3,1405.51L25789.3,1510.03ZM25789.3,1719.08L25738.3,1719.08L25738.3,1614.56L25789.3,1614.56L25789.3,1719.08ZM25789.3,1928.12L25738.3,1928.12L25738.3,1823.6L25789.3,1823.6L25789.3,1928.12ZM25789.3,2137.16L25738.3,2137.16L25738.3,2032.64L25789.3,2032.64L25789.3,2137.16ZM25789.3,2346.22L25738.3,2346.22L25738.3,2241.69L25789.3,2241.69L25789.3,2346.22ZM25789.3,2555.27L25738.3,2555.27L25738.3,2450.74L25789.3,2450.74L25789.3,2555.27ZM25789.3,2764.3L25738.3,2764.3L25738.3,2659.77L25789.3,2659.77L25789.3,2764.3ZM25789.3,2973.35L25738.3,2973.35L25738.3,2868.83L25789.3,2868.83L25789.3,2973.35ZM25789.3,3182.39L25738.3,3182.39L25738.3,3077.87L25789.3,3077.87L25789.3,3182.39ZM25789.3,3391.45L25738.3,3391.45L25738.3,3286.93L25789.3,3286.93L25789.3,3391.45ZM25789.3,3600.49L25738.3,3600.49L25738.3,3495.97L25789.3,3495.97L25789.3,3600.49ZM25789.3,3809.55L25738.3,3809.55L25738.3,3705.02L25789.3,3705.02L25789.3,3809.55ZM25789.3,4018.57L25738.3,4018.57L25738.3,3914.05L25789.3,3914.05L25789.3,4018.57ZM25789.3,4227.62L25738.3,4227.62L25738.3,4123.1L25789.3,4123.1L25789.3,4227.62ZM25789.3,4436.68L25738.3,4436.68L25738.3,4332.15L25789.3,4332.15L25789.3,4436.68ZM25789.3,4645.7L25738.3,4645.7L25738.3,4541.18L25789.3,4541.18L25789.3,4645.7ZM25789.3,4854.76L25738.3,4854.76L25738.3,4750.24L25789.3,4750.24L25789.3,4854.76ZM25789.3,5063.8L25738.3,5063.8L25738.3,4959.28L25789.3,4959.28L25789.3,5063.8ZM25789.3,5272.85L25738.3,5272.85L25738.3,5168.33L25789.3,5168.33L25789.3,5272.85ZM25789.3,5481.9L25738.3,5481.9L25738.3,5377.38L25789.3,5377.38L25789.3,5481.9ZM25789.3,5690.95L25738.3,5690.95L25738.3,5586.43L25789.3,5586.43L25789.3,5690.95ZM25789.3,5899.99L25738.3,5899.99L25738.3,5795.47L25789.3,5795.47L25789.3,5899.99ZM25789.3,6109.03L25738.3,6109.03L25738.3,6004.51L25789.3,6004.51L25789.3,6109.03ZM25789.3,6318.07L25738.3,6318.07L25738.3,6213.55L25789.3,6213.55L25789.3,6318.07ZM25789.3,6527.11L25738.3,6527.11L25738.3,6422.59L25789.3,6422.59L25789.3,6527.11ZM25789.3,6736.18L25738.3,6736.18L25738.3,6631.66L25789.3,6631.66L25789.3,6736.18ZM25789.3,6945.22L25738.3,6945.22L25738.3,6840.69L25789.3,6840.69L25789.3,6945.22ZM25789.3,7154.27L25738.3,7154.27L25738.3,7049.75L25789.3,7049.75L25789.3,7154.27ZM25789.3,7363.3L25738.3,7363.3L25738.3,7258.78L25789.3,7258.78L25789.3,7363.3ZM25789.3,7572.35L25738.3,7572.35L25738.3,7467.82L25789.3,7467.82L25789.3,7572.35ZM25789.3,7781.4L25738.3,7781.4L25738.3,7676.88L25789.3,7676.88L25789.3,7781.4ZM25789.3,7990.44L25738.3,7990.44L25738.3,7885.91L25789.3,7885.91L25789.3,7990.44ZM25789.3,8199.49L25738.3,8199.49L25738.3,8094.97L25789.3,8094.97L25789.3,8199.49ZM25789.3,8408.54L25738.3,8408.54L25738.3,8304.01L25789.3,8304.01L25789.3,8408.54ZM25789.3,8617.58L25738.3,8617.58L25738.3,8513.06L25789.3,8513.06L25789.3,8617.58ZM25789.3,8826.62L25738.3,8826.62L25738.3,8722.1L25789.3,8722.1L25789.3,8826.62ZM25789.3,9035.67L25738.3,9035.67L25738.3,8931.15L25789.3,8931.15L25789.3,9035.67ZM25738.1,9192.45L25738.1,9141.4L25738.3,9141.4L25738.3,9140.19L25789.3,9140.19L25789.3,9192.45L25738.1,9192.45ZM25533,9192.45L25533,9141.4L25635.6,9141.4L25635.6,9192.45L25533,9192.45ZM25328,9192.45L25328,9141.4L25430.5,9141.4L25430.5,9192.45L25328,9192.45ZM25123,9192.45L25123,9141.4L25225.5,9141.4L25225.5,9192.45L25123,9192.45ZM24917.9,9192.45L24917.9,9141.4L25020.4,9141.4L25020.4,9192.45L24917.9,9192.45ZM24712.9,9192.45L24712.9,9141.4L24815.4,9141.4L24815.4,9192.45L24712.9,9192.45ZM24507.9,9192.45L24507.9,9141.4L24610.4,9141.4L24610.4,9192.45L24507.9,9192.45ZM24302.8,9192.45L24302.8,9141.4L24405.3,9141.4L24405.3,9192.45L24302.8,9192.45ZM24097.8,9192.45L24097.8,9141.4L24200.3,9141.4L24200.3,9192.45L24097.8,9192.45ZM23944,9140.19L23995.1,9140.19L23995.1,9141.4L23995.3,9141.4L23995.3,9192.45L23944,9192.45L23944,9140.19ZM23944,8931.15L23995.1,8931.15L23995.1,9035.67L23944,9035.67L23944,8931.15ZM23944,8722.1L23995.1,8722.1L23995.1,8826.62L23944,8826.62L23944,8722.1ZM23944,8513.05L23995.1,8513.05L23995.1,8617.58L23944,8617.58L23944,8513.05ZM23944,8304.01L23995.1,8304.01L23995.1,8408.54L23944,8408.54L23944,8304.01ZM23944,8094.97L23995.1,8094.97L23995.1,8199.49L23944,8199.49L23944,8094.97ZM23944,7885.92L23995.1,7885.92L23995.1,7990.44L23944,7990.44L23944,7885.92ZM23944,7676.88L23995.1,7676.88L23995.1,7781.4L23944,7781.4L23944,7676.88ZM23944,7467.84L23995.1,7467.84L23995.1,7572.36L23944,7572.36L23944,7467.84ZM23944,7258.78L23995.1,7258.78L23995.1,7363.3L23944,7363.3L23944,7258.78ZM23944,7049.73L23995.1,7049.73L23995.1,7154.25L23944,7154.25L23944,7049.73ZM23944,6840.7L23995.1,6840.7L23995.1,6945.22L23944,6945.22L23944,6840.7ZM23944,6631.65L23995.1,6631.65L23995.1,6736.17L23944,6736.17L23944,6631.65ZM23944,6422.61L23995.1,6422.61L23995.1,6527.13L23944,6527.13L23944,6422.61ZM23944,6213.55L23995.1,6213.55L23995.1,6318.07L23944,6318.07L23944,6213.55ZM23944,6004.51L23995.1,6004.51L23995.1,6109.03L23944,6109.03L23944,6004.51ZM23944,5795.45L23995.1,5795.45L23995.1,5899.98L23944,5899.98L23944,5795.45ZM23944,5586.43L23995.1,5586.43L23995.1,5690.95L23944,5690.95L23944,5586.43ZM23944,5377.38L23995.1,5377.38L23995.1,5481.89L23944,5481.89L23944,5377.38ZM23944,5168.32L23995.1,5168.32L23995.1,5272.85L23944,5272.85L23944,5168.32ZM23944,4959.3L23995.1,4959.3L23995.1,5063.82L23944,5063.82L23944,4959.3ZM23944,4750.24L23995.1,4750.24L23995.1,4854.76L23944,4854.76L23944,4750.24ZM23944,4541.2L23995.1,4541.2L23995.1,4645.72L23944,4645.72L23944,4541.2ZM23944,4332.14L23995.1,4332.14L23995.1,4436.67L23944,4436.67L23944,4332.14ZM23944,4123.09L23995.1,4123.09L23995.1,4227.61L23944,4227.61L23944,4123.09ZM23944,3914.05L23995.1,3914.05L23995.1,4018.57L23944,4018.57L23944,3914.05ZM23944,3705.01L23995.1,3705.01L23995.1,3809.53L23944,3809.53L23944,3705.01ZM23944,3495.97L23995.1,3495.97L23995.1,3600.49L23944,3600.49L23944,3495.97ZM23944,3286.92L23995.1,3286.92L23995.1,3391.44L23944,3391.44L23944,3286.92ZM23944,3077.88L23995.1,3077.88L23995.1,3182.41L23944,3182.41L23944,3077.88ZM23944,2868.82L23995.1,2868.82L23995.1,2973.34L23944,2973.34L23944,2868.82ZM23944,2659.78L23995.1,2659.78L23995.1,2764.3L23944,2764.3L23944,2659.78ZM23944,2450.73L23995.1,2450.73L23995.1,2555.25L23944,2555.25L23944,2450.73ZM23944,2241.69L23995.1,2241.69L23995.1,2346.22L23944,2346.22L23944,2241.69ZM23944,2032.65L23995.1,2032.65L23995.1,2137.18L23944,2137.18L23944,2032.65ZM23944,1823.6L23995.1,1823.6L23995.1,1928.12L23944,1928.12L23944,1823.6ZM23944,1614.56L23995.1,1614.56L23995.1,1719.09L23944,1719.09L23944,1614.56ZM23944,1405.51L23995.1,1405.51L23995.1,1510.03L23944,1510.03L23944,1405.51ZM23944,1196.46L23995.1,1196.46L23995.1,1300.98L23944,1300.98L23944,1196.46ZM23944,987.419L23995.1,987.419L23995.1,1091.94L23944,1091.94L23944,987.419ZM23944,778.374L23995.1,778.374L23995.1,882.897L23944,882.897L23944,778.374ZM23944,569.328L23995.1,569.328L23995.1,673.851L23944,673.851L23944,569.328Z" style="fill:rgb(127,127,127);"/>
            </g>
        </g>
        <g transform="matrix(1.96053,0,0,1.70483,364.934,325.233)">
            <g id="Bounding-box" serif:id="Bounding box">
                <path d="M240.573,98.374L328.515,158.334L89.295,158.334L208.905,98.46L240.573,98.374Z" style="fill:rgb(234,234,234);fill-opacity:0.8;"/>
            </g>
        </g>
        <g id="cardinal-direction" serif:id="cardinal direction" transform="matrix(0.168986,0.137772,-0.119697,0.220314,-6888.03,11305.9)">
            <g transform="matrix(0.999531,-0.0287655,0.0325823,0.999531,1745.17,154.476)">
                <g transform="matrix(-0.151565,0.928749,-1.05198,-0.151565,-49064.2,-67373.5)">
                    <g transform="matrix(3.60822e-16,3.04013,-4.0676,7.77156e-16,6450.07,-53820.8)">
                        <path d="M114.666,32.2L120.759,51.271L108.572,51.271L114.666,32.2Z" style="fill:rgb(234,234,234);"/>
                        <path d="M114.666,32.2L120.759,51.271L108.572,51.271L114.666,32.2ZM114.666,37.117L110.53,50.06L118.801,50.06L114.666,37.117Z" style="fill:rgb(127,127,127);"/>
                    </g>
                    <g transform="matrix(2.77556e-17,-3.04013,4.0676,-2.91434e-16,6032.97,-53123.6)">
                        <path d="M114.666,32.2L120.759,51.271L108.572,51.271L114.666,32.2Z" style="fill:rgb(127,127,127);"/>
                        <path d="M114.666,32.2L120.759,51.271L108.572,51.271L114.666,32.2ZM114.666,37.117L110.53,50.06L118.801,50.06L114.666,37.117Z" style="fill:rgb(127,127,127);"/>
                    </g>
                </g>
                <g transform="matrix(5.2769,0,0,6.6878,3443.51,-55126.3)">
                    <path d="M530.238,233.354C540.647,233.354 549.098,239.62 549.098,247.337C549.098,255.054 540.647,261.319 530.238,261.319C519.829,261.319 511.378,255.054 511.378,247.337C511.378,239.62 519.829,233.354 530.238,233.354ZM530.238,236.469C522.147,236.469 515.579,241.339 515.579,247.337C515.579,253.335 522.147,258.205 530.238,258.205C538.329,258.205 544.897,253.335 544.897,247.337C544.897,241.339 538.329,236.469 530.238,236.469Z" style="fill:rgb(127,127,127);"/>
                </g>
            </g>
            <g transform="matrix(-2.79922,1.75048,-1.86299,-2.63015,6317.06,-53649.4)">
                <g transform="matrix(23.4414,0,0,23.4414,22.1103,0)">
                </g>
                <text x="5.182px" y="0px" style="font-family:'ArialMT', 'Arial';font-size:23.441px;fill:rgb(127,127,127);">N</text>
            </g>
        </g>
    </g>
</svg>
