<?xml version="1.0" encoding="UTF-8" standalone="no"?>
<!DOCTYPE svg PUBLIC "-//W3C//DTD SVG 1.1//EN" "http://www.w3.org/Graphics/SVG/1.1/DTD/svg11.dtd">
<svg width="100%" height="100%" viewBox="0 0 469 200" version="1.1" xmlns="http://www.w3.org/2000/svg" xmlns:xlink="http://www.w3.org/1999/xlink" xml:space="preserve" xmlns:serif="http://www.serif.com/" style="fill-rule:evenodd;clip-rule:evenodd;stroke-linejoin:round;stroke-miterlimit:10;">
    <g transform="matrix(1,0,0,0.816327,-540,-285.714)">
        <g id="Street" transform="matrix(0.652961,0,0,0.799877,540,362.121)">
            <g transform="matrix(0.0299978,0,0,0.0299989,0,2.00018e-12)">
                <path d="M11888,5468L15154,5450L23686,9706L354,9706L11888,5468Z" style="fill:rgb(200,200,200);"/>
            </g>
            <g transform="matrix(0.0149989,0,0,0.0149995,0,0)">
                <path d="M23691,10926L23972,10916L1053,19411L-4,19420L23691,10926Z" style="fill:white;"/>
            </g>
            <g transform="matrix(0.0299978,0,0,0.0299989,0,0)">
                <path d="M15178,5463L15074,5458L23298,9706L23942,9710L15178,5463Z" style="fill:white;"/>
            </g>
            <g transform="matrix(0.0149989,0,0,0.0149995,0,0)">
                <path d="M23115,16734L23708,16724L22045,19402L21276,19420L23115,16734Z" style="fill:white;"/>
            </g>
            <g transform="matrix(0.0149989,0,0,0.0149995,2.55516,-2.65737)">
                <path d="M26061,12433L26348,12428L25544,13716L25172,13724L26061,12433Z" style="fill:white;"/>
            </g>
            <g transform="matrix(0.0219371,0,0,0.019512,-197.893,-29.0358)">
                <path d="M25991.2,12433L26278.2,12428L25544,13716L25172,13724L25991.2,12433Z" style="fill:white;"/>
            </g>
            <g transform="matrix(0.0149989,0,0,0.0149995,0,0)">
                <path d="M27042,11039L27204,11036L26750,11767L26540,11772L27042,11039Z" style="fill:white;"/>
            </g>
        </g>
        <g id="Vegetation" transform="matrix(0.652961,0,0,0.799877,540.978,353.753)">
            <g transform="matrix(-0.0299978,0,0,0.0299989,785.887,-13.231)">
                <path d="M19461.3,2356.63L21833.7,2335.57L21833.7,7569.05L19460.8,7587.4L19461.3,2356.63Z" style="fill:none;stroke:rgb(127,127,127);stroke-width:51.05px;stroke-dasharray:102.1,102.1,0,0,0,0;"/>
            </g>
            <g transform="matrix(-0.0299978,0,0,0.0299989,781.293,-13.231)">
                <path d="M19307.6,7587.4L20679.9,8067.71" style="fill:none;stroke:rgb(127,127,127);stroke-width:51.05px;stroke-dasharray:102.1,102.1,0,0,0,0;"/>
            </g>
            <g transform="matrix(-0.0299978,0,0,0.0299989,781.293,-13.231)">
                <path d="M21680.5,7587.4L23052.7,8067.71" style="fill:none;stroke:rgb(127,127,127);stroke-width:51.05px;stroke-dasharray:102.1,102.1,0,0,0,0;"/>
            </g>
            <g transform="matrix(-0.0299978,0,0,0.0299989,781.293,-13.231)">
                <path d="M21680.5,2335.57L23052.7,2815.88" style="fill:none;stroke:rgb(127,127,127);stroke-width:51.05px;stroke-dasharray:102.1,102.1,0,0,0,0;"/>
            </g>
            <g transform="matrix(1,0,0,1,14.8221,-0.604974)">
                <g transform="matrix(0.0299978,0,0,0.0299989,3.06297,2.00018e-12)">
                    <path d="M3786.76,7402.24C4186.91,7149.15 3968.15,5027.9 3968.15,5027.9L4448.39,5020.91C4448.39,5020.91 4403.19,7358.06 4626.51,7395.13C4678.27,7403.72 3780.29,7406.33 3786.76,7402.24Z" style="fill:rgb(216,163,125);"/>
                </g>
                <g transform="matrix(1.88706,0,0,3.16495,-871.307,-672.71)">
                    <ellipse cx="530.238" cy="247.337" rx="18.86" ry="13.983" style="fill:rgb(134,182,172);"/>
                </g>
            </g>
            <g transform="matrix(-0.0299978,0,0,0.0299989,744.723,1.17781)">
                <path d="M19461.3,2356.63L21833.7,2335.57L21833.7,7569.05L19460.8,7587.4L19461.3,2356.63Z" style="fill:none;stroke:rgb(127,127,127);stroke-width:51.05px;stroke-dasharray:102.1,102.1,0,0,0,0;"/>
            </g>
            <g transform="matrix(-0.0299978,0,0,0.0299989,781.293,-13.231)">
                <path d="M19300.8,2335.57L20679.9,2815.88" style="fill:none;stroke:rgb(127,127,127);stroke-width:51.05px;stroke-dasharray:102.1,102.1,0,0,0,0;"/>
            </g>
        </g>
        <g id="Buildings" transform="matrix(0.652961,0,0,0.799877,540,362.121)">
            <g id="Bounding-box" serif:id="Bounding box">
                <g transform="matrix(0.0299978,0,0,0.0299989,-67.6208,-23.169)">
                    <path d="M19465,6971.47L19409.9,6971.42L19410.1,6917.9L19461.2,6918.09L19461.2,6920.42L19465,6920.42L19465,6971.47ZM19410.9,6703.83L19462,6704.01L19461.6,6811.05L19410.5,6810.86L19410.9,6703.83ZM19411.7,6489.74L19462.7,6489.93L19462.3,6596.97L19411.3,6596.78L19411.7,6489.74ZM19412.5,6275.67L19463.5,6275.86L19463.1,6382.9L19412.1,6382.71L19412.5,6275.67ZM19413.3,6061.59L19464.3,6061.78L19463.9,6168.82L19412.9,6168.63L19413.3,6061.59ZM19414.1,5847.52L19465.1,5847.71L19464.7,5954.75L19413.7,5954.56L19414.1,5847.52ZM19414.8,5633.44L19465.9,5633.63L19465.5,5740.67L19414.4,5740.48L19414.8,5633.44ZM19415.6,5419.36L19466.7,5419.55L19466.3,5526.59L19415.2,5526.4L19415.6,5419.36ZM19416.4,5205.29L19467.5,5205.48L19467.1,5312.52L19416,5312.33L19416.4,5205.29ZM19417.2,4991.22L19468.3,4991.4L19467.9,5098.44L19416.8,5098.25L19417.2,4991.22ZM19418,4777.14L19469,4777.32L19468.7,4884.36L19417.6,4884.17L19418,4777.14ZM19418.8,4563.06L19469.8,4563.25L19469.4,4670.29L19418.4,4670.1L19418.8,4563.06ZM19419.6,4348.98L19470.6,4349.17L19470.2,4456.21L19419.2,4456.02L19419.6,4348.98ZM19420.4,4134.91L19471.4,4135.1L19471,4242.13L19420,4241.95L19420.4,4134.91ZM19421.1,3920.83L19472.2,3921.01L19471.8,4028.05L19420.8,4027.87L19421.1,3920.83ZM19421.9,3706.76L19473,3706.95L19472.6,3813.98L19421.5,3813.8L19421.9,3706.76ZM19422.7,3492.68L19473.8,3492.87L19473.4,3599.91L19422.3,3599.72L19422.7,3492.68ZM19477.2,3332.08L19477.3,3383.13L19474.2,3383.13L19474.2,3385.83L19423.1,3385.64L19423.1,3382.99L19423.3,3383.17L19423.6,3332.12L19477.2,3332.08ZM19693,3331.91L19693,3382.96L19585.1,3383.04L19585.1,3331.99L19693,3331.91ZM19908.7,3331.74L19908.7,3382.79L19800.8,3382.88L19800.8,3331.82L19908.7,3331.74ZM20124.4,3331.57L20124.4,3382.62L20016.6,3382.7L20016.5,3331.65L20124.4,3331.57ZM20340.1,3331.4L20340.1,3382.45L20232.3,3382.54L20232.2,3331.49L20340.1,3331.4ZM20555.8,3331.23L20555.8,3382.28L20448,3382.37L20447.9,3331.32L20555.8,3331.23ZM20771.5,3331.06L20771.5,3382.11L20663.7,3382.2L20663.6,3331.15L20771.5,3331.06ZM20987.2,3330.89L20987.2,3381.94L20879.4,3382.03L20879.3,3330.98L20987.2,3330.89ZM21202.9,3330.72L21202.9,3381.77L21095.1,3381.86L21095.1,3330.81L21202.9,3330.72ZM21418.6,3330.55L21418.7,3381.61L21310.8,3381.69L21310.8,3330.64L21418.6,3330.55ZM21634.3,3330.38L21634.4,3381.43L21526.5,3381.52L21526.5,3330.47L21634.3,3330.38ZM21796.7,3383.84L21745.6,3384.36L21745.6,3381.35L21742.2,3381.35L21742.2,3330.3L21795.8,3330.26L21796.1,3381.31L21796.6,3380.79L21796.7,3383.84ZM21798.9,3598.16L21747.8,3598.68L21746.7,3491.53L21797.8,3491L21798.9,3598.16ZM21801.1,3812.48L21750,3813.01L21748.9,3705.85L21800,3705.32L21801.1,3812.48ZM21803.3,4026.8L21752.2,4027.33L21751.1,3920.17L21802.2,3919.64L21803.3,4026.8ZM21805.5,4241.13L21754.4,4241.65L21753.3,4134.49L21804.4,4133.97L21805.5,4241.13ZM21807.7,4455.44L21756.7,4455.97L21755.5,4348.81L21806.6,4348.28L21807.7,4455.44ZM21809.9,4669.76L21758.9,4670.29L21757.8,4563.13L21808.8,4562.6L21809.9,4669.76ZM21812.1,4884.09L21761.1,4884.62L21760,4777.46L21811,4776.93L21812.1,4884.09ZM21814.3,5098.4L21763.3,5098.93L21762.2,4991.77L21813.2,4991.24L21814.3,5098.4ZM21816.5,5312.73L21765.5,5313.25L21764.4,5206.09L21815.4,5205.57L21816.5,5312.73ZM21818.7,5527.05L21767.7,5527.58L21766.6,5420.42L21817.6,5419.89L21818.7,5527.05ZM21821,5741.37L21769.9,5741.9L21768.8,5634.74L21819.9,5634.21L21821,5741.37ZM21823.2,5955.7L21772.1,5956.22L21771,5849.06L21822.1,5848.53L21823.2,5955.7ZM21825.4,6170.01L21774.3,6170.54L21773.2,6063.38L21824.3,6062.85L21825.4,6170.01ZM21827.6,6384.34L21776.5,6384.86L21775.4,6277.7L21826.5,6277.18L21827.6,6384.34ZM21829.8,6598.65L21778.7,6599.18L21777.6,6492.02L21828.7,6491.49L21829.8,6598.65ZM21832,6812.98L21781,6813.5L21779.8,6706.34L21830.9,6705.82L21832,6812.98ZM21778.6,6973.67L21778.6,6922.62L21782.1,6922.62L21782.1,6920.66L21833.1,6920.14L21833.7,6973.72L21778.6,6973.67ZM21558.2,6973.46L21558.3,6922.41L21668.5,6922.51L21668.4,6973.56L21558.2,6973.46ZM21337.9,6973.25L21337.9,6922.2L21448.1,6922.3L21448.1,6973.35L21337.9,6973.25ZM21117.6,6973.04L21117.6,6921.99L21227.8,6922.09L21227.7,6973.15L21117.6,6973.04ZM20897.2,6972.83L20897.3,6921.78L21007.4,6921.88L21007.4,6972.94L20897.2,6972.83ZM20676.9,6972.62L20676.9,6921.57L20787.1,6921.68L20787,6972.73L20676.9,6972.62ZM20456.5,6972.41L20456.6,6921.36L20566.7,6921.47L20566.7,6972.52L20456.5,6972.41ZM20236.2,6972.2L20236.2,6921.15L20346.4,6921.26L20346.4,6972.31L20236.2,6972.2ZM20015.8,6971.99L20015.9,6920.94L20126.1,6921.05L20126,6972.1L20015.8,6971.99ZM19795.5,6971.79L19795.6,6920.73L19905.7,6920.84L19905.7,6971.89L19795.5,6971.79ZM19575.2,6971.58L19575.2,6920.53L19685.4,6920.63L19685.3,6971.68L19575.2,6971.58Z" style="fill:rgb(127,127,127);"/>
                </g>
                <g transform="matrix(-0.0299978,0,0,0.0299989,781.293,-13.231)">
                    <path d="M6056.71,6608.5L2101.04,7523.38" style="fill:none;stroke:rgb(127,127,127);stroke-width:51.05px;stroke-dasharray:102.1,102.1,0,0,0,0;"/>
                </g>
                <g transform="matrix(-0.0299978,0,0,0.0299989,781.293,-13.231)">
                    <path d="M6106.62,3027.51L2101.04,1657.7" style="fill:none;stroke:rgb(127,127,127);stroke-width:51.05px;stroke-dasharray:102.1,102.1,0,0,0,0;"/>
                </g>
                <g transform="matrix(1,0,0,1,-55.356,-24.8043)">
                    <g transform="matrix(0.0299978,0,0,0.0299989,0,2.00018e-12)">
                        <path d="M19056.2,4241.4L23944,2331.23L23944,9140.38L19052.5,6994.29L19056.2,4241.4Z" style="fill:rgb(237,213,191);"/>
                    </g>
                    <g transform="matrix(0.0299978,0,0,0.0299989,0,2.00018e-12)">
                        <path d="M23944,2331.23L25789.3,2379.06L25789.3,9140.38L23944,9140.38L23944,2331.23Z" style="fill:rgb(237,213,191);"/>
                    </g>
                    <g transform="matrix(0.0299978,0,0,0.0299989,0,2.00018e-12)">
                        <path d="M20600,5634.99L21491,5738L21491,8054.63L20600,7663.46L20600,5634.99Z" style="fill:rgb(234,234,234);fill-opacity:0.5;"/>
                    </g>
                    <g transform="matrix(0.0299978,0,0,0.0299989,-37.6786,-27.1639)">
                        <path d="M20605.5,5653.37L21504.1,5545.04L21504.8,6736.1L20604.6,6698.43L20605.5,5653.37Z" style="fill:rgb(234,234,234);fill-opacity:0.5;"/>
                    </g>
                    <g transform="matrix(0.0299978,0,0,0.0299989,45.1531,-22.7987)">
                        <path d="M20610.1,5120.43L21897.9,4938.6L21899.9,6754.47L20604.6,6698.43L20610.1,5120.43Z" style="fill:rgb(234,234,234);fill-opacity:0.5;"/>
                    </g>
                    <g transform="matrix(0.0299978,0,0,0.0299989,0,2.00018e-12)">
                        <path d="M19037.9,4241.4L19532.8,3394.55L25141.2,321.689L23944,2331.23L19037.9,4241.4Z" style="fill:rgb(212,127,137);stroke:rgb(127,127,127);stroke-width:25.53px;"/>
                    </g>
                    <g transform="matrix(0.0299978,0,0,0.0299989,0,2.00018e-12)">
                        <path d="M25789.3,2378.31L25789.3,1061.98L25141.2,321.689L23944,2331.23L25789.3,2378.31Z" style="fill:rgb(212,127,137);stroke:rgb(127,127,127);stroke-width:25.53px;"/>
                    </g>
                </g>
                <g transform="matrix(-0.0299978,0,0,0.0299989,781.293,-13.231)">
                    <path d="M8862.06,3047.96L8875.13,3000.51L8831.63,2973.32L8804.58,3016.62L8848.07,3043.8L8862.06,3047.96ZM8716.67,2961.69L8743.73,2918.4L8655.82,2863.47L8628.76,2906.76L8716.67,2961.69ZM8540.85,2851.83L8567.91,2808.53L8480,2753.61L8452.95,2796.9L8540.85,2851.83ZM8365.04,2741.97L8392.09,2698.68L8304.18,2643.74L8277.13,2687.04L8365.04,2741.97ZM8189.22,2632.11L8216.28,2588.82L8128.37,2533.89L8101.32,2577.18L8189.22,2632.11ZM8013.42,2522.26L8040.47,2478.96L7952.56,2424.03L7925.51,2467.33L8013.42,2522.26ZM7837.59,2412.39L7864.65,2369.1L7776.74,2314.17L7749.69,2357.46L7837.59,2412.39ZM7661.78,2302.53L7688.83,2259.24L7600.93,2204.31L7573.87,2247.61L7661.78,2302.53ZM7485.97,2192.68L7513.02,2149.39L7425.12,2094.46L7398.06,2137.75L7485.97,2192.68ZM7310.15,2082.82L7337.21,2039.53L7249.3,1984.6L7222.25,2027.89L7310.15,2082.82ZM7134.34,1972.96L7161.39,1929.67L7073.49,1874.74L7046.44,1918.03L7134.34,1972.96ZM6958.52,1863.1L6985.58,1819.81L6897.67,1764.88L6870.61,1808.17L6958.52,1863.1ZM6782.71,1753.25L6809.77,1709.95L6721.86,1655.02L6694.8,1698.31L6782.71,1753.25ZM6606.9,1643.39L6633.96,1600.1L6546.05,1545.16L6518.99,1588.46L6606.9,1643.39ZM6431.08,1533.53L6458.13,1490.23L6370.23,1435.3L6343.17,1478.6L6431.08,1533.53ZM6255.27,1423.67L6282.32,1380.37L6194.42,1325.45L6167.36,1368.74L6255.27,1423.67ZM6079.45,1313.81L6106.51,1270.52L6018.6,1215.59L5991.55,1258.88L6079.45,1313.81ZM5903.64,1203.95L5930.69,1160.66L5842.78,1105.73L5815.73,1149.02L5903.64,1203.95ZM5727.83,1094.1L5754.88,1050.8L5666.98,995.873L5639.92,1039.17L5727.83,1094.1ZM5552.01,984.234L5579.07,940.94L5491.16,886.01L5464.1,929.304L5552.01,984.234ZM5376.21,874.382L5403.26,831.088L5315.35,776.159L5288.3,819.452L5376.21,874.382ZM5200.39,764.518L5227.44,721.225L5139.53,666.295L5112.48,709.589L5200.39,764.518ZM5024.57,654.663L5051.63,611.369L4963.72,556.439L4936.67,599.733L5024.57,654.663ZM4848.76,544.802L4875.81,501.508L4787.9,446.578L4760.85,489.872L4848.76,544.802ZM4672.95,434.945L4700,391.651L4612.09,336.722L4585.04,380.016L4672.95,434.945ZM4497.13,325.085L4524.18,281.791L4436.28,226.862L4409.22,270.156L4497.13,325.085ZM4321.31,215.226L4348.37,171.932L4260.46,117.003L4233.41,160.297L4321.31,215.226ZM4145.5,105.369L4172.56,62.075L4084.65,7.146L4057.59,50.439L4145.5,105.369ZM3969.69,-4.49L3996.74,-47.784L3953.24,-74.964L3939.26,-28.076L3926.19,-31.67L3969.69,-4.49Z" style="fill:rgb(127,127,127);"/>
                </g>
                <g transform="matrix(-0.0299978,0,0,0.0299989,781.293,-13.231)">
                    <path d="M8878.74,6617.56L3939.26,8783.37" style="fill:none;stroke:rgb(127,127,127);stroke-width:51.05px;stroke-dasharray:102.1,102.1,0,0,0,0;"/>
                </g>
                <g transform="matrix(3.00252,0,0,2.13137,-268.111,-46.118)">
                    <path d="M240.573,98.374L328.515,158.334L89.295,158.334L208.905,98.46L240.573,98.374Z" style="fill:rgb(234,234,234);fill-opacity:0.8;"/>
                </g>
                <g transform="matrix(0.0299978,0,0,0.0299989,-55.356,-24.8043)">
                    <path d="M23944,373.265L23944,372.741L23944.3,321.689L23995.3,321.689L23995.3,372.741L23995.1,372.741L23995.1,373.265L23944,373.265ZM24200.3,321.689L24200.3,372.741L24097.8,372.741L24097.8,321.689L24200.3,321.689ZM24405.3,321.689L24405.3,372.741L24302.8,372.741L24302.8,321.689L24405.3,321.689ZM24610.4,321.689L24610.4,372.741L24507.9,372.741L24507.9,321.689L24610.4,321.689ZM24815.4,321.689L24815.4,372.741L24712.9,372.741L24712.9,321.689L24815.4,321.689ZM25020.4,321.689L25020.4,372.741L24917.9,372.741L24917.9,321.689L25020.4,321.689ZM25225.5,321.689L25225.5,372.741L25123,372.741L25123,321.689L25225.5,321.689ZM25430.5,321.689L25430.5,372.741L25328,372.741L25328,321.689L25430.5,321.689ZM25635.6,321.689L25635.6,372.741L25533,372.741L25533,321.689L25635.6,321.689ZM25789.3,373.265L25738.3,373.265L25738.3,372.741L25738.1,372.741L25738.1,321.689L25789.1,321.689L25789.3,372.741L25789.3,373.265ZM25789.3,579.558L25738.3,579.558L25738.3,476.412L25789.3,476.412L25789.3,579.558ZM25789.3,785.861L25738.3,785.861L25738.3,682.709L25789.3,682.709L25789.3,785.861ZM25789.3,992.162L25738.3,992.162L25738.3,889.011L25789.3,889.011L25789.3,992.162ZM25789.3,1198.45L25738.3,1198.45L25738.3,1095.3L25789.3,1095.3L25789.3,1198.45ZM25789.3,1404.76L25738.3,1404.76L25738.3,1301.6L25789.3,1301.6L25789.3,1404.76ZM25789.3,1611.05L25738.3,1611.05L25738.3,1507.89L25789.3,1507.89L25789.3,1611.05ZM25789.3,1817.35L25738.3,1817.35L25738.3,1714.19L25789.3,1714.19L25789.3,1817.35ZM25789.3,2023.64L25738.3,2023.64L25738.3,1920.49L25789.3,1920.49L25789.3,2023.64ZM25789.3,2229.93L25738.3,2229.93L25738.3,2126.79L25789.3,2126.79L25789.3,2229.93ZM25789.3,2436.22L25738.3,2436.22L25738.3,2333.08L25789.3,2333.08L25789.3,2436.22ZM25789.3,2642.53L25738.3,2642.53L25738.3,2539.38L25789.3,2539.38L25789.3,2642.53ZM25789.3,2848.82L25738.3,2848.82L25738.3,2745.68L25789.3,2745.68L25789.3,2848.82ZM25789.3,3055.12L25738.3,3055.12L25738.3,2951.97L25789.3,2951.97L25789.3,3055.12ZM25789.3,3261.42L25738.3,3261.42L25738.3,3158.27L25789.3,3158.27L25789.3,3261.42ZM25789.3,3467.73L25738.3,3467.73L25738.3,3364.58L25789.3,3364.58L25789.3,3467.73ZM25789.3,3674.01L25738.3,3674.01L25738.3,3570.87L25789.3,3570.87L25789.3,3674.01ZM25789.3,3880.31L25738.3,3880.31L25738.3,3777.17L25789.3,3777.17L25789.3,3880.31ZM25789.3,4086.59L25738.3,4086.59L25738.3,3983.45L25789.3,3983.45L25789.3,4086.59ZM25789.3,4292.92L25738.3,4292.92L25738.3,4189.77L25789.3,4189.77L25789.3,4292.92ZM25789.3,4499.21L25738.3,4499.21L25738.3,4396.06L25789.3,4396.06L25789.3,4499.21ZM25789.3,4705.49L25738.3,4705.49L25738.3,4602.35L25789.3,4602.35L25789.3,4705.49ZM25789.3,4911.81L25738.3,4911.81L25738.3,4808.65L25789.3,4808.65L25789.3,4911.81ZM25789.3,5118.08L25738.3,5118.08L25738.3,5014.94L25789.3,5014.94L25789.3,5118.08ZM25789.3,5324.38L25738.3,5324.38L25738.3,5221.23L25789.3,5221.23L25789.3,5324.38ZM25789.3,5530.67L25738.3,5530.67L25738.3,5427.53L25789.3,5427.53L25789.3,5530.67ZM25789.3,5736.98L25738.3,5736.98L25738.3,5633.83L25789.3,5633.83L25789.3,5736.98ZM25789.3,5943.27L25738.3,5943.27L25738.3,5840.12L25789.3,5840.12L25789.3,5943.27ZM25789.3,6149.58L25738.3,6149.58L25738.3,6046.43L25789.3,6046.43L25789.3,6149.58ZM25789.3,6355.88L25738.3,6355.88L25738.3,6252.73L25789.3,6252.73L25789.3,6355.88ZM25789.3,6562.16L25738.3,6562.16L25738.3,6459.01L25789.3,6459.01L25789.3,6562.16ZM25789.3,6768.47L25738.3,6768.47L25738.3,6665.32L25789.3,6665.32L25789.3,6768.47ZM25789.3,6974.77L25738.3,6974.77L25738.3,6871.62L25789.3,6871.62L25789.3,6974.77ZM25789.3,7181.06L25738.3,7181.06L25738.3,7077.91L25789.3,7077.91L25789.3,7181.06ZM25789.3,7387.36L25738.3,7387.36L25738.3,7284.21L25789.3,7284.21L25789.3,7387.36ZM25789.3,7593.65L25738.3,7593.65L25738.3,7490.5L25789.3,7490.5L25789.3,7593.65ZM25789.3,7799.96L25738.3,7799.96L25738.3,7696.81L25789.3,7696.81L25789.3,7799.96ZM25789.3,8006.24L25738.3,8006.24L25738.3,7903.1L25789.3,7903.1L25789.3,8006.24ZM25789.3,8212.54L25738.3,8212.54L25738.3,8109.4L25789.3,8109.4L25789.3,8212.54ZM25789.3,8418.85L25738.3,8418.85L25738.3,8315.7L25789.3,8315.7L25789.3,8418.85ZM25789.3,8625.14L25738.3,8625.14L25738.3,8521.99L25789.3,8521.99L25789.3,8625.14ZM25789.3,8831.43L25738.3,8831.43L25738.3,8728.29L25789.3,8728.29L25789.3,8831.43ZM25789.3,9037.73L25738.3,9037.73L25738.3,8934.58L25789.3,8934.58L25789.3,9037.73ZM25738.1,9192.45L25738.1,9141.4L25738.3,9141.4L25738.3,9140.88L25789.3,9140.88L25789.3,9192.45L25738.1,9192.45ZM25533,9192.45L25533,9141.4L25635.6,9141.4L25635.6,9192.45L25533,9192.45ZM25328,9192.45L25328,9141.4L25430.5,9141.4L25430.5,9192.45L25328,9192.45ZM25123,9192.45L25123,9141.4L25225.5,9141.4L25225.5,9192.45L25123,9192.45ZM24917.9,9192.45L24917.9,9141.4L25020.4,9141.4L25020.4,9192.45L24917.9,9192.45ZM24712.9,9192.45L24712.9,9141.4L24815.4,9141.4L24815.4,9192.45L24712.9,9192.45ZM24507.9,9192.45L24507.9,9141.4L24610.4,9141.4L24610.4,9192.45L24507.9,9192.45ZM24302.8,9192.45L24302.8,9141.4L24405.3,9141.4L24405.3,9192.45L24302.8,9192.45ZM24097.8,9192.45L24097.8,9141.4L24200.3,9141.4L24200.3,9192.45L24097.8,9192.45ZM23944,9140.88L23995.1,9140.88L23995.1,9141.4L23995.3,9141.4L23995.3,9192.45L23944,9192.45L23944,9140.88ZM23944,8934.59L23995.1,8934.59L23995.1,9037.73L23944,9037.73L23944,8934.59ZM23944,8728.28L23995.1,8728.28L23995.1,8831.43L23944,8831.43L23944,8728.28ZM23944,8521.98L23995.1,8521.98L23995.1,8625.13L23944,8625.13L23944,8521.98ZM23944,8315.7L23995.1,8315.7L23995.1,8418.84L23944,8418.84L23944,8315.7ZM23944,8109.39L23995.1,8109.39L23995.1,8212.54L23944,8212.54L23944,8109.39ZM23944,7903.1L23995.1,7903.1L23995.1,8006.25L23944,8006.25L23944,7903.1ZM23944,7696.8L23995.1,7696.8L23995.1,7799.95L23944,7799.95L23944,7696.8ZM23944,7490.5L23995.1,7490.5L23995.1,7593.66L23944,7593.66L23944,7490.5ZM23944,7284.21L23995.1,7284.21L23995.1,7387.35L23944,7387.35L23944,7284.21ZM23944,7077.92L23995.1,7077.92L23995.1,7181.07L23944,7181.07L23944,7077.92ZM23944,6871.61L23995.1,6871.61L23995.1,6974.76L23944,6974.76L23944,6871.61ZM23944,6665.32L23995.1,6665.32L23995.1,6768.47L23944,6768.47L23944,6665.32ZM23944,6459.03L23995.1,6459.03L23995.1,6562.18L23944,6562.18L23944,6459.03ZM23944,6252.72L23995.1,6252.72L23995.1,6355.87L23944,6355.87L23944,6252.72ZM23944,6046.42L23995.1,6046.42L23995.1,6149.57L23944,6149.57L23944,6046.42ZM23944,5840.14L23995.1,5840.14L23995.1,5943.28L23944,5943.28L23944,5840.14ZM23944,5633.83L23995.1,5633.83L23995.1,5736.98L23944,5736.98L23944,5633.83ZM23944,5427.55L23995.1,5427.55L23995.1,5530.69L23944,5530.69L23944,5427.55ZM23944,5221.22L23995.1,5221.22L23995.1,5324.38L23944,5324.38L23944,5221.22ZM23944,5014.94L23995.1,5014.94L23995.1,5118.08L23944,5118.08L23944,5014.94ZM23944,4808.65L23995.1,4808.65L23995.1,4911.8L23944,4911.8L23944,4808.65ZM23944,4602.34L23995.1,4602.34L23995.1,4705.49L23944,4705.49L23944,4602.34ZM23944,4396.06L23995.1,4396.06L23995.1,4499.21L23944,4499.21L23944,4396.06ZM23944,4189.77L23995.1,4189.77L23995.1,4292.91L23944,4292.91L23944,4189.77ZM23944,3983.47L23995.1,3983.47L23995.1,4086.62L23944,4086.62L23944,3983.47ZM23944,3777.16L23995.1,3777.16L23995.1,3880.31L23944,3880.31L23944,3777.16ZM23944,3570.88L23995.1,3570.88L23995.1,3674.02L23944,3674.02L23944,3570.88ZM23944,3364.56L23995.1,3364.56L23995.1,3467.71L23944,3467.71L23944,3364.56ZM23944,3158.26L23995.1,3158.26L23995.1,3261.41L23944,3261.41L23944,3158.26ZM23944,2951.98L23995.1,2951.98L23995.1,3055.13L23944,3055.13L23944,2951.98ZM23944,2745.67L23995.1,2745.67L23995.1,2848.82L23944,2848.82L23944,2745.67ZM23944,2539.37L23995.1,2539.37L23995.1,2642.52L23944,2642.52L23944,2539.37ZM23944,2333.08L23995.1,2333.08L23995.1,2436.23L23944,2436.23L23944,2333.08ZM23944,2126.79L23995.1,2126.79L23995.1,2229.94L23944,2229.94L23944,2126.79ZM23944,1920.5L23995.1,1920.5L23995.1,2023.64L23944,2023.64L23944,1920.5ZM23944,1714.19L23995.1,1714.19L23995.1,1817.33L23944,1817.33L23944,1714.19ZM23944,1507.9L23995.1,1507.9L23995.1,1611.05L23944,1611.05L23944,1507.9ZM23944,1301.6L23995.1,1301.6L23995.1,1404.75L23944,1404.75L23944,1301.6ZM23944,1095.3L23995.1,1095.3L23995.1,1198.45L23944,1198.45L23944,1095.3ZM23944,889.004L23995.1,889.004L23995.1,992.153L23944,992.153L23944,889.004ZM23944,682.709L23995.1,682.709L23995.1,785.858L23944,785.858L23944,682.709ZM23944,476.412L23995.1,476.412L23995.1,579.561L23944,579.561L23944,476.412Z" style="fill:rgb(127,127,127);"/>
                </g>
            </g>
        </g>
        <g id="cardinal-direction" serif:id="cardinal direction" transform="matrix(0.168986,0.137772,-0.119697,0.220314,-6888.03,11305.9)">
            <g transform="matrix(0.999531,-0.0287655,0.0325823,0.999531,1745.17,154.476)">
                <g transform="matrix(-0.151565,0.928749,-1.05198,-0.151565,-49064.2,-67373.5)">
                    <g transform="matrix(3.60822e-16,3.04013,-4.0676,7.77156e-16,6450.07,-53820.8)">
                        <path d="M114.666,32.2L120.759,51.271L108.572,51.271L114.666,32.2Z" style="fill:rgb(234,234,234);"/>
                        <path d="M114.666,32.2L120.759,51.271L108.572,51.271L114.666,32.2ZM114.666,37.117L110.53,50.06L118.801,50.06L114.666,37.117Z" style="fill:rgb(127,127,127);"/>
                    </g>
                    <g transform="matrix(2.77556e-17,-3.04013,4.0676,-2.91434e-16,6032.97,-53123.6)">
                        <path d="M114.666,32.2L120.759,51.271L108.572,51.271L114.666,32.2Z" style="fill:rgb(127,127,127);"/>
                        <path d="M114.666,32.2L120.759,51.271L108.572,51.271L114.666,32.2ZM114.666,37.117L110.53,50.06L118.801,50.06L114.666,37.117Z" style="fill:rgb(127,127,127);"/>
                    </g>
                </g>
                <g transform="matrix(5.2769,0,0,6.6878,3443.51,-55126.3)">
                    <path d="M530.238,233.354C540.647,233.354 549.098,239.62 549.098,247.337C549.098,255.054 540.647,261.319 530.238,261.319C519.829,261.319 511.378,255.054 511.378,247.337C511.378,239.62 519.829,233.354 530.238,233.354ZM530.238,236.469C522.147,236.469 515.579,241.339 515.579,247.337C515.579,253.335 522.147,258.205 530.238,258.205C538.329,258.205 544.897,253.335 544.897,247.337C544.897,241.339 538.329,236.469 530.238,236.469Z" style="fill:rgb(127,127,127);"/>
                </g>
            </g>
            <g transform="matrix(-2.79922,1.75048,-1.86299,-2.63015,6317.06,-53649.4)">
                <g transform="matrix(23.4414,0,0,23.4414,22.1103,0)">
                </g>
                <text x="5.182px" y="0px" style="font-family:'ArialMT', 'Arial';font-size:23.441px;fill:rgb(127,127,127);">N</text>
            </g>
        </g>
    </g>
</svg>
