<?xml version="1.0" encoding="UTF-8" standalone="no"?>
<!DOCTYPE svg PUBLIC "-//W3C//DTD SVG 1.1//EN" "http://www.w3.org/Graphics/SVG/1.1/DTD/svg11.dtd">
<svg width="100%" height="100%" viewBox="0 0 469 200" version="1.1" xmlns="http://www.w3.org/2000/svg" xmlns:xlink="http://www.w3.org/1999/xlink" xml:space="preserve" xmlns:serif="http://www.serif.com/" style="fill-rule:evenodd;clip-rule:evenodd;stroke-linejoin:round;stroke-miterlimit:2;">
    <g transform="matrix(1,0,0,0.816327,-540,-285.714)">
        <g id="Street" transform="matrix(0.652961,0,0,0.799877,540,362.121)">
            <g transform="matrix(0.0299978,0,0,0.0299989,0,2.00018e-12)">
                <path d="M11888,5468L15154,5450L23686,9706L354,9706L11888,5468Z" style="fill:rgb(200,200,200);"/>
            </g>
            <g transform="matrix(1.32566,0,0,0.986752,0,-24.4366)">
                <g transform="matrix(0.0299978,0,0,0.0299989,0,2.00018e-12)">
                    <path d="M2067.87,6217.48L3679.57,8021.93L0,9411.97L2067.87,6217.48Z" style="fill:rgb(200,200,200);"/>
                </g>
                <g transform="matrix(0.046087,0,0,0.0524248,0,-211.072)">
                    <path d="M1345.96,7578L2395.01,8616.55L2395.01,6773.42L1345.96,7578Z" style="fill:rgb(175,175,175);"/>
                </g>
                <g transform="matrix(0.046087,0,0,0.0524248,0,-211.072)">
                    <path d="M3469.62,7948.27L2395.01,8616.55L2395.01,6773.42L3469.62,7948.27Z" style="fill:rgb(200,200,200);"/>
                </g>
                <g transform="matrix(0.046087,0,0,0.0524248,0,-211.072)">
                    <path d="M3469.62,7948.27L5002.18,7948.27L2395.01,6773.42L3469.62,7948.27Z" style="fill:rgb(175,175,175);"/>
                </g>
                <g transform="matrix(0.046087,0,0,0.0524248,0,-211.072)">
                    <path d="M4001.26,6658.42L5002.18,7948.27L2395.01,6773.42L4001.26,6658.42Z" style="fill:rgb(200,200,200);"/>
                </g>
                <g transform="matrix(0.046087,0,0,0.0524248,0,-211.072)">
                    <path d="M3948.1,6658.42L1197.51,6492.99L2395.01,6773.42L3948.1,6658.42Z" style="fill:rgb(145,145,145);"/>
                </g>
                <g transform="matrix(0.046087,0,0,0.0524248,0,-211.072)">
                    <path d="M387.598,7360.84L1197.51,6492.99L2395.01,6773.42L387.598,7360.84Z" style="fill:rgb(100,100,100);"/>
                </g>
                <g transform="matrix(0.046087,0,0,0.0524248,0,-211.072)">
                    <path d="M387.598,7360.84L1197.51,6492.99L0,7108.37L387.598,7360.84Z" style="fill:rgb(145,145,145);"/>
                </g>
                <g transform="matrix(0.046087,0,0,0.0524248,0,-211.072)">
                    <path d="M387.598,7360.84L0,9411.97L0,7108.37L387.598,7360.84Z" style="fill:rgb(200,200,200);"/>
                </g>
                <g transform="matrix(0.046087,0,0,0.0524248,0,-211.072)">
                    <path d="M387.598,7360.84L1345.96,7583.99L2395.01,6773.42L387.598,7360.84Z" style="fill:rgb(145,145,145);"/>
                </g>
                <g transform="matrix(0.046087,0,0,0.0524248,0,-211.072)">
                    <path d="M387.598,7360.84L1345.96,7583.99L0,9411.97L387.598,7360.84Z" style="fill:rgb(175,175,175);"/>
                </g>
            </g>
            <g transform="matrix(-1.32566,0,0,0.986752,718.266,-33.4207)">
                <g transform="matrix(0.0299978,0,0,0.0299989,0,2.00018e-12)">
                    <path d="M2067.87,6217.48L3679.57,8021.93L0,9411.97L2067.87,6217.48Z" style="fill:rgb(200,200,200);"/>
                </g>
                <g transform="matrix(0.046087,0,0,0.0524248,0,-211.072)">
                    <path d="M1345.96,7578L2395.01,8616.55L2395.01,6773.42L1345.96,7578Z" style="fill:rgb(175,175,175);"/>
                </g>
                <g transform="matrix(0.046087,0,0,0.0524248,0,-211.072)">
                    <path d="M3469.62,7948.27L2395.01,8616.55L2395.01,6773.42L3469.62,7948.27Z" style="fill:rgb(200,200,200);"/>
                </g>
                <g transform="matrix(0.046087,0,0,0.0524248,0,-211.072)">
                    <path d="M3469.62,7948.27L4006.26,7948.27L2395.01,6773.42L3469.62,7948.27Z" style="fill:rgb(175,175,175);"/>
                </g>
                <g transform="matrix(0.046087,0,0,0.0524248,0,-211.072)">
                    <path d="M3814.11,7360.84L4006.26,7948.27L2395.01,6773.42L3814.11,7360.84Z" style="fill:rgb(200,200,200);"/>
                </g>
                <g transform="matrix(0.046087,0,0,0.0524248,0,-211.072)">
                    <path d="M2395.01,6773.42L1197.51,6492.99L2395.01,6773.42Z" style="fill:rgb(145,145,145);"/>
                </g>
                <g transform="matrix(0.046087,0,0,0.0524248,0,-211.072)">
                    <path d="M387.598,7360.84L1197.51,6492.99L2395.01,6773.42L387.598,7360.84Z" style="fill:rgb(100,100,100);"/>
                </g>
                <g transform="matrix(0.046087,0,0,0.0524248,0,-211.072)">
                    <path d="M387.598,7360.84L1197.51,6492.99L0,7108.37L387.598,7360.84Z" style="fill:rgb(145,145,145);"/>
                </g>
                <g transform="matrix(0.046087,0,0,0.0524248,0,-211.072)">
                    <path d="M387.598,7360.84L0,9411.97L0,7108.37L387.598,7360.84Z" style="fill:rgb(200,200,200);"/>
                </g>
                <g transform="matrix(0.046087,0,0,0.0524248,0,-211.072)">
                    <path d="M387.598,7360.84L1345.96,7583.99L2395.01,6773.42L387.598,7360.84Z" style="fill:rgb(145,145,145);"/>
                </g>
                <g transform="matrix(0.046087,0,0,0.0524248,0,-211.072)">
                    <path d="M387.598,7360.84L1345.96,7583.99L0,9411.97L387.598,7360.84Z" style="fill:rgb(175,175,175);"/>
                </g>
            </g>
            <g transform="matrix(0.0149989,0,0,0.0149995,0,0)">
                <path d="M23691,10926L23972,10916L1053,19411L-4,19420L23691,10926Z" style="fill:white;"/>
            </g>
            <g transform="matrix(0.0299978,0,0,0.0299989,0,0)">
                <path d="M15178,5463L15074,5458L23298,9706L23942,9710L15178,5463Z" style="fill:white;"/>
            </g>
            <g transform="matrix(0.0149989,0,0,0.0149995,0,0)">
                <path d="M23115,16734L23708,16724L22045,19402L21276,19420L23115,16734Z" style="fill:white;"/>
            </g>
            <g transform="matrix(0.0149989,0,0,0.0149995,2.55516,-2.65737)">
                <path d="M26061,12433L26348,12428L25544,13716L25172,13724L26061,12433Z" style="fill:white;"/>
            </g>
            <g transform="matrix(0.0219371,0,0,0.019512,-197.893,-29.0358)">
                <path d="M25991.2,12433L26278.2,12428L25544,13716L25172,13724L25991.2,12433Z" style="fill:white;"/>
            </g>
            <g transform="matrix(0.0149989,0,0,0.0149995,0,0)">
                <path d="M27042,11039L27204,11036L26750,11767L26540,11772L27042,11039Z" style="fill:white;"/>
            </g>
        </g>
        <g id="cardinal-direction" serif:id="cardinal direction" transform="matrix(0.168986,0.137772,-0.119697,0.220314,-6888.03,11305.9)">
            <g transform="matrix(0.999531,-0.0287655,0.0325823,0.999531,1745.17,154.476)">
                <g transform="matrix(-0.151565,0.928749,-1.05198,-0.151565,-49064.2,-67373.5)">
                    <g transform="matrix(3.60822e-16,3.04013,-4.0676,7.77156e-16,6450.07,-53820.8)">
                        <path d="M114.666,32.2L120.759,51.271L108.572,51.271L114.666,32.2Z" style="fill:rgb(234,234,234);"/>
                        <path d="M114.666,32.2L120.759,51.271L108.572,51.271L114.666,32.2ZM114.666,37.117L110.53,50.06L118.801,50.06L114.666,37.117Z" style="fill:rgb(127,127,127);"/>
                    </g>
                    <g transform="matrix(2.77556e-17,-3.04013,4.0676,-2.91434e-16,6032.97,-53123.6)">
                        <path d="M114.666,32.2L120.759,51.271L108.572,51.271L114.666,32.2Z" style="fill:rgb(127,127,127);"/>
                        <path d="M114.666,32.2L120.759,51.271L108.572,51.271L114.666,32.2ZM114.666,37.117L110.53,50.06L118.801,50.06L114.666,37.117Z" style="fill:rgb(127,127,127);"/>
                    </g>
                </g>
                <g transform="matrix(5.2769,0,0,6.6878,3443.51,-55126.3)">
                    <path d="M530.238,233.354C540.647,233.354 549.098,239.62 549.098,247.337C549.098,255.054 540.647,261.319 530.238,261.319C519.829,261.319 511.378,255.054 511.378,247.337C511.378,239.62 519.829,233.354 530.238,233.354ZM530.238,236.469C522.147,236.469 515.579,241.339 515.579,247.337C515.579,253.335 522.147,258.205 530.238,258.205C538.329,258.205 544.897,253.335 544.897,247.337C544.897,241.339 538.329,236.469 530.238,236.469Z" style="fill:rgb(127,127,127);"/>
                </g>
            </g>
            <g transform="matrix(-2.79922,1.75048,-1.86299,-2.63015,6317.06,-53649.4)">
                <g transform="matrix(23.4414,0,0,23.4414,22.1103,0)">
                </g>
                <text x="5.182px" y="0px" style="font-family:'ArialMT', 'Arial';font-size:23.441px;fill:rgb(127,127,127);">N</text>
            </g>
        </g>
        <g transform="matrix(1.96053,0,0,1.70483,364.934,325.232)">
            <path d="M240.573,98.374L328.515,158.334L89.295,158.334L208.905,98.46L240.573,98.374Z" style="fill:rgb(234,234,234);fill-opacity:0.8;"/>
        </g>
    </g>
</svg>
