<?xml version="1.0" encoding="UTF-8" standalone="no"?>
<!DOCTYPE svg PUBLIC "-//W3C//DTD SVG 1.1//EN" "http://www.w3.org/Graphics/SVG/1.1/DTD/svg11.dtd">
<svg width="100%" height="100%" viewBox="0 0 307 258" version="1.1" xmlns="http://www.w3.org/2000/svg" xmlns:xlink="http://www.w3.org/1999/xlink" xml:space="preserve" xmlns:serif="http://www.serif.com/" style="fill-rule:evenodd;clip-rule:evenodd;stroke-miterlimit:8;">
    <g transform="matrix(1,0,0,1,-420,-247)">
        <path d="M445.994,484.5C440.243,481.233 434.491,477.967 430.747,472.1C427.002,466.233 425.062,457.9 423.524,449.3C421.986,440.7 421.384,430.533 421.518,420.5C421.652,410.467 422.889,398.633 424.327,389.1C425.764,379.567 428.005,368.9 430.145,363.3C432.285,357.7 430.613,360.833 433.555,354.3C436.498,347.767 445.994,338 453.818,327.7C461.642,317.4 471.74,304.3 480.5,292.5" style="fill:none;stroke:rgb(127,127,127);stroke-width:1.33px;"/>
        <path d="M480.5,292.5C485.026,282.718 489.553,272.935 492.726,267.216C495.9,261.497 496.869,260.394 499.541,258.186C502.213,255.979 503.316,255.243 508.761,253.973C514.206,252.702 524.495,251.431 532.211,250.561C539.928,249.692 548.179,249.09 555.06,248.755C561.942,248.421 568.222,248.488 573.5,248.555" style="fill:none;stroke:rgb(127,127,127);stroke-width:1.33px;"/>
        <g transform="matrix(1,0,0,1,2.42253,-28.7676)">
            <path d="M573.5,323.5L540.188,323.304C530.646,323.011 522.301,322.261 516.251,321.739C510.2,321.217 506.809,320.793 503.883,320.174C500.958,319.554 499.761,318.967 498.697,318.022C497.633,317.076 497.567,315.788 497.5,314.5" style="fill:none;stroke:rgb(127,127,127);stroke-width:1.33px;"/>
        </g>
        <g transform="matrix(1,0,0,1,2.42254,-29.0704)">
            <path d="M503.5,293.5C501.5,297.883 499.5,302.233 498.5,305.9C497.5,309.567 497.5,312.617 497.5,315.5" style="fill:none;stroke:rgb(127,127,127);stroke-width:1.33px;"/>
        </g>
        <g transform="matrix(1,0,0,1,1.8169,-28.7676)">
            <path d="M503.5,294.5C504.267,292.727 505.033,290.954 507.9,289.819C510.767,288.684 513.267,288.472 520.7,287.692C528.133,286.911 543.533,285.67 552.5,285.138C561.467,284.607 567.983,284.553 574.5,284.5" style="fill:none;stroke:rgb(127,127,127);stroke-width:1.33px;"/>
        </g>
        <path d="M445.603,484.397L452.884,482.998" style="fill:none;stroke:rgb(127,127,127);stroke-width:1.33px;"/>
        <path d="M474.5,498.5C467.258,496.616 460.016,494.733 456.452,493.569C452.889,492.404 453.935,492.336 453.118,491.514C452.3,490.692 451.744,489.596 451.548,488.637C451.352,487.678 451.81,486.616 451.94,485.76C452.071,484.904 452.202,484.202 452.333,483.5" style="fill:none;stroke:rgb(127,127,127);stroke-width:1.33px;"/>
        <path d="M487.331,484.67C486.123,489.359 484.978,495.114 483.664,497.441C482.35,499.769 481.142,499.263 479.615,499.465C478.088,499.667 475.886,498.964 474.279,498.5" style="fill:none;stroke:rgb(127,127,127);stroke-width:1.33px;"/>
        <g transform="matrix(1,0,0,1,0.769162,0.170152)">
            <path d="M486.303,484.898C487.188,484.237 488.441,484.418 489.102,485.303C489.301,485.569 489.363,485.45 489.479,486.21" style="fill:none;stroke:rgb(127,127,127);stroke-width:1.33px;"/>
        </g>
        <path d="M490.248,486.05C489.385,488.519 488.183,491.438 488.615,492.583C489.047,493.727 490.773,493.547 492.5,493.368" style="fill:none;stroke:rgb(127,127,127);stroke-width:1.33px;"/>
        <path d="M498.5,498.5C496.7,497.327 494.067,496 492.9,495.167C491.733,494.333 491.7,493.932 491.5,493.5" style="fill:none;stroke:rgb(127,127,127);stroke-width:1.33px;"/>
        <path d="M497.83,498.46C499.673,497.493 502.348,496.286 504.515,495.81C506.682,495.334 509.084,495.374 511.509,495.5" style="fill:none;stroke:rgb(127,127,127);stroke-width:1.33px;"/>
        <path d="M565.048,496.938L511.5,495.5" style="fill:none;stroke:rgb(127,127,127);stroke-width:1.33px;"/>
        <path d="M564.5,496.5C565.5,498.799 566.633,501.098 567.3,502.265C567.967,503.431 567.9,503.466 568.5,503.5" style="fill:none;stroke:rgb(127,127,127);stroke-width:1.33px;"/>
        <path d="M571.5,496.5C570.603,499.198 569.706,501.896 569.206,502.938C568.706,503.98 568.603,503.367 568.5,502.754" style="fill:none;stroke:rgb(127,127,127);stroke-width:1.33px;"/>
        <path d="M494.5,401.5C493.593,399.719 492.687,397.098 490.874,395.452C489.06,393.805 492.183,394.78 483.621,391.621C475.059,388.462 456.809,382.367 439.03,376.386" style="fill:none;stroke:rgb(127,127,127);stroke-width:1.33px;"/>
        <path d="M439.242,376.5C438.537,375.927 438.302,376.009 438.678,372.175C439.054,368.342 440.23,360.855 441.5,353.5" style="fill:none;stroke:rgb(127,127,127);stroke-width:1.33px;"/>
        <path d="M428.5,370.5C430.153,367.669 431.806,364.839 434.054,362.008C436.302,359.178 436.93,357.189 441.988,353.516C447.045,349.843 458.649,343.306 464.401,339.97C470.153,336.634 473.327,335.067 476.5,333.5" style="fill:none;stroke:rgb(127,127,127);stroke-width:1.33px;"/>
        <g transform="matrix(1.02185,0,0,1,-10.4128,0)">
            <path d="M476.17,333.5L486.658,334.5L573.5,333.5" style="fill:none;stroke:rgb(127,127,127);stroke-width:1.33px;"/>
        </g>
        <path d="M428.708,370.5C427.604,375.061 426.5,379.623 426.5,383.495C426.5,387.367 427.27,391.239 428.708,393.733C430.147,396.227 430.716,396.687 435.132,398.459C439.548,400.231 447.645,402.692 455.206,404.365C462.768,406.039 470.634,408.27 479.5,409.5" style="fill:none;stroke:rgb(127,127,127);stroke-width:1.33px;"/>
        <path d="M479.5,409.5C482.521,408.526 485.542,407.551 488.042,406.218C490.092,405.125 494.5,400.796 494.5,400.796" style="fill:none;stroke:rgb(127,127,127);stroke-width:1.33px;"/>
        <g transform="matrix(1,0,0,1,9.00687,-24.9029)">
            <path d="M648.488,420.014C648.488,420.014 483.606,420.093 481.716,419.953" style="fill:none;stroke:rgb(127,127,127);stroke-width:1.33px;"/>
        </g>
        <path d="M485.5,447.95C484.25,445.704 479.917,411.254 479.5,409.5" style="fill:none;stroke:rgb(127,127,127);stroke-width:1.33px;"/>
        <g transform="matrix(-1,-8.74228e-08,-8.74228e-08,1,726.5,291.5)">
            <path d="M24.411,193C18.679,189.723 12.947,186.446 9.215,180.561C5.483,174.676 3.55,166.317 2.017,157.69C0.484,149.063 -0.115,138.865 0.018,128.8C0.151,118.736 1.384,106.866 2.817,97.303C4.25,87.739 6.483,77.04 8.615,71.422C10.748,65.805 9.082,68.948 12.014,62.394C14.947,55.84 24.377,46.11 32.208,35.711C40.039,25.312 50.269,11.837 59,0" style="fill:none;stroke:rgb(127,127,127);stroke-width:1.33px;"/>
        </g>
        <g transform="matrix(-1,-8.74228e-08,-8.74228e-08,1,667.5,248.5)">
            <path d="M-0,43C4.507,33.218 9.014,24.435 12.174,18.716C15.334,12.998 16.299,11.894 18.96,9.686C21.621,7.479 22.718,6.743 28.14,5.472C33.562,4.202 43.807,2.931 51.49,2.061C59.174,1.192 67.157,0.59 74.242,0.255C81.327,-0.079 88.745,-0.012 94,0.055" style="fill:none;stroke:rgb(127,127,127);stroke-width:1.33px;"/>
        </g>
        <g transform="matrix(-1,-8.74228e-08,-8.74228e-08,1,652.317,285.732)">
            <path d="M76.394,9L42.688,8.804C33.146,8.511 24.801,7.761 18.751,7.239C12.7,6.717 9.309,6.293 6.383,5.674C3.458,5.054 2.261,4.467 1.197,3.522C0.133,2.576 0.066,1.288 0,0" style="fill:none;stroke:rgb(127,127,127);stroke-width:1.33px;"/>
        </g>
        <g transform="matrix(-1,-8.74228e-08,-8.74228e-08,1,652.317,264.732)">
            <path d="M6,0C4,4.383 2,8.733 1,12.4C0,16.067 0,19.117 0,22" style="fill:none;stroke:rgb(127,127,127);stroke-width:1.33px;"/>
        </g>
        <g transform="matrix(-1,-8.74228e-08,-8.74228e-08,1,646.317,255.732)">
            <path d="M-0,9C0.35,8.19 2.843,5.935 4.4,5.319C7.267,4.184 9.767,3.972 17.2,3.191C24.633,2.411 40.033,1.17 49,0.638C57.967,0.106 64.483,0.053 71,0" style="fill:none;stroke:rgb(127,127,127);stroke-width:1.33px;"/>
        </g>
        <g transform="matrix(-1,-8.74228e-08,-8.74228e-08,1,701.5,483.5)">
            <path d="M-1.013,0.911L6.385,-0.529" style="fill:none;stroke:rgb(127,127,127);stroke-width:1.33px;"/>
        </g>
        <g transform="matrix(-1,-8.74228e-08,-8.74228e-08,1,696.5,483.5)">
            <path d="M24,15C16.443,13.116 8.886,11.233 5.168,10.069C1.449,8.904 2.541,8.836 1.688,8.014C0.835,7.192 0.255,6.096 0.05,5.137C-0.155,4.178 0.323,3.116 0.46,2.26C0.596,1.404 0.733,0.702 0.869,0" style="fill:none;stroke:rgb(127,127,127);stroke-width:1.33px;"/>
        </g>
        <g transform="matrix(-1,-8.74228e-08,-8.74228e-08,1,672.5,485.5)">
            <path d="M12.009,-0.548C10.894,4.141 9.672,9.614 8.459,11.941C7.246,14.269 6.115,13.67 4.721,13.965C3.522,14.219 1.32,13.371 -0.074,13" style="fill:none;stroke:rgb(127,127,127);stroke-width:1.33px;"/>
        </g>
        <g transform="matrix(-1,-8.74228e-08,-8.74228e-08,1,661.056,484.609)">
            <path d="M0.441,0.583C1.028,-0.196 1.978,-0.194 2.563,0.588C2.803,0.91 2.954,1.331 2.991,1.782" style="fill:none;stroke:rgb(127,127,127);stroke-width:1.33px;"/>
        </g>
        <g transform="matrix(-1,-8.74228e-08,-8.74228e-08,1,659.5,486.5)">
            <path d="M1.469,-0.391C0.605,2.078 -0.317,4.938 0.115,6.083C0.546,7.227 2.887,6.988 4.614,6.809" style="fill:none;stroke:rgb(127,127,127);stroke-width:1.33px;"/>
        </g>
        <g transform="matrix(-1,-8.74228e-08,-8.74228e-08,1,655.5,493.5)">
            <path d="M7,5C5.2,3.827 2.567,2.5 1.4,1.667C0.233,0.833 0.2,0.432 0,0" style="fill:none;stroke:rgb(127,127,127);stroke-width:1.33px;"/>
        </g>
        <g transform="matrix(-1,-8.74228e-08,-8.74228e-08,1,649.5,495.5)">
            <path d="M0.366,3C2.209,2.033 3.848,0.786 6.015,0.31C8.182,-0.166 10.729,-0.126 13.154,0" style="fill:none;stroke:rgb(127,127,127);stroke-width:1.33px;"/>
        </g>
        <g transform="matrix(-1,-8.74228e-08,-8.74228e-08,1,636.5,495.5)">
            <path d="M53.654,1.438L0,0" style="fill:none;stroke:rgb(127,127,127);stroke-width:1.33px;"/>
        </g>
        <g transform="matrix(-1,-8.74228e-08,-8.74228e-08,1,583.5,496.5)">
            <path d="M0,0C1,2.299 2.133,4.598 2.8,5.765C3.467,6.931 3.4,6.966 4,7" style="fill:none;stroke:rgb(127,127,127);stroke-width:1.33px;"/>
        </g>
        <g transform="matrix(-1,-8.74228e-08,-8.74228e-08,1,579.5,496.5)">
            <path d="M3,0C2.103,2.698 1.206,5.395 0.706,6.438C0.206,7.48 0.103,6.867 0,6.254" style="fill:none;stroke:rgb(127,127,127);stroke-width:1.33px;"/>
        </g>
        <g transform="matrix(-1,-8.74228e-08,-8.74228e-08,1,576.567,496.5)">
            <path d="M-0.577,0.438L5.642,0.438" style="fill:none;stroke:rgb(127,127,127);stroke-width:1.33px;"/>
        </g>
        <g transform="matrix(-1,-8.74228e-08,-8.74228e-08,1,708.5,376.5)">
            <path d="M55,25.824C54.093,24.043 53.187,20.598 51.374,18.952C49.56,17.305 52.683,18.28 44.121,15.121C35.559,11.962 17.779,5.981 0,0" style="fill:none;stroke:rgb(127,127,127);stroke-width:1.33px;"/>
        </g>
        <g transform="matrix(-1,-8.74228e-08,-8.74228e-08,1,708.5,353.5)">
            <path d="M0.742,23C0.037,22.427 -0.198,22.509 0.178,18.675C0.554,14.842 1.73,7.355 3,0" style="fill:none;stroke:rgb(127,127,127);stroke-width:1.33px;"/>
        </g>
        <g transform="matrix(-1,-8.74228e-08,-8.74228e-08,1,719.5,333.5)">
            <path d="M0,37C1.687,34.169 3.375,31.339 5.669,28.508C7.964,25.678 8.605,23.689 13.769,20.016C18.932,16.343 30.777,9.806 36.649,6.47C42.521,3.134 45.76,1.567 49,0" style="fill:none;stroke:rgb(127,127,127);stroke-width:1.33px;"/>
        </g>
        <g transform="matrix(-1,-8.74228e-08,-8.74228e-08,1,671.5,333.5)">
            <path d="M0.623,-0L10.158,1L97,0" style="fill:none;stroke:rgb(127,127,127);stroke-width:1.33px;"/>
        </g>
        <g transform="matrix(-1,-8.74228e-08,-8.74228e-08,1,721.5,370.5)">
            <path d="M2.208,0C1.104,4.561 0,9.123 0,12.995C0,16.867 0.77,20.739 2.208,23.233C3.647,25.727 4.216,26.187 8.632,27.959C13.048,29.731 21.145,32.192 28.706,33.865C36.268,35.539 45.134,37.77 54,39" style="fill:none;stroke:rgb(127,127,127);stroke-width:1.33px;"/>
        </g>
        <g transform="matrix(-1,-8.74228e-08,-8.74228e-08,1,667.5,401.5)">
            <path d="M-0,8C2.819,7.026 5.639,6.051 7.972,4.718C10.306,3.385 14,0 14,0" style="fill:none;stroke:rgb(127,127,127);stroke-width:1.33px;"/>
        </g>
        <g transform="matrix(-1,-8.74228e-08,-8.74228e-08,1,661.5,447.95)">
            <path d="M88,3L36.27,2.118C21.604,1.618 10.262,0.45 -0.54,-0.359" style="fill:none;stroke:rgb(127,127,127);stroke-width:1.33px;"/>
        </g>
        <g transform="matrix(1,-8.74228e-08,8.74228e-08,1,485.5,447.95)">
            <path d="M88,3L36.27,2.118C21.604,1.618 10.262,0.45 -0.54,-0.359" style="fill:none;stroke:rgb(127,127,127);stroke-width:1.33px;"/>
        </g>
        <g transform="matrix(-1,-8.74228e-08,-8.74228e-08,1,667.5,409.5)">
            <path d="M6,38.45C5,36.204 0.333,1.754 0,0" style="fill:none;stroke:rgb(127,127,127);stroke-width:1.33px;"/>
        </g>
        <g transform="matrix(1,0,0,1,1.62917,40.2158)">
            <path d="M523.5,424.5L623.5,425.5" style="fill:none;stroke:rgb(127,127,127);stroke-width:1.33px;"/>
        </g>
        <g transform="matrix(1,0,0,1,1.62917,40.2158)">
            <path d="M524.5,446.5L622.5,445.5" style="fill:none;stroke:rgb(127,127,127);stroke-width:1.33px;"/>
        </g>
        <g transform="matrix(1,0,0,1,1.62917,40.2158)">
            <path d="M622.5,446.164L623.5,424.832" style="fill:none;stroke:rgb(127,127,127);stroke-width:1.33px;"/>
        </g>
        <g transform="matrix(1,0,0,1,1.62917,40.2158)">
            <path d="M524.5,447.189L523.5,423.937" style="fill:none;stroke:rgb(127,127,127);stroke-width:1.33px;"/>
        </g>
        <g id="Coordinate-system" serif:id="Coordinate system" transform="matrix(1,0,0,1,-261.867,101.671)">
            <g transform="matrix(-1,1.0092e-23,4.216e-22,1,1183.15,234.72)">
                <g id="double-arrow-blue" serif:id="double arrow blue">
                    <g>
                        <path d="M344.78,90.331L347.78,84.331L350.78,90.331L344.78,90.331Z" style="fill:rgb(0,113,180);"/>
                        <path d="M347.78,114.559L347.78,89.131" style="fill:none;stroke:rgb(0,113,180);stroke-width:2px;stroke-linejoin:round;stroke-miterlimit:1.5;"/>
                    </g>
                </g>
            </g>
            <g transform="matrix(-0.999655,0.0262246,0.0262247,0.999656,1180.67,221.657)">
                <g id="double-arrow-blue1" serif:id="double arrow blue">
                    <g>
                        <g transform="matrix(0.948921,0.315514,-0.315514,0.948921,54.6995,-99.4005)">
                            <path d="M326.808,124.791L320.144,124.024L324.756,119.153L326.808,124.791Z" style="fill:rgb(0,113,180);"/>
                        </g>
                        <g transform="matrix(0.948921,0.315514,-0.315514,0.948921,54.6995,-99.4005)">
                            <path d="M348.55,113.685C348.55,113.685 332.667,119.466 324.654,122.383" style="fill:none;stroke:rgb(0,113,180);stroke-width:2px;stroke-linejoin:round;stroke-miterlimit:1.5;"/>
                        </g>
                    </g>
                </g>
            </g>
            <g transform="matrix(0.707107,-0.707107,-0.707107,-0.707107,662.829,685.643)">
                <g>
                    <g transform="matrix(1,0,0,1,7.80279,0.985386)">
                        <path d="M371.697,114.592L377.178,118.459L370.796,120.524L371.697,114.592Z" style="fill:rgb(0,113,180);"/>
                    </g>
                    <path d="M359.848,115.843L379.091,118.534" style="fill:none;stroke:rgb(0,113,180);stroke-width:2px;stroke-linejoin:round;stroke-miterlimit:1.5;"/>
                </g>
            </g>
            <g transform="matrix(1,0,0,1,851.713,332.613)">
                <text x="0px" y="0px" style="font-family:'TimesNewRomanPS-BoldMT', 'Times New Roman';font-weight:700;font-size:16px;fill:rgb(0,113,180);">x</text>
            </g>
            <g transform="matrix(1.11514,0,0,1.11514,861.05,360.371)">
                <text x="0px" y="0px" style="font-family:'TimesNewRomanPS-BoldMT', 'Times New Roman';font-weight:700;font-size:14.348px;fill:rgb(0,113,180);">z</text>
            </g>
            <g transform="matrix(1,0,0,1,826.473,320.976)">
                <text x="0px" y="0px" style="font-family:'TimesNewRomanPS-BoldMT', 'Times New Roman';font-weight:700;font-size:16px;fill:rgb(0,113,180);">y</text>
            </g>
            <g transform="matrix(1.12889,0,0,1.12889,822.45,361.971)">
                <text x="0px" y="0px" style="font-family:'TimesNewRomanPS-BoldMT', 'Times New Roman';font-weight:700;font-size:14.173px;fill:rgb(0,113,180);">O</text>
            </g>
        </g>
    </g>
</svg>
