<?xml version="1.0" encoding="UTF-8" standalone="no"?><!DOCTYPE svg PUBLIC "-//W3C//DTD SVG 1.1//EN" "http://www.w3.org/Graphics/SVG/1.1/DTD/svg11.dtd"><svg width="100%" height="100%" viewBox="0 0 1955 834" version="1.1" xmlns="http://www.w3.org/2000/svg" xmlns:xlink="http://www.w3.org/1999/xlink" xml:space="preserve" xmlns:serif="http://www.serif.com/" style="fill-rule:evenodd;clip-rule:evenodd;stroke-linejoin:round;stroke-miterlimit:1.5;"><g><g id="Road"><g id="Street"><path d="M970.228,487.512l266.551,-1.469l696.331,347.363l-1904.22,-0l941.337,-345.894Z" style="fill:#c8c8c8;"/><path d="M966.759,487.104l11.467,-0.408l-935.256,346.669l-43.133,0.367l966.922,-346.628Z" style="fill:#fff;"/><path d="M1238.74,487.104l-8.488,-0.408l671.194,346.71l52.559,0.326l-715.265,-346.628Z" style="fill:#fff;"/><path d="M943.254,724.12l24.199,-0.408l-67.862,109.285l-31.381,0.735l75.044,-109.612Z" style="fill:#fff;"/><path d="M1070.42,541.372l11.711,-0.204l-32.809,52.562l-15.18,0.326l36.278,-52.684Z" style="fill:#fff;"/><path d="M1012.85,622.249l17.129,-0.266l-43.819,68.375l-22.202,0.425l48.892,-68.534Z" style="fill:#fff;"/><path d="M1103.5,491.715l6.611,-0.122l-18.526,29.831l-8.57,0.204l20.485,-29.913Z" style="fill:#fff;"/><path d="M1280.52,512.389l25.284,9.239l-215.759,-0l6.517,-9.239l183.958,0Z" style="fill:#fff;"/></g><g id="Vegetation"><g><path d="M309.053,645.379c32.658,-20.656 14.804,-193.787 14.804,-193.787l39.194,-0.57c0,-0 -3.689,190.751 14.537,193.777c4.224,0.701 -69.063,0.914 -68.535,0.58Z" style="fill:#b3784e;"/><ellipse cx="343.407" cy="340.775" rx="96.83" ry="120.401" style="fill:#86b6ac;"/></g><path d="M460.561,606.252c-65.754,-4.636 -78.369,-68.877 -28.68,-74.215c14.585,-1.567 18.028,-31.381 28.517,-43.041c18.032,-20.043 26.353,-20.216 35.316,-21.127c10.733,-1.09 57.015,18.136 59.792,28.433c5.038,18.678 7.162,21.365 27.351,27.848c30.857,9.908 39.118,33.358 33.171,49.449c-9.194,24.877 -48.061,33.406 -42.303,34.361c4.224,0.701 -112.54,-1.664 -113.164,-1.708Z" style="fill:#86b6ac;"/><path d="M96.878,716.531c-74.661,-5.634 -88.984,-83.712 -32.565,-90.199c16.56,-1.904 20.47,-38.14 32.38,-52.312c20.475,-24.359 29.923,-24.569 40.099,-25.676c12.187,-1.326 80.301,17.64 83.455,30.156c5.72,22.7 11.793,28.535 34.717,36.414c35.037,12.043 25.192,42.375 18.439,61.931c-10.439,30.235 -54.571,40.6 -48.033,41.762c4.797,0.852 -127.784,-2.022 -128.492,-2.076Z" style="fill:#86b6ac;"/><g><path d="M663.466,548.168c23.858,-14.697 10.815,-137.874 10.815,-137.874l28.634,-0.406c-0,0 -2.696,135.714 10.619,137.867c3.087,0.498 -50.454,0.65 -50.068,0.413Z" style="fill:#b3784e;"/><ellipse cx="689.021" cy="301.698" rx="71.197" ry="115.414" style="fill:#86b6ac;"/></g><g><path d="M844.811,494.406c20.77,-10.338 9.415,-96.982 9.415,-96.982l24.928,-0.286c-0,0 -2.347,95.463 9.245,96.977c2.687,0.351 -43.924,0.458 -43.588,0.291Z" style="fill:#b3784e;"/><ellipse cx="866.66" cy="341.965" rx="61.585" ry="60.255" style="fill:#86b6ac;"/></g></g><g id="Buildings"><path d="M1553.96,321.74l400.205,-101.366l-0,566.867l-400.403,-175.306l0.198,-290.195Z" style="fill:#edd5bf;"/><path d="M1681.25,501.141l72.715,8.407l0,189.077l-72.715,-31.926l0,-165.558Z" style="fill:#eaeaea;"/><path d="M1584.58,365.026l73.334,-8.841l0.055,97.211l-73.465,-3.074l0.076,-85.296Z" style="fill:#eaeaea;"/><path d="M1810.32,333.406l105.101,-14.841l0.161,148.207l-105.713,-4.574l0.451,-128.792Z" style="fill:#eaeaea;"/><path d="M1297.92,415.226l238.75,-21.034l0.12,213.898l-238.887,-104.282l0.017,-88.582Z" style="fill:#edd5bf;"/><rect x="1536.79" y="394.192" width="16.977" height="213.898" style="fill:#f6cd90;fill-opacity:0.5;"/><path d="M1553.76,321.679l67.355,-96.164l333.048,-137.524l-0,132.383l-400.403,101.305Z" style="fill:#d47f89;"/><path d="M1297.9,416.667l14.58,-27.544l241.284,-52.947l-16.977,58.016l-238.887,22.475Z" style="fill:#d47f89;"/><path d="M1536.79,394.192l16.977,-58.016l-0,58.016l-16.977,-0Z" style="fill:#aa0013;fill-opacity:0.5;"/><path d="M1311.44,431.652l27.403,-0.08l0.455,62.93l-28.049,-9.624l0.191,-53.226Z" style="fill:#eaeaea;"/><path d="M1438.18,472.557l43.394,-0l-0.02,111.788l-43.19,-19.597l-0.184,-92.191Z" style="fill:#eaeaea;"/><path d="M1366.55,431.652l36.407,-0l0.509,81.81l-36.916,-11.01l-0,-70.8Z" style="fill:#eaeaea;"/></g><rect x="734.173" y="391.897" width="242.91" height="1.029" style="fill:#c8c8c8;"/></g><g id="Coordinate-system" serif:id="Coordinate system"><g><g id="arrow-blue" serif:id="arrow blue"><g><path d="M331.52,539.038l12.5,-25l12.5,25l-25,-0Z" style="fill:#0071b4;"/><path d="M344.02,641.658l0,-107.62" style="fill:none;stroke:#0071b4;stroke-width:8.33px;"/></g></g></g><g><g id="arrow-blue1" serif:id="arrow blue"><g><path d="M442.586,629.159l24.967,12.564l-25.032,12.435l0.065,-24.999Z" style="fill:#0071b4;"/><path d="M339.933,641.392l107.62,0.279" style="fill:none;stroke:#0071b4;stroke-width:8.33px;"/></g></g></g><g><g id="arrow-blue2" serif:id="arrow blue"><g><path d="M409.207,597.563l27.887,1.889l-18.244,21.176l-9.643,-23.065Z" style="fill:#0071b4;"/><path d="M345.396,637.79l73.246,-30.623" style="fill:none;stroke:#0071b4;stroke-width:7.32px;"/></g></g></g><g><g transform="matrix(66.6667,0,0,66.6667,453.533,586.135)"></g><text x="420.2px" y="586.135px" style="font-family:'TimesNewRomanPS-BoldMT', 'Times New Roman';font-weight:700;font-size:66.667px;fill:#0071b4;">x</text></g><g><text x="355.837px" y="529.256px" style="font-family:'TimesNewRomanPS-BoldMT', 'Times New Roman';font-weight:700;font-size:66.667px;fill:#0071b4;">z</text></g><g><g transform="matrix(66.6667,0,0,66.6667,500.333,649.683)"></g><text x="467px" y="649.683px" style="font-family:'TimesNewRomanPS-BoldMT', 'Times New Roman';font-weight:700;font-size:66.667px;fill:#0071b4;">y</text></g><g><text x="317.979px" y="700.006px" style="font-family:'TimesNewRomanPS-BoldMT', 'Times New Roman';font-weight:700;font-size:66.666px;fill:#0071b4;">O</text></g></g><g id="Coordinate-system1" serif:id="Coordinate system"><g><g id="arrow-blue3" serif:id="arrow blue"><g><path d="M1764.92,560.587l12.5,-25l12.5,25l-25,0Z" style="fill:#0071b4;"/><path d="M1777.42,663.208l-0,-107.621" style="fill:none;stroke:#0071b4;stroke-width:8.33px;"/></g></g></g><g><g id="arrow-blue4" serif:id="arrow blue"><g><path d="M1875.98,650.708l24.968,12.565l-25.033,12.435l0.065,-25Z" style="fill:#0071b4;"/><path d="M1773.33,662.942l107.621,0.279" style="fill:none;stroke:#0071b4;stroke-width:8.33px;"/></g></g></g><g><g id="arrow-blue5" serif:id="arrow blue"><g><path d="M1701.38,647.142l-18.387,-21.051l27.873,-2.08l-9.486,23.131Z" style="fill:#0071b4;"/><path d="M1774.95,663.802l-73.453,-30.123" style="fill:none;stroke:#0071b4;stroke-width:7.32px;"/></g></g></g><g><g transform="matrix(66.6667,0,0,66.6667,1702.73,614.181)"></g><text x="1669.4px" y="614.181px" style="font-family:'TimesNewRomanPS-BoldMT', 'Times New Roman';font-weight:700;font-size:66.667px;fill:#0071b4;">x</text></g><g><text x="1789.23px" y="550.806px" style="font-family:'TimesNewRomanPS-BoldMT', 'Times New Roman';font-weight:700;font-size:66.667px;fill:#0071b4;">z</text></g><g><g transform="matrix(66.6667,0,0,66.6667,1933.73,671.232)"></g><text x="1900.39px" y="671.232px" style="font-family:'TimesNewRomanPS-BoldMT', 'Times New Roman';font-weight:700;font-size:66.667px;fill:#0071b4;">y</text></g><g><text x="1751.38px" y="723.579px" style="font-family:'TimesNewRomanPS-BoldMT', 'Times New Roman';font-weight:700;font-size:66.666px;fill:#0071b4;">O</text></g></g><g id="Coordinate-system2" serif:id="Coordinate system"><g><g id="arrow-blue6" serif:id="arrow blue"><g><path d="M1409.04,424.152l12.5,-25l12.5,25l-25,-0Z" style="fill:#0071b4;"/><path d="M1421.54,526.772l-0,-107.62" style="fill:none;stroke:#0071b4;stroke-width:8.33px;"/></g></g></g><g><g id="arrow-blue7" serif:id="arrow blue"><g><path d="M1520.1,514.273l24.967,12.564l-25.032,12.435l0.065,-24.999Z" style="fill:#0071b4;"/><path d="M1417.45,526.506l107.62,0.279" style="fill:none;stroke:#0071b4;stroke-width:8.33px;"/></g></g></g><g><g id="arrow-blue8" serif:id="arrow blue"><g><path d="M1345.5,510.706l-18.388,-21.051l27.874,-2.08l-9.486,23.131Z" style="fill:#0071b4;"/><path d="M1419.07,527.366l-73.453,-30.123" style="fill:none;stroke:#0071b4;stroke-width:7.32px;"/></g></g></g><g><g transform="matrix(66.6667,0,0,66.6667,1346.85,477.745)"></g><text x="1313.52px" y="477.745px" style="font-family:'TimesNewRomanPS-BoldMT', 'Times New Roman';font-weight:700;font-size:66.667px;fill:#0071b4;">x</text></g><g><text x="1433.35px" y="414.37px" style="font-family:'TimesNewRomanPS-BoldMT', 'Times New Roman';font-weight:700;font-size:66.667px;fill:#0071b4;">z</text></g><g><g transform="matrix(66.6667,0,0,66.6667,1577.85,534.797)"></g><text x="1544.52px" y="534.797px" style="font-family:'TimesNewRomanPS-BoldMT', 'Times New Roman';font-weight:700;font-size:66.667px;fill:#0071b4;">y</text></g><g><text x="1395.49px" y="587.143px" style="font-family:'TimesNewRomanPS-BoldMT', 'Times New Roman';font-weight:700;font-size:66.666px;fill:#0071b4;">O</text></g></g><g id="cardinal-direction" serif:id="cardinal direction"><g><g><path d="M70.47,169.361l30.046,-60.663l25.318,21.707l-55.364,38.956Z" style="fill:#eaeaea;"/><path d="M70.47,169.361l30.046,-60.663l25.318,21.707l-55.364,38.956Zm11.01,-12.842l37.574,-26.439l-17.183,-14.732l-20.391,41.171Z" style="fill:#7f7f7f;"/><path d="M155.88,69.741l-30.046,60.664l-25.318,-21.707l55.364,-38.957Z" style="fill:#7f7f7f;"/><path d="M155.88,69.741l-30.046,60.664l-25.318,-21.707l55.364,-38.957Zm-11.01,12.842l-37.574,26.439l17.182,14.732l20.392,-41.171Z" style="fill:#7f7f7f;"/></g><path d="M157.536,47.967c39.446,24.544 51.544,76.496 27,115.941c-24.544,39.446 -76.496,51.544 -115.941,26.999c-39.446,-24.544 -51.544,-76.495 -27,-115.941c24.544,-39.445 76.496,-51.543 115.941,-26.999Zm-9.905,15.92c-30.66,-19.077 -71.039,-9.674 -90.116,20.985c-19.077,30.659 -9.674,71.039 20.985,90.116c30.66,19.077 71.039,9.673 90.116,-20.986c19.077,-30.659 9.674,-71.038 -20.985,-90.115Z" style="fill:#7f7f7f;"/></g><g transform="matrix(-1,-8.13284e-17,1.62657e-16,-0.999996,509.304,44.04)"><g transform="matrix(66.6669,0,0,66.6669,317.533,22.02)"></g><text x="269.389px" y="22.02px" style="font-family:'ArialMT', 'Arial';font-size:66.667px;fill:#7f7f7f;">N</text></g></g></g></svg>