{
	"asset":{
		"generator":"Khronos glTF Blender I/O v4.3.47",
		"version":"2.0"
	},
	"scene":0,
	"scenes":[
		{
			"name":"Scene",
			"nodes":[
				26
			]
		}
	],
	"nodes":[
		{
			"mesh":0,
			"name":"GN Instance.18564",
			"rotation":[
				0,
				-0.6546668410301208,
				0,
				0.7559175491333008
			],
			"scale":[
				0.4000001549720764,
				0.40000003576278687,
				0.4000001549720764
			],
			"translation":[
				-68.18473815917969,
				0.6220909357070923,
				10.469253540039062
			]
		},
		{
			"mesh":1,
			"name":"GN Instance.18565",
			"rotation":[
				0,
				-0.2913224399089813,
				0,
				0.9566249251365662
			],
			"scale":[
				0.4000000059604645,
				0.40000003576278687,
				0.4000000059604645
			],
			"translation":[
				26.884624481201172,
				0.6220909357070923,
				10.987095832824707
			]
		},
		{
			"mesh":1,
			"name":"GN Instance.18566",
			"rotation":[
				0,
				0.7584331631660461,
				0,
				0.6517508029937744
			],
			"scale":[
				0.40000003576278687,
				0.40000003576278687,
				0.40000003576278687
			],
			"translation":[
				-49.53065872192383,
				0.6220909357070923,
				6.088070869445801
			]
		},
		{
			"mesh":1,
			"name":"GN Instance.18567",
			"rotation":[
				0,
				0.9140791893005371,
				0,
				0.4055356979370117
			],
			"scale":[
				0.40000003576278687,
				0.40000003576278687,
				0.40000003576278687
			],
			"translation":[
				10.435462951660156,
				0.6220909357070923,
				-12.395503997802734
			]
		},
		{
			"mesh":1,
			"name":"GN Instance.18568",
			"rotation":[
				0,
				-0.3190286457538605,
				0,
				0.9477450847625732
			],
			"scale":[
				0.40000006556510925,
				0.40000003576278687,
				0.40000006556510925
			],
			"translation":[
				-7.8567681312561035,
				0.6220908761024475,
				-14.035470962524414
			]
		},
		{
			"mesh":2,
			"name":"GN Instance.18569",
			"rotation":[
				0,
				-0.05837853252887726,
				0,
				0.9982945322990417
			],
			"scale":[
				0.40000006556510925,
				0.40000003576278687,
				0.40000006556510925
			],
			"translation":[
				-11.789985656738281,
				0.6220909357070923,
				7.826836585998535
			]
		},
		{
			"mesh":0,
			"name":"GN Instance.18570",
			"rotation":[
				0,
				0.438101202249527,
				0,
				0.8989256620407104
			],
			"scale":[
				0.4000000059604645,
				0.40000003576278687,
				0.4000000059604645
			],
			"translation":[
				7.895419597625732,
				0.6220909357070923,
				9.551949501037598
			]
		},
		{
			"mesh":2,
			"name":"GN Instance.18571",
			"rotation":[
				0,
				0.4683856666088104,
				0,
				0.8835241198539734
			],
			"scale":[
				0.40000006556510925,
				0.40000003576278687,
				0.40000006556510925
			],
			"translation":[
				-26.572669982910156,
				0.6220909357070923,
				-15.0130615234375
			]
		},
		{
			"mesh":1,
			"name":"GN Instance.18572",
			"rotation":[
				0,
				0.1626114845275879,
				0,
				0.9866902828216553
			],
			"scale":[
				0.40000006556510925,
				0.40000003576278687,
				0.40000006556510925
			],
			"translation":[
				-45.53807830810547,
				0.6220909953117371,
				-15.849760055541992
			]
		},
		{
			"mesh":2,
			"name":"GN Instance.18573",
			"rotation":[
				0,
				-0.2518920302391052,
				0,
				0.9677553772926331
			],
			"scale":[
				0.40000009536743164,
				0.40000003576278687,
				0.40000009536743164
			],
			"translation":[
				-29.95677947998047,
				0.6220909357070923,
				5.554127216339111
			]
		},
		{
			"mesh":2,
			"name":"GN Instance.18574",
			"rotation":[
				0,
				-0.7816261649131775,
				0,
				0.6237471699714661
			],
			"scale":[
				0.40000003576278687,
				0.40000003576278687,
				0.40000003576278687
			],
			"translation":[
				29.090574264526367,
				0.6220909357070923,
				-10.280449867248535
			]
		},
		{
			"mesh":2,
			"name":"GN Instance.18575",
			"rotation":[
				0,
				-0.01217851135879755,
				0,
				0.9999258518218994
			],
			"scale":[
				0.3999999463558197,
				0.40000003576278687,
				0.3999999463558197
			],
			"translation":[
				-67.21586608886719,
				0.6220909357070923,
				-13.097126007080078
			]
		},
		{
			"children":[
				0,
				1,
				2,
				3,
				4,
				5,
				6,
				7,
				8,
				9,
				10,
				11
			],
			"name":"Grp_Vegetation"
		},
		{
			"children":[
				12
			],
			"name":"Grp_Environment_Objects"
		},
		{
			"mesh":3,
			"name":"Road"
		},
		{
			"children":[
				14
			],
			"name":"Grp_Drivable_Area"
		},
		{
			"mesh":4,
			"name":"Road_Marking"
		},
		{
			"children":[
				16
			],
			"name":"Grp_Road_Marks"
		},
		{
			"mesh":5,
			"name":"GN Instance.18576",
			"rotation":[
				0.7059851884841919,
				0.03981182351708412,
				-0.03981181979179382,
				0.7059851288795471
			],
			"translation":[
				-50.95699691772461,
				0,
				-0.9134058952331543
			]
		},
		{
			"mesh":5,
			"name":"GN Instance.18577",
			"rotation":[
				0.039811871945858,
				-0.7059852480888367,
				0.7059850692749023,
				0.039811864495277405
			],
			"translation":[
				-51.85640335083008,
				0,
				-8.862686157226562
			]
		},
		{
			"mesh":5,
			"name":"GN Instance.18578",
			"rotation":[
				0.7064657211303711,
				-0.03010379709303379,
				0.03010379895567894,
				0.7064656615257263
			],
			"translation":[
				-1.8886741399765015,
				0,
				1.2621257305145264
			]
		},
		{
			"mesh":5,
			"name":"GN Instance.18579",
			"rotation":[
				0.030103785917162895,
				0.7064656019210815,
				-0.7064657807350159,
				0.0301037784665823
			],
			"translation":[
				-1.2081209421157837,
				0,
				-6.708874702453613
			]
		},
		{
			"children":[
				18,
				19,
				20,
				21
			],
			"name":"Grp_Road_Objects"
		},
		{
			"children":[
				15,
				17,
				22
			],
			"name":"Grp_Road_Network"
		},
		{
			"mesh":6,
			"name":"SideRoad"
		},
		{
			"children":[
				24
			],
			"name":"Grp_Terrain"
		},
		{
			"children":[
				13,
				23,
				25
			],
			"name":"Grp_Root"
		}
	],
	"materials":[
		{
			"doubleSided":true,
			"name":"Wood_Bark",
			"pbrMetallicRoughness":{
				"baseColorTexture":{
					"index":0
				},
				"metallicFactor":0,
				"metallicRoughnessTexture":{
					"index":1
				}
			}
		},
		{
			"doubleSided":true,
			"name":"Leaves",
			"pbrMetallicRoughness":{
				"baseColorTexture":{
					"index":2
				},
				"metallicFactor":0,
				"roughnessFactor":0.800000011920929
			}
		},
		{
			"doubleSided":true,
			"name":"Road_Asphalt",
			"pbrMetallicRoughness":{
				"baseColorTexture":{
					"index":3
				},
				"metallicFactor":0,
				"metallicRoughnessTexture":{
					"index":4
				}
			}
		},
		{
			"doubleSided":true,
			"name":"Road_Mark_White",
			"pbrMetallicRoughness":{
				"baseColorFactor":[
					0.8999999761581421,
					0.8999999761581421,
					0.8999999761581421,
					1
				],
				"metallicFactor":0,
				"metallicRoughnessTexture":{
					"index":5
				}
			}
		},
		{
			"doubleSided":true,
			"name":"Guardpost_White",
			"pbrMetallicRoughness":{
				"baseColorFactor":[
					0.800000011920929,
					0.800000011920929,
					0.800000011920929,
					1
				],
				"metallicFactor":0,
				"roughnessFactor":0.5
			}
		},
		{
			"doubleSided":true,
			"name":"Guardpost_Black",
			"pbrMetallicRoughness":{
				"baseColorFactor":[
					0.02413414791226387,
					0.02413414791226387,
					0.02413414791226387,
					1
				],
				"metallicFactor":0,
				"roughnessFactor":0.5
			}
		},
		{
			"doubleSided":true,
			"name":"Reflective_Paint_White",
			"pbrMetallicRoughness":{
				"metallicFactor":0,
				"roughnessFactor":0.5
			}
		},
		{
			"doubleSided":true,
			"name":"Grass",
			"pbrMetallicRoughness":{
				"baseColorTexture":{
					"index":6
				},
				"metallicFactor":0
			}
		}
	],
	"meshes":[
		{
			"name":"Tree_03",
			"primitives":[
				{
					"attributes":{
						"POSITION":0,
						"NORMAL":1,
						"TEXCOORD_0":2
					},
					"indices":3,
					"material":0
				},
				{
					"attributes":{
						"POSITION":4,
						"NORMAL":5,
						"TEXCOORD_0":6
					},
					"indices":7,
					"material":1
				}
			]
		},
		{
			"name":"Tree_02",
			"primitives":[
				{
					"attributes":{
						"POSITION":8,
						"NORMAL":9,
						"TEXCOORD_0":10
					},
					"indices":11,
					"material":0
				},
				{
					"attributes":{
						"POSITION":12,
						"NORMAL":13,
						"TEXCOORD_0":14
					},
					"indices":15,
					"material":1
				}
			]
		},
		{
			"name":"Tree_01",
			"primitives":[
				{
					"attributes":{
						"POSITION":16,
						"NORMAL":17,
						"TEXCOORD_0":18
					},
					"indices":19,
					"material":0
				},
				{
					"attributes":{
						"POSITION":20,
						"NORMAL":21,
						"TEXCOORD_0":22
					},
					"indices":23,
					"material":1
				}
			]
		},
		{
			"name":"Road",
			"primitives":[
				{
					"attributes":{
						"POSITION":24,
						"NORMAL":25,
						"TEXCOORD_0":26
					},
					"indices":27,
					"material":2
				}
			]
		},
		{
			"name":"Road_Marking",
			"primitives":[
				{
					"attributes":{
						"POSITION":28,
						"NORMAL":29,
						"TEXCOORD_0":30
					},
					"indices":31,
					"material":3
				}
			]
		},
		{
			"name":"GuardPost",
			"primitives":[
				{
					"attributes":{
						"POSITION":32,
						"NORMAL":33,
						"TEXCOORD_0":34
					},
					"indices":35,
					"material":4
				},
				{
					"attributes":{
						"POSITION":36,
						"NORMAL":37,
						"TEXCOORD_0":38
					},
					"indices":39,
					"material":5
				},
				{
					"attributes":{
						"POSITION":40,
						"NORMAL":41,
						"TEXCOORD_0":42
					},
					"indices":43,
					"material":6
				}
			]
		},
		{
			"name":"SideRoad",
			"primitives":[
				{
					"attributes":{
						"POSITION":44,
						"NORMAL":45,
						"TEXCOORD_0":46
					},
					"indices":47,
					"material":7
				}
			]
		}
	],
	"textures":[
		{
			"sampler":0,
			"source":0
		},
		{
			"sampler":0,
			"source":1
		},
		{
			"sampler":0,
			"source":2
		},
		{
			"sampler":0,
			"source":3
		},
		{
			"sampler":0,
			"source":4
		},
		{
			"sampler":0,
			"source":4
		},
		{
			"sampler":0,
			"source":5
		}
	],
	"images":[
		{
			"mimeType":"image/jpeg",
			"name":"bark_diff",
			"uri":"bark_diff.jpg"
		},
		{
			"mimeType":"image/png",
			"name":"bark_rough",
			"uri":"bark_rough.png"
		},
		{
			"mimeType":"image/png",
			"name":"leaves_diff",
			"uri":"leaves_diff.png"
		},
		{
			"mimeType":"image/png",
			"name":"asphalt_diff",
			"uri":"asphalt_diff.png"
		},
		{
			"mimeType":"image/png",
			"name":"asphalt_rough",
			"uri":"asphalt_rough.png"
		},
		{
			"mimeType":"image/png",
			"name":"grass_diff",
			"uri":"grass_diff.png"
		}
	],
	"accessors":[
		{
			"bufferView":0,
			"componentType":5126,
			"count":43742,
			"max":[
				10.112634658813477,
				28.414466857910156,
				7.622773170471191
			],
			"min":[
				-9.806400299072266,
				-0.00024364038836210966,
				-8.180139541625977
			],
			"type":"VEC3"
		},
		{
			"bufferView":1,
			"componentType":5126,
			"count":43742,
			"type":"VEC3"
		},
		{
			"bufferView":2,
			"componentType":5126,
			"count":43742,
			"type":"VEC2"
		},
		{
			"bufferView":3,
			"componentType":5123,
			"count":126378,
			"type":"SCALAR"
		},
		{
			"bufferView":4,
			"componentType":5126,
			"count":79104,
			"max":[
				9.807743072509766,
				28.320953369140625,
				7.193660259246826
			],
			"min":[
				-9.353996276855469,
				5.059439659118652,
				-7.940042495727539
			],
			"type":"VEC3"
		},
		{
			"bufferView":5,
			"componentType":5126,
			"count":79104,
			"type":"VEC3"
		},
		{
			"bufferView":6,
			"componentType":5126,
			"count":79104,
			"type":"VEC2"
		},
		{
			"bufferView":7,
			"componentType":5125,
			"count":177984,
			"type":"SCALAR"
		},
		{
			"bufferView":8,
			"componentType":5126,
			"count":37247,
			"max":[
				7.407143592834473,
				27.18767547607422,
				9.854493141174316
			],
			"min":[
				-8.174432754516602,
				-0.0037007005885243416,
				-9.663362503051758
			],
			"type":"VEC3"
		},
		{
			"bufferView":9,
			"componentType":5126,
			"count":37247,
			"type":"VEC3"
		},
		{
			"bufferView":10,
			"componentType":5126,
			"count":37247,
			"type":"VEC2"
		},
		{
			"bufferView":11,
			"componentType":5123,
			"count":108741,
			"type":"SCALAR"
		},
		{
			"bufferView":12,
			"componentType":5126,
			"count":67848,
			"max":[
				7.364377975463867,
				26.965240478515625,
				9.554967880249023
			],
			"min":[
				-7.903146743774414,
				3.6640868186950684,
				-9.565825462341309
			],
			"type":"VEC3"
		},
		{
			"bufferView":13,
			"componentType":5126,
			"count":67848,
			"type":"VEC3"
		},
		{
			"bufferView":14,
			"componentType":5126,
			"count":67848,
			"type":"VEC2"
		},
		{
			"bufferView":15,
			"componentType":5125,
			"count":152658,
			"type":"SCALAR"
		},
		{
			"bufferView":16,
			"componentType":5126,
			"count":34418,
			"max":[
				7.008673667907715,
				29.246967315673828,
				8.558480262756348
			],
			"min":[
				-8.54020881652832,
				-0.007857793010771275,
				-7.871415138244629
			],
			"type":"VEC3"
		},
		{
			"bufferView":17,
			"componentType":5126,
			"count":34418,
			"type":"VEC3"
		},
		{
			"bufferView":18,
			"componentType":5126,
			"count":34418,
			"type":"VEC2"
		},
		{
			"bufferView":19,
			"componentType":5123,
			"count":105729,
			"type":"SCALAR"
		},
		{
			"bufferView":20,
			"componentType":5126,
			"count":66048,
			"max":[
				6.889725685119629,
				29.385108947753906,
				8.260120391845703
			],
			"min":[
				-8.128247261047363,
				4.466352462768555,
				-7.587165355682373
			],
			"type":"VEC3"
		},
		{
			"bufferView":21,
			"componentType":5126,
			"count":66048,
			"type":"VEC3"
		},
		{
			"bufferView":22,
			"componentType":5126,
			"count":66048,
			"type":"VEC2"
		},
		{
			"bufferView":23,
			"componentType":5125,
			"count":148608,
			"type":"SCALAR"
		},
		{
			"bufferView":24,
			"componentType":5126,
			"count":1269,
			"max":[
				30.383129119873047,
				0,
				4.273892879486084
			],
			"min":[
				-76.95660400390625,
				-0.05060676857829094,
				-9.27329158782959
			],
			"type":"VEC3"
		},
		{
			"bufferView":25,
			"componentType":5126,
			"count":1269,
			"type":"VEC3"
		},
		{
			"bufferView":26,
			"componentType":5126,
			"count":1269,
			"type":"VEC2"
		},
		{
			"bufferView":27,
			"componentType":5123,
			"count":5646,
			"type":"SCALAR"
		},
		{
			"bufferView":28,
			"componentType":5126,
			"count":950,
			"max":[
				30.371219635009766,
				0.002734831999987364,
				4.14231538772583
			],
			"min":[
				-76.90877532958984,
				0,
				-9.133296966552734
			],
			"type":"VEC3"
		},
		{
			"bufferView":29,
			"componentType":5126,
			"count":950,
			"type":"VEC3"
		},
		{
			"bufferView":30,
			"componentType":5126,
			"count":950,
			"type":"VEC2"
		},
		{
			"bufferView":31,
			"componentType":5123,
			"count":3732,
			"type":"SCALAR"
		},
		{
			"bufferView":32,
			"componentType":5126,
			"count":335,
			"max":[
				0.0538153238594532,
				0.06999973207712173,
				2.3960036177328448e-09
			],
			"min":[
				-0.05381454899907112,
				-0.07000016421079636,
				-1.1406718492507935
			],
			"type":"VEC3"
		},
		{
			"bufferView":33,
			"componentType":5126,
			"count":335,
			"type":"VEC3"
		},
		{
			"bufferView":34,
			"componentType":5126,
			"count":335,
			"type":"VEC2"
		},
		{
			"bufferView":35,
			"componentType":5123,
			"count":1083,
			"type":"SCALAR"
		},
		{
			"bufferView":36,
			"componentType":5126,
			"count":186,
			"max":[
				0.05381100997328758,
				0.06999972462654114,
				-0.6406719088554382
			],
			"min":[
				-0.0538102351129055,
				-0.07000014185905457,
				-0.9606718420982361
			],
			"type":"VEC3"
		},
		{
			"bufferView":37,
			"componentType":5126,
			"count":186,
			"type":"VEC3"
		},
		{
			"bufferView":38,
			"componentType":5126,
			"count":186,
			"type":"VEC2"
		},
		{
			"bufferView":39,
			"componentType":5123,
			"count":492,
			"type":"SCALAR"
		},
		{
			"bufferView":40,
			"componentType":5126,
			"count":116,
			"max":[
				0.0488823764026165,
				0.037302516400814056,
				-0.6934688687324524
			],
			"min":[
				-0.04488120228052139,
				-0.02514073997735977,
				-0.9137253165245056
			],
			"type":"VEC3"
		},
		{
			"bufferView":41,
			"componentType":5126,
			"count":116,
			"type":"VEC3"
		},
		{
			"bufferView":42,
			"componentType":5126,
			"count":116,
			"type":"VEC2"
		},
		{
			"bufferView":43,
			"componentType":5123,
			"count":306,
			"type":"SCALAR"
		},
		{
			"bufferView":44,
			"componentType":5126,
			"count":2096,
			"max":[
				32.08969497680664,
				0.6220909357070923,
				23.650842666625977
			],
			"min":[
				-83.81004333496094,
				-0.749802827835083,
				-29.33338737487793
			],
			"type":"VEC3"
		},
		{
			"bufferView":45,
			"componentType":5126,
			"count":2096,
			"type":"VEC3"
		},
		{
			"bufferView":46,
			"componentType":5126,
			"count":2096,
			"type":"VEC2"
		},
		{
			"bufferView":47,
			"componentType":5123,
			"count":11076,
			"type":"SCALAR"
		}
	],
	"bufferViews":[
		{
			"buffer":0,
			"byteLength":524904,
			"byteOffset":0,
			"target":34962
		},
		{
			"buffer":0,
			"byteLength":524904,
			"byteOffset":524904,
			"target":34962
		},
		{
			"buffer":0,
			"byteLength":349936,
			"byteOffset":1049808,
			"target":34962
		},
		{
			"buffer":0,
			"byteLength":252756,
			"byteOffset":1399744,
			"target":34963
		},
		{
			"buffer":0,
			"byteLength":949248,
			"byteOffset":1652500,
			"target":34962
		},
		{
			"buffer":0,
			"byteLength":949248,
			"byteOffset":2601748,
			"target":34962
		},
		{
			"buffer":0,
			"byteLength":632832,
			"byteOffset":3550996,
			"target":34962
		},
		{
			"buffer":0,
			"byteLength":711936,
			"byteOffset":4183828,
			"target":34963
		},
		{
			"buffer":0,
			"byteLength":446964,
			"byteOffset":4895764,
			"target":34962
		},
		{
			"buffer":0,
			"byteLength":446964,
			"byteOffset":5342728,
			"target":34962
		},
		{
			"buffer":0,
			"byteLength":297976,
			"byteOffset":5789692,
			"target":34962
		},
		{
			"buffer":0,
			"byteLength":217482,
			"byteOffset":6087668,
			"target":34963
		},
		{
			"buffer":0,
			"byteLength":814176,
			"byteOffset":6305152,
			"target":34962
		},
		{
			"buffer":0,
			"byteLength":814176,
			"byteOffset":7119328,
			"target":34962
		},
		{
			"buffer":0,
			"byteLength":542784,
			"byteOffset":7933504,
			"target":34962
		},
		{
			"buffer":0,
			"byteLength":610632,
			"byteOffset":8476288,
			"target":34963
		},
		{
			"buffer":0,
			"byteLength":413016,
			"byteOffset":9086920,
			"target":34962
		},
		{
			"buffer":0,
			"byteLength":413016,
			"byteOffset":9499936,
			"target":34962
		},
		{
			"buffer":0,
			"byteLength":275344,
			"byteOffset":9912952,
			"target":34962
		},
		{
			"buffer":0,
			"byteLength":211458,
			"byteOffset":10188296,
			"target":34963
		},
		{
			"buffer":0,
			"byteLength":792576,
			"byteOffset":10399756,
			"target":34962
		},
		{
			"buffer":0,
			"byteLength":792576,
			"byteOffset":11192332,
			"target":34962
		},
		{
			"buffer":0,
			"byteLength":528384,
			"byteOffset":11984908,
			"target":34962
		},
		{
			"buffer":0,
			"byteLength":594432,
			"byteOffset":12513292,
			"target":34963
		},
		{
			"buffer":0,
			"byteLength":15228,
			"byteOffset":13107724,
			"target":34962
		},
		{
			"buffer":0,
			"byteLength":15228,
			"byteOffset":13122952,
			"target":34962
		},
		{
			"buffer":0,
			"byteLength":10152,
			"byteOffset":13138180,
			"target":34962
		},
		{
			"buffer":0,
			"byteLength":11292,
			"byteOffset":13148332,
			"target":34963
		},
		{
			"buffer":0,
			"byteLength":11400,
			"byteOffset":13159624,
			"target":34962
		},
		{
			"buffer":0,
			"byteLength":11400,
			"byteOffset":13171024,
			"target":34962
		},
		{
			"buffer":0,
			"byteLength":7600,
			"byteOffset":13182424,
			"target":34962
		},
		{
			"buffer":0,
			"byteLength":7464,
			"byteOffset":13190024,
			"target":34963
		},
		{
			"buffer":0,
			"byteLength":4020,
			"byteOffset":13197488,
			"target":34962
		},
		{
			"buffer":0,
			"byteLength":4020,
			"byteOffset":13201508,
			"target":34962
		},
		{
			"buffer":0,
			"byteLength":2680,
			"byteOffset":13205528,
			"target":34962
		},
		{
			"buffer":0,
			"byteLength":2166,
			"byteOffset":13208208,
			"target":34963
		},
		{
			"buffer":0,
			"byteLength":2232,
			"byteOffset":13210376,
			"target":34962
		},
		{
			"buffer":0,
			"byteLength":2232,
			"byteOffset":13212608,
			"target":34962
		},
		{
			"buffer":0,
			"byteLength":1488,
			"byteOffset":13214840,
			"target":34962
		},
		{
			"buffer":0,
			"byteLength":984,
			"byteOffset":13216328,
			"target":34963
		},
		{
			"buffer":0,
			"byteLength":1392,
			"byteOffset":13217312,
			"target":34962
		},
		{
			"buffer":0,
			"byteLength":1392,
			"byteOffset":13218704,
			"target":34962
		},
		{
			"buffer":0,
			"byteLength":928,
			"byteOffset":13220096,
			"target":34962
		},
		{
			"buffer":0,
			"byteLength":612,
			"byteOffset":13221024,
			"target":34963
		},
		{
			"buffer":0,
			"byteLength":25152,
			"byteOffset":13221636,
			"target":34962
		},
		{
			"buffer":0,
			"byteLength":25152,
			"byteOffset":13246788,
			"target":34962
		},
		{
			"buffer":0,
			"byteLength":16768,
			"byteOffset":13271940,
			"target":34962
		},
		{
			"buffer":0,
			"byteLength":22152,
			"byteOffset":13288708,
			"target":34963
		}
	],
	"samplers":[
		{
			"magFilter":9729,
			"minFilter":9987
		}
	],
	"buffers":[
		{
			"byteLength":13310860,
			"uri":"environment_example.bin"
		}
	]
}
